<?xml version="1.0" standalone="no"?>
<!DOCTYPE svg PUBLIC "-//W3C//DTD SVG 1.1//EN" "http://www.w3.org/Graphics/SVG/1.1/DTD/svg11.dtd">
<svg xmlns="http://www.w3.org/2000/svg"><metadata>This SVG WebFont was generated by YouWorkForThem.
Copyright  2012 by Eduilson Wessler Coan. All rights reserved.</metadata><defs><font horiz-adv-x="1013" id="ywftsvg"><font-face ascent="1536" bbox="-377.167 -512 2128 2021.57" cap-height="1434" descent="-512" font-family="" font-stretch="normal" font-weight="250" panose-1="0 0 3 0 0 0 0 0 0 0" underline-position="0" underline-thickness="0" unicode-range="U+0020-FB02" units-per-em="2048" x-height="1024"/><missing-glyph horiz-adv-x="512"/><glyph d="M500 999q0 -8 -11 -8l-253 -6v-975q0 -10 -11 -10h-20q-10 0 -10 10v1280q0 117 56 181.5t159 64.5h323q10 0 10 -10v-13q0 -10 -10 -10h-323q-82 0 -128 -55t-46 -158v-266l253 -4q10 0 11 -8v-13zM864 33h45q10 0 11 -10v-13q0 -10 -11 -10h-45q-164 0 -164 184v830 q0 10 11 10h20q10 0 10 -10v-830q0 -151 123 -151z" glyph-name="uniFB01" horiz-adv-x="991" unicode="fi"/><glyph d="M915 33h35q10 0 11 -10v-13q0 -10 -11 -10h-35q-82 0 -128 48t-46 136v1319h-331q-82 0 -128 -55t-46 -158v-266l253 -4q10 0 11 -8v-13q0 -8 -11 -8l-253 -6v-975q0 -10 -11 -10h-20q-10 0 -10 10v1280q0 117 56 181.5t159 64.5h362q10 0 10 -10v-1342q0 -72 35 -111.5 t98 -39.5z" glyph-name="uniFB02" horiz-adv-x="1032" unicode="fl"/><glyph d="M987 1536h137q10 0 11 -10v-13q0 -10 -11 -10h-137q-82 0 -128 -55t-46 -158v-266h254q10 0 10 -10v-15q0 -10 -10 -10h-254v-979q0 -10 -10 -10h-21q-10 0 -10 10v977h-536v-977q0 -10 -11 -10h-20q-10 0 -10 10v1280q0 117 56 181.5t159 64.5h198q10 0 10 -10v-13 q0 -10 -10 -10h-198q-82 0 -128 -55t-46 -158v-266h536v266q0 117 56.5 181.5t158.5 64.5z" glyph-name="f_f.liga" horiz-adv-x="1073" unicode="ff"/><glyph d="M813 1024h254q10 0 10 -8v-21q0 -8 -10 -8h-254v-977q0 -10 -10 -10h-21q-10 0 -10 10v977h-536v-977q0 -10 -11 -10h-20q-10 0 -10 10v1280q0 117 56 181.5t159 64.5h137q10 0 10 -10v-13q0 -10 -10 -10h-137q-82 0 -128 -55t-46 -158v-266h536v266q0 117 56.5 181.5 t158.5 64.5h322q10 0 10 -10v-13q0 -10 -10 -10h-322q-82 0 -128 -55t-46 -158v-266zM1442 33h45q10 0 10 -10v-13q0 -10 -10 -10h-45q-164 0 -164 184v830q0 10 10 10h21q10 0 10 -10v-830q0 -151 123 -151z" glyph-name="f_f_i.liga" horiz-adv-x="1568" unicode="ffi"/><glyph d="M1493 33h35q10 0 10 -10v-13q0 -10 -10 -10h-35q-82 0 -128 48t-46 136v1319h-332q-82 0 -128 -55t-46 -158v-266h254q10 0 10 -8v-21q0 -8 -10 -8h-254v-977q0 -10 -10 -10h-21q-10 0 -10 10v977h-536v-977q0 -10 -11 -10h-20q-10 0 -10 10v1280q0 117 56 181.5 t159 64.5h137q10 0 10 -10v-13q0 -10 -10 -10h-137q-82 0 -128 -55t-46 -158v-266h536v266q0 117 56.5 181.5t158.5 64.5h363q10 0 10 -10v-1342q0 -72 35 -111.5t98 -39.5z" glyph-name="f_f_l.liga" horiz-adv-x="1609" unicode="ffl"/><glyph glyph-name=".notdef" horiz-adv-x="512"/><glyph glyph-name="glyph1" horiz-adv-x="0"/><glyph glyph-name="glyph2" horiz-adv-x="681"/><glyph glyph-name="space" horiz-adv-x="471" unicode=" "/><glyph d="M168 1434h20q12 0 9 -11v-1003q0 -10 -11 -10h-14q-8 0 -14 10v1003q0 11 10 11zM168 72h27q20 0 20 -21v-31q0 -20 -20 -20h-27q-20 0 -21 20v31q1 21 21 21z" glyph-name="exclam" horiz-adv-x="368" unicode="!"/><glyph d="M133 1536h21q10 0 10 -10l-6 -359h-29l-6 359q0 10 10 10zM387 1536h21q10 0 10 -10l-6 -359h-29l-6 359q0 10 10 10z" glyph-name="quotedbl" horiz-adv-x="540" unicode="&quot;"/><glyph d="M1229 934q12 0 8 -12l-2 -11q-2 -10 -16 -10h-342l-72 -354h362q13 -1 10 -17t-14 -16h-366l-103 -504q-2 -10 -16 -10h-6q-16 0 -13 14l103 500h-311l-103 -502q-4 -12 -14 -12h-12q-14 0 -11 14l103 500h-334q-12 0 -7 16t15 17h332l72 354h-349q-10 0 -8 10l4 15 q2 8 11 8h348l100 487q4 12 14 13h13q14 0 10 -13l-98 -487h309l100 487q4 12 12 13h15q14 0 10 -13l-100 -487h346zM768 547l72 354h-312l-71 -354h311z" glyph-name="numbersign" horiz-adv-x="1310" unicode="#"/><glyph d="M408 778h286q113 0 174.5 -57t61.5 -164v-272q0 -117 -63.5 -180.5t-178.5 -63.5h-115v-213q0 -10 -10 -10h-20q-10 0 -11 10v213h-358q-10 0 -10 10v12q0 10 10 11h514q94 0 147.5 55t53.5 156v272q0 88 -51.5 136t-143.5 48h-286q-113 0 -174.5 55.5t-61.5 157.5v191 q0 119 67.5 183.5t188.5 64.5h104v217q0 10 11 10h20q10 0 10 -10v-217h265q10 0 10 -11v-12q0 -10 -10 -10h-410q-102 0 -158.5 -56.5t-56.5 -158.5v-191q0 -84 51.5 -130t143.5 -46z" glyph-name="dollar" horiz-adv-x="1073" unicode="$"/><glyph d="M357 1432q126 0 178.5 -66t52.5 -201t-52.5 -203.5t-178.5 -68.5t-180 69.5t-54 203.5t54 200t180 66zM1327 1427h25q14 0 6 -12l-1172 -1405q-8 -10 -18 -10h-23q-14 0 -4 14l1170 1401q8 12 16 12zM357 1399q-105 0 -149 -57.5t-44 -176.5t44 -179t149 -60t147.5 61 t42.5 179t-42.5 175.5t-147.5 57.5zM1179 532q126 0 178 -65.5t52 -200.5t-52 -203.5t-178 -68.5t-180.5 69.5t-54.5 203.5t54.5 199.5t180.5 65.5zM1179 500q-105 0 -149.5 -57.5t-44.5 -176.5t43.5 -179t149.5 -60t148 60t42 179t-42 176.5t-147 57.5z" glyph-name="percent" horiz-adv-x="1531" unicode="%"/><glyph d="M1135 373h20q10 0 10 -11q-2 -158 -118 -260q94 -115 188 -225q12 -12 -6 -12h-33q-8 1 -22 19t-72 86.5t-88 107.5q-142 -98 -372 -98t-354 106.5t-124 280.5v125q0 127 80 209.5t223 156.5q-96 193 -96 328v129q0 117 78.5 181.5t210.5 64.5t202 -64.5t70 -181.5v-88 q0 -75 -23.5 -111.5t-38 -57t-46 -44t-50 -37.5t-60.5 -36.5t-61.5 -32t-67.5 -33t-65 -31.5q145 -276 502 -711q98 86 102 229q1 11 11 11zM412 1315v-129q0 -125 92 -309q51 22 127 62t91 50t45 29.5t62 55t47 70.5t15 83v88q0 98 -59.5 154.5t-171.5 56.5t-180 -56.5 t-68 -154.5zM205 492v-125q0 -158 110.5 -255.5t326.5 -97.5t349 92q-375 463 -508 719q-133 -70 -205.5 -145t-72.5 -188z" glyph-name="ampersand" horiz-adv-x="1400" unicode="&amp;"/><glyph d="M133 1536h21q10 0 10 -10l-6 -359h-29l-6 359q0 10 10 10z" glyph-name="quotesingle" horiz-adv-x="286" unicode="'"/><glyph d="M113 637q0 295 99 538.5t263 350.5q10 8 18 -9t-1 -22q-152 -102 -245 -338.5t-93 -522.5t93 -528.5t247 -357.5q8 -6 2 -14l-9 -13q-6 -8 -14 -2q-162 119 -261 371t-99 547z" glyph-name="parenleft" horiz-adv-x="559" unicode="("/><glyph d="M418 637q0 -295 -99.5 -547t-261.5 -371q-8 -6 -14 2l-8 13q-6 8 2 14q154 115 247 357.5t93 528.5t-93.5 522.5t-244.5 338.5q-8 4 2 29q4 10 14 2q164 -106 263.5 -350t99.5 -539z" glyph-name="parenright" horiz-adv-x="602" unicode=")"/><glyph d="M471 1518h21q10 0 10 -11l-6 -297h-29l-6 297q0 11 10 11zM557 1151l258 162q8 6 14 -4l11 -17q6 -10 -2 -14l-265 -156zM125 1286l10 17q6 10 15 4l256 -156l-19 -29l-258 150q-10 6 -4 14zM195 823l213 219l22 -22l-205 -225q-10 -10 -18 -2l-14 14q-8 8 2 16z M528 1020l23 22l219 -221q8 -6 0 -14l-16 -14q-6 -6 -15 2z" glyph-name="asterisk" horiz-adv-x="964" unicode="*"/><glyph d="M510 729h344q10 0 10 -10v-12q0 -10 -10 -11h-344v-344q0 -10 -10 -10h-13q-10 0 -10 10v344h-354q-10 0 -10 11v12q0 10 10 10h354v354q0 10 10 11h13q10 0 10 -11v-354z" glyph-name="plus" horiz-adv-x="976" unicode="+"/><glyph d="M113 68h37q14 0 14 -15v-53l-41 -289q0 -10 -10 -10h-15q-10 0 -10 10l41 289h-18q-12 0 -13 14v39q1 15 15 15z" glyph-name="comma" horiz-adv-x="286" unicode=","/><glyph d="M133 522h649q10 0 11 -10v-12q0 -10 -11 -11h-649q-10 0 -10 11v12q0 10 10 10z" glyph-name="hyphen" horiz-adv-x="915" unicode="-"/><glyph d="M127 72h27q20 0 20 -21v-31q0 -20 -20 -20h-27q-20 0 -21 20v31q1 21 21 21z" glyph-name="period" horiz-adv-x="286" unicode="."/><glyph d="M707 1468h14q10 0 6 -12l-567 -1579q-2 -10 -17 -10h-14q-8 0 -4 14l565 1575q3 12 17 12z" glyph-name="slash" horiz-adv-x="851" unicode="/"/><glyph d="M492 1434h122q145 0 226.5 -86t81.5 -242v-784q0 -154 -81 -238t-227 -84h-122q-145 0 -226.5 84t-81.5 238v784q0 156 81.5 242t226.5 86zM881 322v784q0 141 -70 216t-197 75h-122q-127 0 -197 -75t-70 -216v-784q0 -137 70 -211t197 -74h122q127 4 197 78t70 207z" glyph-name="zero" horiz-adv-x="1105" unicode="0"/><glyph d="M535 37h305q10 0 10 -10v-17q0 -10 -10 -10h-707q-10 0 -10 10v17q0 10 10 10h361v1360h-353q-10 0 -10 10v16q0 10 10 11h383q10 0 11 -11v-1386z" glyph-name="one" horiz-adv-x="1034" unicode="1"/><glyph d="M541 1436q166 0 257 -78t91 -221v-99q0 -164 -106.5 -260.5t-248 -193.5t-240.5 -185.5t-99 -257.5v-104h696q10 0 10 -10v-17q0 -10 -10 -10h-727q-10 0 -10 10v131q0 178 99 270.5t174 145.5t148.5 104.5t173 137t99.5 241.5v97q0 125 -81 192.5t-226 67.5h-324 q-10 0 -10 10v16q0 9 10 13h324z" glyph-name="two" horiz-adv-x="1085" unicode="2"/><glyph d="M840 1171v-143q0 -205 -170 -256q209 -57 209 -278v-183q0 -150 -94.5 -230.5t-266.5 -80.5h-344q-10 0 -10 10v17q0 10 10 10h344q152 0 235 71.5t83 202.5v183q0 262 -316 262h-139q-10 0 -10 10v12q0 10 10 10h176q117 0 179.5 62.5t62.5 177.5v143q0 106 -74 166 t-207 60h-307q-10 0 -10 10v16q0 10 10 11h307q154 0 238 -69t84 -194z" glyph-name="three" horiz-adv-x="1062" unicode="3"/><glyph d="M846 424h151q10 0 11 -10v-17q0 -10 -11 -10h-151v-377q0 -10 -10 -10h-21q-10 0 -10 10v377h-629q-12 0 -12 12v80q0 8 2 13l446 927q6 14 17 15h20q12 0 8 -13l-452 -940v-57h600v526q0 10 10 11h21q10 0 10 -11v-526z" glyph-name="four" horiz-adv-x="1148" unicode="4"/><glyph d="M184 1434h607q10 0 10 -11v-16q0 -10 -10 -10h-576v-600h346q154 0 237 -77t83 -220v-205q0 -141 -84 -218t-236 -77h-407q-10 0 -11 10v17q0 10 11 10h407q131 0 205 68.5t74 189.5v205q0 125 -73 192.5t-206 67.5h-377q-10 0 -10 10v653q0 11 10 11z" glyph-name="five" horiz-adv-x="1064" unicode="5"/><glyph d="M225 745h426q135 0 210 -63.5t75 -177.5v-201q0 -143 -75 -223t-210 -80h-174q-139 0 -216 79t-77 224v821q0 147 77 228.5t216 81.5h297q10 0 10 -11v-16q0 -10 -10 -10h-297q-121 0 -186.5 -71t-65.5 -202v-379zM895 303v201q0 98 -63.5 151.5t-180.5 53.5h-426v-406 q0 -127 65.5 -196.5t186.5 -69.5h174q117 0 180.5 69.5t63.5 196.5z" glyph-name="six" horiz-adv-x="1120" unicode="6"/><glyph d="M113 1434h692q10 0 10 -11v-151q0 -16 -6 -29l-576 -1231q-6 -12 -14 -12h-24q-14 0 -9 12l588 1254v131h-661q-10 0 -11 10v16q1 11 11 11z" glyph-name="seven" horiz-adv-x="917" unicode="7"/><glyph d="M952 1149v-76q0 -164 -135 -356q170 -80 170 -318v-92q0 -139 -80 -223t-211 -84h-202q-139 0 -224.5 85t-85.5 226v117q0 211 197 389q-102 78 -102 256v76q0 121 81.5 203t204.5 82h90q127 0 212 -82t85 -203zM319 1149v-76q0 -144 69.5 -206t203.5 -90t186 -46 q133 188 133 342v76q0 104 -73.5 176t-182.5 72h-90q-104 0 -175 -72t-71 -176zM946 307v92q0 211 -97 257t-160.5 60.5t-143.5 33t-129 45.5q-190 -176 -191 -367v-117q0 -123 74 -198.5t195 -75.5h202q113 0 181.5 74.5t68.5 195.5z" glyph-name="eight" horiz-adv-x="1171" unicode="8"/><glyph d="M469 1434h184q139 0 216 -79t77 -225v-821q0 -147 -76.5 -228t-216.5 -81h-307q-10 0 -10 10v17q0 10 10 10h307q121 0 186.5 70.5t65.5 201.5v379h-436q-135 0 -210 63.5t-75 178.5v200q0 143 75 223.5t210 80.5zM469 725h436v405q0 127 -65.5 197t-186.5 70h-184 q-117 0 -180.5 -70t-63.5 -197v-200q0 -98 63.5 -151.5t180.5 -53.5z" glyph-name="nine" horiz-adv-x="1130" unicode="9"/><glyph d="M137 776h27q20 0 20 -20v-31q0 -20 -20 -20h-27q-20 0 -20 20v31q0 20 20 20zM137 72h27q20 0 20 -21v-31q0 -20 -20 -20h-27q-20 0 -20 20v31q0 21 20 21z" glyph-name="colon" horiz-adv-x="286" unicode=":"/><glyph d="M158 776h26q20 0 21 -20v-31q0 -20 -21 -20h-26q-20 0 -21 20v31q1 20 21 20zM143 68h37q14 0 15 -15v-53l-41 -289q0 -10 -11 -10h-14q-10 0 -10 10l41 289h-19q-12 0 -12 14v39q0 15 14 15z" glyph-name="semicolon" horiz-adv-x="286" unicode=";"/><glyph d="M1036 1153v-20q0 -10 -8 -13l-907 -407l907 -418q8 -2 8 -12v-21q0 -12 -12 -6l-944 430q-8 2 -8 12v29q0 10 8 12l944 420q12 6 12 -6z" glyph-name="less" horiz-adv-x="1148" unicode="&lt;"/><glyph d="M143 928h914q10 0 10 -10v-13q0 -10 -10 -10h-914q-10 0 -10 10v13q0 10 10 10zM143 485h914q10 0 10 -10v-12q0 -10 -10 -10h-914q-10 0 -10 10v12q0 10 10 10z" glyph-name="equal" horiz-adv-x="1200" unicode="="/><glyph d="M133 1133v20q0 12 12 6l945 -420q8 -2 8 -12v-29q0 -10 -8 -12l-945 -430q-12 -6 -12 6v21q0 10 8 12l908 418l-908 407q-8 3 -8 13z" glyph-name="greater" horiz-adv-x="1230" unicode=">"/><glyph d="M281 1434h262q102 0 159.5 -55.5t57.5 -155.5v-252q0 -113 -58.5 -175.5t-164.5 -62.5h-99q-53 0 -81.5 -33.5t-24.5 -93.5v-219q0 -10 -10 -10h-21q-10 0 -10 10v219q0 78 39 122t108 46h99q88 0 135 51.5t47 145.5v252q0 84 -46 130t-130 46h-262q-94 0 -95 -101 q0 -10 -10 -10h-20q-10 0 -11 10q1 136 136 136zM301 72h27q20 0 20 -21v-31q0 -20 -20 -20h-27q-20 0 -20 20v31q0 21 20 21z" glyph-name="question" horiz-adv-x="905" unicode="?"/><glyph d="M1184 123h-21q-10 0 -10 10v471h-358q-94 0 -134 -43t-40 -129v-102q0 -96 40.5 -135t133.5 -39h172q10 0 10 -11v-12q0 -10 -10 -10h-172q-113 0 -164 47t-51 160v102q0 102 50 153.5t165 51.5h358v121q0 131 -54.5 202.5t-154.5 71.5h-252q-10 0 -10 10v13q0 10 10 10 h252q119 0 184.5 -81t65.5 -226v-598q233 4 353 147.5t120 409.5q0 700 -721 700q-403 0 -597.5 -214t-194.5 -636t192.5 -611t564.5 -189q156 0 346 30q8 2 13 -8l2 -14q2 -8 -8 -13q-207 -33 -359 -32q-391 0 -591.5 197t-200.5 639t203.5 665t629.5 223q762 0 762 -737 q0 -291 -132 -442.5t-392 -151.5z" glyph-name="at" horiz-adv-x="1820" unicode="@"/><glyph d="M1044 0h-24q-8 0 -10 8l-164 561h-527l-174 -561q-2 -8 -10 -8h-24q-12 0 -9 12l445 1413q2 8 10 9h68q8 -1 10 -9l418 -1413q4 -12 -9 -12zM330 602h508l-234 799h-24z" glyph-name="A" horiz-adv-x="1155" unicode="A"/><glyph d="M926 1139v-109q0 -199 -160 -260q221 -51 221 -317v-125q0 -156 -78 -242t-219 -86h-475q-10 0 -10 10v1413q0 10 10 11h393q152 0 235 -77t83 -218zM608 1401h-362v-621h383q121 0 188.5 65.5t67.5 184.5v109q0 125 -73 193.5t-204 68.5zM946 328v125q0 141 -71.5 218 t-204.5 77h-424v-715h444q121 0 188.5 77t67.5 218z" glyph-name="B" horiz-adv-x="1161" unicode="B"/><glyph d="M563 1434h369q10 0 10 -11v-12q0 -10 -10 -10h-369q-162 0 -250 -88t-88 -248v-696q0 -160 83 -248t235 -88h430q10 0 10 -10v-13q0 -10 -10 -10h-430q-170 0 -264.5 96.5t-94.5 272.5v696q0 176 99.5 272.5t279.5 96.5z" glyph-name="C" horiz-adv-x="1044" unicode="C"/><glyph d="M215 1434h471q180 0 279.5 -96.5t99.5 -272.5v-696q0 -176 -94 -272.5t-264 -96.5h-492q-10 0 -10 10v1413q0 11 10 11zM1024 369v696q0 160 -88 248t-250 88h-440v-1368h461q152 0 234.5 88t82.5 248z" glyph-name="D" horiz-adv-x="1249" unicode="D"/><glyph d="M952 1401h-706v-656h604q10 0 10 -10v-12q0 -10 -10 -10h-604v-680h706q10 0 11 -10v-13q0 -10 -11 -10h-737q-10 0 -10 10v1413q0 10 10 11h737q10 0 11 -11v-12q-1 -10 -11 -10z" glyph-name="E" horiz-adv-x="1126" unicode="E"/><glyph d="M215 1434h696q10 0 11 -11v-12q0 -10 -11 -10h-665v-656h563q10 0 10 -10v-12q0 -10 -10 -10h-563v-703q0 -10 -10 -10h-21q-10 0 -10 10v1413q0 11 10 11z" glyph-name="F" horiz-adv-x="983" unicode="F"/><glyph d="M666 702h198q82 0 128 -48t46 -136v-508q0 -10 -10 -10h-485q-170 0 -264.5 96.5t-94.5 272.5v696q0 176 99.5 272.5t279.5 96.5h328q10 0 10 -11v-12q0 -10 -10 -10h-328q-162 0 -250 -88t-88 -248v-696q0 -160 83 -248t235 -88h454v485q0 72 -34.5 112t-98.5 40h-198 q-10 0 -11 10v12q1 10 11 10z" glyph-name="G" horiz-adv-x="1222" unicode="G"/><glyph d="M1014 1434h20q10 0 10 -11v-1413q0 -10 -10 -10h-20q-10 0 -10 10v703h-758v-703q0 -10 -10 -10h-21q-10 0 -10 10v1413q0 10 10 11h21q10 0 10 -11v-678h758v678q0 11 10 11z" glyph-name="H" horiz-adv-x="1249" unicode="H"/><glyph d="M215 1434h21q10 0 10 -11v-1413q0 -10 -10 -10h-21q-10 0 -10 10v1413q0 11 10 11z" glyph-name="I" horiz-adv-x="450" unicode="I"/><glyph d="M373 1434h20q10 0 10 -11v-1177q0 -117 -56 -181.5t-159 -64.5h-116q-10 0 -11 10v13q0 10 11 10h116q82 0 128 55t46 158v1177q1 11 11 11z" glyph-name="J" horiz-adv-x="587" unicode="J"/><glyph d="M981 1434h27q16 0 4 -13l-635 -645l624 -764q8 -12 -6 -12h-24q-6 0 -13 6l-608 742l-104 -107v-631q0 -10 -10 -10h-21q-10 0 -10 10v1413q0 10 10 11h21q10 0 10 -11v-731l717 733q8 9 18 9z" glyph-name="K" horiz-adv-x="1077" unicode="K"/><glyph d="M246 33h686q10 0 10 -10v-13q0 -10 -10 -10h-717q-10 0 -10 10v1413q0 10 10 11h21q10 0 10 -11v-1390z" glyph-name="L" horiz-adv-x="1003" unicode="L"/><glyph d="M1331 1434h62q10 0 10 -11v-1413q0 -10 -10 -10h-23q-8 0 -8 10v1387h-10l-510 -1286q-2 -8 -13 -9h-34q-8 0 -11 9l-524 1286h-14v-1387q0 -10 -10 -10h-21q-12 0 -6 10v1413q0 10 10 11h64q8 0 10 -9l518 -1278l510 1278q2 9 10 9z" glyph-name="M" horiz-adv-x="1607" unicode="M"/><glyph d="M1010 1434h20q10 0 10 -11v-1413q0 -10 -10 -10h-61q-10 0 -15 10l-698 1389h-10v-1389q0 -10 -10 -10h-21q-10 0 -10 10v1413q0 10 10 11h61q10 0 15 -13l698 -1388h10v1390q1 11 11 11z" glyph-name="N" horiz-adv-x="1245" unicode="N"/><glyph d="M553 1434h156q176 0 272 -96.5t96 -272.5v-696q0 -176 -96 -272.5t-272 -96.5h-156q-176 0 -272.5 96.5t-96.5 272.5v696q0 176 96.5 272.5t272.5 96.5zM1036 369v696q0 160 -86 248t-241 88h-156q-156 0 -242 -88t-86 -248v-696q0 -160 86 -248t242 -88h156 q156 0 241.5 88t85.5 248z" glyph-name="O" horiz-adv-x="1261" unicode="O"/><glyph d="M215 1434h455q152 0 234.5 -85t82.5 -243v-125q0 -156 -78 -242t-219 -86h-444v-643q0 -10 -10 -10h-21q-10 0 -10 10v1413q0 11 10 11zM946 981v125q0 141 -71.5 218t-204.5 77h-424v-715h444q121 0 188.5 77t67.5 218z" glyph-name="P" horiz-adv-x="1130" unicode="P"/><glyph d="M1098 1065v-696q0 -270 -215 -344l192 -211q6 -8 -2 -15l-14 -10q-8 -6 -15 2l-196 223q-49 -14 -119 -14h-176q-176 0 -272.5 96.5t-96.5 272.5v696q0 176 96.5 272.5t272.5 96.5h176q176 0 272.5 -96.5t96.5 -272.5zM553 33h176q156 0 242 88t86 248v696q0 160 -86 248 t-242 88h-176q-156 0 -242 -88t-86 -248v-696q0 -160 86 -248t242 -88z" glyph-name="Q" horiz-adv-x="1282" unicode="Q"/><glyph d="M991 0h-22q-10 0 -13 8l-213 670q-33 -4 -53 -4h-444v-674h-31q-10 0 -10 10v1413q0 10 10 11h455q152 0 234.5 -85t82.5 -243v-105q0 -266 -207 -317l217 -672q4 -12 -6 -12zM246 707h444q121 0 188.5 76.5t67.5 217.5v105q0 141 -71.5 218t-204.5 77h-424v-694z" glyph-name="R" horiz-adv-x="1173" unicode="R"/><glyph d="M428 1434h410q10 0 10 -11v-12q0 -10 -10 -10h-410q-102 0 -158.5 -56.5t-56.5 -158.5v-250q0 -84 51 -130t144 -46h286q113 0 174.5 -57.5t61.5 -163.5v-295q0 -117 -63.5 -180.5t-178.5 -63.5h-514q-10 0 -10 10v13q0 10 10 10h514q94 0 147.5 55t53.5 156v295 q0 88 -51.5 136t-143.5 48h-286q-113 0 -174.5 55.5t-61.5 157.5v250q0 119 67.5 183.5t188.5 64.5z" glyph-name="S" horiz-adv-x="1073" unicode="S"/><glyph d="M72 1434h917q10 0 10 -11v-12q0 -10 -10 -10h-432v-1391q0 -10 -10 -10h-21q-10 0 -10 10v1391h-444q-10 0 -11 10v12q1 11 11 11z" glyph-name="T" horiz-adv-x="1060" unicode="T"/><glyph d="M1026 1434h21q10 0 10 -11v-1054q0 -176 -96.5 -272.5t-272.5 -96.5h-135q-176 0 -272.5 96.5t-96.5 272.5v1054q0 10 11 11h20q10 0 10 -11v-1054q0 -160 86 -248t242 -88h135q156 0 242 88t86 248v1054q0 11 10 11z" glyph-name="U" horiz-adv-x="1241" unicode="U"/><glyph d="M1020 1434h24q12 0 9 -13l-430 -1413q-2 -8 -11 -8h-67q-8 0 -10 8l-433 1413q-4 12 9 13h24q8 0 10 -9l422 -1392h25l418 1392q2 9 10 9z" glyph-name="V" horiz-adv-x="1155" unicode="V"/><glyph d="M1630 1434h25q12 0 8 -13l-356 -1413q-2 -8 -11 -8h-69q-8 0 -10 8l-320 1358l-330 -1358q-2 -8 -10 -8h-70q-8 0 -10 8l-375 1413q-4 12 9 13h24q8 0 10 -9l365 -1388h25l339 1388q2 8 11 9h24q10 0 13 -9l329 -1388h25l344 1388q2 9 10 9z" glyph-name="W" horiz-adv-x="1724" unicode="W"/><glyph d="M1006 0h-25q-8 0 -14 8l-410 684l-405 -684q-6 -8 -15 -8h-26q-14 0 -7 12l433 717l-414 692q-8 12 6 13h23q8 0 14 -9l397 -663l377 661q6 10 14 11h25q14 0 6 -13l-401 -692l428 -717q8 -12 -6 -12z" glyph-name="X" horiz-adv-x="1116" unicode="X"/><glyph d="M981 1434h25q18 0 8 -13l-443 -755v-656q0 -10 -10 -10h-20q-10 0 -11 10v660l-426 751q-6 12 9 13h24q4 0 10 -9l406 -718l418 718q6 9 10 9z" glyph-name="Y" horiz-adv-x="1116" unicode="Y"/><glyph d="M182 1434h809q8 0 8 -9v-10q0 -10 -6 -20l-819 -1362h827q10 0 11 -10v-13q0 -10 -11 -10h-872q-6 0 -6 6v12q0 6 6 15l823 1368h-770q-10 0 -10 10v12q0 11 10 11z" glyph-name="Z" horiz-adv-x="1134" unicode="Z"/><glyph d="M205 1536h268q10 0 10 -10v-13q0 -10 -10 -10h-237v-1777h237q10 0 10 -11v-12q0 -10 -10 -10h-268q-10 0 -10 10v1823q0 10 10 10z" glyph-name="bracketleft" horiz-adv-x="534" unicode="["/><glyph d="M129 1468h14q12 0 17 -12l565 -1575q4 -14 -4 -14h-14q-14 0 -17 10l-567 1579q-4 12 6 12z" glyph-name="backslash" horiz-adv-x="849" unicode="\"/><glyph d="M76 1536h268q10 0 10 -10v-1823q0 -10 -10 -10h-268q-10 0 -10 10v12q0 10 10 11h237v1777h-237q-10 0 -10 10v13q0 10 10 10z" glyph-name="bracketright" horiz-adv-x="534" unicode="]"/><glyph d="M492 1405h26q8 0 10 -8l383 -1024q2 -12 -8 -13h-24q-8 0 -11 9l-366 979l-381 -979q-6 -8 -12 -9h-29q-10 0 -8 13l407 1024q7 8 13 8z" glyph-name="asciicircum" horiz-adv-x="983" unicode="^"/><glyph d="M113 -203h813q10 0 10 -10v-12q0 -10 -10 -11h-813q-10 0 -11 11v12q1 10 11 10z" glyph-name="underscore" horiz-adv-x="1038" unicode="_"/><glyph d="M57 1470l13 17q6 6 16 -2l215 -170q10 -8 0 -23q-10 -14 -22 -4l-224 168q-6 6 2 14z" glyph-name="grave" horiz-adv-x="417" unicode="`"/><glyph d="M266 1024h264q119 0 184.5 -81t65.5 -226v-707q0 -10 -10 -10h-401q-113 0 -164 47t-51 160v143q0 102 50 153.5t165 51.5h370v162q0 131 -54 202.5t-155 71.5h-264q-10 0 -10 10v13q0 10 10 10zM369 33h370v489h-370q-94 0 -134 -43t-40 -129v-143q0 -96 41 -135 t133 -39z" glyph-name="a" horiz-adv-x="964" unicode="a"/><glyph d="M236 1024h286q152 0 235 -81t83 -226v-410q0 -147 -78 -227t-219 -80h-338q-10 0 -10 10v1516q0 10 10 10h20q10 0 11 -10v-502zM799 307v410q0 131 -73 202.5t-204 71.5h-286v-958h307q121 0 188.5 71.5t67.5 202.5z" glyph-name="b" unicode="b"/><glyph d="M492 1024h225q10 0 10 -10v-13q0 -10 -10 -10h-225q-131 0 -204 -71.5t-73 -202.5v-410q0 -131 67.5 -202.5t188.5 -71.5h287q10 0 10 -10v-13q0 -10 -10 -10h-287q-141 0 -219 80t-78 227v410q0 145 83 226t235 81z" glyph-name="c" horiz-adv-x="839" unicode="c"/><glyph d="M788 1536h21q10 0 10 -10v-1516q0 -10 -10 -10h-338q-141 0 -219 80t-78 227v410q0 145 83 226t235 81h286v502q0 10 10 10zM471 33h307v958h-286q-131 0 -204 -71.5t-73 -202.5v-410q0 -131 67.5 -202.5t188.5 -71.5z" glyph-name="d" unicode="d"/><glyph d="M461 1024h106q242 0 242 -254v-63q0 -250 -242 -250h-352v-150q0 -274 258 -274h213q10 0 10 -10v-13q0 -10 -10 -10h-213q-299 0 -299 307v410q0 145 75 226t212 81zM768 707v63q0 221 -201 221h-106q-117 0 -181.5 -71.5t-64.5 -202.5v-228h352q104 0 152.5 53.5 t48.5 164.5z" glyph-name="e" horiz-adv-x="954" unicode="e"/><glyph d="M410 1536h137q10 0 10 -10v-13q0 -10 -10 -10h-137q-82 0 -128 -55t-46 -158v-266l253 -4q10 0 11 -8v-13q0 -8 -11 -8l-253 -6v-975q0 -10 -11 -10h-20q-10 0 -10 10v1280q0 117 56.5 181.5t158.5 64.5z" glyph-name="f" horiz-adv-x="495" unicode="f"/><glyph d="M471 1024h338q10 0 10 -10v-1219q0 -147 -77.5 -227t-219.5 -80h-266q-10 0 -10 10v13q0 10 10 10h266q121 0 188.5 71.5t67.5 202.5v205h-286q-152 0 -235 81t-83 226v410q0 147 78 227t219 80zM492 33h286v958h-307q-121 0 -188.5 -71.5t-67.5 -202.5v-410 q0 -131 73 -202.5t204 -71.5z" glyph-name="g" unicode="g"/><glyph d="M236 1024h288q145 0 225 -81t80 -226v-707q0 -10 -10 -10h-20q-10 0 -11 10v707q0 131 -69.5 202.5t-194.5 71.5h-288v-981q0 -10 -11 -10h-20q-10 0 -10 10v1516q0 10 10 10h20q10 0 11 -10v-502z" glyph-name="h" unicode="h"/><glyph d="M195 1536h20q10 0 10 -10v-133q0 -10 -10 -11h-20q-10 0 -11 11v133q1 10 11 10zM195 1024h20q10 0 10 -10v-830q0 -152 123 -151h45q10 0 10 -10v-13q0 -10 -10 -10h-45q-164 0 -164 184v830q1 10 11 10z" glyph-name="i" horiz-adv-x="475" unicode="i"/><glyph d="M209 1536h20q10 0 11 -10v-133q0 -10 -11 -11h-20q-10 0 -10 11v133q0 10 10 10zM209 1024h20q10 0 11 -10v-1280q0 -117 -56.5 -181.5t-158.5 -64.5h-117q-10 0 -10 10v13q0 10 10 10h117q82 0 128 55t46 158v1280q0 10 10 10z" glyph-name="j" horiz-adv-x="434" unicode="j"/><glyph d="M825 0h-24q-10 0 -13 6l-423 594l-129 -129v-461q0 -10 -11 -10h-20q-10 0 -10 10v1516q0 10 10 10h20q10 0 11 -10v-1004l491 494q8 8 16 8h29q16 0 4 -12l-383 -383l438 -617q8 -12 -6 -12z" glyph-name="k" horiz-adv-x="915" unicode="k"/><glyph d="M195 1536h20q10 0 10 -10v-1342q0 -72 35 -111.5t98 -39.5h35q10 0 10 -10v-13q0 -10 -10 -10h-35q-82 0 -128 48t-46 136v1342q1 10 11 10z" glyph-name="l" horiz-adv-x="475" unicode="l"/><glyph d="M891 1024h166q135 0 209.5 -81t74.5 -226v-707q0 -10 -10 -10h-20q-10 0 -11 10v707q0 131 -63 202.5t-180 71.5h-166q-102 0 -103 -110v-871q0 -10 -10 -10h-20q-10 0 -10 10v871q0 111 -103 110h-409v-981q0 -10 -11 -10h-20q-10 0 -10 10v994q0 20 20 20h430 q88 0 123 -59q35 59 123 59z" glyph-name="m" horiz-adv-x="1525" unicode="m"/><glyph d="M215 1024h309q145 0 225 -81t80 -226v-707q0 -10 -10 -10h-20q-10 0 -11 10v707q0 131 -69.5 202.5t-194.5 71.5h-288v-981q0 -10 -11 -10h-20q-10 0 -10 10v994q0 20 20 20z" glyph-name="n" unicode="n"/><glyph d="M471 1024h92q133 0 205 -77t72 -218v-442q0 -137 -75 -212t-212 -75h-90q-137 0 -213 75t-76 212v442q0 141 78 218t219 77zM799 287v442q0 125 -61.5 193.5t-174.5 68.5h-92q-121 0 -188.5 -68.5t-67.5 -193.5v-442q0 -121 64.5 -187.5t183.5 -66.5h90q117 0 181.5 66.5 t64.5 187.5z" glyph-name="o" unicode="o"/><glyph d="M205 1024h338q141 0 219 -80t78 -227v-410q0 -145 -83 -226t-235 -81h-286v-502q0 -10 -11 -10h-20q-10 0 -10 10v1516q0 10 10 10zM799 307v410q0 131 -67.5 202.5t-188.5 71.5h-307v-958h286q131 0 204 71.5t73 202.5z" glyph-name="p" unicode="p"/><glyph d="M471 1024h338q10 0 10 -10v-1516q0 -10 -10 -10h-21q-10 0 -10 10v502h-286q-152 0 -235 81t-83 226v410q0 147 78 227t219 80zM492 33h286v958h-307q-121 0 -188.5 -71.5t-67.5 -202.5v-410q0 -131 73 -202.5t204 -71.5z" glyph-name="q" unicode="q"/><glyph d="M422 1024h149q10 0 11 -10v-13q0 -10 -11 -10h-149q-88 0 -137 -61.5t-49 -171.5v-748q0 -10 -11 -10h-20q-10 0 -10 10v748q0 127 59 196.5t168 69.5z" glyph-name="r" horiz-adv-x="622" unicode="r"/><glyph d="M387 1024h225q10 0 11 -10v-13q0 -10 -11 -10h-225q-92 0 -143 -51t-51 -143v-82q0 -156 174 -156h122q102 0 159 -53t57 -148v-135q0 -223 -222 -223h-329q-10 0 -11 10v13q0 10 11 10h329q180 0 181 190v135q0 78 -45.5 121t-129.5 43h-122q-102 0 -158.5 50.5 t-56.5 142.5v82q0 109 61 168t174 59z" glyph-name="s" horiz-adv-x="847" unicode="s"/><glyph d="M399 33h117q10 0 10 -10v-13q0 -10 -10 -10h-117q-102 0 -158.5 64.5t-56.5 181.5v1024q0 14 13 10q28 -12 28 -20v-236l254 -4q10 0 10 -8v-15q0 -8 -10 -8l-254 -4v-739q0 -102 46 -157.5t128 -55.5z" glyph-name="t" horiz-adv-x="567" unicode="t"/><glyph d="M788 1024h21q10 0 10 -10v-994q0 -20 -20 -20h-310q-145 0 -225 81t-80 226v707q0 10 11 10h20q10 0 10 -10v-707q0 -131 70 -202.5t194 -71.5h289v981q0 10 10 10z" glyph-name="u" unicode="u"/><glyph d="M752 1024h22q12 0 8 -12l-282 -1004q-2 -8 -11 -8h-67q-8 0 -10 8l-299 1004q-2 12 8 12h22q8 0 11 -8l290 -983h25l272 983q3 8 11 8z" glyph-name="v" horiz-adv-x="894" unicode="v"/><glyph d="M1266 1024h22q10 0 8 -12l-245 -1004q-2 -8 -11 -8h-67q-8 0 -10 8l-250 938l-252 -938q-2 -8 -10 -8h-68q-8 0 -10 8l-256 1004q-2 12 8 12h22q8 0 11 -8l248 -983h24l264 981q4 10 13 10h14q8 0 12 -10l262 -981h25l235 983q3 8 11 8z" glyph-name="w" horiz-adv-x="1413" unicode="w"/><glyph d="M795 0h-21q-8 0 -14 8l-303 479l-297 -479q-6 -8 -15 -8h-22q-14 0 -6 12l319 510l-309 490q-8 12 6 12h19q8 0 14 -8l293 -463l291 461q6 10 14 10h20q14 0 7 -12l-312 -490l322 -510q8 -12 -6 -12z" glyph-name="x" horiz-adv-x="915" unicode="x"/><glyph d="M750 1024h22q10 0 8 -12l-291 -1012l-147 -500q-4 -12 -12 -12h-21q-12 0 -8 14l150 498h-29q-8 0 -10 8l-299 1004q-2 12 8 12h22q8 0 11 -8l290 -983h17l278 983q3 8 11 8z" glyph-name="y" horiz-adv-x="892" unicode="y"/><glyph d="M193 1024h583q8 0 8 -8v-10q0 -10 -6 -21l-594 -952h602q10 0 11 -10v-13q0 -10 -11 -10h-647q-6 0 -6 6v12q0 6 6 15l598 958h-544q-10 0 -11 10v13q1 10 11 10z" glyph-name="z" horiz-adv-x="899" unicode="z"/><glyph d="M598 1538v-16q0 -10 -10 -11q-106 -4 -168 -70.5t-53 -180.5l26 -404q12 -199 -151 -250q164 -47 151 -252l-26 -403q-8 -115 53 -181.5t168 -70.5q10 0 10 -10v-17q0 -10 -10 -10q-123 4 -197 82t-65 207l26 403q8 121 -51 177.5t-209 56.5q-10 0 -10 10v16q0 10 10 11 q143 0 205.5 54t54.5 177l-26 404q-8 129 65.5 206.5t196.5 81.5q10 0 10 -10z" glyph-name="braceleft" horiz-adv-x="659" unicode="{"/><glyph d="M195 1577h20q10 0 10 -10v-1864q0 -10 -10 -10h-20q-10 0 -11 10v1864q1 10 11 10z" glyph-name="bar" horiz-adv-x="409" unicode="|"/><glyph d="M567 625q10 0 11 -11v-16q0 -10 -11 -10q-150 0 -209 -56.5t-51 -177.5l27 -403q8 -129 -65.5 -207t-196.5 -82q-10 0 -11 10v17q0 10 11 10q106 4 167.5 70.5t53.5 181.5l-27 403q-12 205 152 252q-164 51 -152 250l27 404q8 115 -53.5 181t-167.5 70q-10 0 -11 11v16 q0 10 11 10q123 -4 196.5 -81.5t65.5 -206.5l-27 -404q-8 -123 54.5 -177t205.5 -54z" glyph-name="braceright" horiz-adv-x="659" unicode="}"/><glyph d="M164 588h-21q-10 0 -10 10q4 100 64.5 159.5t145.5 59.5q151 0 277.5 -109.5t233.5 -109.5q141 0 141 172q0 10 11 10h20q10 0 10 -10q-2 -213 -182 -213q-70 0 -136.5 34t-112.5 76t-113.5 75.5t-142.5 33.5t-123 -47t-52 -131q0 -10 -10 -10z" glyph-name="asciitilde" horiz-adv-x="1169" unicode="~"/><glyph d="M172 1024h27q20 0 20 -20v-31q0 -20 -20 -21h-27q-20 0 -20 21v31q0 20 20 20zM176 614h14q8 0 13 -10v-1003q0 -10 -10 -11h-21q-10 0 -10 11l4 272v731q0 10 10 10z" glyph-name="exclamdown" horiz-adv-x="368" unicode="¡"/><glyph d="M471 238h287q10 0 10 -11v-12q0 -10 -10 -10h-191v-215q0 -10 -10 -10h-20q-10 0 -11 10v215h-55q-141 0 -219 80t-78 227v410q0 145 83 226t235 81h22v215q0 10 10 10h21q10 0 10 -10v-215h162q10 0 10 -10v-13q0 -10 -10 -10h-225q-131 0 -204 -71.5t-73 -202.5v-410 q0 -131 67.5 -202.5t188.5 -71.5z" glyph-name="cent" horiz-adv-x="839" unicode="¢"/><glyph d="M1004 37q10 0 10 -10v-17q0 -10 -10 -10h-881q-10 0 -10 10v17q0 10 10 10q127 0 194.5 54t103.5 194.5t46 410.5h-219q-10 0 -10 11v16q0 10 10 10h219q4 172 4 293q0 408 354 408h115q10 0 10 -11v-20q0 -10 -10 -10h-115q-313 0 -313 -367q0 -117 -4 -293h309 q10 0 10 -10v-16q0 -10 -10 -11h-309q-12 -307 -56.5 -457.5t-140.5 -201.5h693z" glyph-name="sterling" horiz-adv-x="1210" unicode="£"/><glyph d="M560 1141q170 0 280 -92l131 161q6 8 14 2l16 -12q8 -6 3 -14l-134 -166q98 -109 98 -292t-102 -292l138 -168q6 -8 -3 -14l-16 -12q-8 -6 -14 2l-135 164q-106 -88 -276 -88t-277 86l-131 -162q-6 -8 -15 -2l-16 12q-8 6 -2 14l133 164q-104 111 -104 298t102 296 l-135 166q-6 8 2 14l16 13q8 6 14 -2l134 -162q109 86 279 86zM184 730q0 -175 99.5 -274.5t274.5 -99.5t274.5 100.5t99.5 274.5t-99.5 273.5t-275.5 99.5t-274.5 -99.5t-98.5 -274.5z" glyph-name="currency" horiz-adv-x="1118" unicode="¤"/><glyph d="M981 1434h25q18 0 8 -13l-441 -751h308q10 0 10 -11v-16q0 -10 -10 -10h-310v-189h310q10 0 10 -10v-16q0 -10 -10 -10h-310v-398q0 -10 -10 -10h-20q-10 0 -11 10v398h-309q-10 0 -10 10v16q0 10 10 10h309v189h-309q-10 0 -10 10v16q0 10 10 11h309l-426 751 q-6 12 9 13h24q4 0 10 -9l406 -718l418 718q6 9 10 9z" glyph-name="yen" horiz-adv-x="1116" unicode="¥"/><glyph d="M195 1577h20q10 0 10 -10v-779q0 -10 -10 -10h-20q-10 0 -11 10v779q1 10 11 10zM195 492h20q10 0 10 -11v-778q0 -10 -10 -10h-20q-10 0 -11 10v778q1 11 11 11z" glyph-name="brokenbar" horiz-adv-x="409" unicode="¦"/><glyph d="M471 1499h225q10 0 11 -10v-12q0 -10 -11 -11h-225q-92 0 -143.5 -51t-51.5 -143v-103q0 -156 175 -155h122q102 0 158.5 -53.5t56.5 -147.5v-156q0 -223 -221 -223v33q180 0 181 190v156q0 78 -45.5 121t-129.5 43h-122q-102 0 -158.5 50t-56.5 142v103q0 109 61 168 t174 59zM141 569v144q0 109 61.5 168t174.5 59v-33q-92 0 -143.5 -51t-51.5 -143v-144q0 -156 174 -155h123q102 0 158.5 -53.5t56.5 -147.5v-135q0 -223 -221 -223h-330q-10 0 -10 10v12q0 10 10 10h330q180 0 180 191v135q0 78 -45 121t-129 43h-123q-102 0 -158.5 50 t-56.5 142z" glyph-name="section" horiz-adv-x="921" unicode="§"/><glyph d="M133 1434h21q10 0 10 -11v-133q0 -10 -10 -10h-21q-10 0 -10 10v133q0 11 10 11zM481 1434h21q10 0 10 -11v-133q0 -10 -10 -10h-21q-10 0 -10 10v133q0 11 10 11z" glyph-name="dieresis" horiz-adv-x="634" unicode="¨"/><glyph d="M72 719q0 799 808 799t808 -799q0 -829 -803 -830q-813 0 -813 830zM1647 719q0 762 -767 762t-767 -762q0 -793 772 -793q762 0 762 793zM862 1196h225q10 0 11 -10v-12q0 -10 -11 -11h-225q-131 0 -203.5 -71.5t-72.5 -202.5v-328q0 -131 67.5 -202.5t188.5 -71.5h286 q10 0 11 -11v-12q0 -10 -11 -10h-286q-141 0 -219 80t-78 227v328q0 145 82.5 226t234.5 81z" glyph-name="copyright" horiz-adv-x="1759" unicode="©"/><glyph d="M180 1843h160q178 0 178 -192v-457q0 -6 -6 -6h-262q-78 0 -113 32.5t-35 108.5v90q0 141 148 142h233v90q0 166 -143 166h-160q-6 0 -6 6v14q0 6 6 6zM250 1214h233v318h-233q-66 0 -89.5 -26.5t-23.5 -86.5v-90q0 -66 25 -90.5t88 -24.5z" glyph-name="ordfeminine" horiz-adv-x="620" unicode="ª"/><glyph d="M86 520l371 375q8 8 14 0l14 -14q10 -6 2 -15l-350 -352l348 -336q8 -8 2 -14l-14 -17q-8 -6 -14 0l-373 359q-8 6 0 14zM430 520l371 375q8 8 14 0l14 -14q10 -6 2 -15l-350 -352l348 -336q8 -8 2 -14l-14 -17q-8 -6 -14 0l-373 359q-8 6 0 14z" glyph-name="guillemotleft" horiz-adv-x="956" unicode="«"/><glyph d="M102 729h967q10 0 10 -10v-369q0 -10 -10 -10h-12q-10 0 -10 10v346h-945q-10 0 -10 11v12q0 10 10 10z" glyph-name="logicalnot" horiz-adv-x="1171" unicode="¬"/><glyph d="M133 522h649q10 0 11 -10v-12q0 -10 -11 -11h-649q-10 0 -10 11v12q0 10 10 10z" glyph-name="uni00AD" horiz-adv-x="915" unicode="­"/><glyph d="M519 1450q212 0 299 -110.5t87 -337.5t-88 -343t-299 -116t-298 115.5t-87 343.5t87 338t299 110zM519 571q189 0 269 110t80 322t-79 315t-269 103t-270 -103.5t-80 -315.5t80 -321.5t269 -109.5zM670 1153v-66q0 -76 -60 -102l74 -219h-39l-67 209h-164v-209h-37v496 h168q55 0 90 -31t35 -78zM414 1004h147q33 0 52.5 24.5t19.5 63.5v61q0 37 -23.5 58.5t-64.5 21.5h-131v-229z" glyph-name="registered" horiz-adv-x="1038" unicode="®"/><glyph d="M154 1405h415q10 0 11 -10v-13q0 -10 -11 -10h-415q-10 0 -11 10v13q1 10 11 10z" glyph-name="macron" horiz-adv-x="681" unicode="¯"/><glyph d="M368 1565q126 0 178 -65.5t52 -200.5t-52 -204t-178 -69t-180.5 70t-54.5 204t54.5 199.5t180.5 65.5zM368 1532q-105 0 -149.5 -58t-44.5 -176t44 -178.5t150 -60.5t147.5 60.5t41.5 179.5t-42 176t-147 57z" glyph-name="degree" horiz-adv-x="731" unicode="°"/><glyph d="M506 893h348q10 0 10 -10v-13q0 -10 -10 -10h-348v-287q0 -10 -10 -10h-13q-10 0 -10 10v287h-350q-10 0 -10 10v13q0 10 10 10h350v309q0 10 10 10h13q10 0 10 -10v-309zM123 381h731q10 0 10 -10v-13q0 -10 -10 -10h-731q-10 0 -10 10v13q0 10 10 10z" glyph-name="plusminus" horiz-adv-x="976" unicode="±"/><glyph d="M297 1845q92 0 142 -39t50 -110v-51q0 -105 -94 -169.5t-188 -127t-94 -164.5v-31h379q6 0 6 -6v-14q0 -6 -6 -7h-404q-6 0 -6 7v49q0 113 94 177t188.5 127t94.5 159v51q0 121 -162 121h-178q-6 0 -6 6v14q0 6 6 8h178z" glyph-name="uni00B2" horiz-adv-x="600" unicode="²"/><glyph d="M459 1710v-70q0 -98 -84 -127q104 -31 104 -139v-90q0 -76 -52 -117t-146 -41h-193q-6 0 -6 7v14q0 6 6 6h193q80 0 124 34t44 97v90q0 127 -170 127h-80q-6 0 -6 6v13q0 6 6 6h98q131 0 131 114v70q0 51 -39 79t-110 28h-170q-6 0 -7 6v14q0 6 7 6h170q86 0 133 -35 t47 -98z" glyph-name="uni00B3" horiz-adv-x="581" unicode="³"/><glyph d="M170 1335l215 170q10 8 16 2l13 -16q8 -8 2 -14l-223 -168q-12 -10 -22 4q-11 14 -1 22z" glyph-name="acute" horiz-adv-x="542" unicode="´"/><glyph d="M555 1434h31q10 0 10 -11v-1720q0 -10 -10 -10h-21q-10 0 -10 10v889q-422 0 -422 421t422 421zM860 1434h21q10 0 10 -11v-1720q0 -10 -10 -10h-21q-10 0 -10 10v1720q0 11 10 11z" glyph-name="paragraph" horiz-adv-x="1064" unicode="¶"/><glyph d="M131 569h27q20 0 20 -20v-31q0 -20 -20 -20h-27q-20 0 -20 20v31q0 20 20 20z" glyph-name="periodcentered" horiz-adv-x="292" unicode="·"/><glyph d="M162 -102h67q63 -2 101.5 -41t38.5 -111t-43.5 -114t-109.5 -42t-106 34t-42 91q0 10 10 11h18q10 0 11 -27t30 -51.5t77 -24.5t81 34t33 90t-28 86t-71 30h-67q-10 0 -10 10v14q0 11 10 11z" glyph-name="cedilla" horiz-adv-x="442" unicode="¸"/><glyph d="M313 1153h164q6 0 6 -6v-14q0 -6 -6 -7h-389q-6 0 -6 7v14q0 6 6 6h195v664h-191q-6 0 -6 6v14q0 6 6 6h215q6 0 6 -6v-684z" glyph-name="uni00B9" horiz-adv-x="585" unicode="¹"/><glyph d="M272 1843h134q80 0 123.5 -43t43.5 -121v-329q0 -78 -44 -120t-123 -42h-134q-82 0 -126 42t-44 120v329q0 78 44 121t126 43zM539 1350v329q0 137 -136 138h-131q-135 0 -135 -138v-329q0 -135 135 -136h131q136 5 136 136z" glyph-name="ordmasculine" horiz-adv-x="675" unicode="º"/><glyph d="M96 881l15 14q6 8 14 0l371 -375q8 -8 0 -14l-373 -359q-6 -6 -14 0l-15 17q-6 6 2 14l348 336l-350 352q-8 9 2 15zM440 881l15 14q6 8 14 0l371 -375q8 -8 0 -14l-373 -359q-6 -6 -14 0l-15 17q-6 6 2 14l348 336l-350 352q-8 9 2 15z" glyph-name="guillemotright" horiz-adv-x="946" unicode="»"/><glyph d="M1327 1468h14q14 0 7 -12l-1100 -1476q-8 -10 -17 -11h-14q-14 0 -4 15l1098 1472q8 12 16 12zM483 737v-14q0 -6 -6 -6h-389q-6 0 -6 6v14q0 6 6 6h195v664h-191q-6 0 -6 6v14q0 6 6 7h215q6 0 6 -7v-684h164q6 0 6 -6zM1436 217h80q6 0 6 -6v-14q0 -6 -6 -7h-80v-184 q0 -6 -6 -6h-19q-6 0 -6 6v184h-342q-8 0 -8 9v45q0 4 2 6l241 459q2 8 11 8h18q2 0 4 -2t0 -4l-246 -465v-29h320v258q0 6 6 6h19q6 0 6 -6v-258z" glyph-name="onequarter" horiz-adv-x="1603" unicode="¼"/><glyph d="M1327 1468h14q14 0 7 -12l-1100 -1476q-8 -10 -17 -11h-14q-14 0 -4 15l1098 1472q8 12 16 12zM483 737v-14q0 -6 -6 -6h-389q-6 0 -6 6v14q0 6 6 6h195v664h-191q-6 0 -6 6v14q0 6 6 7h215q6 0 6 -7v-684h164q6 0 6 -6zM1085 27h379q6 0 6 -7v-14q0 -6 -6 -6h-403 q-6 0 -6 6v49q0 112 94 177t188.5 128t94.5 158v51q0 121 -162 121h-178q-6 0 -7 6v15q0 6 7 8h178q92 0 142 -39t50 -111v-51q0 -70 -59.5 -132t-129 -101t-129 -99.5t-59.5 -128.5v-30z" glyph-name="onehalf" horiz-adv-x="1572" unicode="½"/><glyph d="M1323 1468h14q14 0 6 -12l-1099 -1476q-8 -10 -17 -11h-14q-14 0 -4 15l1098 1472q8 12 16 12zM479 965v-91q0 -76 -52 -116.5t-146 -40.5h-193q-6 0 -6 6v14q0 6 6 6h193q80 0 124 34t44 97v91q0 127 -170 127h-80q-6 0 -6 6v12q0 6 6 6h98q131 0 131 115v69 q0 51 -39 79t-110 28h-170q-6 0 -7 6v14q0 6 7 7h170q86 0 133 -35t47 -99v-69q0 -98 -84 -127q104 -30 104 -139zM1432 217h79q6 0 7 -6v-14q0 -6 -7 -7h-79v-184q0 -6 -7 -6h-18q-6 0 -6 6v184h-342q-8 0 -8 9v45q0 4 2 6l241 459q2 8 11 8h18q2 0 4 -2t0 -4l-246 -465 v-29h320v258q0 6 6 6h18q6 0 7 -6v-258z" glyph-name="threequarters" horiz-adv-x="1599" unicode="¾"/><glyph d="M524 1028h27q20 0 20 -20v-31q0 -20 -20 -21h-27q-20 0 -20 21v31q0 20 20 20zM530 651h21q10 0 10 -10v-219q0 -78 -39 -122t-108 -46h-99q-88 0 -135 -51t-47 -146v-252q0 -84 46 -130t130 -46h262q94 0 95 101q0 10 10 10h20q10 0 11 -10q0 -135 -136 -136h-262 q-102 0 -159.5 55.5t-57.5 155.5v252q0 113 58.5 175.5t164.5 62.5h99q53 0 81.5 33.5t24.5 93.5v219q0 10 10 10z" glyph-name="questiondown" horiz-adv-x="860" unicode="¿"/><glyph d="M555 1698l-223 168q-6 6 2 14l12 16q6 6 16 -2l216 -170q12 -7 0 -21q-11 -15 -23 -5zM1044 0h-24q-8 0 -10 8l-164 561h-527l-174 -561q-2 -8 -10 -8h-24q-12 0 -9 12l445 1413q2 8 10 9h68q8 -1 10 -9l418 -1413q4 -12 -9 -12zM330 602h508l-234 799h-24z" glyph-name="Agrave" horiz-adv-x="1155" unicode="À"/><glyph d="M604 1745l215 170q10 8 17 2l12 -16q8 -8 2 -15l-223 -168q-13 -10 -23 4t0 23zM1044 0h-24q-8 0 -10 8l-164 561h-527l-174 -561q-2 -8 -10 -8h-24q-12 0 -9 12l445 1413q2 8 10 9h68q8 -1 10 -9l418 -1413q4 -12 -9 -12zM330 602h508l-234 799h-24z" glyph-name="Aacute" horiz-adv-x="1155" unicode="Á"/><glyph d="M573 1929h33q8 0 15 -6l184 -192q6 -11 -6 -23t-21 0l-180 188h-14l-195 -182q-8 -8 -20 4t-4 19l194 186q6 6 14 6zM1044 0h-24q-8 0 -10 8l-164 561h-527l-174 -561q-2 -8 -10 -8h-24q-12 0 -9 12l445 1413q2 8 10 9h68q8 -1 10 -9l418 -1413q4 -12 -9 -12zM330 602 h508l-234 799h-24z" glyph-name="Acircumflex" horiz-adv-x="1155" unicode="Â"/><glyph d="M496 1833q47 0 110.5 -30.5t91.5 -30.5q42 0 69 39t36 30q18 -12 10 -22q-29 -43 -52.5 -61.5t-64.5 -18.5t-103.5 30.5t-96.5 30.5q-63 0 -95 -55q-4 -10 -20 -4t-10 16q37 76 125 76zM1044 0h-24q-8 0 -10 8l-164 561h-527l-174 -561q-2 -8 -10 -8h-24q-12 0 -9 12 l445 1413q2 8 10 9h68q8 -1 10 -9l418 -1413q4 -12 -9 -12zM330 602h508l-234 799h-24z" glyph-name="Atilde" horiz-adv-x="1155" unicode="Ã"/><glyph d="M420 1690h-21q-10 0 -10 10v133q0 10 10 10h21q10 0 10 -10v-133q0 -10 -10 -10zM768 1690h-20q-10 0 -11 10v133q0 10 11 10h20q10 0 10 -10v-133q0 -10 -10 -10zM1044 0h-24q-8 0 -10 8l-164 561h-527l-174 -561q-2 -8 -10 -8h-24q-12 0 -9 12l445 1413q2 8 10 9h68 q8 -1 10 -9l418 -1413q4 -12 -9 -12zM330 602h508l-234 799h-24z" glyph-name="Adieresis" horiz-adv-x="1155" unicode="Ä"/><glyph d="M592 1681q-70 0 -112 42t-42 112t42 111t112 41t110.5 -41t40.5 -111t-40.5 -112t-110.5 -42zM591 1952q-52 0 -85 -32t-33 -85t33 -86t86 -33t85 33t32 86t-33 85t-85 32zM1044 0h-24q-8 0 -10 8l-164 561h-527l-174 -561q-2 -8 -10 -8h-24q-12 0 -9 12l445 1413 q2 8 10 9h68q8 -1 10 -9l418 -1413q4 -12 -9 -12zM330 602h508l-234 799h-24z" glyph-name="Aring" horiz-adv-x="1155" unicode="Å"/><glyph d="M1677 1401h-706v-656h604q10 0 10 -10v-12q0 -10 -10 -10h-604v-680h706q10 0 11 -10v-13q0 -10 -11 -10h-737q-10 0 -10 10v559h-608l-177 -561q-2 -8 -10 -8h-24q-12 0 -9 12l390 1235q27 88 95 137.5t165 49.5h925q10 0 11 -11v-12q-1 -10 -11 -10zM930 602v799h-178 q-174 0 -222 -160l-198 -639h598z" glyph-name="AE" horiz-adv-x="1851" unicode="Æ"/><glyph d="M563 1434h369q10 0 10 -11v-12q0 -10 -10 -10h-369q-162 0 -250 -88t-88 -248v-696q0 -160 83 -248t235 -88h430q10 0 10 -10v-13q0 -10 -10 -10h-430q-170 0 -264.5 96.5t-94.5 272.5v696q0 176 99.5 272.5t279.5 96.5zM608 -102h68q63 -2 101 -41t38 -111t-43.5 -114 t-109.5 -42t-106 34t-42 91q0 10 10 11h19q10 0 11 -27t29.5 -51.5t76.5 -24.5t81 34t33 90t-27.5 86t-70.5 30h-68q-10 0 -10 10v14q0 11 10 11z" glyph-name="Ccedilla" horiz-adv-x="1044" unicode="Ç"/><glyph d="M539 1698l-224 168q-6 6 2 14l13 16q6 6 16 -2l215 -170q11 -6 0 -21q-10 -15 -22 -5zM952 1401h-706v-656h604q10 0 10 -10v-12q0 -10 -10 -10h-604v-680h706q10 0 11 -10v-13q0 -10 -11 -10h-737q-10 0 -10 10v1413q0 10 10 11h737q10 0 11 -11v-12q-1 -10 -11 -10z " glyph-name="Egrave" horiz-adv-x="1126" unicode="È"/><glyph d="M588 1745l215 170q10 8 16 2l12 -16q8 -8 3 -15l-224 -168q-12 -10 -22 4t0 23zM952 1401h-706v-656h604q10 0 10 -10v-12q0 -10 -10 -10h-604v-680h706q10 0 11 -10v-13q0 -10 -11 -10h-737q-10 0 -10 10v1413q0 10 10 11h737q10 0 11 -11v-12q-1 -10 -11 -10z" glyph-name="Eacute" horiz-adv-x="1126" unicode="É"/><glyph d="M557 1929h33q8 0 14 -6l184 -192q6 -11 -6 -23t-20 0l-180 188h-15l-194 -182q-9 -8 -21 4t-4 19l195 186q6 6 14 6zM952 1401h-706v-656h604q10 0 10 -10v-12q0 -10 -10 -10h-604v-680h706q10 0 11 -10v-13q0 -10 -11 -10h-737q-10 0 -10 10v1413q0 10 10 11h737 q10 0 11 -11v-12q-1 -10 -11 -10z" glyph-name="Ecircumflex" horiz-adv-x="1126" unicode="Ê"/><glyph d="M403 1690h-20q-10 0 -10 10v133q0 10 10 10h20q10 0 11 -10v-133q-1 -10 -11 -10zM752 1690h-21q-10 0 -10 10v133q0 10 10 10h21q10 0 10 -10v-133q0 -10 -10 -10zM952 1401h-706v-656h604q10 0 10 -10v-12q0 -10 -10 -10h-604v-680h706q10 0 11 -10v-13q0 -10 -11 -10 h-737q-10 0 -10 10v1413q0 10 10 11h737q10 0 11 -11v-12q-1 -10 -11 -10z" glyph-name="Edieresis" horiz-adv-x="1126" unicode="Ë"/><glyph d="M-37 1880l12 16q6 6 17 -2l215 -170q11 -6 0 -21q-10 -15 -23 -5l-223 168q-6 6 2 14zM215 1434h21q10 0 10 -11v-1413q0 -10 -10 -10h-21q-10 0 -10 10v1413q0 11 10 11z" glyph-name="Igrave" horiz-adv-x="450" unicode="Ì"/><glyph d="M233 1745l216 170q10 8 16 2l12 -16q8 -8 2 -15l-223 -168q-12 -10 -23 4t0 23zM215 1434h21q10 0 10 -11v-1413q0 -10 -10 -10h-21q-10 0 -10 10v1413q0 11 10 11z" glyph-name="Iacute" horiz-adv-x="450" unicode="Í"/><glyph d="M203 1929h33q8 0 14 -6l184 -192q6 -11 -6 -23t-20 0l-181 188h-14l-195 -182q-8 -8 -20 4t-4 19l194 186q7 6 15 6zM215 1434h21q10 0 10 -11v-1413q0 -10 -10 -10h-21q-10 0 -10 10v1413q0 11 10 11z" glyph-name="Icircumflex" horiz-adv-x="450" unicode="Î"/><glyph d="M29 1843h20q10 0 10 -10v-133q0 -10 -10 -10h-20q-10 0 -11 10v133q1 10 11 10zM377 1843h20q10 0 11 -10v-133q0 -10 -11 -10h-20q-10 0 -10 10v133q0 10 10 10zM215 1434h21q10 0 10 -11v-1413q0 -10 -10 -10h-21q-10 0 -10 10v1413q0 11 10 11z" glyph-name="Idieresis" horiz-adv-x="450" unicode="Ï"/><glyph d="M215 1434h471q180 0 279.5 -96.5t99.5 -272.5v-696q0 -176 -94 -272.5t-264 -96.5h-492q-10 0 -10 10v701h-193q-6 0 -6 10v12q0 10 6 10h193v680q0 11 10 11zM1024 369v696q0 160 -88 248t-250 88h-440v-658h221q8 0 8 -10v-12q0 -10 -8 -10h-221v-678h461 q152 0 234.5 88t82.5 248z" glyph-name="Eth" horiz-adv-x="1249" unicode="Ð"/><glyph d="M547 1833q47 0 111 -30.5t92 -30.5q42 0 68 39q27 39 41 28q13 -10 5 -20q-29 -43 -52.5 -61.5t-64.5 -18.5t-103 30.5t-97 30.5q-63 0 -94 -55q-5 -10 -21 -4t-10 16q37 76 125 76zM1010 1434h20q10 0 10 -11v-1413q0 -10 -10 -10h-61q-10 0 -15 10l-698 1389h-10v-1389 q0 -10 -10 -10h-21q-10 0 -10 10v1413q0 10 10 11h61q10 0 15 -13l698 -1388h10v1390q1 11 11 11z" glyph-name="Ntilde" horiz-adv-x="1245" unicode="Ñ"/><glyph d="M367 1880l12 16q6 6 16 -2l215 -170q11 -6 0 -21q-10 -15 -22 -5l-223 168q-6 6 2 14zM553 1434h156q176 0 272 -96.5t96 -272.5v-696q0 -176 -96 -272.5t-272 -96.5h-156q-176 0 -272.5 96.5t-96.5 272.5v696q0 176 96.5 272.5t272.5 96.5zM1036 369v696q0 160 -86 248 t-241 88h-156q-156 0 -242 -88t-86 -248v-696q0 -160 86 -248t242 -88h156q156 0 241.5 88t85.5 248z" glyph-name="Ograve" horiz-adv-x="1261" unicode="Ò"/><glyph d="M637 1745l215 170q10 8 16 2l13 -16q8 -8 2 -15l-224 -168q-12 -10 -22 4q-10 15 0 23zM553 1434h156q176 0 272 -96.5t96 -272.5v-696q0 -176 -96 -272.5t-272 -96.5h-156q-176 0 -272.5 96.5t-96.5 272.5v696q0 176 96.5 272.5t272.5 96.5zM1036 369v696q0 160 -86 248 t-241 88h-156q-156 0 -242 -88t-86 -248v-696q0 -160 86 -248t242 -88h156q156 0 241.5 88t85.5 248z" glyph-name="Oacute" horiz-adv-x="1261" unicode="Ó"/><glyph d="M606 1929h33q8 0 14 -6l185 -192q7 -11 -6 -23t-21 0l-180 188h-15l-194 -182q-8 -8 -20 4q-13 12 -5 19l195 186q6 6 14 6zM553 1434h156q176 0 272 -96.5t96 -272.5v-696q0 -176 -96 -272.5t-272 -96.5h-156q-176 0 -272.5 96.5t-96.5 272.5v696q0 176 96.5 272.5 t272.5 96.5zM1036 369v696q0 160 -86 248t-241 88h-156q-156 0 -242 -88t-86 -248v-696q0 -160 86 -248t242 -88h156q156 0 241.5 88t85.5 248z" glyph-name="Ocircumflex" horiz-adv-x="1261" unicode="Ô"/><glyph d="M528 1833q47 0 110.5 -30.5t92.5 -30.5q43 0 69 39q27 39 36 30q18 -12 10 -22q-29 -43 -52.5 -61.5t-64.5 -18.5t-103.5 30.5t-97.5 30.5q-63 0 -94 -55q-4 -10 -20 -4t-11 16q37 76 125 76zM553 1434h156q176 0 272 -96.5t96 -272.5v-696q0 -176 -96 -272.5t-272 -96.5 h-156q-176 0 -272.5 96.5t-96.5 272.5v696q0 176 96.5 272.5t272.5 96.5zM1036 369v696q0 160 -86 248t-241 88h-156q-156 0 -242 -88t-86 -248v-696q0 -160 86 -248t242 -88h156q156 0 241.5 88t85.5 248z" glyph-name="Otilde" horiz-adv-x="1261" unicode="Õ"/><glyph d="M432 1843h21q10 0 10 -10v-133q0 -10 -10 -10h-21q-10 0 -10 10v133q0 10 10 10zM780 1843h21q10 0 10 -10v-133q0 -10 -10 -10h-21q-10 0 -10 10v133q0 10 10 10zM553 1434h156q176 0 272 -96.5t96 -272.5v-696q0 -176 -96 -272.5t-272 -96.5h-156q-176 0 -272.5 96.5 t-96.5 272.5v696q0 176 96.5 272.5t272.5 96.5zM1036 369v696q0 160 -86 248t-241 88h-156q-156 0 -242 -88t-86 -248v-696q0 -160 86 -248t242 -88h156q156 0 241.5 88t85.5 248z" glyph-name="Odieresis" horiz-adv-x="1261" unicode="Ö"/><glyph d="M133 1032q-6 9 4 19t19 4l301 -310l303 304q6 9 18 -4t4 -19l-305 -305l283 -301q7 -7 -4 -19q-10 -12 -19 -4l-282 301l-305 -305q-6 -9 -20 4q-13 12 -3 19l307 307z" glyph-name="multiply" horiz-adv-x="909" unicode="×"/><glyph d="M1077 369q0 -176 -96 -272.5t-272 -96.5h-156q-94 0 -162 27l-37 -105q-2 -10 -16 -10h-14q-8 0 -5 14l41 115q-176 86 -176 328v696q0 176 96.5 272.5t272.5 96.5h156q84 0 145 -21l31 88q4 12 16 12h14q11 0 7 -12l-37 -100q193 -82 192 -336v-696zM225 1065v-696 q0 -213 148 -295l469 1306q-55 20 -133 21h-156q-156 0 -242 -88t-86 -248zM1036 369v696q0 223 -162 303l-471 -1309q61 -27 150 -26h156q156 0 241.5 88t85.5 248z" glyph-name="Oslash" horiz-adv-x="1261" unicode="Ø"/><glyph d="M346 1880l12 16q6 6 17 -2l215 -170q11 -6 0 -21q-10 -15 -23 -5l-223 168q-6 6 2 14zM1026 1434h21q10 0 10 -11v-1054q0 -176 -96.5 -272.5t-272.5 -96.5h-135q-176 0 -272.5 96.5t-96.5 272.5v1054q0 10 11 11h20q10 0 10 -11v-1054q0 -160 86 -248t242 -88h135 q156 0 242 88t86 248v1054q0 11 10 11z" glyph-name="Ugrave" horiz-adv-x="1241" unicode="Ù"/><glyph d="M616 1745l215 170q10 8 17 2l12 -16q8 -8 2 -15l-223 -168q-12 -10 -23 4t0 23zM1026 1434h21q10 0 10 -11v-1054q0 -176 -96.5 -272.5t-272.5 -96.5h-135q-176 0 -272.5 96.5t-96.5 272.5v1054q0 10 11 11h20q10 0 10 -11v-1054q0 -160 86 -248t242 -88h135 q156 0 242 88t86 248v1054q0 11 10 11z" glyph-name="Uacute" horiz-adv-x="1241" unicode="Ú"/><glyph d="M586 1929h32q8 0 15 -6l184 -192q6 -11 -6 -23t-20 0l-181 188h-14l-195 -182q-8 -8 -20 4t-4 19l194 186q7 6 15 6zM1026 1434h21q10 0 10 -11v-1054q0 -176 -96.5 -272.5t-272.5 -96.5h-135q-176 0 -272.5 96.5t-96.5 272.5v1054q0 10 11 11h20q10 0 10 -11v-1054 q0 -160 86 -248t242 -88h135q156 0 242 88t86 248v1054q0 11 10 11z" glyph-name="Ucircumflex" horiz-adv-x="1241" unicode="Û"/><glyph d="M412 1843h20q10 0 10 -10v-133q0 -10 -10 -10h-20q-10 0 -11 10v133q1 10 11 10zM760 1843h20q10 0 11 -10v-133q0 -10 -11 -10h-20q-10 0 -10 10v133q0 10 10 10zM1026 1434h21q10 0 10 -11v-1054q0 -176 -96.5 -272.5t-272.5 -96.5h-135q-176 0 -272.5 96.5 t-96.5 272.5v1054q0 10 11 11h20q10 0 10 -11v-1054q0 -160 86 -248t242 -88h135q156 0 242 88t86 248v1054q0 11 10 11z" glyph-name="Udieresis" horiz-adv-x="1241" unicode="Ü"/><glyph d="M557 1745l215 170q10 8 16 2l13 -16q8 -8 2 -15l-223 -168q-13 -10 -23 4t0 23zM981 1434h25q18 0 8 -13l-443 -755v-656q0 -10 -10 -10h-20q-10 0 -11 10v660l-426 751q-6 12 9 13h24q4 0 10 -9l406 -718l418 718q6 9 10 9z" glyph-name="Yacute" horiz-adv-x="1116" unicode="Ý"/><glyph d="M246 1147h424q152 0 234.5 -85t82.5 -243v-125q0 -156 -78 -241.5t-219 -85.5h-444v-357q0 -10 -10 -10h-21q-10 0 -10 10v1413q0 10 10 11h21q10 0 10 -11v-276zM946 694v125q0 141 -71.5 218t-204.5 77h-424v-715h444q121 0 188.5 77t67.5 218z" glyph-name="Thorn" horiz-adv-x="1130" unicode="Þ"/><glyph d="M410 1536h157q102 0 158.5 -53t56.5 -148v-155q0 -74 -33.5 -112t-80.5 -49t-94.5 -21.5t-81 -48.5t-33.5 -111v-62q0 -156 153 -155h123q102 0 158.5 -53.5t56.5 -147.5v-197q0 -223 -221 -223h-330q-10 0 -10 10v13q0 10 10 10h330q180 0 180 190v197q0 78 -45 121 t-129 43h-123q-195 0 -194 192v62q0 82 33.5 126t81 57t128 31t80.5 128v155q0 78 -46 123t-128 45h-157q-82 0 -128 -55t-46 -158v-1280q0 -10 -11 -10h-20q-10 0 -10 10v1280q0 117 56.5 181.5t158.5 64.5z" glyph-name="germandbls" horiz-adv-x="1093" unicode="ß"/><glyph d="M473 1288l-223 168q-6 6 2 14l12 17q6 6 17 -2l215 -170q10 -8 0 -23q-11 -14 -23 -4zM266 1024h264q119 0 184.5 -81t65.5 -226v-707q0 -10 -10 -10h-401q-113 0 -164 47t-51 160v143q0 102 50 153.5t165 51.5h370v162q0 131 -54 202.5t-155 71.5h-264q-10 0 -10 10v13 q0 10 10 10zM369 33h370v489h-370q-94 0 -134 -43t-40 -129v-143q0 -96 41 -135t133 -39z" glyph-name="agrave" horiz-adv-x="964" unicode="à"/><glyph d="M522 1335l215 170q10 8 17 2l12 -16q8 -8 2 -14l-223 -168q-13 -10 -23 4t0 22zM266 1024h264q119 0 184.5 -81t65.5 -226v-707q0 -10 -10 -10h-401q-113 0 -164 47t-51 160v143q0 102 50 153.5t165 51.5h370v162q0 131 -54 202.5t-155 71.5h-264q-10 0 -10 10v13 q0 10 10 10zM369 33h370v489h-370q-94 0 -134 -43t-40 -129v-143q0 -96 41 -135t133 -39z" glyph-name="aacute" horiz-adv-x="964" unicode="á"/><glyph d="M524 1520q8 0 15 -7l184 -192q6 -10 -6 -22q-12 -13 -21 -1l-180 189h-14l-195 -182q-8 -8 -20 4t-4 18l194 186q6 6 15 7h32zM266 1024h264q119 0 184.5 -81t65.5 -226v-707q0 -10 -10 -10h-401q-113 0 -164 47t-51 160v143q0 102 50 153.5t165 51.5h370v162 q0 131 -54 202.5t-155 71.5h-264q-10 0 -10 10v13q0 10 10 10zM369 33h370v489h-370q-94 0 -134 -43t-40 -129v-143q0 -96 41 -135t133 -39z" glyph-name="acircumflex" horiz-adv-x="964" unicode="â"/><glyph d="M616 1362q28 0 45 14.5t35 38.5t30 14q12 -11 5 -20q-29 -43 -52.5 -61.5t-64.5 -18.5t-103 31t-97 31q-63 0 -95 -56q-4 -10 -20 -4t-10 17q37 76 125 75q47 0 110.5 -30.5t91.5 -30.5zM266 1024h264q119 0 184.5 -81t65.5 -226v-707q0 -10 -10 -10h-401q-113 0 -164 47 t-51 160v143q0 102 50 153.5t165 51.5h370v162q0 131 -54 202.5t-155 71.5h-264q-10 0 -10 10v13q0 10 10 10zM369 33h370v489h-370q-94 0 -134 -43t-40 -129v-143q0 -96 41 -135t133 -39z" glyph-name="atilde" horiz-adv-x="964" unicode="ã"/><glyph d="M338 1280h-21q-10 0 -10 10v133q0 10 10 11h21q10 0 10 -11v-133q0 -10 -10 -10zM686 1280h-20q-10 0 -11 10v133q0 10 11 11h20q10 0 10 -11v-133q0 -10 -10 -10zM266 1024h264q119 0 184.5 -81t65.5 -226v-707q0 -10 -10 -10h-401q-113 0 -164 47t-51 160v143 q0 102 50 153.5t165 51.5h370v162q0 131 -54 202.5t-155 71.5h-264q-10 0 -10 10v13q0 10 10 10zM369 33h370v489h-370q-94 0 -134 -43t-40 -129v-143q0 -96 41 -135t133 -39z" glyph-name="adieresis" horiz-adv-x="964" unicode="ä"/><glyph d="M510 1272q-70 0 -112 42t-42 111.5t42 110.5t112 41t111 -41t41 -110.5t-41 -111.5t-111 -42zM509 1542q-52 0 -85 -31.5t-33 -85t33 -86t86 -32.5t85 32.5t32 86t-33 85t-85 31.5zM266 1024h264q119 0 184.5 -81t65.5 -226v-707q0 -10 -10 -10h-401q-113 0 -164 47 t-51 160v143q0 102 50 153.5t165 51.5h370v162q0 131 -54 202.5t-155 71.5h-264q-10 0 -10 10v13q0 10 10 10zM369 33h370v489h-370q-94 0 -134 -43t-40 -129v-143q0 -96 41 -135t133 -39z" glyph-name="aring" horiz-adv-x="964" unicode="å"/><glyph d="M1014 1024h86q242 0 241 -242v-39q0 -262 -245 -262h-328v-174q0 -274 258 -274h193q10 0 10 -10v-13q0 -10 -10 -10h-193q-219 0 -278 166q-59 -166 -279 -166h-100q-113 0 -164 47t-51 160v102q0 102 50 153.5t165 51.5h358v203q0 131 -54.5 202.5t-154.5 71.5h-252 q-10 0 -10 10v13q0 10 10 10h252q178 0 232 -170q59 170 264 170zM1300 743v39q0 209 -200 209h-86q-117 0 -181.5 -71.5t-64.5 -202.5v-203h328q204 0 204 229zM369 33h100q258 0 258 274v174h-358q-94 0 -134 -43t-40 -129v-102q0 -96 41 -135t133 -39z" glyph-name="ae" horiz-adv-x="1486" unicode="æ"/><glyph d="M492 1024h225q10 0 10 -10v-13q0 -10 -10 -10h-225q-131 0 -204 -71.5t-73 -202.5v-410q0 -131 67.5 -202.5t188.5 -71.5h287q10 0 10 -10v-13q0 -10 -10 -10h-287q-141 0 -219 80t-78 227v410q0 145 83 226t235 81zM508 -123h67q63 -2 101.5 -40.5t38.5 -110.5 t-43.5 -114t-109.5 -42t-106 34t-42 91q0 10 10 10h18q10 0 11 -10q2 -43 30.5 -67.5t76.5 -24.5t81 33.5t33 89.5t-28 86t-71 30h-67q-10 0 -10 11v14q0 10 10 10z" glyph-name="ccedilla" horiz-adv-x="839" unicode="ç"/><glyph d="M461 1288l-223 168q-6 6 2 14l12 17q6 6 16 -2l215 -170q10 -8 0 -23q-10 -14 -22 -4zM461 1024h106q242 0 242 -254v-63q0 -250 -242 -250h-352v-150q0 -274 258 -274h213q10 0 10 -10v-13q0 -10 -10 -10h-213q-299 0 -299 307v410q0 145 75 226t212 81zM768 707v63 q0 221 -201 221h-106q-117 0 -181.5 -71.5t-64.5 -202.5v-228h352q104 0 152.5 53.5t48.5 164.5z" glyph-name="egrave" horiz-adv-x="954" unicode="è"/><glyph d="M510 1335l215 170q10 8 16 2l13 -16q8 -8 2 -14l-224 -168q-12 -10 -22 4t0 22zM461 1024h106q242 0 242 -254v-63q0 -250 -242 -250h-352v-150q0 -274 258 -274h213q10 0 10 -10v-13q0 -10 -10 -10h-213q-299 0 -299 307v410q0 145 75 226t212 81zM768 707v63 q0 221 -201 221h-106q-117 0 -181.5 -71.5t-64.5 -202.5v-228h352q104 0 152.5 53.5t48.5 164.5z" glyph-name="eacute" horiz-adv-x="954" unicode="é"/><glyph d="M512 1520q8 0 14 -7l185 -192q6 -10 0 -16l-9 -9q-10 -10 -18 2l-180 189h-15l-194 -182q-8 -8 -20 4q-13 12 -5 18l195 186q6 6 14 7h33zM461 1024h106q242 0 242 -254v-63q0 -250 -242 -250h-352v-150q0 -274 258 -274h213q10 0 10 -10v-13q0 -10 -10 -10h-213 q-299 0 -299 307v410q0 145 75 226t212 81zM768 707v63q0 221 -201 221h-106q-117 0 -181.5 -71.5t-64.5 -202.5v-228h352q104 0 152.5 53.5t48.5 164.5z" glyph-name="ecircumflex" horiz-adv-x="954" unicode="ê"/><glyph d="M326 1280h-21q-10 0 -10 10v133q0 10 10 11h21q10 0 10 -11v-133q0 -10 -10 -10zM674 1280h-21q-10 0 -10 10v133q0 10 10 11h21q10 0 10 -11v-133q0 -10 -10 -10zM461 1024h106q242 0 242 -254v-63q0 -250 -242 -250h-352v-150q0 -274 258 -274h213q10 0 10 -10v-13 q0 -10 -10 -10h-213q-299 0 -299 307v410q0 145 75 226t212 81zM768 707v63q0 221 -201 221h-106q-117 0 -181.5 -71.5t-64.5 -202.5v-228h352q104 0 152.5 53.5t48.5 164.5z" glyph-name="edieresis" horiz-adv-x="954" unicode="ë"/><glyph d="M-49 1470l12 17q6 6 17 -2l215 -170q11 -9 0 -23t-23 -4l-223 168q-6 6 2 14zM195 1024h20q10 0 10 -10v-830q0 -152 123 -151h45q10 0 10 -10v-13q0 -10 -10 -10h-45q-164 0 -164 184v830q1 10 11 10z" glyph-name="igrave" horiz-adv-x="475" unicode="ì"/><glyph d="M221 1335l215 170q10 8 17 2l12 -16q8 -8 2 -14l-223 -168q-12 -10 -22 4q-11 14 -1 22zM195 1024h20q10 0 10 -10v-830q0 -152 123 -151h45q10 0 10 -10v-13q0 -10 -10 -10h-45q-164 0 -164 184v830q1 10 11 10z" glyph-name="iacute" horiz-adv-x="475" unicode="í"/><glyph d="M190 1520h33q8 0 15 -7l184 -192q6 -10 -6 -22q-12 -13 -21 -1l-180 189h-14l-195 -182q-8 -8 -20 4t-4 18l194 186q6 7 14 7zM195 1024h20q10 0 10 -10v-830q0 -152 123 -151h45q10 0 10 -10v-13q0 -10 -10 -10h-45q-164 0 -164 184v830q1 10 11 10z" glyph-name="icircumflex" horiz-adv-x="475" unicode="î"/><glyph d="M16 1434h21q10 0 10 -11v-133q0 -10 -10 -10h-21q-10 0 -10 10v133q0 11 10 11zM365 1434h20q10 0 10 -11v-133q0 -10 -10 -10h-20q-10 0 -11 10v133q1 11 11 11zM195 1024h20q10 0 10 -10v-830q0 -152 123 -151h45q10 0 10 -10v-13q0 -10 -10 -10h-45q-164 0 -164 184 v830q1 10 11 10z" glyph-name="idieresis" horiz-adv-x="475" unicode="ï"/><glyph d="M879 307q0 -145 -80 -226t-226 -81h-110q-137 0 -213 75t-76 212v442q0 141 78 218t219 77h367v246q0 104 -47 164l-99 -101q-8 -8 -16 0l-10 10q-8 8 0 17l100 100q-53 43 -133 43h-168q-10 0 -10 10v13q0 10 10 10h168q98 0 160 -49l102 104q8 8 16 0l11 -10 q8 -8 0 -16l-103 -105q59 -70 60 -190v-963zM463 33h110q125 0 195 71.5t70 202.5v684h-367q-121 0 -188.5 -68.5t-67.5 -193.5v-442q0 -121 64.5 -187.5t183.5 -66.5z" glyph-name="eth" horiz-adv-x="1099" unicode="ð"/><glyph d="M576 1362q28 0 44.5 14.5t34.5 38.5t30 14q12 -11 5 -20q-29 -43 -52.5 -61.5t-64.5 -18.5t-103 31t-97 31q-63 0 -94 -56q-5 -10 -21 -4t-10 17q37 76 125 75q47 0 111 -30.5t92 -30.5zM215 1024h309q145 0 225 -81t80 -226v-707q0 -10 -10 -10h-20q-10 0 -11 10v707 q0 131 -69.5 202.5t-194.5 71.5h-288v-981q0 -10 -11 -10h-20q-10 0 -10 10v994q0 20 20 20z" glyph-name="ntilde" unicode="ñ"/><glyph d="M258 1470l12 17q6 6 17 -2l215 -170q10 -8 0 -23q-10 -14 -23 -4l-223 168q-6 6 2 14zM471 1024h92q133 0 205 -77t72 -218v-442q0 -137 -75 -212t-212 -75h-90q-137 0 -213 75t-76 212v442q0 141 78 218t219 77zM799 287v442q0 125 -61.5 193.5t-174.5 68.5h-92 q-121 0 -188.5 -68.5t-67.5 -193.5v-442q0 -121 64.5 -187.5t183.5 -66.5h90q117 0 181.5 66.5t64.5 187.5z" glyph-name="ograve" unicode="ò"/><glyph d="M528 1335l215 170q10 8 17 2l12 -16q8 -8 2 -14l-223 -168q-12 -10 -22 4q-11 14 -1 22zM471 1024h92q133 0 205 -77t72 -218v-442q0 -137 -75 -212t-212 -75h-90q-137 0 -213 75t-76 212v442q0 141 78 218t219 77zM799 287v442q0 125 -61.5 193.5t-174.5 68.5h-92 q-121 0 -188.5 -68.5t-67.5 -193.5v-442q0 -121 64.5 -187.5t183.5 -66.5h90q117 0 181.5 66.5t64.5 187.5z" glyph-name="oacute" unicode="ó"/><glyph d="M498 1520h32q8 0 15 -7l184 -192q6 -10 -6 -22q-12 -13 -21 -1l-180 189h-14l-195 -182q-8 -8 -20 4t-4 18l194 186q7 7 15 7zM471 1024h92q133 0 205 -77t72 -218v-442q0 -137 -75 -212t-212 -75h-90q-137 0 -213 75t-76 212v442q0 141 78 218t219 77zM799 287v442 q0 125 -61.5 193.5t-174.5 68.5h-92q-121 0 -188.5 -68.5t-67.5 -193.5v-442q0 -121 64.5 -187.5t183.5 -66.5h90q117 0 181.5 66.5t64.5 187.5z" glyph-name="ocircumflex" unicode="ô"/><glyph d="M622 1362q28 0 45 14.5t35 38.5t30 14q12 -11 5 -20q-29 -43 -52 -61.5t-65 -18.5t-103.5 31t-96.5 31q-63 0 -94 -56q-5 -10 -21 -4t-10 17q37 76 125 75q47 0 110.5 -30.5t91.5 -30.5zM471 1024h92q133 0 205 -77t72 -218v-442q0 -137 -75 -212t-212 -75h-90 q-137 0 -213 75t-76 212v442q0 141 78 218t219 77zM799 287v442q0 125 -61.5 193.5t-174.5 68.5h-92q-121 0 -188.5 -68.5t-67.5 -193.5v-442q0 -121 64.5 -187.5t183.5 -66.5h90q117 0 181.5 66.5t64.5 187.5z" glyph-name="otilde" unicode="õ"/><glyph d="M324 1434h20q10 0 10 -11v-133q0 -10 -10 -10h-20q-10 0 -11 10v133q1 11 11 11zM672 1434h20q10 0 10 -11v-133q0 -10 -10 -10h-20q-10 0 -10 10v133q0 11 10 11zM471 1024h92q133 0 205 -77t72 -218v-442q0 -137 -75 -212t-212 -75h-90q-137 0 -213 75t-76 212v442 q0 141 78 218t219 77zM799 287v442q0 125 -61.5 193.5t-174.5 68.5h-92q-121 0 -188.5 -68.5t-67.5 -193.5v-442q0 -121 64.5 -187.5t183.5 -66.5h90q117 0 181.5 66.5t64.5 187.5z" glyph-name="odieresis" unicode="ö"/><glyph d="M557 1069h27q20 0 20 -20v-31q0 -20 -20 -21h-27q-20 0 -20 21v31q0 20 20 20zM127 729h877q12 0 12 -10v-12q0 -10 -12 -11h-877q-12 0 -12 11v12q0 10 12 10zM557 461h27q20 0 20 -21v-30q0 -20 -20 -21h-27q-20 0 -20 21v30q0 21 20 21z" glyph-name="divide" horiz-adv-x="1148" unicode="÷"/><glyph d="M870 729v-442q0 -137 -74.5 -212t-211.5 -75h-90q-82 0 -142 27l-108 -310q-2 -10 -17 -10h-14q-8 0 -4 14l113 320q-117 72 -117 246v442q0 141 77.5 218t219.5 77h92q41 0 74 -6l106 299q4 12 17 12h14q10 0 6 -12l-109 -309q168 -57 168 -279zM246 729v-442 q0 -143 90 -209l321 907q-31 6 -63 6h-92q-121 0 -188.5 -68.5t-67.5 -193.5zM829 287v442q0 195 -139 246l-325 -916q53 -27 129 -26h90q117 0 181 66.5t64 187.5z" glyph-name="oslash" unicode="ø"/><glyph d="M268 1470l13 17q6 6 16 -2l215 -170q10 -8 0 -23q-10 -14 -23 -4l-223 168q-6 6 2 14zM788 1024h21q10 0 10 -10v-994q0 -20 -20 -20h-310q-145 0 -225 81t-80 226v707q0 10 11 10h20q10 0 10 -10v-707q0 -131 70 -202.5t194 -71.5h289v981q0 10 10 10z" glyph-name="ugrave" unicode="ù"/><glyph d="M539 1335l215 170q10 8 16 2l12 -16q8 -8 2 -14l-223 -168q-12 -10 -22 4t0 22zM788 1024h21q10 0 10 -10v-994q0 -20 -20 -20h-310q-145 0 -225 81t-80 226v707q0 10 11 10h20q10 0 10 -10v-707q0 -131 70 -202.5t194 -71.5h289v981q0 10 10 10z" glyph-name="uacute" unicode="ú"/><glyph d="M508 1520h33q8 0 14 -7l184 -192q6 -10 -6 -22q-12 -13 -20 -1l-181 189h-14l-194 -182q-8 -8 -21 4q-12 12 -4 18l195 186q6 7 14 7zM788 1024h21q10 0 10 -10v-994q0 -20 -20 -20h-310q-145 0 -225 81t-80 226v707q0 10 11 10h20q10 0 10 -10v-707q0 -131 70 -202.5 t194 -71.5h289v981q0 10 10 10z" glyph-name="ucircumflex" unicode="û"/><glyph d="M334 1434h20q10 0 11 -11v-133q0 -10 -11 -10h-20q-10 0 -10 10v133q0 11 10 11zM682 1434h20q10 0 11 -11v-133q0 -10 -11 -10h-20q-10 0 -10 10v133q0 11 10 11zM788 1024h21q10 0 10 -10v-994q0 -20 -20 -20h-310q-145 0 -225 81t-80 226v707q0 10 11 10h20 q10 0 10 -10v-707q0 -131 70 -202.5t194 -71.5h289v981q0 10 10 10z" glyph-name="udieresis" unicode="ü"/><glyph d="M477 1335l215 170q10 8 17 2l12 -16q8 -8 2 -14l-223 -168q-13 -10 -23 4t0 22zM750 1024h22q10 0 8 -12l-291 -1012l-147 -500q-4 -12 -12 -12h-21q-12 0 -8 14l150 498h-29q-8 0 -10 8l-299 1004q-2 12 8 12h22q8 0 11 -8l290 -983h17l278 983q3 8 11 8z" glyph-name="yacute" horiz-adv-x="892" unicode="ý"/><glyph d="M236 1024h307q141 0 219 -80t78 -227v-410q0 -145 -83 -226t-235 -81h-286v-502q0 -10 -11 -10h-20q-10 0 -10 10v1925q0 10 10 11h20q10 0 11 -11v-399zM799 307v410q0 131 -67.5 202.5t-188.5 71.5h-307v-958h286q131 0 204 71.5t73 202.5z" glyph-name="thorn" unicode="þ"/><glyph d="M293 1280h-21q-10 0 -10 10v133q0 10 10 11h21q10 0 10 -11v-133q0 -10 -10 -10zM641 1280h-20q-10 0 -11 10v133q0 10 11 11h20q10 0 10 -11v-133q0 -10 -10 -10zM750 1024h22q10 0 8 -12l-291 -1012l-147 -500q-4 -12 -12 -12h-21q-12 0 -8 14l150 498h-29q-8 0 -10 8 l-299 1004q-2 12 8 12h22q8 0 11 -8l290 -983h17l278 983q3 8 11 8z" glyph-name="ydieresis" horiz-adv-x="892" unicode="ÿ"/><glyph d="M811 1782h-416q-10 0 -10 10v12q0 10 10 11h416q10 0 10 -11v-12q0 -10 -10 -10zM1044 0h-24q-8 0 -10 8l-164 561h-527l-174 -561q-2 -8 -10 -8h-24q-12 0 -9 12l445 1413q2 8 10 9h68q8 -1 10 -9l418 -1413q4 -12 -9 -12zM330 602h508l-234 799h-24z" glyph-name="Amacron" horiz-adv-x="1155" unicode="Ā"/><glyph d="M729 1372h-416q-10 0 -10 10v13q0 10 10 10h416q10 0 10 -10v-13q0 -10 -10 -10zM266 1024h264q119 0 184.5 -81t65.5 -226v-707q0 -10 -10 -10h-401q-113 0 -164 47t-51 160v143q0 102 50 153.5t165 51.5h370v162q0 131 -54 202.5t-155 71.5h-264q-10 0 -10 10v13 q0 10 10 10zM369 33h370v489h-370q-94 0 -134 -43t-40 -129v-143q0 -96 41 -135t133 -39z" glyph-name="amacron" horiz-adv-x="964" unicode="ā"/><glyph d="M797 1923h10q10 0 10 -12q0 -96 -55 -150.5t-149.5 -54.5t-149.5 53t-55 152q0 12 10 12h10q10 0 10 -12q0 -82 49.5 -127t125 -45t124.5 45t49 127q1 12 11 12zM1044 0h-24q-8 0 -10 8l-164 561h-527l-174 -561q-2 -8 -10 -8h-24q-12 0 -9 12l445 1413q2 8 10 9h68 q8 -1 10 -9l418 -1413q4 -12 -9 -12zM330 602h508l-234 799h-24z" glyph-name="Abreve" horiz-adv-x="1155" unicode="Ă"/><glyph d="M715 1513h10q10 0 10 -12q0 -96 -55 -150.5t-149.5 -54.5t-149.5 53.5t-55 151.5q0 12 10 12h10q10 0 10 -12q0 -82 49.5 -127t125 -45t125 45t49.5 127q0 12 10 12zM266 1024h264q119 0 184.5 -81t65.5 -226v-707q0 -10 -10 -10h-401q-113 0 -164 47t-51 160v143 q0 102 50 153.5t165 51.5h370v162q0 131 -54 202.5t-155 71.5h-264q-10 0 -10 10v13q0 10 10 10zM369 33h370v489h-370q-94 0 -134 -43t-40 -129v-143q0 -96 41 -135t133 -39z" glyph-name="abreve" horiz-adv-x="964" unicode="ă"/><glyph d="M1044 0q-72 0 -112.5 -45t-40.5 -124t49 -124t139 -45q10 0 11 -10v-12q0 -10 -11 -11q-109 0 -169 53.5t-60 141.5t41 139t115 62l-160 544h-527l-174 -561q-2 -8 -10 -8h-24q-12 0 -9 12l445 1413q2 8 10 9h68q8 -1 10 -9l418 -1413q4 -12 -9 -12zM330 602h508 l-234 799h-24z" glyph-name="Aogonek" horiz-adv-x="1155" unicode="Ą"/><glyph d="M770 0h-31q-72 0 -112.5 -45t-40.5 -124t49 -124t139 -45q10 0 10 -10v-12q0 -10 -10 -11q-109 0 -169 53.5t-60 159.5t84 158h-260q-113 0 -164 47t-51 160v143q0 102 50 153.5t165 51.5h370v162q0 131 -54 202.5t-155 71.5h-264q-10 0 -10 10v13q0 10 10 10h264 q119 0 184.5 -81t65.5 -226v-707q0 -10 -10 -10zM195 350v-143q0 -96 40.5 -135t133.5 -39h370v489h-370q-94 0 -134 -43t-40 -129z" glyph-name="aogonek" horiz-adv-x="964" unicode="ą"/><glyph d="M629 1745l215 170q10 8 16 2l12 -16q8 -8 2 -15l-223 -168q-12 -10 -22 4q-10 15 0 23zM563 1434h369q10 0 10 -11v-12q0 -10 -10 -10h-369q-162 0 -250 -88t-88 -248v-696q0 -160 83 -248t235 -88h430q10 0 10 -10v-13q0 -10 -10 -10h-430q-170 0 -264.5 96.5 t-94.5 272.5v696q0 176 99.5 272.5t279.5 96.5z" glyph-name="Cacute" horiz-adv-x="1044" unicode="Ć"/><glyph d="M504 1335l215 170q10 8 16 2l13 -16q8 -8 2 -14l-224 -168q-12 -10 -22 4t0 22zM492 1024h225q10 0 10 -10v-13q0 -10 -10 -10h-225q-131 0 -204 -71.5t-73 -202.5v-410q0 -131 67.5 -202.5t188.5 -71.5h287q10 0 10 -10v-13q0 -10 -10 -10h-287q-141 0 -219 80t-78 227 v410q0 145 83 226t235 81z" glyph-name="cacute" horiz-adv-x="839" unicode="ć"/><glyph d="M598 1929h33q8 0 14 -6l184 -192q6 -11 -6 -23t-20 0l-180 188h-15l-194 -182q-8 -8 -21 4q-12 12 -4 19l195 186q6 6 14 6zM563 1434h369q10 0 10 -11v-12q0 -10 -10 -10h-369q-162 0 -250 -88t-88 -248v-696q0 -160 83 -248t235 -88h430q10 0 10 -10v-13q0 -10 -10 -10 h-430q-170 0 -264.5 96.5t-94.5 272.5v696q0 176 99.5 272.5t279.5 96.5z" glyph-name="Ccircumflex" horiz-adv-x="1044" unicode="Ĉ"/><glyph d="M473 1520h33q8 0 14 -7l185 -192q6 -10 0 -16l-9 -9q-10 -10 -18 2l-180 189h-15l-194 -182q-8 -8 -21 4q-12 12 -4 18l195 186q6 7 14 7zM492 1024h225q10 0 10 -10v-13q0 -10 -10 -10h-225q-131 0 -204 -71.5t-73 -202.5v-410q0 -131 67.5 -202.5t188.5 -71.5h287 q10 0 10 -10v-13q0 -10 -10 -10h-287q-141 0 -219 80t-78 227v410q0 145 83 226t235 81z" glyph-name="ccircumflex" horiz-adv-x="839" unicode="ĉ"/><glyph d="M606 1843h21q10 0 10 -10v-133q0 -10 -10 -10h-21q-10 0 -10 10v133q0 10 10 10zM563 1434h369q10 0 10 -11v-12q0 -10 -10 -10h-369q-162 0 -250 -88t-88 -248v-696q0 -160 83 -248t235 -88h430q10 0 10 -10v-13q0 -10 -10 -10h-430q-170 0 -264.5 96.5t-94.5 272.5v696 q0 176 99.5 272.5t279.5 96.5z" glyph-name="Cdotaccent" horiz-adv-x="1044" unicode="Ċ"/><glyph d="M481 1434h21q10 0 10 -11v-133q0 -10 -10 -10h-21q-10 0 -10 10v133q0 11 10 11zM492 1024h225q10 0 10 -10v-13q0 -10 -10 -10h-225q-131 0 -204 -71.5t-73 -202.5v-410q0 -131 67.5 -202.5t188.5 -71.5h287q10 0 10 -10v-13q0 -10 -10 -10h-287q-141 0 -219 80t-78 227 v410q0 145 83 226t235 81z" glyph-name="cdotaccent" horiz-adv-x="839" unicode="ċ"/><glyph d="M637 1702h-33q-8 0 -14 6l-184 193q-6 10 6 22t20 0l180 -188h15l194 182q8 8 21 -4q12 -12 4 -19l-195 -186q-6 -6 -14 -6zM563 1434h369q10 0 10 -11v-12q0 -10 -10 -10h-369q-162 0 -250 -88t-88 -248v-696q0 -160 83 -248t235 -88h430q10 0 10 -10v-13q0 -10 -10 -10 h-430q-170 0 -264.5 96.5t-94.5 272.5v696q0 176 99.5 272.5t279.5 96.5z" glyph-name="Ccaron" horiz-adv-x="1044" unicode="Č"/><glyph d="M512 1292h-33q-8 0 -14 6l-184 193q-6 10 6 22q12 13 20 0l180 -188h15l194 182q8 8 21 -4q12 -12 4 -18l-195 -187q-6 -6 -14 -6zM492 1024h225q10 0 10 -10v-13q0 -10 -10 -10h-225q-131 0 -204 -71.5t-73 -202.5v-410q0 -131 67.5 -202.5t188.5 -71.5h287q10 0 10 -10 v-13q0 -10 -10 -10h-287q-141 0 -219 80t-78 227v410q0 145 83 226t235 81z" glyph-name="ccaron" horiz-adv-x="839" unicode="č"/><glyph d="M614 1702h-32q-9 0 -15 6l-184 193q-6 10 6 22t21 0l180 -188h14l195 182q8 8 20 -4t4 -19l-194 -186q-6 -6 -15 -6zM215 1434h471q180 0 279.5 -96.5t99.5 -272.5v-696q0 -176 -94 -272.5t-264 -96.5h-492q-10 0 -10 10v1413q0 11 10 11zM1024 369v696q0 160 -88 248 t-250 88h-440v-1368h461q152 0 234.5 88t82.5 248z" glyph-name="Dcaron" horiz-adv-x="1249" unicode="Ď"/><glyph d="M1040 1587h37q14 0 15 -14v-53l-41 -289q0 -10 -11 -10h-14q-10 0 -10 10l41 289h-19q-12 0 -12 14v39q0 14 14 14zM788 1536h21q10 0 10 -10v-1516q0 -10 -10 -10h-338q-141 0 -219 80t-78 227v410q0 145 83 226t235 81h286v502q0 10 10 10zM471 33h307v958h-286 q-131 0 -204 -71.5t-73 -202.5v-410q0 -131 67.5 -202.5t188.5 -71.5z" glyph-name="dcaron" unicode="ď"/><glyph d="M215 1434h471q180 0 279.5 -96.5t99.5 -272.5v-696q0 -176 -94 -272.5t-264 -96.5h-492q-10 0 -10 10v701h-185q-6 0 -6 10v12q0 10 6 10h185v680q0 11 10 11zM1024 369v696q0 160 -88 248t-250 88h-440v-658h229q8 0 8 -10v-12q0 -10 -8 -10h-229v-678h461 q152 0 234.5 88t82.5 248z" glyph-name="Dcroat" horiz-adv-x="1249" unicode="Đ"/><glyph d="M819 1335h160q10 0 10 -10v-12q0 -10 -10 -10h-160v-1293q0 -10 -10 -10h-338q-141 0 -219 80t-78 227v410q0 145 83 226t235 81h286v279h-215q-10 0 -10 10v12q0 10 10 10h215v191q0 10 10 10h21q10 0 10 -10v-191zM471 33h307v958h-286q-131 0 -204 -71.5t-73 -202.5 v-410q0 -131 67.5 -202.5t188.5 -71.5z" glyph-name="dcroat" unicode="đ"/><glyph d="M795 1782h-416q-10 0 -10 10v12q0 10 10 11h416q10 0 10 -11v-12q0 -10 -10 -10zM952 1401h-706v-656h604q10 0 10 -10v-12q0 -10 -10 -10h-604v-680h706q10 0 11 -10v-13q0 -10 -11 -10h-737q-10 0 -10 10v1413q0 10 10 11h737q10 0 11 -11v-12q-1 -10 -11 -10z" glyph-name="Emacron" horiz-adv-x="1126" unicode="Ē"/><glyph d="M717 1372h-416q-10 0 -10 10v13q0 10 10 10h416q10 0 10 -10v-13q0 -10 -10 -10zM461 1024h106q242 0 242 -254v-63q0 -250 -242 -250h-352v-150q0 -274 258 -274h213q10 0 10 -10v-13q0 -10 -10 -10h-213q-299 0 -299 307v410q0 145 75 226t212 81zM768 707v63 q0 221 -201 221h-106q-117 0 -181.5 -71.5t-64.5 -202.5v-228h352q104 0 152.5 53.5t48.5 164.5z" glyph-name="emacron" horiz-adv-x="954" unicode="ē"/><glyph d="M586 1690h-21q-10 0 -10 10v133q0 10 10 10h21q10 0 10 -10v-133q0 -10 -10 -10zM952 1401h-706v-656h604q10 0 10 -10v-12q0 -10 -10 -10h-604v-680h706q10 0 11 -10v-13q0 -10 -11 -10h-737q-10 0 -10 10v1413q0 10 10 11h737q10 0 11 -11v-12q-1 -10 -11 -10z" glyph-name="Edotaccent" horiz-adv-x="1126" unicode="Ė"/><glyph d="M508 1280h-21q-10 0 -10 10v133q0 10 10 11h21q10 0 10 -11v-133q0 -10 -10 -10zM461 1024h106q242 0 242 -254v-63q0 -250 -242 -250h-352v-150q0 -274 258 -274h213q10 0 10 -10v-13q0 -10 -10 -10h-213q-299 0 -299 307v410q0 145 75 226t212 81zM768 707v63 q0 221 -201 221h-106q-117 0 -181.5 -71.5t-64.5 -202.5v-228h352q104 0 152.5 53.5t48.5 164.5z" glyph-name="edotaccent" horiz-adv-x="954" unicode="ė"/><glyph d="M963 23v-13q0 -10 -11 -10q-72 0 -112.5 -45t-40.5 -124t49 -124t139 -45q10 0 10 -10v-12q0 -10 -10 -11q-109 0 -169 53.5t-60 159.5t84 158h-627q-10 0 -10 10v1413q0 10 10 11h737q10 0 11 -11v-12q0 -10 -11 -10h-706v-656h604q10 0 10 -10v-12q0 -10 -10 -10h-604 v-680h706q11 0 11 -10z" glyph-name="Eogonek" horiz-adv-x="1126" unicode="Ę"/><glyph d="M461 1024h106q242 0 242 -254v-63q0 -250 -242 -250h-352v-150q0 -274 258 -274h213q10 0 10 -10v-13q0 -10 -10 -10h-20q-72 0 -113 -45t-41 -124t49 -124t139 -45q10 0 11 -10v-12q0 -10 -11 -11q-109 0 -169 53.5t-60 159.5t84 158h-82q-299 0 -299 307v410 q0 145 75 226t212 81zM768 707v63q0 221 -201 221h-106q-117 0 -181.5 -71.5t-64.5 -202.5v-228h352q104 0 152.5 53.5t48.5 164.5z" glyph-name="eogonek" horiz-adv-x="954" unicode="ę"/><glyph d="M596 1702h-33q-8 0 -14 6l-184 193q-6 10 6 22t20 0l180 -188h15l194 182q8 8 21 -4q12 -12 4 -19l-195 -186q-6 -6 -14 -6zM952 1401h-706v-656h604q10 0 10 -10v-12q0 -10 -10 -10h-604v-680h706q10 0 11 -10v-13q0 -10 -11 -10h-737q-10 0 -10 10v1413q0 10 10 11h737 q10 0 11 -11v-12q-1 -10 -11 -10z" glyph-name="Ecaron" horiz-adv-x="1126" unicode="Ě"/><glyph d="M518 1292h-33q-8 0 -14 6l-184 193q-6 10 6 22q12 13 20 0l181 -188h14l194 182q8 8 21 -4q12 -12 4 -18l-195 -187q-6 -6 -14 -6zM461 1024h106q242 0 242 -254v-63q0 -250 -242 -250h-352v-150q0 -274 258 -274h213q10 0 10 -10v-13q0 -10 -10 -10h-213 q-299 0 -299 307v410q0 145 75 226t212 81zM768 707v63q0 221 -201 221h-106q-117 0 -181.5 -71.5t-64.5 -202.5v-228h352q104 0 152.5 53.5t48.5 164.5z" glyph-name="ecaron" horiz-adv-x="954" unicode="ě"/><glyph d="M602 1929h33q8 0 14 -6l185 -192q7 -11 -6 -23t-21 0l-180 188h-15l-194 -182q-9 -8 -21 4t-4 19l195 186q6 6 14 6zM666 702h198q82 0 128 -48t46 -136v-508q0 -10 -10 -10h-485q-170 0 -264.5 96.5t-94.5 272.5v696q0 176 99.5 272.5t279.5 96.5h328q10 0 10 -11v-12 q0 -10 -10 -10h-328q-162 0 -250 -88t-88 -248v-696q0 -160 83 -248t235 -88h454v485q0 72 -34.5 112t-98.5 40h-198q-10 0 -11 10v12q1 10 11 10z" glyph-name="Gcircumflex" horiz-adv-x="1222" unicode="Ĝ"/><glyph d="M535 1520q8 0 14 -7l184 -192q6 -10 -6 -22q-12 -13 -20 -1l-181 189h-14l-195 -182q-8 -8 -20 4t-4 18l194 186q6 6 15 7h33zM471 1024h338q10 0 10 -10v-1219q0 -147 -77.5 -227t-219.5 -80h-266q-10 0 -10 10v13q0 10 10 10h266q121 0 188.5 71.5t67.5 202.5v205h-286 q-152 0 -235 81t-83 226v410q0 147 78 227t219 80zM492 33h286v958h-307q-121 0 -188.5 -71.5t-67.5 -202.5v-410q0 -131 73 -202.5t204 -71.5z" glyph-name="gcircumflex" unicode="ĝ"/><glyph d="M825 1923h11q10 0 10 -12q0 -96 -55.5 -150.5t-149.5 -54.5t-149.5 53t-55.5 152q0 12 10 12h11q10 0 10 -12q0 -82 49 -127t125 -45t125 45t49 127q0 12 10 12zM666 702h198q82 0 128 -48t46 -136v-508q0 -10 -10 -10h-485q-170 0 -264.5 96.5t-94.5 272.5v696 q0 176 99.5 272.5t279.5 96.5h328q10 0 10 -11v-12q0 -10 -10 -10h-328q-162 0 -250 -88t-88 -248v-696q0 -160 83 -248t235 -88h454v485q0 72 -34.5 112t-98.5 40h-198q-10 0 -11 10v12q1 10 11 10z" glyph-name="Gbreve" horiz-adv-x="1222" unicode="Ğ"/><glyph d="M725 1513h10q10 0 10 -12q0 -96 -55 -150.5t-149.5 -54.5t-149.5 53.5t-55 151.5q0 12 10 12h10q10 0 11 -12q0 -82 49 -127t124.5 -45t125 45t49.5 127q0 12 10 12zM471 1024h338q10 0 10 -10v-1219q0 -147 -77.5 -227t-219.5 -80h-266q-10 0 -10 10v13q0 10 10 10h266 q121 0 188.5 71.5t67.5 202.5v205h-286q-152 0 -235 81t-83 226v410q0 147 78 227t219 80zM492 33h286v958h-307q-121 0 -188.5 -71.5t-67.5 -202.5v-410q0 -131 73 -202.5t204 -71.5z" glyph-name="gbreve" unicode="ğ"/><glyph d="M631 1690h-21q-10 0 -10 10v133q0 10 10 10h21q10 0 10 -10v-133q0 -10 -10 -10zM666 702h198q82 0 128 -48t46 -136v-508q0 -10 -10 -10h-485q-170 0 -264.5 96.5t-94.5 272.5v696q0 176 99.5 272.5t279.5 96.5h328q10 0 10 -11v-12q0 -10 -10 -10h-328q-162 0 -250 -88 t-88 -248v-696q0 -160 83 -248t235 -88h454v485q0 72 -34.5 112t-98.5 40h-198q-10 0 -11 10v12q1 10 11 10z" glyph-name="Gdotaccent" horiz-adv-x="1222" unicode="Ġ"/><glyph d="M530 1280h-20q-10 0 -10 10v133q0 10 10 11h20q10 0 11 -11v-133q-1 -10 -11 -10zM471 1024h338q10 0 10 -10v-1219q0 -147 -77.5 -227t-219.5 -80h-266q-10 0 -10 10v13q0 10 10 10h266q121 0 188.5 71.5t67.5 202.5v205h-286q-152 0 -235 81t-83 226v410q0 147 78 227 t219 80zM492 33h286v958h-307q-121 0 -188.5 -71.5t-67.5 -202.5v-410q0 -131 73 -202.5t204 -71.5z" glyph-name="gdotaccent" unicode="ġ"/><glyph d="M666 702h198q82 0 128 -48t46 -136v-508q0 -10 -10 -10h-485q-170 0 -264.5 96.5t-94.5 272.5v696q0 176 99.5 272.5t279.5 96.5h328q10 0 10 -11v-12q0 -10 -10 -10h-328q-162 0 -250 -88t-88 -248v-696q0 -160 83 -248t235 -88h454v485q0 72 -34.5 112t-98.5 40h-198 q-10 0 -11 10v12q1 10 11 10zM653 -133h37q14 0 15 -14v-54l-41 -288q0 -10 -11 -11h-14q-10 0 -10 11l41 288h-19q-12 0 -12 15v39q0 14 14 14z" glyph-name="Gcommaaccent" horiz-adv-x="1222" unicode="Ģ"/><glyph d="M539 1276h-37q-14 0 -15 14v53l41 289q0 10 11 10h14q10 0 10 -10l-41 -289h19q12 0 12 -14v-39q0 -14 -14 -14zM471 1024h338q10 0 10 -10v-1219q0 -147 -77.5 -227t-219.5 -80h-266q-10 0 -10 10v13q0 10 10 10h266q121 0 188.5 71.5t67.5 202.5v205h-286 q-152 0 -235 81t-83 226v410q0 147 78 227t219 80zM492 33h286v958h-307q-121 0 -188.5 -71.5t-67.5 -202.5v-410q0 -131 73 -202.5t204 -71.5z" glyph-name="gcommaaccent" unicode="ģ"/><glyph d="M621 1929h32q8 0 15 -6l184 -192q6 -11 -6 -23t-21 0l-180 188h-14l-195 -182q-8 -8 -20 4t-4 19l194 186q6 6 15 6zM1014 1434h20q10 0 10 -11v-1413q0 -10 -10 -10h-20q-10 0 -10 10v703h-758v-703q0 -10 -10 -10h-21q-10 0 -10 10v1413q0 10 10 11h21q10 0 10 -11 v-678h758v678q0 11 10 11z" glyph-name="Hcircumflex" horiz-adv-x="1249" unicode="Ĥ"/><glyph d="M205 2013h33q8 0 14 -6l184 -192q6 -11 -6 -23t-20 0l-181 188h-14l-195 -182q-8 -8 -20 4t-4 19l194 186q6 6 15 6zM236 1024h288q145 0 225 -81t80 -226v-707q0 -10 -10 -10h-20q-10 0 -11 10v707q0 131 -69.5 202.5t-194.5 71.5h-288v-981q0 -10 -11 -10h-20 q-10 0 -10 10v1516q0 10 10 10h20q10 0 11 -10v-502z" glyph-name="hcircumflex" unicode="ĥ"/><glyph d="M1044 1128h142q10 0 10 -10v-12q0 -10 -10 -10h-142v-1086q0 -10 -10 -10h-20q-10 0 -10 10v703h-758v-703q0 -10 -10 -10h-21q-10 0 -10 10v1086h-170q-10 0 -10 10v12q0 10 10 10h170v295q0 10 10 11h21q10 0 10 -11v-295h758v295q0 10 10 11h20q10 0 10 -11v-295z M1004 745v351h-758v-351h758z" glyph-name="Hbar" horiz-adv-x="1249" unicode="Ħ"/><glyph d="M236 1024h288q145 0 225 -81t80 -226v-707q0 -10 -10 -10h-20q-10 0 -11 10v707q0 131 -69.5 202.5t-194.5 71.5h-288v-981q0 -10 -11 -10h-20q-10 0 -10 10v1243h-160q-10 0 -10 11v12q0 10 10 10h160v240q0 10 10 10h20q10 0 11 -10v-240h235q10 0 10 -10v-12 q0 -10 -10 -11h-235v-229z" glyph-name="hbar" unicode="ħ"/><glyph d="M125 1833q47 0 110.5 -30.5t92.5 -30.5t45 14t33 39t31 14q13 -10 5 -20q-29 -43 -52 -61.5t-64 -18.5t-103.5 30.5t-97.5 30.5q-63 0 -94 -55q-5 -10 -21 -4t-10 16q37 76 125 76zM215 1434h21q10 0 10 -11v-1413q0 -10 -10 -10h-21q-10 0 -10 10v1413q0 11 10 11z" glyph-name="Itilde" horiz-adv-x="450" unicode="Ĩ"/><glyph d="M384 1401q27 39 36 31q17 -14 10 -23q-29 -43 -52.5 -61.5t-64.5 -18.5t-103.5 31t-96.5 31q-63 0 -95 -56q-4 -10 -20 -4t-10 17q37 76 125 75q47 0 110.5 -30.5t98.5 -30.5t62 39zM195 1024h20q10 0 10 -10v-830q0 -152 123 -151h45q10 0 10 -10v-13q0 -10 -10 -10h-45 q-164 0 -164 184v830q1 10 11 10z" glyph-name="itilde" horiz-adv-x="475" unicode="ĩ"/><glyph d="M25 1815h415q10 0 11 -11v-12q0 -10 -11 -10h-415q-10 0 -11 10v12q1 11 11 11zM215 1434h21q10 0 10 -11v-1413q0 -10 -10 -10h-21q-10 0 -10 10v1413q0 11 10 11z" glyph-name="Imacron" horiz-adv-x="450" unicode="Ī"/><glyph d="M12 1405h416q10 0 10 -10v-13q0 -10 -10 -10h-416q-10 0 -10 10v13q0 10 10 10zM195 1024h20q10 0 10 -10v-830q0 -152 123 -151h45q10 0 10 -10v-13q0 -10 -10 -10h-45q-164 0 -164 184v830q1 10 11 10z" glyph-name="imacron" horiz-adv-x="475" unicode="ī"/><glyph d="M246 1423v-1413q0 -10 -10 -10q-72 0 -113 -45t-41 -124t49 -124t139 -45q10 0 11 -10v-12q0 -10 -11 -11q-109 0 -169 53.5t-60 142.5t44 141t120 61v1396q0 10 10 11h21q10 -1 10 -11z" glyph-name="Iogonek" horiz-adv-x="450" unicode="Į"/><glyph d="M219 1280h-20q-10 0 -11 10v133q0 10 11 11h20q10 0 10 -11v-133q0 -10 -10 -10zM428 -371q-229 -1 -229 217q0 110 94 160q-109 29 -109 178v830q0 10 11 10h20q10 0 10 -10v-830q0 -152 123 -151h45q10 0 10 -10v-13q0 -10 -10 -10q-72 0 -112.5 -45t-40.5 -124 t49 -124t139 -45q10 0 10 -10v-12q0 -10 -10 -11z" glyph-name="iogonek" horiz-adv-x="475" unicode="į"/><glyph d="M211 1843h20q10 0 11 -10v-133q0 -10 -11 -10h-20q-10 0 -10 10v133q0 10 10 10zM215 1434h21q10 0 10 -11v-1413q0 -10 -10 -10h-21q-10 0 -10 10v1413q0 11 10 11z" glyph-name="Idotaccent" horiz-adv-x="450" unicode="İ"/><glyph d="M195 1024h20q10 0 10 -10v-830q0 -152 123 -151h45q10 0 10 -10v-13q0 -10 -10 -10h-45q-164 0 -164 184v830q1 10 11 10z" glyph-name="dotlessi" horiz-adv-x="475" unicode="ı"/><glyph d="M215 1434h21q10 0 10 -11v-1413q0 -10 -10 -10h-21q-10 0 -10 10v1413q0 11 10 11zM823 1434h21q10 0 10 -11v-1177q0 -117 -56.5 -181.5t-158.5 -64.5h-117q-10 0 -10 10v13q0 10 10 10h117q82 0 128 55t46 158v1177q0 11 10 11z" glyph-name="IJ" horiz-adv-x="1038" unicode="Ĳ"/><glyph d="M195 1536h20q10 0 10 -10v-133q0 -10 -10 -11h-20q-10 0 -11 11v133q1 10 11 10zM684 1536h21q10 0 10 -10v-133q0 -10 -10 -11h-21q-10 0 -10 11v133q0 10 10 10zM195 1024h20q10 0 10 -10v-830q0 -152 123 -151h45q10 0 10 -10v-13q0 -10 -10 -10h-45q-164 0 -164 184 v830q1 10 11 10zM684 1024h21q10 0 10 -10v-1280q0 -117 -56.5 -181.5t-158.5 -64.5h-117q-10 0 -10 10v13q0 10 10 10h117q82 0 128 55t46 158v1280q0 10 10 10z" glyph-name="ij" horiz-adv-x="909" unicode="ĳ"/><glyph d="M369 1929h32q8 0 15 -6l184 -192q6 -11 -6 -23t-21 0l-180 188h-14l-195 -182q-8 -8 -20 4t-4 19l194 186q7 6 15 6zM373 1434h20q10 0 10 -11v-1177q0 -117 -56 -181.5t-159 -64.5h-116q-10 0 -11 10v13q0 10 11 10h116q82 0 128 55t46 158v1177q1 11 11 11z" glyph-name="Jcircumflex" horiz-adv-x="587" unicode="Ĵ"/><glyph d="M221 1509h33q8 0 14 -6l185 -192q7 -11 -6 -23t-21 0l-180 189h-15l-194 -183q-9 -9 -21 4t-4 19l195 186q6 6 14 6zM209 1024h20q10 0 11 -10v-1280q0 -117 -56.5 -181.5t-158.5 -64.5h-117q-10 0 -10 10v13q0 10 10 10h117q82 0 128 55t46 158v1280q0 10 10 10z" glyph-name="jcircumflex" horiz-adv-x="434" unicode="ĵ"/><glyph d="M981 1434h27q16 0 4 -13l-635 -645l624 -764q8 -12 -6 -12h-24q-6 0 -13 6l-608 742l-104 -107v-631q0 -10 -10 -10h-21q-10 0 -10 10v1413q0 10 10 11h21q10 0 10 -11v-731l717 733q8 9 18 9zM559 -133h37q14 0 14 -14v-54l-41 -288q0 -10 -10 -11h-14q-10 0 -10 11 l40 288h-18q-12 0 -12 15v39q0 14 14 14z" glyph-name="Kcommaaccent" horiz-adv-x="1077" unicode="Ķ"/><glyph d="M825 0h-24q-10 0 -13 6l-423 594l-129 -129v-461q0 -10 -11 -10h-20q-10 0 -10 10v1516q0 10 10 10h20q10 0 11 -10v-1004l491 494q8 8 16 8h29q16 0 4 -12l-383 -383l438 -617q8 -12 -6 -12zM469 -133h37q14 0 14 -14v-54l-41 -288q0 -10 -10 -11h-14q-10 0 -11 11 l41 288h-18q-12 0 -12 15v39q0 14 14 14z" glyph-name="kcommaaccent" horiz-adv-x="915" unicode="ķ"/><glyph d="M825 0h-24q-10 0 -13 6l-423 594l-129 -129v-461q0 -10 -11 -10h-20q-10 0 -10 10v1004q0 10 10 10h20q10 0 11 -10v-492l491 494q8 8 16 8h29q16 0 4 -12l-383 -383l438 -617q8 -12 -6 -12z" glyph-name="kgreenlandic" horiz-adv-x="915" unicode="ĸ"/><glyph d="M225 1749l215 170q10 8 17 2l12 -16q8 -8 2 -15l-223 -168q-13 -10 -23 6t0 21zM246 33h686q10 0 10 -10v-13q0 -10 -10 -10h-717q-10 0 -10 10v1413q0 10 10 11h21q10 0 10 -11v-1390z" glyph-name="Lacute" horiz-adv-x="1003" unicode="Ĺ"/><glyph d="M227 1847l215 170q10 8 17 2l12 -16q8 -8 2 -14l-223 -168q-12 -10 -23 5t0 21zM195 1536h20q10 0 10 -10v-1342q0 -72 35 -111.5t98 -39.5h35q10 0 10 -10v-13q0 -10 -10 -10h-35q-82 0 -128 48t-46 136v1342q1 10 11 10z" glyph-name="lacute" horiz-adv-x="475" unicode="ĺ"/><glyph d="M246 33h686q10 0 10 -10v-13q0 -10 -10 -10h-717q-10 0 -10 10v1413q0 10 10 11h21q10 0 10 -11v-1390zM567 -133h37q14 0 14 -14v-54l-40 -288q0 -10 -11 -11h-14q-10 0 -10 11l41 288h-19q-12 0 -12 15v39q0 14 14 14z" glyph-name="Lcommaaccent" horiz-adv-x="1003" unicode="Ļ"/><glyph d="M358 33h35q10 0 10 -10v-13q0 -10 -10 -10h-35q-82 0 -128 48t-46 136v1342q0 10 11 10h20q10 0 10 -10v-1342q0 -72 35 -111.5t98 -39.5zM285 -133h37q14 0 14 -14v-54l-41 -288q0 -10 -10 -11h-15q-10 0 -10 11l41 288h-18q-12 0 -13 15v39q1 14 15 14z" glyph-name="lcommaaccent" horiz-adv-x="475" unicode="ļ"/><glyph d="M246 33h686q10 0 10 -10v-13q0 -10 -10 -10h-717q-10 0 -10 10v1413q0 10 10 11h21q10 0 10 -11v-1390zM721 1067h-14q-10 0 -11 10l41 289h-18q-12 0 -12 14v39q0 14 14 15h37q14 0 14 -15v-53l-41 -289q0 -10 -10 -10z" glyph-name="Lcaron" horiz-adv-x="1003" unicode="Ľ"/><glyph d="M469 1548h37q14 0 14 -14v-53l-41 -289q0 -10 -10 -10h-14q-10 0 -11 10l41 289h-18q-12 0 -12 14v39q0 14 14 14zM358 33h35q10 0 10 -10v-13q0 -10 -10 -10h-35q-82 0 -128 48t-46 136v1342q0 10 11 10h20q10 0 10 -10v-1342q0 -72 35 -111.5t98 -39.5z" glyph-name="lcaron" horiz-adv-x="520" unicode="ľ"/><glyph d="M246 33h686q10 0 10 -10v-13q0 -10 -10 -10h-717q-10 0 -10 10v1413q0 10 10 11h21q10 0 10 -11v-1390zM762 678h-27q-20 0 -20 20v31q0 20 20 21h27q20 0 20 -21v-31q0 -20 -20 -20z" glyph-name="Ldot" horiz-adv-x="1003" unicode="Ŀ"/><glyph d="M225 1536h21q10 0 10 -10v-1342q0 -72 35 -111.5t98 -39.5h35q10 0 10 -10v-13q0 -10 -10 -10h-35q-82 0 -128 48t-46 136v1342q0 10 10 10zM457 766h26q18 0 19 -18v-31q0 -18 -19 -19h-26q-18 0 -19 19v31q1 18 19 18z" glyph-name="ldot" horiz-adv-x="565" unicode="ŀ"/><glyph d="M276 33h687q10 0 10 -10v-13q0 -10 -10 -10h-717q-10 0 -10 10v738l-183 -148q-12 -8 -12 6v27q0 6 6 12l189 154v624q0 10 10 11h20q10 0 10 -11v-592l209 170q12 8 13 -6v-26q0 -8 -9 -15l-213 -172v-749z" glyph-name="Lslash" horiz-adv-x="1073" unicode="Ł"/><glyph d="M686 1010v-21q0 -8 -8 -14l-217 -176v-615q0 -72 34.5 -111.5t98.5 -39.5h35q10 0 10 -10v-13q0 -10 -10 -10h-35q-82 0 -128 48t-46 136v582l-178 -145q-12 -8 -13 6v20q0 6 7 12l184 150v717q0 10 10 10h21q10 0 10 -10v-684l213 174q12 8 12 -6z" glyph-name="lslash" horiz-adv-x="712" unicode="ł"/><glyph d="M655 1745l215 170q10 8 17 2l12 -16q8 -8 2 -15l-223 -168q-12 -10 -23 4q-10 15 0 23zM1010 1434h20q10 0 10 -11v-1413q0 -10 -10 -10h-61q-10 0 -15 10l-698 1389h-10v-1389q0 -10 -10 -10h-21q-10 0 -10 10v1413q0 10 10 11h61q10 0 15 -13l698 -1388h10v1390 q1 11 11 11z" glyph-name="Nacute" horiz-adv-x="1245" unicode="Ń"/><glyph d="M481 1335l215 170q10 8 17 2l12 -16q8 -8 2 -14l-223 -168q-12 -10 -22 4q-11 14 -1 22zM215 1024h309q145 0 225 -81t80 -226v-707q0 -10 -10 -10h-20q-10 0 -11 10v707q0 131 -69.5 202.5t-194.5 71.5h-288v-981q0 -10 -11 -10h-20q-10 0 -10 10v994q0 20 20 20z" glyph-name="nacute" unicode="ń"/><glyph d="M1010 1434h20q10 0 10 -11v-1413q0 -10 -10 -10h-61q-10 0 -15 10l-698 1389h-10v-1389q0 -10 -10 -10h-21q-10 0 -10 10v1413q0 10 10 11h61q10 0 15 -13l698 -1388h10v1390q1 11 11 11zM608 -133h37q14 0 14 -14v-54l-41 -288q0 -10 -10 -11h-14q-10 0 -10 11l41 288 h-19q-12 0 -12 15v39q0 14 14 14z" glyph-name="Ncommaaccent" horiz-adv-x="1245" unicode="Ņ"/><glyph d="M215 1024h309q145 0 225 -81t80 -226v-707q0 -10 -10 -10h-20q-10 0 -11 10v707q0 131 -69.5 202.5t-194.5 71.5h-288v-981q0 -10 -11 -10h-20q-10 0 -10 10v994q0 20 20 20zM504 -133h37q14 0 14 -14v-54l-41 -288q0 -10 -10 -11h-15q-10 0 -10 11l41 288h-18 q-12 0 -13 15v39q1 14 15 14z" glyph-name="ncommaaccent" unicode="ņ"/><glyph d="M664 1702h-33q-8 0 -15 6l-184 193q-6 10 6 22t21 0l180 -188h14l195 182q8 8 20 -4t4 -19l-194 -186q-6 -6 -14 -6zM1010 1434h20q10 0 10 -11v-1413q0 -10 -10 -10h-61q-10 0 -15 10l-698 1389h-10v-1389q0 -10 -10 -10h-21q-10 0 -10 10v1413q0 10 10 11h61 q10 0 15 -13l698 -1388h10v1390q1 11 11 11z" glyph-name="Ncaron" horiz-adv-x="1245" unicode="Ň"/><glyph d="M489 1292h-32q-8 0 -15 6l-184 193q-6 10 6 22q12 13 21 0l180 -188h14l195 182q8 8 20 -4t4 -18l-194 -187q-6 -6 -15 -6zM215 1024h309q145 0 225 -81t80 -226v-707q0 -10 -10 -10h-20q-10 0 -11 10v707q0 131 -69.5 202.5t-194.5 71.5h-288v-981q0 -10 -11 -10h-20 q-10 0 -10 10v994q0 20 20 20z" glyph-name="ncaron" unicode="ň"/><glyph d="M948 1434h21q10 0 10 -11v-1579q0 -98 -60.5 -151t-168.5 -53q-10 0 -11 10v12q0 10 11 10q90 0 139 45t49 127v156h-31q-10 0 -14 10l-637 1389h-10v-1389q0 -10 -10 -10h-21q-10 0 -10 10v1413q0 10 10 11h61q10 0 15 -13l637 -1388h10v1390q0 11 10 11z" glyph-name="Eng" horiz-adv-x="1183" unicode="Ŋ"/><glyph d="M215 1024h309q145 0 225 -81t80 -226v-873q0 -98 -51 -151t-147 -53h-31q-10 0 -10 10v12q0 10 10 10q188 0 188 172v873q0 131 -69.5 202.5t-194.5 71.5h-288v-981q0 -10 -11 -10h-20q-10 0 -10 10v994q0 20 20 20z" glyph-name="eng" unicode="ŋ"/><glyph d="M428 1815h416q10 0 10 -11v-12q0 -10 -10 -10h-416q-10 0 -10 10v12q0 11 10 11zM553 1434h156q176 0 272 -96.5t96 -272.5v-696q0 -176 -96 -272.5t-272 -96.5h-156q-176 0 -272.5 96.5t-96.5 272.5v696q0 176 96.5 272.5t272.5 96.5zM1036 369v696q0 160 -86 248 t-241 88h-156q-156 0 -242 -88t-86 -248v-696q0 -160 86 -248t242 -88h156q156 0 241.5 88t85.5 248z" glyph-name="Omacron" horiz-adv-x="1261" unicode="Ō"/><glyph d="M319 1405h416q10 0 10 -10v-13q0 -10 -10 -10h-416q-10 0 -10 10v13q0 10 10 10zM471 1024h92q133 0 205 -77t72 -218v-442q0 -137 -75 -212t-212 -75h-90q-137 0 -213 75t-76 212v442q0 141 78 218t219 77zM799 287v442q0 125 -61.5 193.5t-174.5 68.5h-92 q-121 0 -188.5 -68.5t-67.5 -193.5v-442q0 -121 64.5 -187.5t183.5 -66.5h90q117 0 181.5 66.5t64.5 187.5z" glyph-name="omacron" unicode="ō"/><glyph d="M485 1724l215 170q10 8 17 2l12 -16q8 -8 2 -14l-223 -168q-12 -10 -23 5t0 21zM770 1724l215 170q10 8 16 2l13 -16q8 -8 2 -14l-223 -168q-12 -10 -23 5t0 21zM553 1434h156q176 0 272 -96.5t96 -272.5v-696q0 -176 -96 -272.5t-272 -96.5h-156q-176 0 -272.5 96.5 t-96.5 272.5v696q0 176 96.5 272.5t272.5 96.5zM1036 369v696q0 160 -86 248t-241 88h-156q-156 0 -242 -88t-86 -248v-696q0 -160 86 -248t242 -88h156q156 0 241.5 88t85.5 248z" glyph-name="Ohungarumlaut" horiz-adv-x="1261" unicode="Ő"/><glyph d="M377 1315l215 170q10 8 16 2l13 -17q8 -8 2 -14l-224 -168q-12 -10 -22 4q-10 15 0 23zM662 1315l215 170q10 8 16 2l12 -17q8 -8 2 -14l-223 -168q-12 -10 -23 4t1 23zM471 1024h92q133 0 205 -77t72 -218v-442q0 -137 -75 -212t-212 -75h-90q-137 0 -213 75t-76 212 v442q0 141 78 218t219 77zM799 287v442q0 125 -61.5 193.5t-174.5 68.5h-92q-121 0 -188.5 -68.5t-67.5 -193.5v-442q0 -121 64.5 -187.5t183.5 -66.5h90q117 0 181.5 66.5t64.5 187.5z" glyph-name="ohungarumlaut" unicode="ő"/><glyph d="M1405 33h473q10 0 10 -10v-13q0 -10 -10 -10h-473q-279 0 -348 225q-70 -225 -348 -225h-156q-176 0 -272.5 96.5t-96.5 272.5v696q0 176 96.5 272.5t272.5 96.5h156q279 0 348 -226q70 225 348 226h457q10 0 10 -11v-12q0 -10 -10 -10h-457q-156 0 -242 -88t-86 -248 v-320h596q10 0 10 -10v-12q0 -10 -10 -10h-596v-344q0 -160 86 -248t242 -88zM553 33h156q156 0 241.5 88t85.5 248v696q0 160 -86 248t-241 88h-156q-156 0 -242 -88t-86 -248v-696q0 -160 86 -248t242 -88z" glyph-name="OE" horiz-adv-x="2052" unicode="Œ"/><glyph d="M1085 1024h86q242 0 242 -242v-39q0 -262 -246 -262h-327v-174q0 -274 258 -274h192q10 0 10 -10v-13q0 -10 -10 -10h-192q-219 0 -279 164q-57 -164 -266 -164h-90q-137 0 -213 75t-76 212v442q0 141 78 218t219 77h92q201 0 258 -168q59 168 264 168zM799 287v442 q0 125 -61.5 193.5t-174.5 68.5h-92q-121 0 -188.5 -68.5t-67.5 -193.5v-442q0 -121 64.5 -187.5t183.5 -66.5h90q117 0 181.5 66.5t64.5 187.5zM1372 743v39q0 209 -201 209h-86q-117 0 -181 -71.5t-64 -202.5v-203h327q205 0 205 229z" glyph-name="oe" horiz-adv-x="1558" unicode="œ"/><glyph d="M547 1745l215 170q10 8 16 2l13 -16q8 -8 2 -15l-224 -168q-12 -10 -22 4t0 23zM991 0h-22q-10 0 -13 8l-213 670q-33 -4 -53 -4h-444v-674h-31q-10 0 -10 10v1413q0 10 10 11h455q152 0 234.5 -85t82.5 -243v-105q0 -266 -207 -317l217 -672q4 -12 -6 -12zM246 707h444 q121 0 188.5 76.5t67.5 217.5v105q0 141 -71.5 218t-204.5 77h-424v-694z" glyph-name="Racute" horiz-adv-x="1173" unicode="Ŕ"/><glyph d="M395 1335l215 170q10 8 17 2l12 -16q8 -8 2 -14l-223 -168q-12 -10 -22 4q-11 14 -1 22zM422 1024h149q10 0 11 -10v-13q0 -10 -11 -10h-149q-88 0 -137 -61.5t-49 -171.5v-748q0 -10 -11 -10h-20q-10 0 -10 10v748q0 127 59 196.5t168 69.5z" glyph-name="racute" horiz-adv-x="622" unicode="ŕ"/><glyph d="M991 0h-22q-10 0 -13 8l-213 670q-33 -4 -53 -4h-444v-674h-31q-10 0 -10 10v1413q0 10 10 11h455q152 0 234.5 -85t82.5 -243v-105q0 -266 -207 -317l217 -672q4 -12 -6 -12zM246 707h444q121 0 188.5 76.5t67.5 217.5v105q0 141 -71.5 218t-204.5 77h-424v-694z M578 -133h36q14 0 15 -14v-54l-41 -288q0 -10 -10 -11h-15q-10 0 -10 11l41 288h-19q-12 0 -12 15v39q1 14 15 14z" glyph-name="Rcommaaccent" horiz-adv-x="1173" unicode="Ŗ"/><glyph d="M422 1024h149q10 0 11 -10v-13q0 -10 -11 -10h-149q-88 0 -137 -61.5t-49 -171.5v-748q0 -10 -11 -10h-20q-10 0 -10 10v748q0 127 59 196.5t168 69.5zM195 -133h36q14 0 15 -14v-54l-41 -288q0 -10 -10 -11h-15q-10 0 -10 11l41 288h-18q-12 0 -13 15v39q1 14 15 14z " glyph-name="rcommaaccent" horiz-adv-x="622" unicode="ŗ"/><glyph d="M555 1702h-33q-8 0 -14 6l-184 193q-6 10 6 22t20 0l180 -188h15l194 182q8 8 21 -4q12 -12 4 -19l-195 -186q-6 -6 -14 -6zM991 0h-22q-10 0 -13 8l-213 670q-33 -4 -53 -4h-444v-674h-31q-10 0 -10 10v1413q0 10 10 11h455q152 0 234.5 -85t82.5 -243v-105 q0 -266 -207 -317l217 -672q4 -12 -6 -12zM246 707h444q121 0 188.5 76.5t67.5 217.5v105q0 141 -71.5 218t-204.5 77h-424v-694z" glyph-name="Rcaron" horiz-adv-x="1173" unicode="Ř"/><glyph d="M403 1292h-32q-8 0 -15 6l-184 193q-6 10 6 22q12 13 21 0l180 -188h14l195 182q8 8 20 -4t4 -18l-194 -187q-6 -6 -15 -6zM422 1024h149q10 0 11 -10v-13q0 -10 -11 -10h-149q-88 0 -137 -61.5t-49 -171.5v-748q0 -10 -11 -10h-20q-10 0 -10 10v748q0 127 59 196.5 t168 69.5z" glyph-name="rcaron" horiz-adv-x="622" unicode="ř"/><glyph d="M535 1745l215 170q10 8 16 2l12 -16q8 -8 2 -15l-223 -168q-12 -10 -23 4t1 23zM428 1434h410q10 0 10 -11v-12q0 -10 -10 -10h-410q-102 0 -158.5 -56.5t-56.5 -158.5v-250q0 -84 51 -130t144 -46h286q113 0 174.5 -57.5t61.5 -163.5v-295q0 -117 -63.5 -180.5 t-178.5 -63.5h-514q-10 0 -10 10v13q0 10 10 10h514q94 0 147.5 55t53.5 156v295q0 88 -51.5 136t-143.5 48h-286q-113 0 -174.5 55.5t-61.5 157.5v250q0 119 67.5 183.5t188.5 64.5z" glyph-name="Sacute" horiz-adv-x="1073" unicode="Ś"/><glyph d="M420 1335l215 170q10 8 16 2l13 -16q8 -8 2 -14l-224 -168q-12 -10 -22 4t0 22zM387 1024h225q10 0 11 -10v-13q0 -10 -11 -10h-225q-92 0 -143 -51t-51 -143v-82q0 -156 174 -156h122q102 0 159 -53t57 -148v-135q0 -223 -222 -223h-329q-10 0 -11 10v13q0 10 11 10h329 q180 0 181 190v135q0 78 -45.5 121t-129.5 43h-122q-102 0 -158.5 50.5t-56.5 142.5v82q0 109 61 168t174 59z" glyph-name="sacute" horiz-adv-x="847" unicode="ś"/><glyph d="M504 1929h33q8 0 14 -6l184 -192q6 -11 -6 -23t-20 0l-181 188h-14l-195 -182q-8 -8 -20 4t-4 19l194 186q7 6 15 6zM428 1434h410q10 0 10 -11v-12q0 -10 -10 -10h-410q-102 0 -158.5 -56.5t-56.5 -158.5v-250q0 -84 51 -130t144 -46h286q113 0 174.5 -57.5t61.5 -163.5 v-295q0 -117 -63.5 -180.5t-178.5 -63.5h-514q-10 0 -10 10v13q0 10 10 10h514q94 0 147.5 55t53.5 156v295q0 88 -51.5 136t-143.5 48h-286q-113 0 -174.5 55.5t-61.5 157.5v250q0 119 67.5 183.5t188.5 64.5z" glyph-name="Scircumflex" horiz-adv-x="1073" unicode="Ŝ"/><glyph d="M389 1520h33q8 0 14 -7l185 -192q6 -10 0 -16l-9 -9q-10 -10 -18 2l-180 189h-15l-194 -182q-8 -8 -21 4q-12 12 -4 18l195 186q6 7 14 7zM387 1024h225q10 0 11 -10v-13q0 -10 -11 -10h-225q-92 0 -143 -51t-51 -143v-82q0 -156 174 -156h122q102 0 159 -53t57 -148 v-135q0 -223 -222 -223h-329q-10 0 -11 10v13q0 10 11 10h329q180 0 181 190v135q0 78 -45.5 121t-129.5 43h-122q-102 0 -158.5 50.5t-56.5 142.5v82q0 109 61 168t174 59z" glyph-name="scircumflex" horiz-adv-x="847" unicode="ŝ"/><glyph d="M428 1434h410q10 0 10 -11v-12q0 -10 -10 -10h-410q-102 0 -158.5 -56.5t-56.5 -158.5v-250q0 -84 51 -130t144 -46h286q113 0 174.5 -57.5t61.5 -163.5v-295q0 -117 -63.5 -180.5t-178.5 -63.5h-514q-10 0 -10 10v13q0 10 10 10h514q94 0 147.5 55t53.5 156v295 q0 88 -51.5 136t-143.5 48h-286q-113 0 -174.5 55.5t-61.5 157.5v250q0 119 67.5 183.5t188.5 64.5zM543 -102h67q63 -2 101.5 -41t38.5 -111t-44 -114t-110 -42t-105.5 34t-41.5 91q0 10 10 11h18q10 0 11 -27t30 -51.5t77 -24.5t81 34t33 90t-28 86t-71 30h-67 q-10 0 -11 10v14q1 11 11 11z" glyph-name="Scedilla" horiz-adv-x="1073" unicode="Ş"/><glyph d="M387 1024h225q10 0 11 -10v-13q0 -10 -11 -10h-225q-92 0 -143 -51t-51 -143v-82q0 -156 174 -156h122q102 0 159 -53t57 -148v-135q0 -223 -222 -223h-329q-10 0 -11 10v13q0 10 11 10h329q180 0 181 190v135q0 78 -45.5 121t-129.5 43h-122q-102 0 -158.5 50.5 t-56.5 142.5v82q0 109 61 168t174 59zM406 -102h67q63 -2 101 -41t38 -111t-44 -114t-109 -42t-105.5 34t-42.5 91q0 10 11 11h18q10 0 11 -27t30 -51.5t77 -24.5t80.5 34t32.5 90t-27.5 86t-70.5 30h-67q-10 0 -11 10v14q1 11 11 11z" glyph-name="scedilla" horiz-adv-x="847" unicode="ş"/><glyph d="M543 1702h-33q-8 0 -14 6l-185 193q-6 10 6 22t21 0l180 -188h14l195 182q8 8 20 -4q13 -12 5 -19l-195 -186q-6 -6 -14 -6zM428 1434h410q10 0 10 -11v-12q0 -10 -10 -10h-410q-102 0 -158.5 -56.5t-56.5 -158.5v-250q0 -84 51 -130t144 -46h286q113 0 174.5 -57.5 t61.5 -163.5v-295q0 -117 -63.5 -180.5t-178.5 -63.5h-514q-10 0 -10 10v13q0 10 10 10h514q94 0 147.5 55t53.5 156v295q0 88 -51.5 136t-143.5 48h-286q-113 0 -174.5 55.5t-61.5 157.5v250q0 119 67.5 183.5t188.5 64.5z" glyph-name="Scaron" horiz-adv-x="1073" unicode="Š"/><glyph d="M428 1292h-33q-8 0 -14 6l-184 193q-6 10 6 22q12 13 20 0l180 -188h15l194 182q8 8 21 -4q12 -12 4 -18l-195 -187q-6 -6 -14 -6zM387 1024h225q10 0 11 -10v-13q0 -10 -11 -10h-225q-92 0 -143 -51t-51 -143v-82q0 -156 174 -156h122q102 0 159 -53t57 -148v-135 q0 -223 -222 -223h-329q-10 0 -11 10v13q0 10 11 10h329q180 0 181 190v135q0 78 -45.5 121t-129.5 43h-122q-102 0 -158.5 50.5t-56.5 142.5v82q0 109 61 168t174 59z" glyph-name="scaron" horiz-adv-x="847" unicode="š"/><glyph d="M72 1434h917q10 0 10 -11v-12q0 -10 -10 -10h-432v-1391q0 -10 -10 -10h-21q-10 0 -10 10v1391h-444q-10 0 -11 10v12q1 11 11 11zM530 -102h68q63 -2 101 -41t38 -111t-44 -114t-109 -42t-105.5 34t-42.5 91q0 10 10 11h19q10 0 11 -27t30 -51.5t77 -24.5t80.5 34 t32.5 90t-27.5 86t-70.5 30h-68q-10 0 -10 10v14q0 11 10 11z" glyph-name="Tcommaaccent" horiz-adv-x="1060" unicode="Ţ"/><glyph d="M516 0h-117q-102 0 -158.5 64.5t-56.5 181.5v1024q0 14 13 10q28 -12 28 -20v-236l254 -4q10 0 10 -8v-15q0 -8 -10 -8l-254 -4v-739q0 -102 46 -157.5t128 -55.5h117q10 0 10 -10v-13q0 -10 -10 -10zM360 -102h68q63 -2 101 -41t38 -111t-44 -114t-109 -42t-105.5 34 t-42.5 91q0 10 10 11h19q10 0 11 -27t30 -51.5t77 -24.5t80.5 34t32.5 90t-27.5 86t-70.5 30h-68q-10 0 -10 10v14q0 11 10 11z" glyph-name="tcommaaccent" horiz-adv-x="567" unicode="ţ"/><glyph d="M555 1702h-33q-8 0 -14 6l-184 193q-6 10 6 22t20 0l180 -188h15l194 182q8 8 21 -4q12 -12 4 -19l-195 -186q-6 -6 -14 -6zM72 1434h917q10 0 10 -11v-12q0 -10 -10 -10h-432v-1391q0 -10 -10 -10h-21q-10 0 -10 10v1391h-444q-10 0 -11 10v12q1 11 11 11z" glyph-name="Tcaron" horiz-adv-x="1060" unicode="Ť"/><glyph d="M532 1491h37q14 0 15 -14v-54l-41 -288q0 -10 -11 -11h-14q-10 0 -10 11l41 288h-19q-12 0 -12 15v39q0 14 14 14zM399 33h117q10 0 10 -10v-13q0 -10 -10 -10h-117q-102 0 -158.5 64.5t-56.5 181.5v1024q0 14 13 10q28 -12 28 -20v-236l254 -4q10 0 10 -8v-15 q0 -8 -10 -8l-254 -4v-739q0 -102 46 -157.5t128 -55.5z" glyph-name="tcaron" horiz-adv-x="567" unicode="ť"/><glyph d="M754 1782h-416q-10 0 -10 10v12q0 10 10 11h416q10 0 10 -11v-12q0 -10 -10 -10zM72 1434h917q10 0 10 -11v-12q0 -10 -10 -10h-432v-1391q0 -10 -10 -10h-21q-10 0 -10 10v1391h-444q-10 0 -11 10v12q1 11 11 11z" glyph-name="Tbar" horiz-adv-x="1060" unicode="Ŧ"/><glyph d="M399 33h117q10 0 10 -10v-13q0 -10 -10 -10h-117q-102 0 -158.5 64.5t-56.5 181.5v350h-137q-10 0 -10 10v12q0 10 10 11h137v641q0 14 13 10q28 -12 28 -20v-236l254 -4q10 0 10 -8v-15q0 -8 -10 -8l-254 -4v-356h238q10 0 10 -11v-12q0 -10 -10 -10h-238v-350 q0 -102 46 -157.5t128 -55.5z" glyph-name="tbar" horiz-adv-x="567" unicode="ŧ"/><glyph d="M508 1833q47 0 110.5 -30.5t92.5 -30.5t45 14t33 39t31 14q13 -10 5 -20q-29 -43 -52 -61.5t-64 -18.5t-103.5 30.5t-97.5 30.5q-63 0 -94 -55q-5 -10 -21 -4t-10 16q37 76 125 76zM1026 1434h21q10 0 10 -11v-1054q0 -176 -96.5 -272.5t-272.5 -96.5h-135 q-176 0 -272.5 96.5t-96.5 272.5v1054q0 10 11 11h20q10 0 10 -11v-1054q0 -160 86 -248t242 -88h135q156 0 242 88t86 248v1054q0 11 10 11z" glyph-name="Utilde" horiz-adv-x="1241" unicode="Ũ"/><glyph d="M633 1362q29 0 45 14.5t34 38.5t30 14q12 -11 6 -20q-29 -43 -52.5 -61.5t-64.5 -18.5t-103.5 31t-97.5 31q-63 0 -94 -56q-4 -10 -20 -4q-17 6 -11 17q37 76 125 75q47 0 110.5 -30.5t92.5 -30.5zM788 1024h21q10 0 10 -10v-994q0 -20 -20 -20h-310q-145 0 -225 81 t-80 226v707q0 10 11 10h20q10 0 10 -10v-707q0 -131 70 -202.5t194 -71.5h289v981q0 10 10 10z" glyph-name="utilde" unicode="ũ"/><glyph d="M408 1815h415q10 0 11 -11v-12q0 -10 -11 -10h-415q-10 0 -11 10v12q1 11 11 11zM1026 1434h21q10 0 10 -11v-1054q0 -176 -96.5 -272.5t-272.5 -96.5h-135q-176 0 -272.5 96.5t-96.5 272.5v1054q0 10 11 11h20q10 0 10 -11v-1054q0 -160 86 -248t242 -88h135 q156 0 242 88t86 248v1054q0 11 10 11z" glyph-name="Umacron" horiz-adv-x="1241" unicode="Ū"/><glyph d="M330 1405h415q10 0 11 -10v-13q0 -10 -11 -10h-415q-10 0 -11 10v13q1 10 11 10zM788 1024h21q10 0 10 -10v-994q0 -20 -20 -20h-310q-145 0 -225 81t-80 226v707q0 10 11 10h20q10 0 10 -10v-707q0 -131 70 -202.5t194 -71.5h289v981q0 10 10 10z" glyph-name="umacron" unicode="ū"/><glyph d="M809 1923h10q10 0 10 -12q0 -96 -55 -150.5t-149.5 -54.5t-149.5 53t-55 152q0 12 10 12h10q10 0 11 -12q0 -82 49 -127t124.5 -45t125 45t49.5 127q0 12 10 12zM1026 1434h21q10 0 10 -11v-1054q0 -176 -96.5 -272.5t-272.5 -96.5h-135q-176 0 -272.5 96.5t-96.5 272.5 v1054q0 10 11 11h20q10 0 10 -11v-1054q0 -160 86 -248t242 -88h135q156 0 242 88t86 248v1054q0 11 10 11z" glyph-name="Ubreve" horiz-adv-x="1241" unicode="Ŭ"/><glyph d="M731 1513h10q10 0 11 -12q0 -96 -55.5 -150.5t-149.5 -54.5t-149.5 53.5t-55.5 151.5q0 12 10 12h10q10 0 11 -12q0 -82 49 -127t125 -45t125 45t49 127q0 12 10 12zM788 1024h21q10 0 10 -10v-994q0 -20 -20 -20h-310q-145 0 -225 81t-80 226v707q0 10 11 10h20 q10 0 10 -10v-707q0 -131 70 -202.5t194 -71.5h289v981q0 10 10 10z" glyph-name="ubreve" unicode="ŭ"/><glyph d="M604.5 1987q69.5 0 110.5 -41t41 -111t-41 -112t-110.5 -42t-111.5 42t-42 112t42 111t111.5 41zM603 1952q-52 0 -85 -32t-33 -85t33 -86t86 -33t85 33t32 86t-33 85t-85 32zM1026 1434h21q10 0 10 -11v-1054q0 -176 -96.5 -272.5t-272.5 -96.5h-135q-176 0 -272.5 96.5 t-96.5 272.5v1054q0 10 11 11h20q10 0 10 -11v-1054q0 -160 86 -248t242 -88h135q156 0 242 88t86 248v1054q0 11 10 11z" glyph-name="Uring" horiz-adv-x="1241" unicode="Ů"/><glyph d="M526.5 1577q69.5 0 110.5 -41t41 -110.5t-41 -111.5t-110.5 -42t-111.5 42t-42 111.5t42 110.5t111.5 41zM525 1542q-52 0 -84.5 -31.5t-32.5 -85t32.5 -86t86 -32.5t85 32.5t31.5 86t-33 85t-85 31.5zM788 1024h21q10 0 10 -10v-994q0 -20 -20 -20h-310q-145 0 -225 81 t-80 226v707q0 10 11 10h20q10 0 10 -10v-707q0 -131 70 -202.5t194 -71.5h289v981q0 10 10 10z" glyph-name="uring" unicode="ů"/><glyph d="M465 1724l215 170q10 8 16 2l13 -16q8 -8 2 -14l-224 -168q-12 -10 -22 5q-11 15 0 21zM750 1724l215 170q10 8 16 2l12 -16q8 -8 2 -14l-223 -168q-12 -10 -22 5q-11 15 0 21zM1026 1434h21q10 0 10 -11v-1054q0 -176 -96.5 -272.5t-272.5 -96.5h-135 q-176 0 -272.5 96.5t-96.5 272.5v1054q0 10 11 11h20q10 0 10 -11v-1054q0 -160 86 -248t242 -88h135q156 0 242 88t86 248v1054q0 11 10 11z" glyph-name="Uhungarumlaut" horiz-adv-x="1241" unicode="Ű"/><glyph d="M387 1315l215 170q10 8 16 2l13 -17q8 -8 2 -14l-223 -168q-12 -10 -23 4q-10 15 0 23zM672 1315l215 170q10 8 16 2l12 -17q8 -8 3 -14l-224 -168q-12 -10 -22 4q-10 15 0 23zM788 1024h21q10 0 10 -10v-994q0 -20 -20 -20h-310q-145 0 -225 81t-80 226v707q0 10 11 10 h20q10 0 10 -10v-707q0 -131 70 -202.5t194 -71.5h289v981q0 10 10 10z" glyph-name="uhungarumlaut" unicode="ű"/><glyph d="M1026 1434h21q10 0 10 -11v-1054q0 -176 -96.5 -272.5t-272.5 -96.5q-72 0 -112.5 -45t-40.5 -124t49 -124t139 -45q10 0 10 -10v-12q0 -10 -10 -11q-109 0 -169 53.5t-60 159.5t84 158h-25q-176 0 -272.5 96.5t-96.5 272.5v1054q0 10 11 11h20q10 0 10 -11v-1054 q0 -160 86 -248t242 -88h135q156 0 242 88t86 248v1054q0 11 10 11z" glyph-name="Uogonek" horiz-adv-x="1241" unicode="Ų"/><glyph d="M819 1014v-994q0 -20 -20 -20q-72 0 -113 -45t-41 -124t49 -124t140 -45q10 0 10 -10v-12q0 -10 -10 -11q-109 0 -169.5 53.5t-60.5 159.5t84 158h-199q-145 0 -225 81t-80 226v707q0 10 11 10h20q10 0 10 -10v-707q0 -131 70 -202.5t194 -71.5h289v981q0 10 10 10h21 q10 0 10 -10z" glyph-name="uogonek" unicode="ų"/><glyph d="M854 1929h33q8 0 14 -6l184 -192q6 -11 -6 -23t-20 0l-180 188h-15l-194 -182q-9 -8 -21 4t-4 19l195 186q6 6 14 6zM1630 1434h25q12 0 8 -13l-356 -1413q-2 -8 -11 -8h-69q-8 0 -10 8l-320 1358l-330 -1358q-2 -8 -10 -8h-70q-8 0 -10 8l-375 1413q-4 12 9 13h24 q8 0 10 -9l365 -1388h25l339 1388q2 8 11 9h24q10 0 13 -9l329 -1388h25l344 1388q2 9 10 9z" glyph-name="Wcircumflex" horiz-adv-x="1724" unicode="Ŵ"/><glyph d="M711 1516q8 0 14 -7l184 -192q6 -11 -6 -23t-20 0l-181 189h-14l-194 -183q-9 -8 -21 4q-12 13 -4 19l195 186q6 6 14 7h33zM1266 1024h22q10 0 8 -12l-245 -1004q-2 -8 -11 -8h-67q-8 0 -10 8l-250 938l-252 -938q-2 -8 -10 -8h-68q-8 0 -10 8l-256 1004q-2 12 8 12h22 q8 0 11 -8l248 -983h24l264 981q4 10 13 10h14q8 0 12 -10l262 -981h25l235 983q3 8 11 8z" glyph-name="wcircumflex" horiz-adv-x="1413" unicode="ŵ"/><glyph d="M526 1929h33q8 0 14 -6l185 -192q6 -11 -6 -23t-21 0l-180 188h-14l-195 -182q-8 -8 -20 4q-13 12 -5 19l195 186q6 6 14 6zM981 1434h25q18 0 8 -13l-443 -755v-656q0 -10 -10 -10h-20q-10 0 -11 10v660l-426 751q-6 12 9 13h24q4 0 10 -9l406 -718l418 718q6 9 10 9z " glyph-name="Ycircumflex" horiz-adv-x="1116" unicode="Ŷ"/><glyph d="M479 1520q8 0 15 -7l184 -192q6 -10 -6 -22q-12 -13 -21 -1l-180 189h-14l-195 -182q-8 -8 -20 4t-4 18l194 186q6 6 14 7h33zM750 1024h22q10 0 8 -12l-291 -1012l-147 -500q-4 -12 -12 -12h-21q-12 0 -8 14l150 498h-29q-8 0 -10 8l-299 1004q-2 12 8 12h22q8 0 11 -8 l290 -983h17l278 983q3 8 11 8z" glyph-name="ycircumflex" horiz-adv-x="892" unicode="ŷ"/><glyph d="M373 1690h-21q-10 0 -10 10v133q0 10 10 10h21q10 0 10 -10v-133q0 -10 -10 -10zM721 1690h-21q-10 0 -10 10v133q0 10 10 10h21q10 0 10 -10v-133q0 -10 -10 -10zM981 1434h25q18 0 8 -13l-443 -755v-656q0 -10 -10 -10h-20q-10 0 -11 10v660l-426 751q-6 12 9 13h24 q4 0 10 -9l406 -718l418 718q6 9 10 9z" glyph-name="Ydieresis" horiz-adv-x="1116" unicode="Ÿ"/><glyph d="M598 1745l215 170q10 8 16 2l13 -16q8 -8 2 -15l-223 -168q-12 -10 -23 4q-10 15 0 23zM182 1434h809q8 0 8 -9v-10q0 -10 -6 -20l-819 -1362h827q10 0 11 -10v-13q0 -10 -11 -10h-872q-6 0 -6 6v12q0 6 6 15l823 1368h-770q-10 0 -10 10v12q0 11 10 11z" glyph-name="Zacute" horiz-adv-x="1134" unicode="Ź"/><glyph d="M465 1335l215 170q10 8 16 2l13 -16q8 -8 2 -14l-224 -168q-12 -10 -22 4t0 22zM193 1024h583q8 0 8 -8v-10q0 -10 -6 -21l-594 -952h602q10 0 11 -10v-13q0 -10 -11 -10h-647q-6 0 -6 6v12q0 6 6 15l598 958h-544q-10 0 -11 10v13q1 10 11 10z" glyph-name="zacute" horiz-adv-x="899" unicode="ź"/><glyph d="M575 1843h21q10 0 10 -10v-133q0 -10 -10 -10h-21q-10 0 -10 10v133q0 10 10 10zM182 1434h809q8 0 8 -9v-10q0 -10 -6 -20l-819 -1362h827q10 0 11 -10v-13q0 -10 -11 -10h-872q-6 0 -6 6v12q0 6 6 15l823 1368h-770q-10 0 -10 10v12q0 11 10 11z" glyph-name="Zdotaccent" horiz-adv-x="1134" unicode="Ż"/><glyph d="M442 1434h21q10 0 10 -11v-133q0 -10 -10 -10h-21q-10 0 -10 10v133q0 11 10 11zM193 1024h583q8 0 8 -8v-10q0 -10 -6 -21l-594 -952h602q10 0 11 -10v-13q0 -10 -11 -10h-647q-6 0 -6 6v12q0 6 6 15l598 958h-544q-10 0 -11 10v13q1 10 11 10z" glyph-name="zdotaccent" horiz-adv-x="899" unicode="ż"/><glyph d="M606 1702h-33q-8 0 -14 6l-184 193q-6 10 6 22t20 0l181 -188h14l195 182q8 8 20 -4t4 -19l-194 -186q-6 -6 -15 -6zM182 1434h809q8 0 8 -9v-10q0 -10 -6 -20l-819 -1362h827q10 0 11 -10v-13q0 -10 -11 -10h-872q-6 0 -6 6v12q0 6 6 15l823 1368h-770q-10 0 -10 10v12 q0 11 10 11z" glyph-name="Zcaron" horiz-adv-x="1134" unicode="Ž"/><glyph d="M473 1292h-33q-8 0 -14 6l-184 193q-6 10 6 22q12 13 20 0l181 -188h14l194 182q8 8 21 -4q12 -12 4 -18l-195 -187q-6 -6 -14 -6zM193 1024h583q8 0 8 -8v-10q0 -10 -6 -21l-594 -952h602q10 0 11 -10v-13q0 -10 -11 -10h-647q-6 0 -6 6v12q0 6 6 15l598 958h-544 q-10 0 -11 10v13q1 10 11 10z" glyph-name="zcaron" horiz-adv-x="899" unicode="ž"/><glyph d="M729 1536q10 0 8 -16t-12 -17h-137q-82 0 -135.5 -55t-67.5 -158l-39 -266l193 -4q12 0 8 -8v-13q-4 -8 -12 -8l-195 -6l-176 -1200q-4 -10 -12 -10h-21q-12 0 -8 10l221 1505q16 117 81 181.5t167 64.5h137z" glyph-name="florin" horiz-adv-x="759" unicode="ƒ"/><glyph d="M612 1702h-32q-9 0 -15 6l-184 193q-6 10 6 22t21 0l180 -188h14l195 182q8 8 20 -4t4 -19l-194 -186q-6 -6 -15 -6zM1044 0h-24q-8 0 -10 8l-164 561h-527l-174 -561q-2 -8 -10 -8h-24q-12 0 -9 12l445 1413q2 8 10 9h68q8 -1 10 -9l418 -1413q4 -12 -9 -12zM330 602 h508l-234 799h-24z" glyph-name="uni01CD" horiz-adv-x="1155" unicode="Ǎ"/><glyph d="M530 1292h-32q-9 0 -15 6l-184 193q-6 10 6 22q12 13 21 0l180 -188h14l195 182q8 8 20 -4t4 -18l-194 -187q-6 -6 -15 -6zM266 1024h264q119 0 184.5 -81t65.5 -226v-707q0 -10 -10 -10h-401q-113 0 -164 47t-51 160v143q0 102 50 153.5t165 51.5h370v162 q0 131 -54 202.5t-155 71.5h-264q-10 0 -10 10v13q0 10 10 10zM369 33h370v489h-370q-94 0 -134 -43t-40 -129v-143q0 -96 41 -135t133 -39z" glyph-name="uni01CE" horiz-adv-x="964" unicode="ǎ"/><glyph d="M242 1702h-33q-8 0 -14 6l-185 193q-6 10 6 22t21 0l180 -188h14l195 182q8 8 20 -4q13 -12 5 -19l-195 -186q-6 -6 -14 -6zM215 1434h21q10 0 10 -11v-1413q0 -10 -10 -10h-21q-10 0 -10 10v1413q0 11 10 11z" glyph-name="uni01CF" horiz-adv-x="450" unicode="Ǐ"/><glyph d="M229 1292h-32q-8 0 -15 6l-184 193q-6 10 6 22q12 13 21 0l180 -188h14l195 182q8 8 20 -4t4 -18l-194 -187q-6 -6 -15 -6zM195 1024h20q10 0 10 -10v-830q0 -152 123 -151h45q10 0 10 -10v-13q0 -10 -10 -10h-45q-164 0 -164 184v830q1 10 11 10z" glyph-name="uni01D0" horiz-adv-x="475" unicode="ǐ"/><glyph d="M645 1702h-33q-8 0 -14 6l-184 193q-6 10 6 22t20 0l181 -188h14l194 182q8 8 21 -4q12 -12 4 -19l-195 -186q-6 -6 -14 -6zM553 1434h156q176 0 272 -96.5t96 -272.5v-696q0 -176 -96 -272.5t-272 -96.5h-156q-176 0 -272.5 96.5t-96.5 272.5v696q0 176 96.5 272.5 t272.5 96.5zM1036 369v696q0 160 -86 248t-241 88h-156q-156 0 -242 -88t-86 -248v-696q0 -160 86 -248t242 -88h156q156 0 241.5 88t85.5 248z" glyph-name="uni01D1" horiz-adv-x="1261" unicode="Ǒ"/><glyph d="M537 1292h-33q-8 0 -15 6l-184 193q-6 10 6 22q12 13 21 0l180 -188h14l195 182q8 8 20 -4t4 -18l-194 -187q-6 -6 -14 -6zM471 1024h92q133 0 205 -77t72 -218v-442q0 -137 -75 -212t-212 -75h-90q-137 0 -213 75t-76 212v442q0 141 78 218t219 77zM799 287v442 q0 125 -61.5 193.5t-174.5 68.5h-92q-121 0 -188.5 -68.5t-67.5 -193.5v-442q0 -121 64.5 -187.5t183.5 -66.5h90q117 0 181.5 66.5t64.5 187.5z" glyph-name="uni01D2" unicode="ǒ"/><glyph d="M625 1702h-33q-8 0 -14 6l-185 193q-6 10 6 22t21 0l180 -188h14l195 182q8 8 20 -4q13 -12 5 -19l-195 -186q-6 -6 -14 -6zM1026 1434h21q10 0 10 -11v-1054q0 -176 -96.5 -272.5t-272.5 -96.5h-135q-176 0 -272.5 96.5t-96.5 272.5v1054q0 10 11 11h20q10 0 10 -11 v-1054q0 -160 86 -248t242 -88h135q156 0 242 88t86 248v1054q0 11 10 11z" glyph-name="uni01D3" horiz-adv-x="1241" unicode="Ǔ"/><glyph d="M547 1292h-33q-8 0 -14 6l-185 193q-6 10 0 16l9 9q10 10 18 -3l180 -188h15l194 182q8 8 21 -4q12 -12 4 -18l-195 -187q-6 -6 -14 -6zM788 1024h21q10 0 10 -10v-994q0 -20 -20 -20h-310q-145 0 -225 81t-80 226v707q0 10 11 10h20q10 0 10 -10v-707q0 -131 70 -202.5 t194 -71.5h289v981q0 10 10 10z" glyph-name="uni01D4" unicode="ǔ"/><glyph d="M641 1702h-33q-8 0 -14 6l-184 193q-6 10 6 22t20 0l180 -188h15l194 182q8 8 21 -4q12 -12 4 -19l-195 -186q-6 -6 -14 -6zM666 702h198q82 0 128 -48t46 -136v-508q0 -10 -10 -10h-485q-170 0 -264.5 96.5t-94.5 272.5v696q0 176 99.5 272.5t279.5 96.5h328 q10 0 10 -11v-12q0 -10 -10 -10h-328q-162 0 -250 -88t-88 -248v-696q0 -160 83 -248t235 -88h454v485q0 72 -34.5 112t-98.5 40h-198q-10 0 -11 10v12q1 10 11 10z" glyph-name="Gcaron" horiz-adv-x="1222" unicode="Ǧ"/><glyph d="M541 1292h-33q-8 0 -14 6l-185 193q-6 10 6 22q12 13 21 0l180 -188h14l195 182q8 8 20 -4q13 -12 5 -18l-195 -187q-6 -6 -14 -6zM471 1024h338q10 0 10 -10v-1219q0 -147 -77.5 -227t-219.5 -80h-266q-10 0 -10 10v13q0 10 10 10h266q121 0 188.5 71.5t67.5 202.5v205 h-286q-152 0 -235 81t-83 226v410q0 147 78 227t219 80zM492 33h286v958h-307q-121 0 -188.5 -71.5t-67.5 -202.5v-410q0 -131 73 -202.5t204 -71.5z" glyph-name="gcaron" unicode="ǧ"/><glyph d="M408 760h286q113 0 174.5 -57.5t61.5 -163.5v-295q0 -117 -63.5 -180.5t-178.5 -63.5h-514q-10 0 -10 10v13q0 10 10 10h514q94 0 147.5 55t53.5 156v295q0 88 -51.5 136t-143.5 48h-286q-113 0 -174.5 55.5t-61.5 157.5v250q0 119 67.5 183.5t188.5 64.5h410 q10 0 10 -11v-12q0 -10 -10 -10h-410q-102 0 -158.5 -56.5t-56.5 -158.5v-250q0 -84 51.5 -130t143.5 -46zM520 -133h37q14 0 14 -14v-54l-41 -288q0 -10 -10 -11h-14q-10 0 -10 11l41 288h-19q-12 0 -12 15v39q0 14 14 14z" glyph-name="Scommaaccent" horiz-adv-x="1073" unicode="Ș"/><glyph d="M367 559h122q102 0 159 -53t57 -148v-135q0 -223 -222 -223h-329q-10 0 -11 10v13q0 10 11 10h329q180 0 181 190v135q0 78 -45.5 121t-129.5 43h-122q-102 0 -158.5 50.5t-56.5 142.5v82q0 109 61 168t174 59h225q10 0 11 -10v-13q0 -10 -11 -10h-225q-92 0 -143 -51 t-51 -143v-82q0 -156 174 -156zM383 -133h37q14 0 14 -14v-54l-41 -288q0 -10 -10 -11h-14q-10 0 -11 11l41 288h-18q-12 0 -12 15v39q0 14 14 14z" glyph-name="scommaaccent" horiz-adv-x="847" unicode="ș"/><glyph d="M72 1434h917q10 0 10 -11v-12q0 -10 -10 -10h-432v-1391q0 -10 -10 -10h-21q-10 0 -10 10v1391h-444q-10 0 -11 10v12q1 11 11 11zM508 -133h37q14 0 14 -14v-54l-41 -288q0 -10 -10 -11h-14q-10 0 -11 11l41 288h-18q-12 0 -12 15v39q0 14 14 14z" glyph-name="uni021A" horiz-adv-x="1060" unicode="Ț"/><glyph d="M399 33h117q10 0 10 -10v-13q0 -10 -10 -10h-117q-102 0 -158.5 64.5t-56.5 181.5v1024q0 14 13 10q28 -12 28 -20v-236l254 -4q10 0 10 -8v-15q0 -8 -10 -8l-254 -4v-739q0 -102 46 -157.5t128 -55.5zM338 -133h37q14 0 14 -14v-54l-41 -288q0 -10 -10 -11h-14 q-10 0 -11 11l41 288h-18q-12 0 -12 15v39q0 14 14 14z" glyph-name="uni021B" horiz-adv-x="567" unicode="ț"/><glyph d="M209 1024h20q10 0 11 -10v-1280q0 -117 -56.5 -181.5t-158.5 -64.5h-117q-10 0 -10 10v13q0 10 10 10h117q82 0 128 55t46 158v1280q0 10 10 10z" glyph-name="uni0237" horiz-adv-x="434" unicode="ȷ"/><glyph d="M295 1520h33q8 0 14 -7l184 -192q6 -10 -6 -22q-12 -13 -20 -1l-181 189h-14l-194 -182q-8 -8 -21 4q-12 12 -4 18l195 186q6 7 14 7z" glyph-name="circumflex" horiz-adv-x="610" unicode="ˆ"/><glyph d="M317 1292h-32q-8 0 -15 6l-184 193q-6 10 6 22q12 13 21 0l180 -188h14l195 182q8 8 20 -4t4 -18l-194 -187q-6 -6 -15 -6z" glyph-name="caron" horiz-adv-x="610" unicode="ˇ"/><glyph d="M471 1513h10q10 0 11 -12q0 -96 -55.5 -150.5t-149.5 -54.5t-149.5 53.5t-55.5 151.5q0 12 10 12h10q10 0 11 -12q0 -82 49 -127t124.5 -45t125 45t49.5 127q0 12 10 12z" glyph-name="breve" horiz-adv-x="573" unicode="˘"/><glyph d="M92 1434h21q10 0 10 -11v-133q0 -10 -10 -10h-21q-10 0 -10 10v133q0 11 10 11z" glyph-name="dotaccent" horiz-adv-x="204" unicode="˙"/><glyph d="M276.5 1577q69.5 0 110.5 -41t41 -110.5t-41 -111.5t-110.5 -42t-111.5 42t-42 111.5t42 110.5t111.5 41zM275 1542q-52 0 -84.5 -31.5t-32.5 -85t32.5 -86t86 -32.5t85 32.5t31.5 86t-33 85t-85 31.5z" glyph-name="ring" horiz-adv-x="550" unicode="˚"/><glyph d="M317 -348v-12q0 -10 -10 -11q-109 0 -169 53.5t-60 146.5t52 146.5t142 53.5v-29q-72 0 -112.5 -45t-40.5 -124t49 -124t139 -45q10 0 10 -10z" glyph-name="ogonek" horiz-adv-x="444" unicode="˛"/><glyph d="M428 1362q29 0 45 14.5t34 38.5t31 14q13 -11 5 -20q-29 -43 -52.5 -61.5t-64.5 -18.5t-103.5 31t-97.5 31q-63 0 -94 -56q-4 -10 -20 -4q-17 6 -11 17q37 76 125 75q47 0 110.5 -30.5t92.5 -30.5z" glyph-name="tilde" horiz-adv-x="651" unicode="˜"/><glyph d="M117 1315l215 170q10 8 16 2l12 -17q8 -8 2 -14l-223 -168q-12 -10 -22 4q-10 15 0 23zM401 1315l215 170q10 8 17 2l12 -17q8 -8 2 -14l-223 -168q-12 -10 -23 4t0 23z" glyph-name="hungarumlaut" horiz-adv-x="702" unicode="˝"/><glyph d="M135 -133h37q14 0 14 -14v-54l-41 -288q0 -10 -10 -11h-14q-10 0 -10 11l41 288h-19q-12 0 -12 15v39q0 14 14 14z" glyph-name="uni0326" horiz-adv-x="0" unicode="̦"/><glyph d="M1186 0h-1106q-14 0 -8 12l557 1411q4 10 12 10.5t12 -10.5l541 -1411q2 -12 -8 -12zM1147 33l-506 1317l-522 -1317h1028z" glyph-name="Delta" horiz-adv-x="1290" unicode="Δ"/><glyph d="M786 33h418q10 0 10 -10v-13q0 -10 -10 -10h-459v129q0 10 11 10q358 4 360 312v614q0 156 -103.5 246t-264.5 90h-156q-162 0 -265.5 -90t-103.5 -246v-614q0 -307 359 -312q10 0 10 -10v-129h-459q-10 0 -10 10v13q0 10 10 10h418v73q-164 0 -266.5 81t-102.5 264v614 q0 172 115 270.5t295 98.5h156q180 0 294.5 -99.5t112.5 -269.5v-614q0 -182 -102.5 -263.5t-266.5 -81.5v-73z" glyph-name="Omega" horiz-adv-x="1337" unicode="Ω"/><glyph d="M788 1024h21q10 0 10 -10v-994q0 -20 -20 -20h-310q-188 0 -264 131v-438q0 -10 -10 -10h-20q-10 0 -11 10v1321q0 10 11 10h20q10 0 10 -10v-707q0 -131 70 -202.5t194 -71.5h289v981q0 10 10 10z" glyph-name="mu" unicode="μ"/><glyph d="M133 1024h942q10 0 10 -10v-21q0 -10 -10 -10h-201v-764q0 -84 36 -131t100 -47h34q10 0 11 -10v-21q0 -10 -11 -10h-34q-84 0 -130 57.5t-46 161.5v764h-486v-973q0 -10 -10 -10h-21q-10 0 -10 10v973h-174q-10 0 -10 10v21q0 10 10 10z" glyph-name="pi" horiz-adv-x="1208" unicode="π"/><glyph d="M557 1686h-20q-10 0 -11 10v133q0 10 11 10h20q10 0 10 -10v-133q0 -10 -10 -10zM926 1139v-109q0 -199 -160 -260q221 -51 221 -317v-125q0 -156 -78 -242t-219 -86h-475q-10 0 -10 10v1413q0 10 10 11h393q152 0 235 -77t83 -218zM608 1401h-362v-621h383 q121 0 188.5 65.5t67.5 184.5v109q0 125 -73 193.5t-204 68.5zM946 328v125q0 141 -71.5 218t-204.5 77h-424v-715h444q121 0 188.5 77t67.5 218z" glyph-name="uni1E02" horiz-adv-x="1161" unicode="Ḃ"/><glyph d="M236 1024h286q152 0 235 -81t83 -226v-410q0 -147 -78 -227t-219 -80h-338q-10 0 -10 10v1516q0 10 10 10h20q10 0 11 -10v-502zM551 1274h-21q-10 0 -10 10v133q0 10 10 10h21q10 0 10 -10v-133q0 -10 -10 -10zM799 307v410q0 131 -73 202.5t-204 71.5h-286v-958h307 q121 0 188.5 71.5t67.5 202.5z" glyph-name="uni1E03" unicode="ḃ"/><glyph d="M604 1690h-20q-10 0 -11 10v133q0 10 11 10h20q10 0 10 -10v-133q0 -10 -10 -10zM215 1434h471q180 0 279.5 -96.5t99.5 -272.5v-696q0 -176 -94 -272.5t-264 -96.5h-492q-10 0 -10 10v1413q0 11 10 11zM1024 369v696q0 160 -88 248t-250 88h-440v-1368h461 q152 0 234.5 88t82.5 248z" glyph-name="uni1E0A" horiz-adv-x="1249" unicode="Ḋ"/><glyph d="M788 1536h21q10 0 10 -10v-1516q0 -10 -10 -10h-338q-141 0 -219 80t-78 227v410q0 145 83 226t235 81h286v502q0 10 10 10zM526 1280h-20q-10 0 -10 10v133q0 10 10 11h20q10 0 11 -11v-133q-1 -10 -11 -10zM471 33h307v958h-286q-131 0 -204 -71.5t-73 -202.5v-410 q0 -131 67.5 -202.5t188.5 -71.5z" glyph-name="uni1E0B" unicode="ḋ"/><glyph d="M575 1642h-20q-10 0 -10 11v133q0 10 10 10h20q10 0 11 -10v-133q-1 -11 -11 -11zM215 1434h696q10 0 11 -11v-12q0 -10 -11 -10h-665v-656h563q10 0 10 -10v-12q0 -10 -10 -10h-563v-703q0 -10 -10 -10h-21q-10 0 -10 10v1413q0 11 10 11z" glyph-name="uni1E1E" horiz-adv-x="983" unicode="Ḟ"/><glyph d="M379 1745h-21q-10 0 -10 10v133q0 10 10 10h21q10 0 10 -10v-133q0 -10 -10 -10zM410 1536h137q10 0 10 -10v-13q0 -10 -10 -10h-137q-82 0 -128 -55t-46 -158v-266l253 -4q10 0 11 -8v-13q0 -8 -11 -8l-253 -6v-975q0 -10 -11 -10h-20q-10 0 -10 10v1280 q0 117 56.5 181.5t158.5 64.5z" glyph-name="uni1E1F" horiz-adv-x="495" unicode="ḟ"/><glyph d="M819 1745l215 170q10 8 17 2l12 -16q8 -8 2 -15l-223 -168q-13 -10 -23 4t0 23zM1331 1434h62q10 0 10 -11v-1413q0 -10 -10 -10h-23q-8 0 -8 10v1387h-10l-510 -1286q-2 -8 -13 -9h-34q-8 0 -11 9l-524 1286h-14v-1387q0 -10 -10 -10h-21q-12 0 -6 10v1413q0 10 10 11 h64q8 0 10 -9l518 -1278l510 1278q2 9 10 9z" glyph-name="uni1E3E" horiz-adv-x="1607" unicode="Ḿ"/><glyph d="M813 1335l215 170q10 8 16 2l13 -16q8 -8 2 -14l-223 -168q-13 -10 -23 4t0 22zM891 1024h166q135 0 209.5 -81t74.5 -226v-707q0 -10 -10 -10h-20q-10 0 -11 10v707q0 131 -63 202.5t-180 71.5h-166q-102 0 -103 -110v-871q0 -10 -10 -10h-20q-10 0 -10 10v871 q0 111 -103 110h-409v-981q0 -10 -11 -10h-20q-10 0 -10 10v994q0 20 20 20h430q88 0 123 -59q35 59 123 59z" glyph-name="uni1E3F" horiz-adv-x="1525" unicode="ḿ"/><glyph d="M817 1690h-20q-10 0 -11 10v133q0 10 11 10h20q10 0 10 -10v-133q0 -10 -10 -10zM1331 1434h62q10 0 10 -11v-1413q0 -10 -10 -10h-23q-8 0 -8 10v1387h-10l-510 -1286q-2 -8 -13 -9h-34q-8 0 -11 9l-524 1286h-14v-1387q0 -10 -10 -10h-21q-12 0 -6 10v1413q0 10 10 11 h64q8 0 10 -9l518 -1278l510 1278q2 9 10 9z" glyph-name="uni1E40" horiz-adv-x="1607" unicode="Ṁ"/><glyph d="M811 1280h-20q-10 0 -11 10v133q0 10 11 11h20q10 0 10 -11v-133q0 -10 -10 -10zM891 1024h166q135 0 209.5 -81t74.5 -226v-707q0 -10 -10 -10h-20q-10 0 -11 10v707q0 131 -63 202.5t-180 71.5h-166q-102 0 -103 -110v-871q0 -10 -10 -10h-20q-10 0 -10 10v871 q0 111 -103 110h-409v-981q0 -10 -11 -10h-20q-10 0 -10 10v994q0 20 20 20h430q88 0 123 -59q35 59 123 59z" glyph-name="uni1E41" horiz-adv-x="1525" unicode="ṁ"/><glyph d="M633 1843h20q10 0 11 -10v-133q0 -10 -11 -10h-20q-10 0 -10 10v133q0 10 10 10zM1010 1434h20q10 0 10 -11v-1413q0 -10 -10 -10h-61q-10 0 -15 10l-698 1389h-10v-1389q0 -10 -10 -10h-21q-10 0 -10 10v1413q0 10 10 11h61q10 0 15 -13l698 -1388h10v1390q1 11 11 11z " glyph-name="uni1E44" horiz-adv-x="1245" unicode="Ṅ"/><glyph d="M459 1434h20q10 0 10 -11v-133q0 -10 -10 -10h-20q-10 0 -10 10v133q0 11 10 11zM215 1024h309q145 0 225 -81t80 -226v-707q0 -10 -10 -10h-20q-10 0 -11 10v707q0 131 -69.5 202.5t-194.5 71.5h-288v-981q0 -10 -11 -10h-20q-10 0 -10 10v994q0 20 20 20z" glyph-name="uni1E45" unicode="ṅ"/><glyph d="M588 1620h-21q-10 0 -10 10v133q0 10 10 11h21q10 0 10 -11v-133q0 -10 -10 -10zM215 1434h455q152 0 234.5 -85t82.5 -243v-125q0 -156 -78 -242t-219 -86h-444v-643q0 -10 -10 -10h-21q-10 0 -10 10v1413q0 11 10 11zM946 981v125q0 141 -71.5 218t-204.5 77h-424v-715 h444q121 0 188.5 77t67.5 218z" glyph-name="uni1E56" horiz-adv-x="1130" unicode="Ṗ"/><glyph d="M526 1280h-20q-10 0 -10 10v133q0 10 10 11h20q10 0 11 -11v-133q-1 -10 -11 -10zM205 1024h338q141 0 219 -80t78 -227v-410q0 -145 -83 -226t-235 -81h-286v-502q0 -10 -11 -10h-20q-10 0 -10 10v1516q0 10 10 10zM799 307v410q0 131 -67.5 202.5t-188.5 71.5h-307 v-958h286q131 0 204 71.5t73 202.5z" glyph-name="uni1E57" unicode="ṗ"/><glyph d="M512 1843h20q10 0 11 -10v-133q0 -10 -11 -10h-20q-10 0 -10 10v133q0 10 10 10zM428 1434h410q10 0 10 -11v-12q0 -10 -10 -10h-410q-102 0 -158.5 -56.5t-56.5 -158.5v-250q0 -84 51 -130t144 -46h286q113 0 174.5 -57.5t61.5 -163.5v-295q0 -117 -63.5 -180.5 t-178.5 -63.5h-514q-10 0 -10 10v13q0 10 10 10h514q94 0 147.5 55t53.5 156v295q0 88 -51.5 136t-143.5 48h-286q-113 0 -174.5 55.5t-61.5 157.5v250q0 119 67.5 183.5t188.5 64.5z" glyph-name="uni1E60" horiz-adv-x="1073" unicode="Ṡ"/><glyph d="M397 1434h21q10 0 10 -11v-133q0 -10 -10 -10h-21q-10 0 -10 10v133q0 11 10 11zM387 1024h225q10 0 11 -10v-13q0 -10 -11 -10h-225q-92 0 -143 -51t-51 -143v-82q0 -156 174 -156h122q102 0 159 -53t57 -148v-135q0 -223 -222 -223h-329q-10 0 -11 10v13q0 10 11 10 h329q180 0 181 190v135q0 78 -45.5 121t-129.5 43h-122q-102 0 -158.5 50.5t-56.5 142.5v82q0 109 61 168t174 59z" glyph-name="uni1E61" horiz-adv-x="847" unicode="ṡ"/><glyph d="M545 1690h-21q-10 0 -10 10v133q0 10 10 10h21q10 0 10 -10v-133q0 -10 -10 -10zM72 1434h917q10 0 10 -11v-12q0 -10 -10 -10h-432v-1391q0 -10 -10 -10h-21q-10 0 -10 10v1391h-444q-10 0 -11 10v12q1 11 11 11z" glyph-name="uni1E6A" horiz-adv-x="1060" unicode="Ṫ"/><glyph d="M217 1442h-20q-10 0 -11 10v133q0 10 11 10h20q10 0 10 -10v-133q0 -10 -10 -10zM399 33h117q10 0 10 -10v-13q0 -10 -10 -10h-117q-102 0 -158.5 64.5t-56.5 181.5v1024q0 14 13 10q28 -12 28 -20v-236l254 -4q10 0 10 -8v-15q0 -8 -10 -8l-254 -4v-739 q0 -102 46 -157.5t128 -55.5z" glyph-name="uni1E6B" horiz-adv-x="567" unicode="ṫ"/><glyph d="M836 1698l-224 168q-6 6 2 14l13 16q6 6 16 -2l215 -170q11 -6 0 -21q-10 -15 -22 -5zM1630 1434h25q12 0 8 -13l-356 -1413q-2 -8 -11 -8h-69q-8 0 -10 8l-320 1358l-330 -1358q-2 -8 -10 -8h-70q-8 0 -10 8l-375 1413q-4 12 9 13h24q8 0 10 -9l365 -1388h25l339 1388 q2 8 11 9h24q10 0 13 -9l329 -1388h25l344 1388q2 9 10 9z" glyph-name="Wgrave" horiz-adv-x="1724" unicode="Ẁ"/><glyph d="M659 1284l-223 168q-6 6 2 14l13 17q6 6 16 -2l215 -170q10 -8 0 -23q-11 -14 -23 -4zM1266 1024h22q10 0 8 -12l-245 -1004q-2 -8 -11 -8h-67q-8 0 -10 8l-250 938l-252 -938q-2 -8 -10 -8h-68q-8 0 -10 8l-256 1004q-2 12 8 12h22q8 0 11 -8l248 -983h24l264 981 q4 10 13 10h14q8 0 12 -10l262 -981h25l235 983q3 8 11 8z" glyph-name="wgrave" horiz-adv-x="1413" unicode="ẁ"/><glyph d="M885 1745l215 170q10 8 16 2l12 -16q8 -8 2 -15l-223 -168q-12 -10 -22 4t0 23zM1630 1434h25q12 0 8 -13l-356 -1413q-2 -8 -11 -8h-69q-8 0 -10 8l-320 1358l-330 -1358q-2 -8 -10 -8h-70q-8 0 -10 8l-375 1413q-4 12 9 13h24q8 0 10 -9l365 -1388h25l339 1388 q2 8 11 9h24q10 0 13 -9l329 -1388h25l344 1388q2 9 10 9z" glyph-name="Wacute" horiz-adv-x="1724" unicode="Ẃ"/><glyph d="M709 1331l215 170q10 8 16 2l12 -16q8 -8 2 -14l-223 -168q-12 -10 -22 4t0 22zM1266 1024h22q10 0 8 -12l-245 -1004q-2 -8 -11 -8h-67q-8 0 -10 8l-250 938l-252 -938q-2 -8 -10 -8h-68q-8 0 -10 8l-256 1004q-2 12 8 12h22q8 0 11 -8l248 -983h24l264 981q4 10 13 10 h14q8 0 12 -10l262 -981h25l235 983q3 8 11 8z" glyph-name="wacute" horiz-adv-x="1413" unicode="ẃ"/><glyph d="M700 1690h-20q-10 0 -10 10v133q0 10 10 10h20q10 0 11 -10v-133q-1 -10 -11 -10zM1049 1690h-21q-10 0 -10 10v133q0 10 10 10h21q10 0 10 -10v-133q0 -10 -10 -10zM1630 1434h25q12 0 8 -13l-356 -1413q-2 -8 -11 -8h-69q-8 0 -10 8l-320 1358l-330 -1358q-2 -8 -10 -8 h-70q-8 0 -10 8l-375 1413q-4 12 9 13h24q8 0 10 -9l365 -1388h25l339 1388q2 8 11 9h24q10 0 13 -9l329 -1388h25l344 1388q2 9 10 9z" glyph-name="Wdieresis" horiz-adv-x="1724" unicode="Ẅ"/><glyph d="M524 1276h-20q-10 0 -10 10v133q0 10 10 11h20q10 0 11 -11v-133q-1 -10 -11 -10zM872 1276h-20q-10 0 -10 10v133q0 10 10 11h20q10 0 11 -11v-133q-1 -10 -11 -10zM1266 1024h22q10 0 8 -12l-245 -1004q-2 -8 -11 -8h-67q-8 0 -10 8l-250 938l-252 -938q-2 -8 -10 -8 h-68q-8 0 -10 8l-256 1004q-2 12 8 12h22q8 0 11 -8l248 -983h24l264 981q4 10 13 10h14q8 0 12 -10l262 -981h25l235 983q3 8 11 8z" glyph-name="wdieresis" horiz-adv-x="1413" unicode="ẅ"/><glyph d="M479 1833q47 0 110.5 -30.5t92.5 -30.5t45 14t33 39t26 16q20 -11 11 -22q-29 -43 -52.5 -61.5t-64.5 -18.5t-103.5 30.5t-97.5 30.5q-63 0 -94 -55q-4 -10 -20 -4q-17 6 -11 16q37 76 125 76zM952 1401h-706v-656h604q10 0 10 -10v-12q0 -10 -10 -10h-604v-680h706 q10 0 11 -10v-13q0 -10 -11 -10h-737q-10 0 -10 10v1413q0 10 10 11h737q10 0 11 -11v-12q-1 -10 -11 -10z" glyph-name="uni1EBC" horiz-adv-x="1126" unicode="Ẽ"/><glyph d="M604 1362q29 0 45.5 14.5t33.5 39.5t30 13q13 -11 6 -20q-29 -43 -52.5 -61.5t-64.5 -18.5t-103.5 31t-97.5 31q-63 0 -94 -56q-4 -10 -20 -4t-11 17q37 76 125 75q47 0 110.5 -30.5t92.5 -30.5zM461 1024h106q242 0 242 -254v-63q0 -250 -242 -250h-352v-150 q0 -274 258 -274h213q10 0 10 -10v-13q0 -10 -10 -10h-213q-299 0 -299 307v410q0 145 75 226t212 81zM768 707v63q0 221 -201 221h-106q-117 0 -181.5 -71.5t-64.5 -202.5v-228h352q104 0 152.5 53.5t48.5 164.5z" glyph-name="uni1EBD" horiz-adv-x="954" unicode="ẽ"/><glyph d="M508 1698l-223 168q-6 6 2 14l12 16q6 6 16 -2l215 -170q11 -6 0 -21q-10 -15 -22 -5zM981 1434h25q18 0 8 -13l-443 -755v-656q0 -10 -10 -10h-20q-10 0 -11 10v660l-426 751q-6 12 9 13h24q4 0 10 -9l406 -718l418 718q6 9 10 9z" glyph-name="Ygrave" horiz-adv-x="1116" unicode="Ỳ"/><glyph d="M428 1288l-223 168q-6 6 2 14l12 17q6 6 17 -2l215 -170q11 -9 0 -23t-23 -4zM750 1024h22q10 0 8 -12l-291 -1012l-147 -500q-4 -12 -12 -12h-21q-12 0 -8 14l150 498h-29q-8 0 -10 8l-299 1004q-2 12 8 12h22q8 0 11 -8l290 -983h17l278 983q3 8 11 8z" glyph-name="ygrave" horiz-adv-x="892" unicode="ỳ"/><glyph d="M449 1833q47 0 111 -30.5t92 -30.5q42 0 68 39q27 39 36 30q18 -12 10 -22q-29 -43 -52.5 -61.5t-64.5 -18.5t-103.5 30.5t-96.5 30.5q-63 0 -95 -55q-4 -10 -20 -4t-10 16q37 76 125 76zM981 1434h25q18 0 8 -13l-443 -755v-656q0 -10 -10 -10h-20q-10 0 -11 10v660 l-426 751q-6 12 9 13h24q4 0 10 -9l406 -718l418 718q6 9 10 9z" glyph-name="uni1EF8" horiz-adv-x="1116" unicode="Ỹ"/><glyph d="M640 1401q27 39 36 31q17 -14 10 -23q-29 -43 -52.5 -61.5t-64.5 -18.5t-103.5 31t-96.5 31q-63 0 -95 -56q-4 -10 -20 -4t-10 17q37 76 125 75q47 0 110.5 -30.5t98.5 -30.5t62 39zM750 1024h22q10 0 8 -12l-291 -1012l-147 -500q-4 -12 -12 -12h-21q-12 0 -8 14 l150 498h-29q-8 0 -10 8l-299 1004q-2 12 8 12h22q8 0 11 -8l290 -983h17l278 983q3 8 11 8z" glyph-name="uni1EF9" horiz-adv-x="892" unicode="ỹ"/><glyph d="M133 522h875q10 0 10 -10v-12q0 -10 -10 -11h-875q-10 0 -10 11v12q0 10 10 10z" glyph-name="endash" horiz-adv-x="1140" unicode="–"/><glyph d="M133 522h1079q10 0 11 -10v-12q0 -10 -11 -11h-1079q-10 0 -10 11v12q0 10 10 10z" glyph-name="emdash" horiz-adv-x="1345" unicode="—"/><glyph d="M145 1239q12 0 13 -14v-39q0 -14 -15 -15h-37q-14 0 -14 15v53l41 289q0 10 10 10h15q10 0 10 -10l-41 -289h18z" glyph-name="quoteleft" horiz-adv-x="280" unicode="‘"/><glyph d="M137 1536h37q14 0 14 -14v-54l-41 -288q0 -10 -10 -11h-14q-10 0 -10 11l41 288h-19q-12 0 -12 15v39q0 14 14 14z" glyph-name="quoteright" horiz-adv-x="280" unicode="’"/><glyph d="M113 68h37q14 0 14 -15v-53l-41 -289q0 -10 -10 -10h-15q-10 0 -10 10l41 289h-18q-12 0 -13 14v39q1 15 15 15z" glyph-name="quotesinglbase" horiz-adv-x="286" unicode="‚"/><glyph d="M143 1538h15q10 0 10 -10l-41 -289h18q12 0 13 -14v-39q0 -14 -15 -15h-37q-14 0 -14 15v53l41 289q0 10 10 10zM338 1239q12 0 12 -14v-39q0 -14 -14 -15h-37q-14 0 -14 15v53l41 289q0 10 10 10h14q10 0 10 -10l-41 -289h19z" glyph-name="quotedblleft" horiz-adv-x="473" unicode="“"/><glyph d="M137 1536h37q14 0 14 -14v-54l-41 -288q0 -10 -10 -11h-14q-10 0 -10 11l41 288h-19q-12 0 -12 15v39q0 14 14 14zM319 1536h37q14 0 15 -14v-54l-41 -288q0 -10 -11 -11h-14q-10 0 -10 11l41 288h-19q-12 0 -12 15v39q0 14 14 14z" glyph-name="quotedblright" horiz-adv-x="462" unicode="”"/><glyph d="M113 68h37q14 0 14 -15v-53l-41 -289q0 -10 -10 -10h-15q-10 0 -10 10l41 289h-18q-12 0 -13 14v39q1 15 15 15zM293 68h37q14 0 14 -15v-53l-41 -289q0 -10 -10 -10h-14q-10 0 -11 10l41 289h-18q-12 0 -12 14v39q0 15 14 15z" glyph-name="quotedblbase" horiz-adv-x="466" unicode="„"/><glyph d="M856 1059v-21q0 -10 -10 -10l-350 -10v-1274q0 -10 -11 -10h-20q-14 0 -4 10v1274l-338 10q-10 0 -10 10v21q0 10 10 10l338 -22l-6 376q0 10 10 11h20q10 0 11 -11l-7 -376l357 22q10 0 10 -10z" glyph-name="dagger" horiz-adv-x="968" unicode="†"/><glyph d="M856 362v-20q0 -10 -10 -10l-350 37v-625q0 -10 -11 -10h-20q-14 0 -4 10v625l-338 -37q-10 0 -10 10v20q0 10 10 11l338 24v621l-338 10q-10 0 -10 10v21q0 10 10 10l338 -22l-6 376q0 10 10 11h20q10 0 11 -11l-7 -376l357 22q10 0 10 -10v-21q0 -10 -10 -10l-357 -10 v-621l357 -24q10 0 10 -11z" glyph-name="daggerdbl" horiz-adv-x="968" unicode="‡"/><glyph d="M368.5 788q223.5 0 223.5 -223t-223.5 -223t-223.5 223t223.5 223z" glyph-name="bullet" horiz-adv-x="737" unicode="•"/><glyph d="M127 72h27q20 0 20 -21v-31q0 -20 -20 -20h-27q-20 0 -21 20v31q1 21 21 21zM385 72h27q20 0 20 -21v-31q0 -20 -20 -20h-27q-20 0 -20 20v31q0 21 20 21zM647 72h27q20 0 20 -21v-31q0 -20 -20 -20h-27q-20 0 -20 20v31q0 21 20 21z" glyph-name="ellipsis" horiz-adv-x="806" unicode="…"/><glyph d="M357 1432q126 0 178.5 -66t52.5 -201t-52.5 -203.5t-178.5 -68.5t-180 69.5t-54 203.5t54 200t180 66zM1329 1427h23q14 0 6 -12l-1176 -1395q-8 -10 -16 -10h-21q-14 0 -4 15l1172 1390q10 12 16 12zM357 1399q-105 0 -149 -57.5t-44 -176.5t44 -179t149 -60t147.5 61 t42.5 179t-42.5 175.5t-147.5 57.5zM1179 532q126 0 178 -65.5t52 -200.5t-52 -203.5t-178 -68.5t-180.5 69.5t-54.5 203.5t54.5 199.5t180.5 65.5zM1897 532q126 0 178.5 -65.5t52.5 -200.5t-52.5 -203.5t-178.5 -68.5t-180 69.5t-54 203.5t54 199.5t180 65.5zM1179 500 q-105 0 -149.5 -57.5t-44.5 -176.5t43.5 -179t149.5 -60t148 60t42 179t-42 176.5t-147 57.5zM1897 500q-105 0 -149 -57.5t-44 -176.5t44 -179t149 -60t147.5 60t42.5 179t-42.5 176.5t-147.5 57.5z" glyph-name="perthousand" horiz-adv-x="2250" unicode="‰"/><glyph d="M86 520l371 375q8 8 14 0l14 -14q10 -6 2 -15l-350 -352l348 -336q8 -8 2 -14l-14 -17q-8 -6 -14 0l-373 359q-8 6 0 14z" glyph-name="guilsinglleft" horiz-adv-x="612" unicode="‹"/><glyph d="M96 881l15 14q6 8 14 0l371 -375q8 -8 0 -14l-373 -359q-6 -6 -14 0l-15 17q-6 6 2 14l348 336l-350 352q-8 9 2 15z" glyph-name="guilsinglright" horiz-adv-x="602" unicode="›"/><glyph d="M741 1468h15q14 0 6 -12l-1100 -1476q-8 -10 -16 -11h-15q-14 0 -4 15l1098 1472q8 12 16 12z" glyph-name="fraction" horiz-adv-x="387" unicode="⁄"/><glyph d="M266 1843h72q80 0 124 -43t44 -121v-391q0 -78 -44 -120t-124 -42h-72q-82 0 -126 42t-44 120v391q0 78 44 121t126 43zM475 1288v391q0 66 -37 102t-102 36h-70q-66 0 -102.5 -36t-36.5 -102v-391q0 -135 139 -135h70q139 4 139 135z" glyph-name="uni2070" horiz-adv-x="602" unicode="⁰"/><glyph d="M463 1343h80q6 0 6 -6v-14q0 -6 -6 -6h-80v-184q0 -6 -6 -7h-19q-6 0 -6 7v184h-342q-8 0 -8 8v45q0 4 2 6l242 459q2 8 10 8h18q2 0 4 -2t0 -4l-245 -465v-29h319v259q0 6 6 6h19q6 0 6 -6v-259z" glyph-name="uni2074" horiz-adv-x="630" unicode="⁴"/><glyph d="M115 1843h336q6 0 6 -6v-16q0 -4 -6 -4h-312v-287h185q84 0 131 -40t47 -114v-102q0 -70 -47 -109t-131 -39h-226q-6 0 -6 7v14q0 6 6 6h226q70 0 108.5 32t38.5 89v102q0 59 -39 93t-108 34h-209q-6 0 -6 4v330q0 6 6 6z" glyph-name="uni2075" horiz-adv-x="604" unicode="⁵"/><glyph d="M133 1503h227q76 0 118 -32.5t42 -92.5v-100q0 -72 -42 -112t-118 -40h-94q-78 0 -121 40t-43 112v412q0 74 43 113.5t121 39.5h164q6 0 6 -6v-14q0 -6 -6 -6h-164q-63 0 -98 -33t-35 -94v-187zM489 1278v100q0 98 -129 99h-227v-199q0 -59 35 -92t98 -33h94q61 0 95 33 t34 92z" glyph-name="uni2076" horiz-adv-x="622" unicode="⁶"/><glyph d="M88 1843h381q6 0 6 -6v-76q0 -10 -2 -14l-313 -614q-4 -6 -8 -7h-21q-8 0 -6 7l319 624v60h-356q-6 0 -6 6v14q0 6 6 6z" glyph-name="uni2077" horiz-adv-x="552" unicode="⁷"/><glyph d="M528 1702v-41q0 -78 -73 -174q94 -39 94 -160v-45q0 -70 -45 -113t-117 -43h-113q-78 0 -125 43t-47 115v57q0 104 105 193q-53 41 -53 127v39q0 61 45 102t114 41h49q70 0 118 -41t48 -100zM184 1700v-39q0 -83 47.5 -108t109.5 -37.5t85 -18.5q72 88 72 164v39 q0 49 -39 83t-97 34h-49q-55 0 -92 -34t-37 -83zM518 1282v47q0 80 -44 113t-128 47t-115 31q-98 -82 -98 -179v-57q0 -59 40 -95t103 -36h109q59 0 96 36t37 93z" glyph-name="uni2078" horiz-adv-x="651" unicode="⁸"/><glyph d="M260 1843h102q78 0 120 -40t42 -111v-410q0 -74 -43 -115t-119 -41h-169q-6 0 -7 7v14q0 6 7 6h169q63 0 97.5 34t34.5 95v184h-234q-76 0 -117 33t-41 92v101q0 72 41 111.5t117 39.5zM260 1493h234v199q0 125 -132 125h-102q-59 0 -93 -33t-34 -92v-101q0 -98 127 -98z " glyph-name="uni2079" horiz-adv-x="626" unicode="⁹"/><glyph d="M834 37h213q10 0 10 -10v-17q0 -10 -10 -10h-213q-256 0 -378 140.5t-122 381.5v78h-252q-10 0 -10 10v17q0 10 10 10h252v205h-232q-10 0 -10 10v16q0 10 10 11h232v82q0 473 500 473h202q10 0 11 -11v-16q0 -10 -11 -10h-202q-246 0 -352.5 -113t-106.5 -323v-82h387 q10 0 10 -11v-16q0 -10 -10 -10h-387v-205h366q10 0 11 -10v-17q0 -10 -11 -10h-366v-78q0 -485 459 -485z" glyph-name="Euro" horiz-adv-x="1118" unicode="€"/><glyph d="M78 1434h489q6 0 6 -7v-26q0 -4 -6 -4h-221v-678q0 -10 -10 -10h-21q-10 0 -10 10v678h-227q-6 0 -6 4v26q0 7 6 7zM1204 1434h56q10 0 10 -11v-704q0 -10 -10 -10h-21q-10 0 -10 10v682h-6l-236 -637q-2 -8 -12 -8h-12q-8 0 -11 8l-245 637h-9v-682q0 -10 -10 -10h-20 q-12 0 -9 10v704q0 10 11 11h55q10 0 12 -9l232 -594l225 594q2 9 10 9z" glyph-name="trademark" horiz-adv-x="1341" unicode="™"/><glyph d="M1327 1468h14q14 0 7 -12l-1100 -1476q-8 -10 -17 -11h-14q-14 0 -4 15l1098 1472q8 12 16 12zM483 737v-14q0 -6 -6 -6h-389q-6 0 -6 6v14q0 6 6 6h195v664h-191q-6 0 -6 6v14q0 6 6 7h215q6 0 6 -7v-684h164q6 0 6 -6zM1501 575v-40q0 -78 -74 -175q94 -39 95 -159v-45 q0 -70 -45 -113t-117 -43h-113q-78 0 -125 43t-47 115v57q0 104 105 193q-53 41 -54 127v38q0 61 45.5 102.5t114.5 41.5h49q70 0 118 -41.5t48 -100.5zM1157 573v-38q0 -84 50.5 -109.5t109.5 -37t82 -17.5q72 88 71 164v38q0 49 -38.5 83t-96.5 34h-49q-55 0 -92 -34 t-37 -83zM1491 156v47q0 80 -44 112.5t-128 47t-115 30.5q-98 -84 -98 -178v-57q0 -59 40 -95t103 -36h109q59 0 96 36t37 93z" glyph-name="oneeighth" horiz-adv-x="1624" unicode="⅛"/><glyph d="M1323 1468h14q14 0 6 -12l-1099 -1476q-8 -10 -17 -11h-14q-14 0 -4 15l1098 1472q8 12 16 12zM479 965v-91q0 -76 -52 -116.5t-146 -40.5h-193q-6 0 -6 6v14q0 6 6 6h193q80 0 124 34t44 97v91q0 127 -170 127h-80q-6 0 -6 6v12q0 6 6 6h98q131 0 131 115v69 q0 51 -39 79t-110 28h-170q-6 0 -7 6v14q0 6 7 7h170q86 0 133 -35t47 -99v-69q0 -98 -84 -127q104 -30 104 -139zM1497 575v-40q0 -78 -74 -175q94 -39 95 -159v-45q0 -70 -45.5 -113t-116.5 -43h-113q-78 0 -125 43t-47 115v57q0 104 105 193q-53 41 -54 127v38 q0 61 45 102.5t115 41.5h49q70 0 118 -41.5t48 -100.5zM1153 573v-38q0 -84 50.5 -109.5t109.5 -37t82 -17.5q72 88 71 164v38q0 49 -38.5 83t-96.5 34h-49q-55 0 -92 -34t-37 -83zM1487 156v47q0 80 -44 112.5t-128 47t-115 30.5q-98 -84 -98 -178v-57q0 -59 40 -95 t103 -36h109q59 0 96 36t37 93z" glyph-name="threeeighths" horiz-adv-x="1619" unicode="⅜"/><glyph d="M1346 1468h14q14 0 6 -12l-1100 -1476q-8 -10 -16 -11h-14q-14 0 -5 15l1098 1472q11 12 17 12zM502 967v-103q0 -70 -47 -108.5t-131 -38.5h-226q-6 0 -6 6v14q0 6 6 6h226q70 0 108.5 32t38.5 89v103q0 59 -39 93t-108 34h-209q-6 0 -6 4v329q0 6 6 7h336q6 0 6 -7v-16 q0 -4 -6 -4h-312v-287h185q84 0 131 -39.5t47 -113.5zM1520 575v-40q0 -78 -74 -175q94 -39 94 -159v-45q0 -70 -45 -113t-117 -43h-112q-78 0 -125 43t-47 115v57q0 104 104 193q-53 41 -53 127v38q0 61 45 102.5t115 41.5h49q70 0 118 -41.5t48 -100.5zM1176 573v-38 q0 -85 50.5 -110.5t109.5 -36.5t81 -17q72 88 72 164v38q0 49 -39 83t-96 34h-49q-55 0 -92 -34t-37 -83zM1509 156v47q0 80 -44 112.5t-128 47t-114 30.5q-98 -84 -99 -178v-57q0 -59 40 -95t104 -36h108q59 0 96 36t37 93z" glyph-name="fiveeighths" horiz-adv-x="1642" unicode="⅝"/><glyph d="M1294 1468h15q14 0 6 -12l-1100 -1476q-8 -10 -16 -11h-15q-14 0 -4 15l1098 1472q8 12 16 12zM475 1427v-75q0 -10 -2 -15l-313 -614q-4 -6 -8 -6h-21q-8 0 -6 6l319 625v59h-356q-6 0 -6 6v14q0 6 6 7h381q6 -1 6 -7zM1468 575v-40q0 -78 -73 -175q94 -39 94 -159v-45 q0 -70 -45 -113t-117 -43h-113q-78 0 -125 43t-47 115v57q0 104 105 193q-53 41 -53 127v38q0 61 45 102.5t114 41.5h50q70 0 117.5 -41.5t47.5 -100.5zM1124 573v-38q0 -84 50 -109.5t109.5 -37t82.5 -17.5q72 88 72 164v38q0 49 -39 83t-96 34h-50q-55 0 -92 -34t-37 -83z M1458 156v47q0 80 -44 112.5t-128 47t-115 30.5q-98 -84 -98 -178v-57q0 -59 40 -95t104 -36h108q59 0 96 36t37 93z" glyph-name="seveneighths" horiz-adv-x="1591" unicode="⅞"/><glyph d="M289 1466v21q0 10 10 10q319 -4 492.5 -219t169.5 -602q-4 -332 -127 -515.5t-316 -183.5q-166 0 -265 123.5t-99 353.5t117 351t315 121t329 -129q-23 313 -182.5 485t-433.5 174q-10 0 -10 10zM195 454q0 -212 88 -324t235 -112q172 0 285 173.5t117 484.5v67 q-132 141 -322 141t-296.5 -109t-106.5 -321z" glyph-name="partialdiff" horiz-adv-x="1114" unicode="∂"/><glyph d="M123 1434h1173q10 0 11 -11v-12q0 -10 -11 -10h-219v-1690q0 -10 -10 -10h-20q-10 0 -11 10v1690h-663v-1690q0 -10 -11 -10h-20q-10 0 -10 10v1690h-209q-10 0 -10 10v12q0 11 10 11z" glyph-name="product" horiz-adv-x="1419" unicode="∏"/><glyph d="M143 1405h893q10 0 11 -10v-13q0 -10 -11 -10h-856l633 -747q4 -8 4 -15v-26q0 -4 -4 -13l-625 -804h848q10 0 11 -11v-16q0 -10 -11 -10h-884q-10 0 -11 10v20q0 4 4 13l639 823l-647 770q-4 8 -4 14v15q0 10 10 10z" glyph-name="summation" horiz-adv-x="1200" unicode="∑"/><glyph d="M102 729h732q10 0 10 -10v-12q0 -10 -10 -11h-732q-10 0 -10 11v12q0 10 10 10z" glyph-name="minus" horiz-adv-x="935" unicode="−"/><glyph d="M1366 1755h18q14 0 9 -12l-725 -1735q-2 -8 -13 -8h-18q-10 0 -12 8l-314 674l-168 -209q-6 -8 -14 0l-12 12q-8 6 -2 15l182 227q2 6 12 6h13q10 0 12 -8l313 -680l707 1702q2 8 12 8z" glyph-name="radical" horiz-adv-x="1343" unicode="√"/><glyph d="M1141 944h94q246 0 246 -330q0 -354 -246 -354h-94q-152 0 -332 297q-116 -233 -187 -269t-128 -36h-84q-135 0 -195.5 82t-60.5 254q0 354 256 354h84q156 0 313 -295q72 141 146.5 219t187.5 78zM1141 301h94q205 0 205 313q0 289 -205 289h-94q-111 0 -180 -89 t-130 -212q173 -301 310 -301zM410 293h84q99 0 160.5 87t127.5 222q-82 158 -148.5 228.5t-139.5 70.5h-84q-215 0 -215 -313q0 -152 50 -223.5t165 -71.5z" glyph-name="infinity" horiz-adv-x="1634" unicode="∞"/><glyph d="M344 242v823q0 193 75 296t212 107q10 0 10 -10v-20q0 -10 -10 -11q-246 -10 -246 -362v-823q0 -471 -303 -482q-10 0 -10 11v20q0 10 10 10q262 11 262 441z" glyph-name="integral" horiz-adv-x="712" unicode="∫"/><glyph d="M133 780h-20q-10 0 -11 11q4 100 64 159.5t146 59.5q151 0 276.5 -109.5t234.5 -109.5q141 0 142 172q0 10 10 10h20q10 0 11 -10q-2 -213 -183 -213q-70 0 -136 33.5t-112.5 75.5t-114.5 76t-142 34t-122.5 -47.5t-52.5 -130.5q0 -11 -10 -11zM133 426h-20q-10 0 -11 10 q4 100 64 159.5t146 59.5q152 0 277.5 -109.5t233.5 -109.5q141 0 142 172q0 10 10 10h20q10 0 11 -10q-2 -213 -183 -213q-127 0 -211 76t-152 109.5t-142 33.5t-122.5 -47t-52.5 -131q0 -10 -10 -10z" glyph-name="approxequal" horiz-adv-x="1169" unicode="≈"/><glyph d="M1077 895h-342l-157 -410h499q10 0 10 -10v-12q0 -10 -10 -10h-512l-123 -324q-2 -10 -16 -10h-14q-8 0 -4 14l120 320h-364q-10 0 -10 10v12q0 10 10 10h377l157 410h-534q-10 0 -10 10v13q0 10 10 10h547l135 356q2 12 16 12h15q10 0 6 -12l-135 -356h329q10 0 10 -10 v-13q0 -10 -10 -10z" glyph-name="notequal" horiz-adv-x="1200" unicode="≠"/><glyph d="M1036 1174v-21q0 -10 -8 -12l-907 -326l907 -336q8 -2 8 -12v-21q0 -12 -12 -6l-944 348q-8 2 -8 13v28q0 11 8 13l944 338q12 6 12 -6zM96 313h936q10 0 10 -10v-16q0 -10 -10 -11h-936q-10 0 -10 11v16q0 10 10 10z" glyph-name="lessequal" horiz-adv-x="1155" unicode="≤"/><glyph d="M139 1153v21q0 12 13 6l944 -338q8 -2 8 -13v-28q0 -10 -8 -13l-944 -348q-12 -6 -13 6v21q0 10 8 12l908 336l-908 326q-8 2 -8 12zM143 313h936q10 0 11 -10v-16q0 -10 -11 -11h-936q-10 0 -10 11v16q0 10 10 10z" glyph-name="greaterequal" horiz-adv-x="1236" unicode="≥"/><glyph d="M96 633l488 608q8 12 16 0l471 -608q6 -8 0 -17l-471 -608q-8 -12 -16 0l-488 608q-6 9 0 17zM1024 625l-432 567l-449 -567l449 -568z" glyph-name="lozenge" horiz-adv-x="1167" unicode="◊"/><glyph d="M410 1024h395q10 0 10 -10v-1004q0 -10 -10 -10h-410q-221 0 -221 223v545q0 106 61.5 181t174.5 75zM395 33h379v958h-364q-92 0 -143.5 -66.5t-51.5 -156.5v-545q0 -190 180 -190z" glyph-name="a.ss01" horiz-adv-x="1009"/><glyph d="M537 1335l215 170q10 8 16 2l12 -16q8 -8 2 -14l-223 -168q-12 -10 -22 4t0 22zM410 1024h395q10 0 10 -10v-1004q0 -10 -10 -10h-410q-221 0 -221 223v545q0 106 61.5 181t174.5 75zM395 33h379v958h-364q-92 0 -143.5 -66.5t-51.5 -156.5v-545q0 -190 180 -190z" glyph-name="aacute.aalt" horiz-adv-x="1009"/><glyph d="M729 1513h10q10 0 11 -12q0 -96 -55.5 -150.5t-149.5 -54.5t-149.5 53.5t-55.5 151.5q0 12 10 12h10q10 0 11 -12q0 -82 49 -127t125 -45t125 45t49 127q0 12 10 12zM410 1024h395q10 0 10 -10v-1004q0 -10 -10 -10h-410q-221 0 -221 223v545q0 106 61.5 181t174.5 75z M395 33h379v958h-364q-92 0 -143.5 -66.5t-51.5 -156.5v-545q0 -190 180 -190z" glyph-name="abreve.aalt" horiz-adv-x="1009"/><glyph d="M545 1292h-33q-8 0 -14 6l-185 193q-6 10 0 16l9 9q10 10 18 -3l180 -188h15l194 182q8 8 20 -4q13 -12 5 -18l-195 -187q-6 -6 -14 -6zM410 1024h395q10 0 10 -10v-1004q0 -10 -10 -10h-410q-221 0 -221 223v545q0 106 61.5 181t174.5 75zM395 33h379v958h-364 q-92 0 -143.5 -66.5t-51.5 -156.5v-545q0 -190 180 -190z" glyph-name="uni01CE.aalt" horiz-adv-x="1009"/><glyph d="M539 1520q8 0 14 -7l184 -192q6 -10 -6 -22q-12 -13 -20 -1l-181 189h-14l-194 -182q-9 -8 -21 4t-4 18l195 186q6 6 14 7h33zM410 1024h395q10 0 10 -10v-1004q0 -10 -10 -10h-410q-221 0 -221 223v545q0 106 61.5 181t174.5 75zM395 33h379v958h-364 q-92 0 -143.5 -66.5t-51.5 -156.5v-545q0 -190 180 -190z" glyph-name="acircumflex.aalt" horiz-adv-x="1009"/><glyph d="M352 1280h-20q-10 0 -10 10v133q0 10 10 11h20q10 0 10 -11v-133q0 -10 -10 -10zM700 1280h-20q-10 0 -10 10v133q0 10 10 11h20q10 0 11 -11v-133q-1 -10 -11 -10zM410 1024h395q10 0 10 -10v-1004q0 -10 -10 -10h-410q-221 0 -221 223v545q0 106 61.5 181t174.5 75z M395 33h379v958h-364q-92 0 -143.5 -66.5t-51.5 -156.5v-545q0 -190 180 -190z" glyph-name="adieresis.aalt" horiz-adv-x="1009"/><glyph d="M487 1288l-223 168q-6 6 2 14l13 17q6 6 16 -2l215 -170q10 -8 0 -23q-11 -14 -23 -4zM410 1024h395q10 0 10 -10v-1004q0 -10 -10 -10h-410q-221 0 -221 223v545q0 106 61.5 181t174.5 75zM395 33h379v958h-364q-92 0 -143.5 -66.5t-51.5 -156.5v-545q0 -190 180 -190z " glyph-name="agrave.aalt" horiz-adv-x="1009"/><glyph d="M743 1372h-415q-10 0 -11 10v13q0 10 11 10h415q10 0 11 -10v-13q-1 -10 -11 -10zM410 1024h395q10 0 10 -10v-1004q0 -10 -10 -10h-410q-221 0 -221 223v545q0 106 61.5 181t174.5 75zM395 33h379v958h-364q-92 0 -143.5 -66.5t-51.5 -156.5v-545q0 -190 180 -190z" glyph-name="amacron.aalt" horiz-adv-x="1009"/><glyph d="M815 1014v-1004q0 -10 -10 -10q-72 0 -113 -45t-41 -124t49.5 -124t139.5 -45q10 0 10 -10v-12q0 -10 -10 -11q-109 0 -169.5 53.5t-60.5 159.5t84 158h-299q-221 0 -221 223v545q0 106 61.5 181t174.5 75h395q10 0 10 -10zM215 768v-545q0 -190 180 -190h379v958h-364 q-92 0 -143.5 -66.5t-51.5 -156.5z" glyph-name="aogonek.aalt" horiz-adv-x="1009"/><glyph d="M524.5 1272q-69.5 0 -111.5 42t-42 111.5t42 110.5t111.5 41t110.5 -41t41 -110.5t-41 -111.5t-110.5 -42zM524.5 1542q-53.5 0 -86 -31.5t-32.5 -85t32.5 -86t86 -32.5t85 32.5t31.5 86t-31.5 85t-85 31.5zM410 1024h395q10 0 10 -10v-1004q0 -10 -10 -10h-410 q-221 0 -221 223v545q0 106 61.5 181t174.5 75zM395 33h379v958h-364q-92 0 -143.5 -66.5t-51.5 -156.5v-545q0 -190 180 -190z" glyph-name="aring.aalt" horiz-adv-x="1009"/><glyph d="M631 1362q29 0 45 14.5t34 38.5t30 14q12 -11 5 -20q-29 -43 -52 -61.5t-64 -18.5t-103.5 31t-97.5 31q-63 0 -94 -56q-5 -10 -21 -4t-10 17q37 76 125 75q47 0 110.5 -30.5t92.5 -30.5zM410 1024h395q10 0 10 -10v-1004q0 -10 -10 -10h-410q-221 0 -221 223v545 q0 106 61.5 181t174.5 75zM395 33h379v958h-364q-92 0 -143.5 -66.5t-51.5 -156.5v-545q0 -190 180 -190z" glyph-name="atilde.aalt" horiz-adv-x="1009"/><glyph d="M481 1024h305q23 0 23 -25v-274q0 -283 -246 -283h-348v-135q0 -274 258 -274h213q10 0 10 -10v-13q0 -10 -10 -10h-213q-299 0 -299 307v410q0 145 81 226t226 81zM768 725v244q0 23 -18 22h-269q-127 0 -196.5 -71.5t-69.5 -202.5v-242h348q205 0 205 250z" glyph-name="e.aalt" horiz-adv-x="954"/><glyph d="M551 1335l215 170q10 8 16 2l13 -16q8 -8 2 -14l-224 -168q-12 -10 -22 4t0 22zM481 1024h305q23 0 23 -25v-274q0 -283 -246 -283h-348v-135q0 -274 258 -274h213q10 0 10 -10v-13q0 -10 -10 -10h-213q-299 0 -299 307v410q0 145 81 226t226 81zM768 725v244 q0 23 -18 22h-269q-127 0 -196.5 -71.5t-69.5 -202.5v-242h348q205 0 205 250z" glyph-name="eacute.aalt" horiz-adv-x="954"/><glyph d="M559 1292h-33q-8 0 -14 6l-184 193q-6 10 6 22q12 13 20 0l181 -188h14l194 182q8 8 21 -4q12 -12 4 -18l-195 -187q-6 -6 -14 -6zM481 1024h305q23 0 23 -25v-274q0 -283 -246 -283h-348v-135q0 -274 258 -274h213q10 0 10 -10v-13q0 -10 -10 -10h-213q-299 0 -299 307 v410q0 145 81 226t226 81zM768 725v244q0 23 -18 22h-269q-127 0 -196.5 -71.5t-69.5 -202.5v-242h348q205 0 205 250z" glyph-name="ecaron.aalt" horiz-adv-x="954"/><glyph d="M553 1520q8 0 14 -7l185 -192q6 -10 0 -16l-9 -9q-10 -10 -18 2l-180 189h-15l-194 -182q-9 -8 -21 4t-4 18l195 186q6 6 14 7h33zM481 1024h305q23 0 23 -25v-274q0 -283 -246 -283h-348v-135q0 -274 258 -274h213q10 0 10 -10v-13q0 -10 -10 -10h-213q-299 0 -299 307 v410q0 145 81 226t226 81zM768 725v244q0 23 -18 22h-269q-127 0 -196.5 -71.5t-69.5 -202.5v-242h348q205 0 205 250z" glyph-name="ecircumflex.aalt" horiz-adv-x="954"/><glyph d="M367 1280h-21q-10 0 -10 10v133q0 10 10 11h21q10 0 10 -11v-133q0 -10 -10 -10zM715 1280h-21q-10 0 -10 10v133q0 10 10 11h21q10 0 10 -11v-133q0 -10 -10 -10zM481 1024h305q23 0 23 -25v-274q0 -283 -246 -283h-348v-135q0 -274 258 -274h213q10 0 10 -10v-13 q0 -10 -10 -10h-213q-299 0 -299 307v410q0 145 81 226t226 81zM768 725v244q0 23 -18 22h-269q-127 0 -196.5 -71.5t-69.5 -202.5v-242h348q205 0 205 250z" glyph-name="edieresis.aalt" horiz-adv-x="954"/><glyph d="M549 1280h-21q-10 0 -10 10v133q0 10 10 11h21q10 0 10 -11v-133q0 -10 -10 -10zM481 1024h305q23 0 23 -25v-274q0 -283 -246 -283h-348v-135q0 -274 258 -274h213q10 0 10 -10v-13q0 -10 -10 -10h-213q-299 0 -299 307v410q0 145 81 226t226 81zM768 725v244 q0 23 -18 22h-269q-127 0 -196.5 -71.5t-69.5 -202.5v-242h348q205 0 205 250z" glyph-name="edotaccent.aalt" horiz-adv-x="954"/><glyph d="M502 1288l-223 168q-6 6 2 14l12 17q6 6 16 -2l215 -170q10 -8 0 -23q-10 -14 -22 -4zM481 1024h305q23 0 23 -25v-274q0 -283 -246 -283h-348v-135q0 -274 258 -274h213q10 0 10 -10v-13q0 -10 -10 -10h-213q-299 0 -299 307v410q0 145 81 226t226 81zM768 725v244 q0 23 -18 22h-269q-127 0 -196.5 -71.5t-69.5 -202.5v-242h348q205 0 205 250z" glyph-name="egrave.aalt" horiz-adv-x="954"/><glyph d="M758 1372h-416q-10 0 -10 10v13q0 10 10 10h416q10 0 10 -10v-13q0 -10 -10 -10zM481 1024h305q23 0 23 -25v-274q0 -283 -246 -283h-348v-135q0 -274 258 -274h213q10 0 10 -10v-13q0 -10 -10 -10h-213q-299 0 -299 307v410q0 145 81 226t226 81zM768 725v244 q0 23 -18 22h-269q-127 0 -196.5 -71.5t-69.5 -202.5v-242h348q205 0 205 250z" glyph-name="emacron.aalt" horiz-adv-x="954"/><glyph d="M481 1024h305q23 0 23 -25v-274q0 -283 -246 -283h-348v-135q0 -274 258 -274h213q10 0 10 -10v-13q0 -10 -10 -10q-72 0 -113 -45t-41 -124t49.5 -124t139.5 -45q10 0 10 -10v-12q0 -10 -10 -11q-109 0 -169 53.5t-60 159.5t83 158h-102q-299 0 -299 307v410 q0 145 81 226t226 81zM768 725v244q0 23 -18 22h-269q-127 0 -196.5 -71.5t-69.5 -202.5v-242h348q205 0 205 250z" glyph-name="eogonek.aalt" horiz-adv-x="954"/><glyph d="M645 1362q29 0 45.5 14.5t33.5 39.5t30 13q13 -11 6 -20q-29 -43 -52.5 -61.5t-64.5 -18.5t-103.5 31t-97.5 31q-63 0 -94 -56q-4 -10 -20 -4t-11 17q37 76 125 75q47 0 110.5 -30.5t92.5 -30.5zM481 1024h305q23 0 23 -25v-274q0 -283 -246 -283h-348v-135 q0 -274 258 -274h213q10 0 10 -10v-13q0 -10 -10 -10h-213q-299 0 -299 307v410q0 145 81 226t226 81zM768 725v244q0 23 -18 22h-269q-127 0 -196.5 -71.5t-69.5 -202.5v-242h348q205 0 205 250z" glyph-name="uni1EBD.aalt" horiz-adv-x="954"/><glyph d="M432 1536h137q10 0 11 -10v-13q0 -10 -11 -10h-137q-82 0 -128 -55t-46 -158v-266h193q10 0 10 -10v-19q0 -10 -10 -10h-193v-975q0 -10 -10 -10h-21q-10 0 -10 10v975h-135q-10 0 -10 10v19q0 10 10 10h135v266q0 117 56.5 181.5t158.5 64.5z" glyph-name="f.aalt" horiz-adv-x="518"/><glyph d="M453 1745h-21q-10 0 -10 10v133q0 10 10 10h21q10 0 10 -10v-133q0 -10 -10 -10zM432 1536h137q10 0 11 -10v-13q0 -10 -11 -10h-137q-82 0 -128 -55t-46 -158v-266h193q10 0 10 -10v-19q0 -10 -10 -10h-193v-975q0 -10 -10 -10h-21q-10 0 -10 10v975h-135q-10 0 -10 10 v19q0 10 10 10h135v266q0 117 56.5 181.5t158.5 64.5z" glyph-name="uni1E1F.aalt" horiz-adv-x="518"/><glyph d="M440 111q-135 -1 -135 127q0 64 51 98q-100 23 -156.5 94.5t-56.5 183.5v123q0 137 70 212t197 75h456q10 0 11 -10v-13q0 -10 -11 -10h-186q115 -70 115 -254v-123q0 -135 -81 -210.5t-216 -75.5h-58q-45 0 -71.5 -24.5t-26.5 -70.5q0 -90 98 -90h119q139 0 218 -73.5 t79 -192.5v-82q0 -145 -83 -226t-234 -81h-160q-152 0 -235 81t-83 226v92q0 10 11 11h20q10 0 10 -11v-92q0 -131 73 -202.5t204 -71.5h160q131 0 203.5 71.5t72.5 202.5v82q0 104 -68.5 169t-187.5 65h-119zM754 614v123q0 121 -54.5 187.5t-152.5 66.5h-137 q-109 0 -167.5 -66.5t-58.5 -187.5v-123q0 -123 70 -188.5t186 -65.5h58q117 0 186.5 65.5t69.5 188.5z" glyph-name="g.aalt" horiz-adv-x="958"/><glyph d="M692 1513h10q10 0 11 -12q0 -96 -55.5 -150.5t-149.5 -54.5t-149.5 53.5t-55.5 151.5q0 12 10 12h11q10 0 10 -12q0 -82 49 -127t125 -45t125 45t49 127q0 12 10 12zM440 111q-135 -1 -135 127q0 64 51 98q-100 23 -156.5 94.5t-56.5 183.5v123q0 137 70 212t197 75h456 q10 0 11 -10v-13q0 -10 -11 -10h-186q115 -70 115 -254v-123q0 -135 -81 -210.5t-216 -75.5h-58q-45 0 -71.5 -24.5t-26.5 -70.5q0 -90 98 -90h119q139 0 218 -73.5t79 -192.5v-82q0 -145 -83 -226t-234 -81h-160q-152 0 -235 81t-83 226v92q0 10 11 11h20q10 0 10 -11v-92 q0 -131 73 -202.5t204 -71.5h160q131 0 203.5 71.5t72.5 202.5v82q0 104 -68.5 169t-187.5 65h-119zM754 614v123q0 121 -54.5 187.5t-152.5 66.5h-137q-109 0 -167.5 -66.5t-58.5 -187.5v-123q0 -123 70 -188.5t186 -65.5h58q117 0 186.5 65.5t69.5 188.5z" glyph-name="gbreve.aalt" horiz-adv-x="958"/><glyph d="M508 1292h-33q-8 0 -14 6l-185 193q-6 10 0 16l9 9q10 10 18 -3l180 -188h15l194 182q8 8 21 -4q12 -12 4 -18l-195 -187q-6 -6 -14 -6zM440 111q-135 -1 -135 127q0 64 51 98q-100 23 -156.5 94.5t-56.5 183.5v123q0 137 70 212t197 75h456q10 0 11 -10v-13 q0 -10 -11 -10h-186q115 -70 115 -254v-123q0 -135 -81 -210.5t-216 -75.5h-58q-45 0 -71.5 -24.5t-26.5 -70.5q0 -90 98 -90h119q139 0 218 -73.5t79 -192.5v-82q0 -145 -83 -226t-234 -81h-160q-152 0 -235 81t-83 226v92q0 10 11 11h20q10 0 10 -11v-92q0 -131 73 -202.5 t204 -71.5h160q131 0 203.5 71.5t72.5 202.5v82q0 104 -68.5 169t-187.5 65h-119zM754 614v123q0 121 -54.5 187.5t-152.5 66.5h-137q-109 0 -167.5 -66.5t-58.5 -187.5v-123q0 -123 70 -188.5t186 -65.5h58q117 0 186.5 65.5t69.5 188.5z" glyph-name="gcaron.aalt" horiz-adv-x="958"/><glyph d="M502 1520q8 0 14 -7l184 -192q6 -10 -6 -22q-12 -13 -20 -1l-180 189h-15l-194 -182q-9 -8 -21 4t-4 18l195 186q6 6 14 7h33zM440 111q-135 -1 -135 127q0 64 51 98q-100 23 -156.5 94.5t-56.5 183.5v123q0 137 70 212t197 75h456q10 0 11 -10v-13q0 -10 -11 -10h-186 q115 -70 115 -254v-123q0 -135 -81 -210.5t-216 -75.5h-58q-45 0 -71.5 -24.5t-26.5 -70.5q0 -90 98 -90h119q139 0 218 -73.5t79 -192.5v-82q0 -145 -83 -226t-234 -81h-160q-152 0 -235 81t-83 226v92q0 10 11 11h20q10 0 10 -11v-92q0 -131 73 -202.5t204 -71.5h160 q131 0 203.5 71.5t72.5 202.5v82q0 104 -68.5 169t-187.5 65h-119zM754 614v123q0 121 -54.5 187.5t-152.5 66.5h-137q-109 0 -167.5 -66.5t-58.5 -187.5v-123q0 -123 70 -188.5t186 -65.5h58q117 0 186.5 65.5t69.5 188.5z" glyph-name="gcircumflex.aalt" horiz-adv-x="958"/><glyph d="M518 1276h-37q-14 0 -14 14v53l41 289q0 10 10 10h14q10 0 11 -10l-41 -289h18q12 0 12 -14v-39q0 -14 -14 -14zM440 111q-135 -1 -135 127q0 64 51 98q-100 23 -156.5 94.5t-56.5 183.5v123q0 137 70 212t197 75h456q10 0 11 -10v-13q0 -10 -11 -10h-186 q115 -70 115 -254v-123q0 -135 -81 -210.5t-216 -75.5h-58q-45 0 -71.5 -24.5t-26.5 -70.5q0 -90 98 -90h119q139 0 218 -73.5t79 -192.5v-82q0 -145 -83 -226t-234 -81h-160q-152 0 -235 81t-83 226v92q0 10 11 11h20q10 0 10 -11v-92q0 -131 73 -202.5t204 -71.5h160 q131 0 203.5 71.5t72.5 202.5v82q0 104 -68.5 169t-187.5 65h-119zM754 614v123q0 121 -54.5 187.5t-152.5 66.5h-137q-109 0 -167.5 -66.5t-58.5 -187.5v-123q0 -123 70 -188.5t186 -65.5h58q117 0 186.5 65.5t69.5 188.5z" glyph-name="gcommaaccent.aalt" horiz-adv-x="958"/><glyph d="M498 1280h-21q-10 0 -10 10v133q0 10 10 11h21q10 0 10 -11v-133q0 -10 -10 -10zM440 111q-135 -1 -135 127q0 64 51 98q-100 23 -156.5 94.5t-56.5 183.5v123q0 137 70 212t197 75h456q10 0 11 -10v-13q0 -10 -11 -10h-186q115 -70 115 -254v-123q0 -135 -81 -210.5 t-216 -75.5h-58q-45 0 -71.5 -24.5t-26.5 -70.5q0 -90 98 -90h119q139 0 218 -73.5t79 -192.5v-82q0 -145 -83 -226t-234 -81h-160q-152 0 -235 81t-83 226v92q0 10 11 11h20q10 0 10 -11v-92q0 -131 73 -202.5t204 -71.5h160q131 0 203.5 71.5t72.5 202.5v82 q0 104 -68.5 169t-187.5 65h-119zM754 614v123q0 121 -54.5 187.5t-152.5 66.5h-137q-109 0 -167.5 -66.5t-58.5 -187.5v-123q0 -123 70 -188.5t186 -65.5h58q117 0 186.5 65.5t69.5 188.5z" glyph-name="gdotaccent.aalt" horiz-adv-x="958"/><glyph d="M205 1536h20q10 0 11 -10v-131q0 -10 -11 -11h-20q-10 0 -10 11v131q0 10 10 10zM205 1024h20q10 0 11 -10v-1004q0 -10 -11 -10h-20q-10 0 -10 10v1004q0 10 10 10z" glyph-name="i.aalt" horiz-adv-x="430"/><glyph d="M205 1024h20q10 0 11 -10v-1004q0 -10 -11 -10h-20q-10 0 -10 10v1004q0 10 10 10z" glyph-name="dotlessi.aalt" horiz-adv-x="430"/><glyph d="M227 1335l215 170q10 8 17 2l12 -16q8 -8 2 -14l-223 -168q-12 -10 -22 4q-11 14 -1 22zM205 1024h20q10 0 11 -10v-1004q0 -10 -11 -10h-20q-10 0 -10 10v1004q0 10 10 10z" glyph-name="iacute.aalt" horiz-adv-x="430"/><glyph d="M236 1292h-33q-8 0 -15 6l-184 193q-6 10 6 22q12 13 21 0l180 -188h14l195 182q8 8 20 -4t4 -18l-194 -187q-6 -6 -14 -6zM205 1024h20q10 0 11 -10v-1004q0 -10 -11 -10h-20q-10 0 -10 10v1004q0 10 10 10z" glyph-name="uni01D0.aalt" horiz-adv-x="430"/><glyph d="M197 1520h32q8 0 15 -7l184 -192q6 -10 -6 -22q-12 -13 -21 -1l-180 189h-14l-195 -182q-8 -8 -20 4t-4 18l194 186q7 7 15 7zM205 1024h20q10 0 11 -10v-1004q0 -10 -11 -10h-20q-10 0 -10 10v1004q0 10 10 10z" glyph-name="icircumflex.aalt" horiz-adv-x="430"/><glyph d="M23 1434h20q10 0 10 -11v-133q0 -10 -10 -10h-20q-10 0 -11 10v133q1 11 11 11zM371 1434h20q10 0 10 -11v-133q0 -10 -10 -10h-20q-10 0 -11 10v133q1 11 11 11zM205 1024h20q10 0 11 -10v-1004q0 -10 -11 -10h-20q-10 0 -10 10v1004q0 10 10 10z" glyph-name="idieresis.aalt" horiz-adv-x="430"/><glyph d="M-43 1470l12 17q6 6 17 -2l215 -170q10 -8 0 -23q-10 -14 -23 -4l-223 168q-6 6 2 14zM205 1024h20q10 0 11 -10v-1004q0 -10 -11 -10h-20q-10 0 -10 10v1004q0 10 10 10z" glyph-name="igrave.aalt" horiz-adv-x="430"/><glyph d="M18 1405h416q10 0 10 -10v-13q0 -10 -10 -10h-416q-10 0 -10 10v13q0 10 10 10zM205 1024h20q10 0 11 -10v-1004q0 -10 -11 -10h-20q-10 0 -10 10v1004q0 10 10 10z" glyph-name="imacron.aalt" horiz-adv-x="430"/><glyph d="M225 1280h-20q-10 0 -10 10v133q0 10 10 11h20q10 0 11 -11v-133q-1 -10 -11 -10zM236 1014v-1004q0 -10 -11 -10q-72 0 -112.5 -45t-40.5 -124t49 -124t139 -45q10 0 10 -10v-12q0 -10 -10 -11q-109 0 -169 53.5t-60 142.5t44 141t120 61v987q0 10 10 10h20q11 0 11 -10 z" glyph-name="iogonek.aalt" horiz-adv-x="430"/><glyph d="M322 1362q28 0 44.5 14.5t34.5 38.5t30 14q12 -11 5 -20q-29 -43 -52.5 -61.5t-64.5 -18.5t-103 31t-97 31q-63 0 -94 -56q-5 -10 -21 -4t-10 17q37 76 125 75q47 0 111 -30.5t92 -30.5zM205 1024h20q10 0 11 -10v-1004q0 -10 -11 -10h-20q-10 0 -10 10v1004q0 10 10 10z " glyph-name="itilde.aalt" horiz-adv-x="430"/><glyph d="M205 1536h20q10 0 11 -10v-1516q0 -10 -11 -10h-20q-10 0 -10 10v1516q0 10 10 10z" glyph-name="l.aalt" horiz-adv-x="430"/><glyph d="M227 1847l215 170q10 8 17 2l12 -16q8 -8 2 -14l-223 -168q-12 -10 -23 5t0 21zM205 1536h20q10 0 11 -10v-1516q0 -10 -11 -10h-20q-10 0 -10 10v1516q0 10 10 10z" glyph-name="lacute.aalt" horiz-adv-x="430"/><glyph d="M469 1548h37q14 0 14 -14v-53l-41 -289q0 -10 -10 -10h-14q-10 0 -11 10l41 289h-18q-12 0 -12 14v39q0 14 14 14zM205 1536h20q10 0 11 -10v-1516q0 -10 -11 -10h-20q-10 0 -10 10v1516q0 10 10 10z" glyph-name="lcaron.aalt" horiz-adv-x="520"/><glyph d="M225 0h-20q-10 0 -10 10v1516q0 10 10 10h20q10 0 11 -10v-1516q-1 -10 -11 -10zM195 -133h36q14 0 15 -14v-54l-41 -288q0 -10 -10 -11h-15q-10 0 -10 11l41 288h-18q-12 0 -13 15v39q1 14 15 14z" glyph-name="lcommaaccent.aalt" horiz-adv-x="430"/><glyph d="M205 1536h20q10 0 11 -10v-1516q0 -10 -11 -10h-20q-10 0 -10 10v1516q0 10 10 10zM426 766h27q18 0 18 -18v-31q0 -18 -18 -19h-27q-18 0 -18 19v31q0 18 18 18z" glyph-name="ldot.aalt" horiz-adv-x="542"/><glyph d="M528 1014v-25q0 -8 -8 -14l-207 -168v-797q0 -10 -10 -10h-20q-10 0 -11 10v764l-188 -153q-12 -8 -12 6v24q0 6 6 13l194 157v705q0 10 11 10h20q10 0 10 -10v-670l203 164q12 8 12 -6z" glyph-name="lslash.aalt" horiz-adv-x="600"/><glyph d="M420 33h117q10 0 10 -10v-13q0 -10 -10 -10h-117q-102 0 -158.5 64.5t-56.5 181.5v745h-119q-10 0 -10 10v13q0 10 10 10h119v246q0 14 12 10l19 -8q10 -6 10 -12v-236h209q10 0 10 -10v-13q0 -10 -10 -10h-209v-745q0 -102 46 -157.5t128 -55.5z" glyph-name="t.aalt" horiz-adv-x="587"/><glyph d="M420 33h117q10 0 10 -10v-13q0 -10 -10 -10h-117q-102 0 -158.5 64.5t-56.5 181.5v350h-139q-10 0 -11 10v12q0 10 11 11h139v362h-119q-10 0 -10 10v13q0 10 10 10h119v246q0 14 12 10l19 -8q10 -6 10 -12v-236h209q10 0 10 -10v-13q0 -10 -10 -10h-209v-362h235 q10 0 11 -11v-12q0 -10 -11 -10h-235v-350q0 -102 46 -157.5t128 -55.5z" glyph-name="tbar.aalt" horiz-adv-x="587"/><glyph d="M518 1491h37q14 0 14 -14v-54l-41 -288q0 -10 -10 -11h-14q-10 0 -10 11l41 288h-19q-12 0 -12 15v39q0 14 14 14zM420 33h117q10 0 10 -10v-13q0 -10 -10 -10h-117q-102 0 -158.5 64.5t-56.5 181.5v745h-119q-10 0 -10 10v13q0 10 10 10h119v246q0 14 12 10l19 -8 q10 -6 10 -12v-236h209q10 0 10 -10v-13q0 -10 -10 -10h-209v-745q0 -102 46 -157.5t128 -55.5z" glyph-name="tcaron.aalt" horiz-adv-x="587"/><glyph d="M537 0h-117q-102 0 -158.5 64.5t-56.5 181.5v745h-119q-10 0 -10 10v13q0 10 10 10h119v246q0 14 12 10l19 -8q10 -6 10 -12v-236h209q10 0 10 -10v-13q0 -10 -10 -10h-209v-745q0 -102 46 -157.5t128 -55.5h117q10 0 10 -10v-13q0 -10 -10 -10zM369 -102h67 q63 -2 101 -41t38 -111t-44 -114t-109 -42t-105.5 34t-42.5 91q0 10 11 11h18q10 0 11 -27t30 -51.5t77 -24.5t81 34t33 90t-28 86t-71 30h-67q-10 0 -11 10v14q1 11 11 11z" glyph-name="tcommaaccent.ss01" horiz-adv-x="587"/><glyph d="M420 33h117q10 0 10 -10v-13q0 -10 -10 -10h-117q-102 0 -158.5 64.5t-56.5 181.5v745h-119q-10 0 -10 10v13q0 10 10 10h119v246q0 14 12 10l19 -8q10 -6 10 -12v-236h209q10 0 10 -10v-13q0 -10 -10 -10h-209v-745q0 -102 46 -157.5t128 -55.5zM346 -133h37 q14 0 14 -14v-54l-41 -288q0 -10 -10 -11h-14q-10 0 -10 11l40 288h-18q-12 0 -12 15v39q0 14 14 14z" glyph-name="uni021B.aalt" horiz-adv-x="587"/><glyph d="M236 1442h-21q-10 0 -10 10v133q0 10 10 10h21q10 0 10 -10v-133q0 -10 -10 -10zM420 33h117q10 0 10 -10v-13q0 -10 -10 -10h-117q-102 0 -158.5 64.5t-56.5 181.5v745h-119q-10 0 -10 10v13q0 10 10 10h119v246q0 14 12 10l19 -8q10 -6 10 -12v-236h209q10 0 10 -10 v-13q0 -10 -10 -10h-209v-745q0 -102 46 -157.5t128 -55.5z" glyph-name="uni1E6B.aalt" horiz-adv-x="587"/><glyph d="M788 1024h21q10 0 10 -10v-1219q0 -147 -77.5 -227t-219.5 -80h-266q-10 0 -10 10v13q0 10 10 10h266q121 0 188.5 71.5t67.5 202.5v205h-289q-145 0 -225 81t-80 226v707q0 10 11 10h20q10 0 10 -10v-707q0 -131 70 -202.5t194 -71.5h289v981q0 10 10 10z" glyph-name="y.aalt"/><glyph d="M508 1331l215 170q10 8 16 2l13 -16q8 -8 2 -14l-224 -168q-12 -10 -22 4t0 22zM788 1024h21q10 0 10 -10v-1219q0 -147 -77.5 -227t-219.5 -80h-266q-10 0 -10 10v13q0 10 10 10h266q121 0 188.5 71.5t67.5 202.5v205h-289q-145 0 -225 81t-80 226v707q0 10 11 10h20 q10 0 10 -10v-707q0 -131 70 -202.5t194 -71.5h289v981q0 10 10 10z" glyph-name="yacute.aalt"/><glyph d="M510 1516q8 0 14 -7l185 -192q7 -11 -6 -23t-21 0l-180 189h-15l-194 -183q-9 -8 -21 4q-12 13 -4 19l195 186q6 6 14 7h33zM788 1024h21q10 0 10 -10v-1219q0 -147 -77.5 -227t-219.5 -80h-266q-10 0 -10 10v13q0 10 10 10h266q121 0 188.5 71.5t67.5 202.5v205h-289 q-145 0 -225 81t-80 226v707q0 10 11 10h20q10 0 10 -10v-707q0 -131 70 -202.5t194 -71.5h289v981q0 10 10 10z" glyph-name="ycircumflex.aalt"/><glyph d="M324 1276h-21q-10 0 -10 10v133q0 10 10 11h21q10 0 10 -11v-133q0 -10 -10 -10zM672 1276h-21q-10 0 -10 10v133q0 10 10 11h21q10 0 10 -11v-133q0 -10 -10 -10zM788 1024h21q10 0 10 -10v-1219q0 -147 -77.5 -227t-219.5 -80h-266q-10 0 -10 10v13q0 10 10 10h266 q121 0 188.5 71.5t67.5 202.5v205h-289q-145 0 -225 81t-80 226v707q0 10 11 10h20q10 0 10 -10v-707q0 -131 70 -202.5t194 -71.5h289v981q0 10 10 10z" glyph-name="ydieresis.aalt"/><glyph d="M459 1284l-223 168q-6 6 2 14l12 17q6 6 16 -2l215 -170q10 -8 0 -23q-10 -14 -22 -4zM788 1024h21q10 0 10 -10v-1219q0 -147 -77.5 -227t-219.5 -80h-266q-10 0 -10 10v13q0 10 10 10h266q121 0 188.5 71.5t67.5 202.5v205h-289q-145 0 -225 81t-80 226v707q0 10 11 10 h20q10 0 10 -10v-707q0 -131 70 -202.5t194 -71.5h289v981q0 10 10 10z" glyph-name="ygrave.aalt"/><glyph d="M399 1419q47 0 110.5 -30.5t92.5 -30.5q43 0 70 40t35 29q18 -12 10 -22q-29 -43 -52.5 -61.5t-64.5 -18.5t-103.5 30.5t-97.5 30.5q-63 0 -94 -55q-4 -10 -20 -4t-11 16q37 76 125 76zM788 1024h21q10 0 10 -10v-1219q0 -147 -77.5 -227t-219.5 -80h-266q-10 0 -10 10 v13q0 10 10 10h266q121 0 188.5 71.5t67.5 202.5v205h-289q-145 0 -225 81t-80 226v707q0 10 11 10h20q10 0 10 -10v-707q0 -131 70 -202.5t194 -71.5h289v981q0 10 10 10z" glyph-name="uni1EF9.aalt"/><glyph d="M731 1024h287q152 0 234.5 -81t82.5 -226v-410q0 -147 -77.5 -227t-219.5 -80h-338q-10 0 -10 10v1493h-280q-82 0 -128 -55t-46 -158v-266l253 -4q10 0 11 -8v-13q0 -8 -11 -8l-253 -6v-975q0 -10 -11 -10h-20q-10 0 -10 10v1280q0 117 56 181.5t159 64.5h311 q10 0 10 -10v-502zM1294 307v410q0 131 -72.5 202.5t-203.5 71.5h-287v-958h307q121 0 188.5 71.5t67.5 202.5z" glyph-name="f_b.dlig" horiz-adv-x="1509"/><glyph d="M1309 1024h286q152 0 235 -81t83 -226v-410q0 -147 -78 -227t-219 -80h-338q-10 0 -10 10v1493h-281q-82 0 -128 -55t-46 -158v-266h268q10 0 11 -8v-12q0 -12 -11 -13h-268v-981q0 -10 -10 -10h-21q-10 0 -10 10v981h-536v-981q0 -10 -11 -10h-20q-10 0 -10 10v1280 q0 117 56 181.5t159 64.5h178q10 0 10 -10v-13q0 -10 -10 -10h-178q-82 0 -128 -55t-46 -158v-266h536v266q0 117 56.5 181.5t158.5 64.5h311q10 0 11 -10v-502zM1872 307v410q0 131 -73 202.5t-204 71.5h-286v-958h307q121 0 188.5 71.5t67.5 202.5z" glyph-name="f_f_b.dlig" horiz-adv-x="2086"/><glyph d="M1309 1024h288q145 0 225.5 -81t80.5 -226v-707q0 -10 -11 -10h-20q-10 0 -10 10v707q0 131 -70 202.5t-195 71.5h-288v-981q0 -10 -11 -10h-20q-10 0 -10 10v1493h-281q-82 0 -128 -55t-46 -158v-266h254q10 0 10 -10v-17q0 -10 -10 -10h-254v-977q0 -10 -10 -10h-21 q-10 0 -10 10v977h-536v-977q0 -10 -11 -10h-20q-10 0 -10 10v1280q0 117 56 181.5t159 64.5h137q10 0 10 -10v-13q0 -10 -10 -10h-137q-82 0 -128 -55t-46 -158v-266h536v266q0 117 56.5 181.5t158.5 64.5h311q10 0 11 -10v-502z" glyph-name="f_f_h.dlig" horiz-adv-x="2086"/><glyph d="M987 1536h316q10 0 10 -10v-13q0 -10 -10 -10h-316q-82 0 -128 -55t-46 -158v-266h254q10 0 10 -8v-21q0 -8 -10 -8h-254v-977q0 -10 -10 -10h-21q-10 0 -10 10v977h-536v-977q0 -10 -11 -10h-20q-10 0 -10 10v1280q0 117 56 181.5t159 64.5h137q10 0 10 -10v-13 q0 -10 -10 -10h-137q-82 0 -128 -55t-46 -158v-266h536v266q0 117 56.5 181.5t158.5 64.5zM1282 1024h21q10 0 10 -10v-1280q0 -117 -56.5 -181.5t-158.5 -64.5h-117q-10 0 -10 10v13q0 10 10 10h117q82 0 128 55t46 158v1280q0 10 10 10z" glyph-name="f_f_j.dlig" horiz-adv-x="1507"/><glyph d="M1898 0h-24q-10 0 -12 6l-424 594l-129 -129v-461q0 -10 -11 -10h-20q-10 0 -10 10v1493h-281q-82 0 -128 -55t-46 -158v-266h254q10 0 10 -8v-23q0 -8 -10 -8h-254v-975q0 -10 -10 -10h-21q-10 0 -10 10v975h-536v-975q0 -10 -11 -10h-20q-10 0 -10 10v1280 q0 117 56 181.5t159 64.5h137q10 0 10 -10v-13q0 -10 -10 -10h-137q-82 0 -128 -55t-46 -158v-266h536v266q0 117 56.5 181.5t158.5 64.5h311q10 0 11 -10v-1004l491 494q8 8 17 8h28q16 0 4 -12l-383 -383l439 -617q8 -12 -7 -12z" glyph-name="f_f_k.dlig" horiz-adv-x="1988"/><glyph d="M731 1024h289q145 0 225 -81t80 -226v-707q0 -10 -10 -10h-21q-10 0 -10 10v707q0 131 -69.5 202.5t-194.5 71.5h-289v-981q0 -10 -10 -10h-21q-10 0 -10 10v1493h-280q-82 0 -128 -55t-46 -158v-266l253 -4q10 0 11 -8v-13q0 -8 -11 -8l-253 -6v-975q0 -10 -11 -10h-20 q-10 0 -10 10v1280q0 117 56 181.5t159 64.5h311q10 0 10 -10v-502z" glyph-name="f_h.dlig" horiz-adv-x="1509"/><glyph d="M410 1536h315q10 0 10 -10v-13q0 -10 -10 -10h-315q-82 0 -128 -55t-46 -158v-266l253 -4q10 0 11 -8v-13q0 -8 -11 -8l-253 -6v-975q0 -10 -11 -10h-20q-10 0 -10 10v1280q0 117 56.5 181.5t158.5 64.5zM705 1024h20q10 0 10 -10v-1280q0 -117 -56 -181.5t-159 -64.5 h-117q-10 0 -10 10v13q0 10 10 10h117q82 0 128 55t46 158v1280q1 10 11 10z" glyph-name="f_j.dlig" horiz-adv-x="929"/><glyph d="M1321 0h-25q-10 0 -12 6l-424 594l-129 -129v-461q0 -10 -10 -10h-21q-10 0 -10 10v1493h-280q-84 0 -129 -55t-45 -158v-266l253 -4q10 0 11 -8v-13q0 -8 -11 -8l-253 -6v-975q0 -10 -11 -10h-20q-10 0 -10 10v1280q0 117 56 181.5t159 64.5h311q10 0 10 -10v-1004 l492 494q8 8 16 8h29q16 0 4 -12l-383 -383l438 -617q8 -12 -6 -12z" glyph-name="f_k.dlig" horiz-adv-x="1411"/><glyph d="M266 369h72q80 0 124 -43t44 -121v-391q0 -78 -44 -120t-124 -42h-72q-82 0 -126 42t-44 120v391q0 78 44 121t126 43zM475 -186v391q0 66 -37 101.5t-102 35.5h-70q-66 0 -102.5 -36t-36.5 -101v-391q0 -135 139 -136h70q139 5 139 136z" glyph-name="zero.inferior" horiz-adv-x="602"/><glyph d="M313 -322h164q6 0 6 -6v-14q0 -6 -6 -6h-389q-6 0 -6 6v14q0 6 6 6h195v664h-191q-6 0 -6 6v14q0 6 6 7h215q6 0 6 -7v-684z" glyph-name="one.inferior" horiz-adv-x="585"/><glyph d="M297 371q92 0 142 -39t50 -111v-51q0 -106 -94 -169.5t-188 -126t-94 -165.5v-31h379q6 0 6 -6v-14q0 -6 -6 -6h-404q-6 0 -6 6v49q0 112 94 177t188.5 128t94.5 158v51q0 121 -162 121h-178q-6 0 -6 6v14q0 7 6 9h178z" glyph-name="two.inferior" horiz-adv-x="600"/><glyph d="M459 236v-70q0 -98 -84 -127q104 -31 104 -139v-90q0 -76 -52 -117t-146 -41h-193q-6 0 -6 6v14q0 6 6 6h193q80 0 124 34t44 98v90q0 127 -170 127h-80q-6 0 -6 6v12q0 6 6 6h98q131 0 131 115v70q0 51 -39 78.5t-110 27.5h-170q-6 0 -7 6v14q0 6 7 7h170q86 0 133 -35 t47 -98z" glyph-name="three.inferior" horiz-adv-x="581"/><glyph d="M463 -131h80q6 0 6 -6v-15q0 -6 -6 -6h-80v-184q0 -6 -6 -6h-19q-6 0 -6 6v184h-342q-8 0 -8 8v46q0 4 2 6l242 458q2 8 10 9h18q9 0 4 -7l-245 -464v-29h319v258q0 6 6 6h19q6 0 6 -6v-258z" glyph-name="four.inferior" horiz-adv-x="630"/><glyph d="M115 369h336q6 0 6 -7v-16q0 -4 -6 -4h-312v-287h185q84 0 131 -40t47 -113v-103q0 -70 -47 -108.5t-131 -38.5h-226q-6 0 -6 6v14q0 6 6 6h226q70 0 108.5 32t38.5 89v103q0 59 -39 93t-108 34h-209q-6 0 -6 4v329q0 7 6 7z" glyph-name="five.inferior" horiz-adv-x="604"/><glyph d="M133 29h227q76 0 118 -33t42 -92v-101q0 -72 -42 -111.5t-118 -39.5h-94q-78 0 -121 40t-43 111v412q0 74 43 114t121 40h164q6 0 6 -7v-14q0 -6 -6 -6h-164q-63 0 -98 -33t-35 -94v-186zM489 -197v101q0 98 -129 98h-227v-199q0 -59 35 -92t98 -33h94q61 0 95 33t34 92z " glyph-name="six.inferior" horiz-adv-x="622"/><glyph d="M88 369h381q6 0 6 -7v-75q0 -10 -2 -15l-313 -614q-4 -6 -8 -6h-21q-8 0 -6 6l319 625v59h-356q-6 0 -6 6v14q0 7 6 7z" glyph-name="seven.inferior" horiz-adv-x="552"/><glyph d="M528 227v-41q0 -78 -73 -174q94 -39 94 -159v-46q0 -70 -45 -112.5t-117 -42.5h-113q-78 0 -125 43t-47 115v57q0 104 105 192q-53 41 -53 127v39q0 61 45 102.5t114 41.5h49q70 0 118 -41.5t48 -100.5zM184 225v-39q0 -83 48.5 -108.5t109.5 -37t84 -17.5q72 88 72 163 v39q0 49 -39 83t-97 34h-49q-55 0 -92 -34t-37 -83zM518 -193v48q0 80 -44 112.5t-128 47t-115 30.5q-98 -82 -98 -178v-57q0 -59 40 -95.5t103 -36.5h109q59 0 96 36t37 93z" glyph-name="eight.inferior" horiz-adv-x="651"/><glyph d="M260 369h102q78 0 120 -40t42 -112v-410q0 -74 -43 -114.5t-119 -40.5h-169q-6 0 -7 6v14q0 6 7 6h169q63 0 97.5 34t34.5 95v185h-234q-76 0 -117 32.5t-41 92.5v100q0 72 41 112t117 40zM260 18h234v199q0 125 -132 125h-102q-59 0 -93 -33t-34 -92v-100q0 -99 127 -99 z" glyph-name="nine.inferior" horiz-adv-x="626"/><glyph d="M266 717h72q80 0 124 -43t44 -121v-391q0 -78 -44 -120t-124 -42h-72q-82 0 -126 42t-44 120v391q0 78 44 121t126 43zM475 162v391q0 66 -37 101.5t-102 35.5h-70q-66 0 -102.5 -36t-36.5 -101v-391q0 -135 139 -135h70q139 4 139 135z" glyph-name="zero.dnom" horiz-adv-x="602"/><glyph d="M313 27h164q6 0 6 -7v-14q0 -6 -6 -6h-389q-6 0 -6 6v14q0 6 6 7h195v663h-191q-6 0 -6 6v15q0 6 6 6h215q6 0 6 -6v-684z" glyph-name="one.dnom" horiz-adv-x="585"/><glyph d="M297 719q92 0 142 -39t50 -111v-51q0 -106 -94 -169.5t-188 -126t-94 -165.5v-30h379q6 0 6 -7v-14q0 -6 -6 -6h-404q-6 0 -6 6v49q0 112 94 177t188.5 128t94.5 158v51q0 121 -162 121h-178q-6 0 -6 6v15q0 6 6 8h178z" glyph-name="two.dnom" horiz-adv-x="600"/><glyph d="M459 584v-70q0 -98 -84 -127q104 -31 104 -139v-90q0 -76 -52 -117t-146 -41h-193q-6 0 -6 6v14q0 6 6 7h193q80 0 124 33.5t44 97.5v90q0 127 -170 127h-80q-6 0 -6 6v12q0 6 6 6h98q131 0 131 115v70q0 51 -39 78.5t-110 27.5h-170q-6 0 -7 6v15q0 6 7 6h170 q86 0 133 -35t47 -98z" glyph-name="three.dnom" horiz-adv-x="581"/><glyph d="M463 217h80q6 0 6 -6v-14q0 -6 -6 -7h-80v-184q0 -6 -6 -6h-19q-6 0 -6 6v184h-342q-8 0 -8 9v45q0 4 2 6l242 459q2 8 10 8h18q2 0 4 -2t0 -4l-245 -465v-29h319v258q0 6 6 6h19q6 0 6 -6v-258z" glyph-name="four.dnom" horiz-adv-x="630"/><glyph d="M115 717h336q6 0 6 -6v-17q0 -4 -6 -4h-312v-287h185q84 0 131 -39.5t47 -113.5v-103q0 -70 -47 -108.5t-131 -38.5h-226q-6 0 -6 6v14q0 6 6 7h226q70 0 108.5 31.5t38.5 88.5v103q0 59 -39 93t-108 34h-209q-6 0 -6 4v330q0 6 6 6z" glyph-name="five.dnom" horiz-adv-x="604"/><glyph d="M133 377h227q76 0 118 -33t42 -92v-100q0 -72 -42 -112t-118 -40h-94q-78 0 -121 40t-43 112v411q0 74 43 114t121 40h164q6 0 6 -6v-15q0 -6 -6 -6h-164q-63 0 -98 -32.5t-35 -94.5v-186zM489 152v100q0 98 -129 98h-227v-198q0 -59 35 -92t98 -33h94q61 0 95 33t34 92z " glyph-name="six.dnom" horiz-adv-x="622"/><glyph d="M88 717h381q6 0 6 -6v-76q0 -10 -2 -14l-313 -615q-4 -6 -8 -6h-21q-8 0 -6 6l319 625v59h-356q-6 0 -6 6v15q0 6 6 6z" glyph-name="seven.dnom" horiz-adv-x="552"/><glyph d="M528 575v-40q0 -78 -73 -175q94 -39 94 -159v-45q0 -70 -45 -113t-117 -43h-113q-78 0 -125 43t-47 115v57q0 104 105 193q-53 39 -53 127v38q0 61 45 102.5t114 41.5h49q70 0 118 -41.5t48 -100.5zM184 573v-38q0 -84 50.5 -109.5t109.5 -37t82 -17.5q72 88 72 164v38 q0 49 -39 83t-97 34h-49q-55 0 -92 -34t-37 -83zM518 156v47q0 80 -44 112.5t-128 47t-115 30.5q-98 -82 -98 -178v-57q0 -59 40 -95t103 -36h109q59 0 96 36t37 93z" glyph-name="eight.dnom" horiz-adv-x="651"/><glyph d="M260 717h102q78 0 120 -40t42 -112v-409q0 -74 -43 -115t-119 -41h-169q-6 0 -7 6v14q0 6 7 7h169q63 0 97.5 33.5t34.5 95.5v184h-234q-76 0 -117 33t-41 92v100q0 72 41 112t117 40zM260 367h234v198q0 125 -132 125h-102q-59 0 -93 -32.5t-34 -92.5v-100 q0 -98 127 -98z" glyph-name="nine.dnom" horiz-adv-x="626"/><glyph d="M266 1434h72q80 0 124 -43t44 -121v-391q0 -78 -44 -120t-124 -42h-72q-82 0 -126 42t-44 120v391q0 78 44 121t126 43zM475 879v391q0 66 -37 101.5t-102 35.5h-70q-66 0 -102.5 -36t-36.5 -101v-391q0 -135 139 -136h70q139 5 139 136z" glyph-name="zero.numr" horiz-adv-x="602"/><glyph d="M313 743h164q6 0 6 -6v-14q0 -6 -6 -6h-389q-6 0 -6 6v14q0 6 6 6h195v664h-191q-6 0 -6 6v14q0 6 6 7h215q6 0 6 -7v-684z" glyph-name="one.numr" horiz-adv-x="585"/><glyph d="M297 1436q92 0 142 -39t50 -111v-51q0 -105 -94 -169.5t-188 -126.5t-94 -165v-31h379q6 0 6 -6v-14q0 -6 -6 -6h-404q-6 0 -6 6v49q0 112 94 177t188.5 127t94.5 159v51q0 121 -162 121h-178q-6 0 -6 6v14q0 7 6 9h178z" glyph-name="two.numr" horiz-adv-x="600"/><glyph d="M459 1300v-69q0 -98 -84 -127q104 -31 104 -139v-91q0 -76 -52 -116.5t-146 -40.5h-193q-6 0 -6 6v14q0 6 6 6h193q80 0 124 34t44 97v91q0 127 -170 127h-80q-6 0 -6 6v12q0 6 6 6h98q131 0 131 115v69q0 51 -39 79t-110 28h-170q-6 0 -7 6v14q0 6 7 7h170 q86 0 133 -35.5t47 -98.5z" glyph-name="three.numr" horiz-adv-x="581"/><glyph d="M463 934h80q6 0 6 -6v-15q0 -6 -6 -6h-80v-184q0 -6 -6 -6h-19q-6 0 -6 6v184h-342q-8 0 -8 8v46q0 4 2 6l242 458q2 8 10 9h18q9 0 4 -7l-245 -464v-29h319v258q0 6 6 6h19q6 0 6 -6v-258z" glyph-name="four.numr" horiz-adv-x="630"/><glyph d="M115 1434h336q6 0 6 -7v-16q0 -4 -6 -4h-312v-287h185q84 0 131 -40t47 -113v-103q0 -70 -47 -108.5t-131 -38.5h-226q-6 0 -6 6v14q0 6 6 6h226q70 0 108.5 32t38.5 89v103q0 59 -39 93t-108 34h-209q-6 0 -6 4v329q0 7 6 7z" glyph-name="five.numr" horiz-adv-x="604"/><glyph d="M133 1094h227q76 0 118 -33t42 -92v-101q0 -72 -42 -111.5t-118 -39.5h-94q-78 0 -121 40t-43 111v412q0 74 43 114t121 40h164q6 0 6 -7v-14q0 -6 -6 -6h-164q-63 0 -98 -33t-35 -94v-186zM489 868v101q0 98 -129 98h-227v-199q0 -59 35 -92t98 -33h94q61 0 95 33t34 92 z" glyph-name="six.numr" horiz-adv-x="622"/><glyph d="M88 1434h381q6 0 6 -7v-75q0 -10 -2 -15l-313 -614q-4 -6 -8 -6h-21q-8 0 -6 6l319 625v59h-356q-6 0 -6 6v14q0 7 6 7z" glyph-name="seven.numr" horiz-adv-x="552"/><glyph d="M528 1292v-41q0 -78 -73 -174q94 -39 94 -159v-46q0 -70 -45 -112.5t-117 -42.5h-113q-78 0 -125 43t-47 114v58q0 104 105 192q-53 39 -53 127v39q0 61 45 102.5t114 41.5h49q70 0 118 -41.5t48 -100.5zM184 1290v-39q0 -83 48.5 -108.5t109.5 -37t84 -18.5 q72 88 72 164v39q0 49 -39 83t-97 34h-49q-55 0 -92 -34t-37 -83zM518 872v48q0 80 -44 112.5t-128 47t-115 30.5q-98 -82 -98 -178v-58q0 -59 40 -95t103 -36h109q59 0 96 36t37 93z" glyph-name="eight.numr" horiz-adv-x="651"/><glyph d="M260 1434h102q78 0 120 -40t42 -112v-410q0 -74 -43 -114.5t-119 -40.5h-169q-6 0 -7 6v14q0 6 7 6h169q63 0 97.5 34t34.5 95v185h-234q-76 0 -117 32.5t-41 92.5v100q0 72 41 112t117 40zM260 1083h234v199q0 125 -132 125h-102q-59 0 -93 -33t-34 -92v-100 q0 -99 127 -99z" glyph-name="nine.numr" horiz-adv-x="626"/></font>
</defs>
</svg>
