<?xml version="1.0" standalone="no"?>
<!DOCTYPE svg PUBLIC "-//W3C//DTD SVG 1.1//EN" "http://www.w3.org/Graphics/SVG/1.1/DTD/svg11.dtd">
<svg xmlns="http://www.w3.org/2000/svg"><metadata>This SVG WebFont was generated by YouWorkForThem.
Copyright  2012 by Eduilson Wessler Coan. All rights reserved.</metadata><defs><font horiz-adv-x="1026" id="ywftsvg"><font-face ascent="1536" bbox="-409.522 -604 2200 2069.56" cap-height="1434" descent="-512" font-family="" font-stretch="normal" font-weight="400" panose-1="0 0 5 0 0 0 0 0 0 0" underline-position="0" underline-thickness="0" unicode-range="U+0020-FB02" units-per-em="2048" x-height="1024"/><missing-glyph horiz-adv-x="512"/><glyph d="M539 930q0 -16 -17 -17l-217 -6v-891q0 -16 -16 -16h-109q-18 0 -18 16v1250q0 129 69.5 199.5t196.5 70.5h438q16 0 17 -14v-84q0 -16 -17 -17h-430q-63 0 -97 -39t-34 -110v-248l217 -4q16 0 17 -16v-74zM977 115h67q16 0 17 -17v-82q0 -16 -17 -16h-122 q-88 0 -135.5 51t-47.5 146v811q0 16 17 16h110q16 0 17 -16v-787q0 -106 94 -106z" glyph-name="uniFB01" horiz-adv-x="1126" unicode="fi"/><glyph d="M1010 115h61q18 0 19 -17v-82q0 -16 -19 -16h-117q-88 0 -137 51t-49 146v1224h-332q-63 0 -97 -39t-34 -110v-248l217 -4q16 0 17 -16v-74q0 -16 -17 -17l-217 -6v-891q0 -16 -16 -16h-109q-18 0 -18 16v1250q0 129 69.5 199.5t196.5 70.5h465q18 0 18 -16v-1299 q1 -106 99 -106z" glyph-name="uniFB02" horiz-adv-x="1140" unicode="fl"/><glyph d="M1014 1536h143q16 0 17 -14v-84q0 -16 -17 -17h-137q-129 0 -129 -149v-248h215q16 0 16 -16v-82q0 -16 -16 -17h-215v-893q0 -16 -19 -16h-108q-16 0 -16 16v891h-443v-891q0 -16 -16 -16h-109q-18 0 -18 16v1250q0 129 69.5 199.5t196.5 70.5h168q16 0 16 -14v-84 q0 -16 -16 -17h-160q-63 0 -97 -39t-34 -110v-248h443v242q0 129 69.5 199.5t196.5 70.5z" glyph-name="f_f.liga" horiz-adv-x="1136" unicode="ff"/><glyph d="M891 1024h215q16 0 16 -16v-84q0 -16 -16 -17h-215v-891q0 -16 -19 -16h-108q-16 0 -16 16v891h-443v-891q0 -16 -16 -16h-109q-18 0 -18 16v1250q0 129 69.5 199.5t196.5 70.5h145q16 0 17 -14v-84q0 -16 -17 -17h-137q-63 0 -97 -39t-34 -110v-248h443v242 q0 129 69.5 199.5t196.5 70.5h436q16 0 16 -14v-84q0 -16 -16 -17h-430q-129 0 -129 -149v-248zM1561 115h67q16 0 17 -17v-82q0 -16 -17 -16h-123q-88 0 -135 51t-47 146v811q0 16 16 16h111q16 0 16 -16v-787q1 -106 95 -106z" glyph-name="f_f_i.liga" horiz-adv-x="1710" unicode="ffi"/><glyph d="M1593 115h64q16 0 16 -17v-82q0 -16 -16 -16h-119q-88 0 -137 51t-49 146v1224h-332q-129 0 -129 -149v-248h215q16 0 16 -16v-84q0 -16 -16 -17h-215v-891q0 -16 -19 -16h-108q-16 0 -16 16v891h-443v-891q0 -16 -16 -16h-109q-18 0 -18 16v1250q0 129 69.5 199.5 t196.5 70.5h145q16 0 17 -14v-84q0 -16 -17 -17h-137q-63 0 -97 -39t-34 -110v-248h443v242q0 129 69.5 199.5t196.5 70.5h465q16 0 16 -16v-1299q0 -106 98 -106z" glyph-name="f_f_l.liga" horiz-adv-x="1724" unicode="ffl"/><glyph glyph-name=".notdef" horiz-adv-x="512"/><glyph glyph-name="glyph1" horiz-adv-x="0"/><glyph glyph-name="glyph2" horiz-adv-x="681"/><glyph glyph-name="space" horiz-adv-x="483" unicode=" "/><glyph d="M160 1434h108q18 0 19 -17v-264l-23 -727q0 -16 -18 -16h-66q-16 0 -16 16l-21 727v264q1 17 17 17zM156 156h112q20 0 21 -21v-115q0 -20 -21 -20h-112q-20 0 -21 20v115q1 21 21 21z" glyph-name="exclam" horiz-adv-x="432" unicode="!"/><glyph d="M145 1536h84q14 0 15 -16l-17 -365h-82l-16 365q0 16 16 16zM397 1536h84q14 0 15 -16l-17 -365h-82l-16 365q0 16 16 16z" glyph-name="quotedbl" horiz-adv-x="624" unicode="&quot;"/><glyph d="M1296 967q20 0 15 -19l-19 -76q-2 -14 -20 -14h-314l-59 -278h313q20 0 15 -19l-19 -76q-2 -14 -18 -14h-313l-101 -459q-2 -12 -14 -12h-100q-14 0 -11 14l99 457h-228l-100 -459q-4 -12 -14 -12h-103q-14 0 -10 14l100 457h-295q-20 0 -14 18l20 76q2 14 19 15h295 l61 278h-299q-20 0 -14 19l20 75q2 14 19 15h297l100 454q2 12 14 13h101q14 0 10 -13l-98 -454h225l98 454q4 12 15 13h102q14 0 10 -13l-98 -454h313zM772 580l62 278h-228l-61 -278h227z" glyph-name="numbersign" horiz-adv-x="1398" unicode="#"/><glyph d="M440 823h312q100 0 155.5 -55t55.5 -160v-338q0 -109 -62.5 -169t-175.5 -60h-109v-234q0 -16 -16 -16h-84q-16 0 -16 16v234h-344q-16 0 -17 16v82q0 16 17 17h499q78 0 121 40t43 113v236q0 70 -42 109.5t-118 39.5h-297q-209 0 -208 209v242q0 119 67.5 183.5 t188.5 64.5h90v233q0 16 16 16h84q16 0 16 -16v-233h246q16 0 17 -17v-76q0 -16 -17 -16h-413q-74 0 -113 -42t-39 -120v-161q0 -138 143 -138z" glyph-name="dollar" horiz-adv-x="1073" unicode="$"/><glyph d="M395 1452q258 0 258 -286t-258 -285q-266 -1 -266 285t266 286zM1329 1434h98q10 0 13.5 -6.5t-0.5 -14.5l-1164 -1399q-8 -14 -20 -14h-98q-10 0 -13.5 6t2.5 14l1162 1397q12 17 20 17zM393 1346q-82 0 -116.5 -43t-34.5 -133t34.5 -136.5t116.5 -46.5t115 46.5 t33 136.5t-33 133t-115 43zM1221 551q258 0 258 -286t-258 -285q-264 0 -264 286t264 285zM1219 446q-82 0 -116 -44t-34 -134t34 -136t116 -46t114.5 46t32.5 136t-32.5 134t-114.5 44z" glyph-name="percent" horiz-adv-x="1609" unicode="%"/><glyph d="M1075 485h109q18 0 18 -16q-6 -201 -119 -324q68 -82 211 -260q6 -8 3 -14t-13 -6h-141q-10 0 -21 10q-137 168 -149 182q-141 -80 -370 -80t-350.5 108t-121.5 314v101q0 143 72.5 222t204.5 134q-90 180 -91 287v123q0 135 86 209.5t244 74.5q315 0 316 -270v-72 q0 -186 -88.5 -257.5t-139.5 -98.5t-133 -59q117 -195 393 -539q59 88 64 215q0 16 16 16zM461 1278v-111q0 -106 78 -262q139 51 209.5 109.5t70.5 169.5v108q0 68 -44 106t-130 38t-135 -44t-49 -114zM274 512v-113q0 -145 86 -226t255 -81t278 66q-287 358 -422 583 q-96 -43 -146.5 -94t-50.5 -135z" glyph-name="ampersand" horiz-adv-x="1429" unicode="&amp;"/><glyph d="M145 1536h84q14 0 15 -16l-17 -365h-82l-16 365q0 16 16 16z" glyph-name="quotesingle" horiz-adv-x="374" unicode="'"/><glyph d="M119 644q0 318 110.5 558t298.5 361q14 8 21 -7l35 -51q8 -16 -4 -24q-143 -96 -230.5 -317.5t-87.5 -522.5t88 -519t234 -329q14 -8 4 -24l-37 -56q-10 -10 -25 -2q-186 135 -296.5 375t-110.5 558z" glyph-name="parenleft" horiz-adv-x="657" unicode="("/><glyph d="M520 644q0 -318 -110.5 -558t-296.5 -375q-14 -8 -25 2l-37 56q-10 16 4 24q145 111 233.5 329t88.5 519t-87 522t-231 318q-12 8 -4 24l35 51q6 14 21 7q188 -121 298.5 -361t110.5 -558z" glyph-name="parenright" horiz-adv-x="716" unicode=")"/><glyph d="M428 1530h86q18 0 14 -17l-16 -278h-82l-16 278q-4 17 14 17zM539 1204l231 148q12 12 23 -4l43 -74q6 -18 -9 -21l-258 -116zM106 1274l41 72q8 14 25 6l229 -148l-32 -65l-254 112q-19 7 -9 23zM170 901l207 197l67 -60l-190 -217q-12 -14 -25 -2l-59 58q-12 12 0 24z M489 1038l70 58l209 -209q12 -12 0 -23l-59 -59q-12 -12 -25 2z" glyph-name="asterisk" horiz-adv-x="942" unicode="*"/><glyph d="M561 768h311q18 0 19 -16v-80q0 -18 -19 -19h-311v-311q0 -16 -16 -16h-82q-16 0 -17 16v311h-317q-16 0 -16 19v80q0 16 16 16h317v317q0 16 17 17h82q16 0 16 -17v-317z" glyph-name="plus" horiz-adv-x="1003" unicode="+"/><glyph d="M113 154h116q18 0 19 -19v-135l-53 -266q-4 -16 -17 -17h-67q-20 0 -17 17l53 266h-34q-18 0 -19 18v117q1 19 19 19z" glyph-name="comma" horiz-adv-x="376" unicode=","/><glyph d="M145 580h664q16 0 16 -19v-80q0 -16 -16 -16h-664q-16 0 -16 16v80q0 19 16 19z" glyph-name="hyphen" horiz-adv-x="954" unicode="-"/><glyph d="M131 156h113q20 0 20 -21v-115q0 -20 -20 -20h-113q-20 0 -20 20v115q0 21 20 21z" glyph-name="period" horiz-adv-x="376" unicode="."/><glyph d="M707 1460h94q20 0 12 -18l-555 -1555q-2 -14 -20 -14h-95q-16 0 -12 21l555 1552q3 14 21 14z" glyph-name="slash" horiz-adv-x="942" unicode="/"/><glyph d="M459 1434h174q145 0 226 -86t81 -242v-784q0 -154 -81 -238t-226 -84h-174q-145 0 -226 84t-81 238v784q0 156 81 242t226 86zM797 322v784q0 100 -46 155.5t-130 55.5h-148q-84 0 -131 -55.5t-47 -155.5v-784q0 -98 47 -151.5t131 -53.5h148q84 4 130 56.5t46 148.5z " glyph-name="zero" horiz-adv-x="1093" unicode="0"/><glyph d="M586 117h266q16 0 16 -17v-84q0 -16 -16 -16h-719q-16 0 -16 16v84q0 16 16 17h309v1200h-301q-16 0 -16 16v84q0 16 16 17h428q16 0 17 -17v-1300z" glyph-name="one" horiz-adv-x="1021" unicode="1"/><glyph d="M567 1436q170 0 265.5 -78t95.5 -221v-111q0 -123 -66.5 -221t-161 -162.5t-188.5 -123t-160.5 -134.5t-66.5 -164v-104h633q16 0 16 -17v-84q0 -16 -16 -16h-760q-16 0 -17 16v174q0 131 66.5 230.5t161 161t188.5 120t160.5 140.5t66.5 186v109q0 88 -57 135t-160 47 h-350q-16 0 -16 16v82q0 15 16 19h350z" glyph-name="two" horiz-adv-x="1085" unicode="2"/><glyph d="M879 1151v-131q0 -160 -113 -238q152 -86 152 -288v-170q0 -154 -94.5 -239t-266.5 -85h-395q-16 0 -17 16v84q0 16 17 17h395q102 0 158.5 54t56.5 153v170q0 229 -252 229h-203q-16 0 -16 16v82q0 16 16 17h215q96 0 149.5 48t53.5 134v131q0 80 -53 123t-152 43h-319 q-16 0 -16 16v84q0 16 16 17h319q166 0 257.5 -74t91.5 -209z" glyph-name="three" horiz-adv-x="1069" unicode="3"/><glyph d="M893 477h123q18 0 18 -16v-82q0 -16 -18 -17h-123v-346q0 -16 -19 -16h-108q-16 0 -16 16v346h-588q-16 0 -17 17v133q0 14 5 20l413 885q6 16 21 17h108q18 0 13 -21l-416 -891v-45h461v473q0 16 16 17h108q18 0 19 -17v-473z" glyph-name="four" horiz-adv-x="1163" unicode="4"/><glyph d="M178 1434h639q16 0 17 -17v-94q0 -16 -17 -16h-512v-469h258q170 0 263.5 -86t93.5 -244v-205q0 -145 -93.5 -224t-263.5 -79h-409q-16 0 -17 16v84q0 16 17 17h409q100 0 156.5 49t56.5 137v205q0 102 -56 157.5t-157 55.5h-385q-16 0 -16 16v680q0 17 16 17z" glyph-name="five" horiz-adv-x="1071" unicode="5"/><glyph d="M295 784h350q147 0 228 -73.5t81 -208.5v-199q0 -145 -80.5 -224t-228.5 -79h-174q-152 0 -235.5 80t-83.5 223v821q0 147 83.5 228.5t235.5 81.5h309q16 0 17 -17v-84q0 -16 -17 -16h-309q-84 0 -130 -50t-46 -143v-340zM811 303v199q0 80 -43 124t-123 44h-350v-367 q0 -88 46 -137t130 -49h174q80 0 123 48t43 138z" glyph-name="six" horiz-adv-x="1107" unicode="6"/><glyph d="M125 1434h704q16 0 17 -17v-164q0 -12 -6 -24l-537 -1215q-6 -14 -20 -14h-111q-23 0 -12 20l545 1221v76h-580q-16 0 -16 16v84q0 17 16 17z" glyph-name="seven" horiz-adv-x="954" unicode="7"/><glyph d="M958 1149v-88q0 -145 -116 -322q164 -86 164 -327v-93q0 -143 -86 -231t-230 -88h-203q-152 0 -243.5 89t-91.5 235v116q0 195 167 363q-86 86 -86 258v76q0 131 87.5 214t226.5 83h90q143 0 232 -79t89 -206zM377 1137v-88q0 -145 79.5 -182.5t161.5 -56.5t109 -28 q88 131 88 267v88q0 80 -50 130t-128 50h-90q-74 0 -122 -50t-48 -130zM862 319v107q0 92 -47 147.5t-105.5 73t-152.5 42t-145 48.5q-117 -139 -117 -297v-116q0 -92 56.5 -149.5t148.5 -57.5h178q82 0 133 56t51 146z" glyph-name="eight" horiz-adv-x="1159" unicode="8"/><glyph d="M463 1434h178q152 0 234.5 -79t82.5 -225v-821q0 -147 -82.5 -228t-234.5 -81h-313q-16 0 -17 16v84q0 16 17 17h313q84 0 129 50t45 142v340h-352q-147 0 -229 74t-82 209v198q0 143 82 223.5t229 80.5zM463 764h352v366q0 88 -45 137.5t-129 49.5h-178q-80 0 -124 -49 t-44 -138v-198q0 -80 44 -124t124 -44z" glyph-name="nine" horiz-adv-x="1112" unicode="9"/><glyph d="M160 842h112q20 0 21 -21v-114q0 -20 -21 -21h-112q-20 0 -21 21v114q1 21 21 21zM160 156h112q20 0 21 -21v-115q0 -20 -21 -20h-112q-20 0 -21 20v115q1 21 21 21z" glyph-name="colon" horiz-adv-x="428" unicode=":"/><glyph d="M164 842h112q20 0 21 -21v-114q0 -20 -21 -21h-112q-20 0 -21 21v114q1 21 21 21zM150 154h116q18 0 19 -19v-135l-54 -266q-4 -16 -16 -17h-68q-20 0 -16 17l53 266h-34q-18 0 -19 18v117q1 19 19 19z" glyph-name="semicolon" horiz-adv-x="411" unicode=";"/><glyph d="M1051 1104q0 -16 -13 -19l-827 -374l827 -373q12 -2 13 -19v-81q0 -20 -21 -15l-938 416q-14 6 -14 18v109q0 12 14 18l938 414q20 10 21 -12v-82z" glyph-name="less" horiz-adv-x="1181" unicode="&lt;"/><glyph d="M137 971h953q16 0 16 -17v-82q0 -16 -16 -16h-953q-16 0 -16 16v82q0 17 16 17zM137 563h953q16 0 16 -18v-80q0 -16 -16 -16h-953q-16 0 -16 16v80q0 18 16 18z" glyph-name="equal" horiz-adv-x="1226" unicode="="/><glyph d="M121 1104v82q0 23 20 12l938 -414q14 -6 15 -18v-109q0 -12 -15 -18l-938 -416q-20 -6 -20 15v81q0 16 12 19l828 373l-828 374q-12 3 -12 19z" glyph-name="greater" horiz-adv-x="1212" unicode=">"/><glyph d="M324 1434h301q102 0 159.5 -61.5t57.5 -162.5v-290q0 -225 -236 -226h-74q-98 0 -92 -112v-187q0 -16 -18 -16h-109q-16 0 -16 16v250q0 76 38 119t109 47h105q150 0 149 147v220q0 76 -40 113.5t-109 37.5h-160q-111 0 -121 -115q0 -16 -16 -16h-111q-16 0 -16 16 q4 102 55.5 161t143.5 59zM313 156h113q20 0 20 -21v-115q0 -20 -20 -20h-113q-20 0 -20 20v115q0 21 20 21z" glyph-name="question" horiz-adv-x="966" unicode="?"/><glyph d="M1223 94h-117q-16 0 -16 17v407h-234q-129 0 -129 -129v-51q0 -129 129 -129h92q16 0 17 -16v-82q0 -16 -17 -17h-137q-227 0 -227 219v90q0 229 235 230h271v72q0 205 -154 204h-234q-16 0 -16 17v82q0 16 16 16h234q145 0 221 -76t76 -219v-516q383 6 383 492 q0 633 -658 632q-702 0 -702 -796q0 -385 182.5 -566.5t562.5 -181.5q174 0 332 27q16 4 21 -13l12 -92q2 -14 -12 -18q-182 -31 -359 -31q-451 0 -666.5 213t-215.5 661.5t211 681t634 232.5q801 0 801 -749q0 -301 -138 -456t-398 -155z" glyph-name="at" horiz-adv-x="1871" unicode="@"/><glyph d="M1104 0h-113q-14 0 -16 14l-131 496h-467l-141 -496q-2 -14 -17 -14h-113q-20 0 -16 18l410 1403q4 12 18 13h205q14 -1 18 -13l377 -1403q6 -18 -14 -18zM410 625h403l-182 694h-25z" glyph-name="A" horiz-adv-x="1208" unicode="A"/><glyph d="M948 1126v-110q0 -152 -96 -236q162 -80 162 -284v-150q0 -166 -81 -256t-231 -90h-520q-16 0 -16 16v1401q0 16 16 17h449q152 0 234.5 -80.5t82.5 -227.5zM602 1319h-293v-496h303q88 0 140.5 51.5t52.5 141.5v110q0 92 -53.5 142.5t-149.5 50.5zM870 346v137 q0 106 -59 166t-166 60h-336v-594h353q98 0 153 60t55 171z" glyph-name="B" horiz-adv-x="1148" unicode="B"/><glyph d="M518 1434h395q16 0 17 -15v-84q0 -16 -17 -16h-366q-119 0 -185.5 -67.5t-66.5 -188.5v-694q0 -121 63.5 -187.5t180.5 -66.5h426q16 0 16 -17v-82q0 -16 -16 -16h-467q-164 0 -255 97.5t-91 271.5v694q0 176 96 273.5t270 97.5z" glyph-name="C" horiz-adv-x="1036" unicode="C"/><glyph d="M182 1434h520q174 0 269.5 -97.5t95.5 -273.5v-694q0 -176 -90 -272.5t-254 -96.5h-541q-16 0 -16 16v1401q0 17 16 17zM924 369v694q0 121 -65.5 188.5t-184.5 67.5h-365v-1204h373q115 0 178.5 66.5t63.5 187.5z" glyph-name="D" horiz-adv-x="1220" unicode="D"/><glyph d="M948 1319h-639v-531h537q16 0 16 -16v-82q0 -16 -16 -16h-537v-559h639q16 0 17 -17v-82q0 -16 -17 -16h-766q-16 0 -16 16v1401q0 16 16 17h766q16 0 17 -17v-82q-1 -16 -17 -16z" glyph-name="E" horiz-adv-x="1095" unicode="E"/><glyph d="M182 1434h725q16 0 17 -17v-82q0 -16 -17 -16h-598v-531h496q16 0 16 -16v-82q0 -16 -16 -16h-496v-658q0 -16 -16 -16h-111q-16 0 -16 16v1401q0 17 16 17z" glyph-name="F" horiz-adv-x="985" unicode="F"/><glyph d="M647 745h219q88 0 137.5 -52t49.5 -146v-531q0 -16 -17 -16h-538q-164 0 -255 97.5t-91 271.5v694q0 176 96 273.5t270 97.5h379q16 0 16 -15v-84q0 -16 -16 -16h-350q-119 0 -185.5 -67.5t-66.5 -188.5v-694q0 -121 63.5 -187.5t180.5 -66.5h370v409q0 51 -25.5 79 t-72.5 28h-164q-16 0 -16 16v82q0 16 16 16z" glyph-name="G" horiz-adv-x="1198" unicode="G"/><glyph d="M946 1434h111q16 0 16 -17v-1401q0 -16 -16 -16h-111q-16 0 -16 16v658h-621v-658q0 -16 -16 -16h-111q-16 0 -16 16v1401q0 16 16 17h111q16 0 16 -17v-629h621v629q0 17 16 17z" glyph-name="H" horiz-adv-x="1239" unicode="H"/><glyph d="M182 1434h111q16 0 16 -17v-1401q0 -16 -16 -16h-111q-16 0 -16 16v1401q0 17 16 17z" glyph-name="I" horiz-adv-x="477" unicode="I"/><glyph d="M360 1434h111q16 0 16 -17v-1159q0 -123 -69.5 -190.5t-196.5 -67.5h-149q-16 0 -17 16v82q0 16 17 17h149q57 0 90 37.5t33 105.5v1159q0 17 16 17z" glyph-name="J" horiz-adv-x="645" unicode="J"/><glyph d="M926 1434h139q25 0 10 -21l-551 -616l545 -777q10 -20 -10 -20h-135q-10 0 -21 12l-475 674l-119 -133v-537q0 -16 -16 -16h-111q-16 0 -16 16v1401q0 16 16 17h111q16 0 16 -17v-676l594 682q11 11 23 11z" glyph-name="K" horiz-adv-x="1140" unicode="K"/><glyph d="M309 115h643q16 0 17 -17v-82q0 -16 -17 -16h-770q-16 0 -16 16v1401q0 16 16 17h111q16 0 16 -17v-1302z" glyph-name="L" horiz-adv-x="1030" unicode="L"/><glyph d="M1217 1434h223q18 0 18 -15v-1401q0 -18 -16 -18h-111q-18 0 -18 16v1264h-21l-393 -1139q-2 -12 -18 -12h-129q-14 0 -17 14l-405 1149h-21v-1278q0 -14 -16 -14h-111q-18 0 -14 18v1401q0 14 18 15h236q16 0 18 -13l377 -1085l381 1085q7 13 19 13z" glyph-name="M" horiz-adv-x="1624" unicode="M"/><glyph d="M967 1434h110q16 0 17 -17v-1401q0 -16 -17 -16h-239q-14 0 -21 16l-491 1311h-17v-1311q0 -16 -16 -16h-111q-16 0 -16 16v1401q0 16 16 17h250q14 0 21 -17l481 -1311h16v1311q1 17 17 17z" glyph-name="N" horiz-adv-x="1261" unicode="N"/><glyph d="M514 1434h215q172 0 267.5 -97.5t95.5 -273.5v-694q0 -176 -91.5 -272.5t-259.5 -96.5h-239q-166 0 -258 97.5t-92 271.5v694q0 176 95 273.5t267 97.5zM948 369v694q0 121 -64.5 188.5t-183.5 67.5h-157q-119 0 -183.5 -67.5t-64.5 -188.5v-694q0 -121 64.5 -187.5 t183.5 -66.5h157q119 0 183.5 66.5t64.5 187.5z" glyph-name="O" horiz-adv-x="1243" unicode="O"/><glyph d="M182 1434h465q162 0 257 -88.5t95 -239.5v-150q0 -166 -80.5 -256t-228.5 -90h-381v-594q0 -16 -16 -16h-111q-16 0 -16 16v1401q0 17 16 17zM856 950v144q0 106 -59.5 165.5t-165.5 59.5h-322v-594h330q102 0 159.5 59.5t57.5 165.5z" glyph-name="P" horiz-adv-x="1130" unicode="P"/><glyph d="M1112 1063v-694q0 -246 -170 -330l156 -170q12 -12 -2 -25l-80 -71q-12 -10 -25 2l-182 227q-14 -2 -47 -2h-260q-166 0 -258 97.5t-92 271.5v694q0 176 95 273.5t267 97.5h236q172 0 267 -97.5t95 -273.5zM969 369v694q0 121 -64.5 188.5t-183.5 67.5h-178 q-119 0 -183.5 -67.5t-64.5 -188.5v-694q0 -121 64.5 -187.5t183.5 -66.5h178q119 0 183.5 66.5t64.5 187.5z" glyph-name="Q" horiz-adv-x="1263" unicode="Q"/><glyph d="M1010 0h-123q-12 0 -19 14l-211 617h-348v-631h-127q-16 0 -16 16v1401q0 16 16 17h465q162 0 257 -88.5t95 -239.5v-129q1 -267 -194 -330l219 -629q8 -18 -14 -18zM309 745h330q102 0 159.5 59.5t57.5 166.5v123q0 106 -59.5 165.5t-165.5 59.5h-322v-574z" glyph-name="R" horiz-adv-x="1161" unicode="R"/><glyph d="M397 1434h453q16 0 16 -17v-82q0 -16 -16 -16h-414q-72 0 -111.5 -42t-39.5 -118v-207q0 -133 139 -133h252q274 0 274 -260v-330q0 -109 -62.5 -169t-174.5 -60h-557q-16 0 -17 16v82q0 16 17 17h489q78 0 120 40t42 113v258q0 164 -160 164h-264q-242 0 -242 223v273 q0 119 67.5 183.5t188.5 64.5z" glyph-name="S" horiz-adv-x="1060" unicode="S"/><glyph d="M84 1434h907q16 0 17 -17v-82q0 -16 -17 -16h-379v-1303q0 -16 -16 -16h-111q-16 0 -16 16v1303h-385q-16 0 -16 16v82q0 17 16 17z" glyph-name="T" horiz-adv-x="1077" unicode="T"/><glyph d="M944 1434h111q16 0 16 -17v-1048q0 -176 -91 -272.5t-259 -96.5h-219q-166 0 -258 97.5t-92 271.5v1048q0 16 18 17h109q16 0 16 -17v-1048q0 -121 64.5 -187.5t183.5 -66.5h137q119 0 183.5 66.5t64.5 187.5v1048q0 17 16 17z" glyph-name="U" horiz-adv-x="1222" unicode="U"/><glyph d="M965 1434h112q20 0 15 -19l-373 -1401q-2 -14 -19 -14h-204q-16 0 -19 14l-387 1401q-4 18 16 19h111q16 0 19 -13l354 -1306h24l332 1304q3 15 19 15z" glyph-name="V" horiz-adv-x="1183" unicode="V"/><glyph d="M1636 1434h113q16 0 14 -19l-336 -1401q-2 -14 -16 -14h-219q-16 0 -18 14l-240 1143l-250 -1143q-2 -14 -18 -14h-220q-16 0 -18 14l-338 1401q-4 18 16 19h111q16 0 19 -13l313 -1304h24l285 1302q2 14 19 15h112q14 0 17 -13l288 -1304h25l299 1302q2 15 18 15z" glyph-name="W" horiz-adv-x="1839" unicode="W"/><glyph d="M1096 0h-140q-8 0 -14 8l-348 590l-344 -590q-6 -8 -14 -8h-138q-14 0 -6 12l430 707l-416 702q-8 12 7 13h137q8 0 14 -9l338 -569l324 567q4 10 14 11h133q14 0 6 -13l-403 -690l426 -719q8 -12 -6 -12z" glyph-name="X" horiz-adv-x="1193" unicode="X"/><glyph d="M926 1434h112q23 0 15 -19l-422 -799v-600q0 -16 -17 -16h-108q-18 0 -19 16v613l-395 786q-10 18 14 19h111q12 0 19 -13l331 -657l340 655q7 15 19 15z" glyph-name="Y" horiz-adv-x="1144" unicode="Y"/><glyph d="M168 1434h842q14 0 14 -15v-90q0 -14 -6 -22l-748 -1192h750q18 0 18 -17v-82q0 -16 -18 -16h-889q-14 0 -14 14v88q0 12 6 21l745 1196h-700q-10 0 -10 10v94q0 11 10 11z" glyph-name="Z" horiz-adv-x="1153" unicode="Z"/><glyph d="M217 1536h320q16 0 16 -16v-82q0 -16 -16 -17h-193v-1614h193q16 0 16 -16v-82q0 -16 -16 -16h-320q-16 0 -16 16v1811q0 16 16 16z" glyph-name="bracketleft" horiz-adv-x="612" unicode="["/><glyph d="M143 1460h95q18 0 20 -14l555 -1552q4 -20 -12 -21h-94q-18 0 -21 14l-555 1555q-8 18 12 18z" glyph-name="backslash" horiz-adv-x="942" unicode="\"/><glyph d="M55 1536h320q16 0 16 -16v-1811q0 -16 -16 -16h-320q-16 0 -16 16v82q0 16 16 16h193v1614h-193q-16 0 -16 17v82q0 16 16 16z" glyph-name="bracketright" horiz-adv-x="612" unicode="]"/><glyph d="M494 1382h122q12 0 17 -10l356 -1010q6 -18 -12 -18h-100q-14 0 -21 12l-301 901l-322 -901q-6 -12 -20 -12h-100q-18 0 -15 18l381 1010q5 10 15 10z" glyph-name="asciicircum" horiz-adv-x="1087" unicode="^"/><glyph d="M113 -166h788q16 0 17 -16v-82q0 -16 -17 -17h-788q-16 0 -17 17v82q1 16 17 16z" glyph-name="underscore" horiz-adv-x="1013" unicode="_"/><glyph d="M55 1468l68 78q4 8 14 -2l223 -194q8 -8 2 -19l-47 -49q-6 -8 -18 2l-244 170q-4 4 2 14z" glyph-name="grave" horiz-adv-x="489" unicode="`"/><glyph d="M264 1024h250q147 0 222 -76t75 -219v-719q0 -10 -10 -10h-441q-229 0 -229 219v131q0 229 238 230h299v125q0 205 -154 204h-250q-16 0 -16 17v82q0 16 16 16zM406 115h262v350h-262q-131 0 -132 -129v-92q1 -129 132 -129z" glyph-name="a" horiz-adv-x="962" unicode="a"/><glyph d="M305 1024h256q145 0 225 -81t80 -226v-410q0 -145 -74.5 -226t-209.5 -81h-402q-18 0 -18 16v1504q0 16 18 16h109q16 0 16 -16v-496zM723 307v410q0 94 -49 143t-142 49h-227v-794h236q182 -1 182 192z" glyph-name="b" horiz-adv-x="1011" unicode="b"/><glyph d="M451 1024h268q16 0 16 -16v-82q0 -16 -16 -17h-240q-190 0 -190 -192v-410q0 -193 182 -192h291q16 0 16 -17v-82q0 -16 -16 -16h-332q-135 0 -210 81t-75 226v410q0 145 80.5 226t225.5 81z" glyph-name="c" horiz-adv-x="856" unicode="c"/><glyph d="M723 1536h108q16 0 17 -16v-1504q0 -16 -17 -16h-401q-135 0 -210 81t-75 226v410q0 145 80 226t226 81h254v496q0 16 18 16zM471 115h234v794h-226q-190 0 -190 -192v-410q0 -192 182 -192z" glyph-name="d" horiz-adv-x="1011" unicode="d"/><glyph d="M459 1024h106q129 0 197.5 -65.5t68.5 -186.5v-102q0 -240 -256 -240h-286v-123q0 -193 180 -192h236q16 0 16 -17v-82q0 -16 -16 -16h-273q-139 0 -213 76t-74 219v422q0 145 82 226t232 81zM688 674v92q0 143 -135 143h-94q-80 0 -125 -51t-45 -141v-172h274 q125 0 125 129z" glyph-name="e" horiz-adv-x="960" unicode="e"/><glyph d="M428 1536h145q16 0 17 -16v-82q0 -16 -17 -17h-137q-63 0 -97 -39t-34 -110v-248l217 -4q16 0 17 -16v-74q0 -16 -17 -17l-217 -6v-891q0 -16 -16 -16h-109q-18 0 -18 16v1250q0 129 69.5 199.5t196.5 70.5z" glyph-name="f" horiz-adv-x="552" unicode="f"/><glyph d="M430 1024h401q16 0 17 -16v-1213q0 -145 -74 -226t-209 -81h-338q-16 0 -16 16v82q0 16 16 17h297q180 0 181 192v205h-254q-145 0 -225.5 81t-80.5 226v410q0 145 75 226t210 81zM479 115h226v794h-234q-182 0 -182 -192v-410q0 -192 190 -192z" glyph-name="g" horiz-adv-x="1011" unicode="g"/><glyph d="M305 1024h256q143 0 222 -81t79 -226v-701q0 -16 -16 -16h-111q-16 0 -16 16v701q0 193 -187 192h-227v-893q0 -16 -16 -16h-109q-18 0 -18 16v1504q0 16 18 16h109q16 0 16 -16v-496z" glyph-name="h" horiz-adv-x="1013" unicode="h"/><glyph d="M170 1536h109q16 0 16 -16v-152q0 -18 -16 -18h-109q-18 0 -18 18v152q0 16 18 16zM170 1024h109q16 0 16 -16v-787q0 -106 96 -106h66q16 0 16 -17v-82q0 -16 -16 -16h-121q-90 0 -137 51t-47 146v811q0 16 18 16z" glyph-name="i" horiz-adv-x="538" unicode="i"/><glyph d="M197 1536h110q16 0 17 -16v-152q0 -18 -17 -18h-110q-16 0 -17 18v152q1 16 17 16zM197 1024h110q16 0 17 -16v-1262q0 -123 -70 -190.5t-197 -67.5h-137q-16 0 -16 16v82q0 16 16 17h137q59 0 91 36.5t32 106.5v1262q1 16 17 16z" glyph-name="j" horiz-adv-x="485" unicode="j"/><glyph d="M895 0h-129q-14 0 -21 12l-327 520l-113 -112v-404q0 -16 -16 -16h-109q-18 0 -18 16v1504q0 16 18 16h109q16 0 16 -16v-928l408 420q8 12 22 12h144q25 0 8 -20l-373 -373l393 -611q10 -20 -12 -20z" glyph-name="k" horiz-adv-x="987" unicode="k"/><glyph d="M170 1536h109q16 0 16 -16v-1299q0 -106 100 -106h62q16 0 16 -17v-82q0 -16 -16 -16h-117q-90 0 -139 51t-49 146v1323q0 16 18 16z" glyph-name="l" horiz-adv-x="526" unicode="l"/><glyph d="M961 1024h141q147 0 228 -81t81 -226v-701q0 -16 -16 -16h-109q-18 0 -18 16v701q0 90 -43 141t-123 51h-141q-102 0 -103 -110v-783q0 -16 -16 -16h-109q-18 0 -18 16v783q0 111 -103 110h-307v-893q0 -16 -16 -16h-109q-18 0 -18 16v988q0 20 20 20h430q111 0 174 -53 q66 53 175 53z" glyph-name="m" horiz-adv-x="1564" unicode="m"/><glyph d="M182 1024h361q158 0 244.5 -81t86.5 -226v-701q0 -16 -16 -16h-110q-16 0 -17 16v701q0 90 -49 141t-139 51h-238v-893q0 -16 -16 -16h-109q-18 0 -18 16v988q0 20 20 20z" glyph-name="n" unicode="n"/><glyph d="M457 1024h116q137 0 213 -73.5t76 -209.5v-467q0 -131 -77.5 -202.5t-221.5 -71.5h-114q-143 0 -223.5 71.5t-80.5 202.5v467q0 135 81 209t231 74zM719 293v434q0 86 -40 134t-112 48h-116q-76 0 -119 -48t-43 -134v-434q0 -86 42 -132t120 -46h116q72 0 112 46t40 132z " glyph-name="o" horiz-adv-x="1009" unicode="o"/><glyph d="M180 1024h402q135 0 209.5 -81t74.5 -226v-410q0 -145 -79.5 -226t-225.5 -81h-256v-496q0 -16 -16 -16h-109q-18 0 -18 16v1504q0 16 18 16zM723 307v410q0 193 -182 192h-236v-794h227q92 0 141.5 49t49.5 143z" glyph-name="p" horiz-adv-x="1011" unicode="p"/><glyph d="M430 1024h401q16 0 17 -16v-1504q0 -16 -17 -16h-108q-18 0 -18 16v496h-254q-145 0 -225.5 81t-80.5 226v410q0 145 75 226t210 81zM479 115h226v794h-234q-182 0 -182 -192v-410q0 -192 190 -192z" glyph-name="q" horiz-adv-x="1011" unicode="q"/><glyph d="M420 1024h190q16 0 17 -16v-82q0 -16 -17 -17h-151q-74 0 -114 -47t-40 -135v-711q0 -16 -16 -16h-109q-18 0 -18 16v729q0 133 67.5 206t190.5 73z" glyph-name="r" horiz-adv-x="673" unicode="r"/><glyph d="M354 1024h281q16 0 16 -16v-76q0 -16 -16 -17h-242q-119 0 -119 -127v-88q0 -104 107 -104h139q102 0 158.5 -55.5t56.5 -157.5v-174q0 -102 -55 -155.5t-162 -53.5h-373q-16 0 -16 16v82q0 16 16 17h318q129 0 129 133v100q0 121 -127 121h-119q-102 0 -158.5 52 t-56.5 149v139q0 102 58.5 158.5t164.5 56.5z" glyph-name="s" horiz-adv-x="860" unicode="s"/><glyph d="M438 115h105q16 0 16 -17v-82q0 -16 -16 -16h-168q-106 0 -164.5 64.5t-58.5 181.5v1026q0 20 20 14l111 -41q12 -6 12 -20v-201l213 -4q18 0 18 -16v-76q0 -14 -18 -15l-213 -6v-631q0 -76 37.5 -118.5t105.5 -42.5z" glyph-name="t" horiz-adv-x="606" unicode="t"/><glyph d="M737 1024h111q16 0 16 -16v-988q0 -20 -20 -20h-361q-158 0 -244.5 81t-86.5 226v701q0 16 18 16h109q16 0 16 -16v-701q0 -90 50 -141t138 -51h238v893q0 16 16 16z" glyph-name="u" unicode="u"/><glyph d="M715 1024h112q16 0 15 -18l-244 -992q-2 -14 -18 -14h-205q-16 0 -19 14l-256 992q-6 18 15 18h110q16 0 19 -12l223 -897h25l204 895q3 14 19 14z" glyph-name="v" horiz-adv-x="940" unicode="v"/><glyph d="M1298 1024h111q18 0 16 -20l-233 -988q-2 -16 -16 -16h-203q-12 0 -19 16l-188 793l-193 -793q-6 -16 -18 -16h-197q-12 0 -18 16l-238 988q-6 20 15 20h110q14 0 19 -16l203 -893h24l227 895q4 14 19 14h104q14 0 19 -14l223 -895h25l190 893q4 16 18 16z" glyph-name="w" horiz-adv-x="1525" unicode="w"/><glyph d="M868 0h-137q-8 0 -14 8l-234 391l-225 -391q-6 -8 -14 -8h-135q-14 0 -7 12l312 504l-295 496q-8 12 6 12h135q8 0 14 -8l224 -373l217 371q6 10 14 10h129q14 0 6 -12l-299 -482l309 -518q8 -12 -6 -12z" glyph-name="x" horiz-adv-x="974" unicode="x"/><glyph d="M727 1024h111q18 0 16 -18l-377 -1502q-4 -16 -20 -16h-101q-20 0 -12 18l131 494h-88q-16 0 -18 14l-269 992q-6 18 15 18h110q16 0 19 -12l237 -897h21l207 895q2 14 18 14z" glyph-name="y" horiz-adv-x="952" unicode="y"/><glyph d="M166 1024h616q14 0 15 -14v-90q0 -14 -6 -23l-523 -782h525q16 0 16 -17v-82q0 -16 -16 -16h-666q-12 0 -12 14v88q0 12 6 21l520 786h-475q-10 0 -10 11v94q0 10 10 10z" glyph-name="z" horiz-adv-x="899" unicode="z"/><glyph d="M647 1524v-82q0 -16 -16 -17q-193 -8 -176 -251l18 -289q16 -201 -123 -285q135 -82 123 -281l-18 -290q-16 -242 176 -254q16 0 16 -17v-80q0 -16 -16 -16q-164 4 -246 77t-74 212l23 356q8 127 -40 179.5t-190 52.5q-16 0 -16 16v82q0 16 16 16q137 6 187.5 58.5 t42.5 173.5l-23 366q-8 139 74 212t246 77q16 0 16 -16z" glyph-name="braceleft" horiz-adv-x="714" unicode="{"/><glyph d="M207 1577h110q16 0 17 -16v-1864q0 -16 -17 -16h-110q-16 0 -17 16v1864q1 16 17 16z" glyph-name="bar" horiz-adv-x="524" unicode="|"/><glyph d="M600 637v-82q0 -16 -16 -16q-141 0 -189.5 -52.5t-40.5 -179.5l23 -356q8 -139 -74 -212t-246 -77q-16 0 -16 16v80q0 16 16 17q193 12 176 254l-18 290q-12 199 123 281q-139 84 -123 285l18 289q16 244 -176 251q-16 0 -16 17v82q0 16 16 16q164 -4 246 -77t74 -212 l-23 -366q-8 -121 42 -173.5t188 -58.5q16 0 16 -16z" glyph-name="braceright" horiz-adv-x="714" unicode="}"/><glyph d="M217 563h-80q-16 0 -16 17q4 143 72.5 224t185.5 81q78 0 148.5 -37t156 -117t193.5 -80q125 0 131 152q0 16 16 16h88q16 0 16 -16q-2 -141 -71.5 -216t-188.5 -75q-82 0 -152.5 36t-147 114.5t-189.5 78.5q-135 0 -146 -161q0 -17 -16 -17z" glyph-name="asciitilde" horiz-adv-x="1249" unicode="~"/><glyph d="M158 1024h112q20 0 21 -20v-115q0 -20 -21 -21h-112q-20 0 -21 21v115q1 20 21 20zM182 614h66q18 0 18 -16l23 -727v-264q0 -16 -19 -17h-108q-16 0 -17 17v264l21 727q0 16 16 16z" glyph-name="exclamdown" horiz-adv-x="440" unicode="¡"/><glyph d="M471 319h303q16 0 17 -16v-82q0 -16 -17 -16h-190v-217q0 -16 -17 -17h-84q-16 0 -16 17v217h-37q-135 0 -210 81t-75 226v410q0 145 80 226t226 81h10v203q0 16 18 16h84q16 0 17 -16v-203h147q16 0 16 -17v-82q0 -16 -16 -16h-248q-190 0 -190 -192v-410 q0 -193 182 -193z" glyph-name="cent" horiz-adv-x="868" unicode="¢"/><glyph d="M1008 117q16 0 16 -17v-84q0 -16 -16 -16h-885q-16 0 -17 16v84q0 16 17 17q150 0 212 111.5t77 426.5h-162q-16 0 -17 17v84q0 16 17 16h166q2 66 2 215q0 217 98 332t283 115h153q16 0 17 -17v-84q0 -16 -17 -16h-153q-238 0 -238 -330q0 -150 -4 -215h250q16 0 16 -16 v-84q0 -16 -16 -17h-254q-24 -399 -133 -538h588z" glyph-name="sterling" horiz-adv-x="1161" unicode="£"/><glyph d="M1006 726q0 -169 -93 -277l140 -162q12 -12 -2 -25l-60 -47q-16 -10 -24 4l-123 168q-98 -68 -250 -68t-252 70l-119 -168q-10 -16 -22 -4l-64 45q-14 12 -2 25l139 164q-90 106 -90 277t86 280l-139 151q-14 10 2 23l55 49q12 14 23 -2l129 -158q104 70 256 70t258 -74 l133 164q11 14 25 2l55 -51q10 -10 0 -23l-143 -158q82 -106 82 -275zM594 430q137 0 205.5 79t68.5 222q0 299 -274.5 299t-274.5 -299q0 -143 69 -222t206 -79z" glyph-name="currency" horiz-adv-x="1198" unicode="¤"/><glyph d="M926 1434h112q23 0 15 -19l-377 -715h225q16 0 17 -16v-84q0 -16 -17 -16h-270v-133h270q16 0 17 -19v-82q0 -16 -17 -16h-270v-318q0 -16 -17 -16h-108q-18 0 -19 16v318h-258q-16 0 -16 16v82q0 18 16 19h258v133h-258q-16 0 -16 16v84q0 16 16 16h222l-359 715 q-10 18 14 19h111q12 0 19 -13l331 -657l340 655q7 15 19 15z" glyph-name="yen" horiz-adv-x="1144" unicode="¥"/><glyph d="M207 1577h110q16 0 17 -16v-766q0 -16 -17 -17h-110q-16 0 -17 17v766q1 16 17 16zM207 492h110q16 0 17 -17v-766q0 -16 -17 -16h-110q-16 0 -17 16v766q1 17 17 17z" glyph-name="brokenbar" horiz-adv-x="524" unicode="¦"/><glyph d="M451 1499h282q16 0 17 -16v-76q0 -16 -17 -16h-244q-119 0 -118 -127v-78q0 -109 112 -109h160q90 0 139 -52t49 -148v-183q0 -111 -66.5 -165t-191.5 -44v115q66 0 90.5 32t24.5 101v98q0 131 -139 132h-131q-90 0 -140.5 46t-50.5 128v147q0 102 59 158.5t165 56.5z M135 500v176q0 104 68.5 163.5t191.5 51.5v-111q-117 0 -116 -127v-104q0 -109 110 -109h160q90 0 140 -52t50 -148v-174q0 -102 -55 -155.5t-162 -53.5h-385q-16 0 -16 16v80q0 18 16 18h318q141 0 141 133v91q0 129 -139 129h-133q-88 0 -138.5 46t-50.5 130z" glyph-name="section" horiz-adv-x="952" unicode="§"/><glyph d="M145 1460h111q16 0 16 -18v-152q0 -16 -16 -16h-111q-16 0 -16 16v152q0 18 16 18zM475 1460h111q16 0 16 -18v-152q0 -16 -16 -16h-111q-16 0 -16 16v152q0 18 16 18z" glyph-name="dieresis" horiz-adv-x="731" unicode="¨"/><glyph d="M922 1528q406 0 609.5 -203t203.5 -604q0 -831 -811 -832q-825 0 -826 830q0 401 209 605t615 204zM921 1411q-347 0 -513 -171t-166 -526t165 -531.5t513 -176.5t509.5 176t161.5 532t-161.5 526.5t-508.5 170.5zM879 1196h251q16 0 17 -16v-82q0 -16 -17 -17h-223 q-92 0 -141 -49t-49 -143v-328q0 -193 182 -192h279q16 0 16 -17v-82q0 -16 -16 -16h-320q-135 0 -210 81t-75 226v328q0 145 80.5 226t225.5 81z" glyph-name="copyright" horiz-adv-x="1832" unicode="©"/><glyph d="M184 1841h183q199 0 198 -184v-461q0 -8 -6 -8h-313q-150 0 -150 143v84q0 152 154 152h205v61q0 129 -103 129h-168q-12 0 -12 8v72q0 4 12 4zM289 1266h166v219h-166q-84 0 -84 -84v-49q0 -86 84 -86z" glyph-name="ordfeminine" horiz-adv-x="659" unicode="ª"/><glyph d="M104 512l390 412q10 14 22 2l74 -70q12 -12 0 -25l-311 -325l319 -291q12 -10 0 -22l-68 -80q-12 -12 -22 -2l-404 378q-12 11 0 23zM545 512l389 412q10 14 22 2l74 -70q12 -12 0 -25l-311 -325l319 -291q12 -10 0 -22l-67 -80q-12 -12 -23 -2l-403 378q-12 11 0 23z " glyph-name="guillemotleft" horiz-adv-x="1169" unicode="«"/><glyph d="M121 768h1005q16 0 17 -16v-414q0 -16 -17 -16h-82q-16 0 -16 16v315h-907q-16 0 -17 19v80q1 16 17 16z" glyph-name="logicalnot" horiz-adv-x="1249" unicode="¬"/><glyph d="M145 580h664q16 0 16 -19v-80q0 -16 -16 -16h-664q-16 0 -16 16v80q0 19 16 19z" glyph-name="uni00AD" horiz-adv-x="954" unicode="­"/><glyph d="M530 1456q213 0 308.5 -110.5t95.5 -332.5t-95.5 -338t-308.5 -116q-410 0 -409 459q-1 438 409 438zM528 623q180 0 254 97.5t74 291.5t-74 288.5t-254 94.5t-254.5 -94.5t-74.5 -288.5t74.5 -291.5t254.5 -97.5zM688 1151v-57q0 -84 -65 -111l79 -217h-79l-70 209h-109 v-209h-71v496h190q57 0 91 -31t34 -80zM444 1204v-178h107q66 0 65 76v37q0 66 -73 65h-99z" glyph-name="registered" horiz-adv-x="1054" unicode="®"/><glyph d="M147 1436h416q16 0 17 -17v-82q0 -16 -17 -16h-416q-16 0 -16 16v82q0 17 16 17z" glyph-name="macron" horiz-adv-x="694" unicode="¯"/><glyph d="M383 1581q262 1 262 -285t-262 -286t-262 286t262 285zM385 1477q-84 0 -118 -44t-34 -134t34 -136.5t116 -46.5t115.5 46t33.5 141q0 174 -147 174z" glyph-name="degree" horiz-adv-x="763" unicode="°"/><glyph d="M559 946h313q18 0 19 -16v-82q0 -16 -19 -17h-313v-266q0 -16 -16 -16h-82q-16 0 -17 16v266h-315q-16 0 -16 17v82q0 16 16 16h315v275q0 16 17 16h82q16 0 16 -16v-275zM129 416h743q18 0 19 -17v-82q0 -16 -19 -16h-743q-16 0 -16 16v82q0 17 16 17z" glyph-name="plusminus" horiz-adv-x="1003" unicode="±"/><glyph d="M319 1845q94 0 147.5 -39t53.5 -110v-60q0 -70 -53 -131t-170 -125.5t-117 -138.5v-31h332q12 0 12 -10v-63q0 -10 -12 -11h-426q-10 0 -10 11v82q0 114 85 169.5t170 109t85 138.5v47q0 78 -97 78h-198q-10 0 -10 11v61q0 10 10 12h198z" glyph-name="uni00B2" horiz-adv-x="618" unicode="²"/><glyph d="M494 1696v-62q0 -72 -52 -112q72 -49 72 -148v-82q0 -78 -51 -122t-146 -44h-231q-10 0 -10 11v63q0 10 10 10h217q106 0 107 90v74q0 102 -123 103h-127q-10 0 -10 12v61q0 10 10 11h139q90 0 90 75v47q0 78 -94 78h-178q-10 0 -11 8v64q0 10 11 10h178 q94 0 146.5 -37.5t52.5 -109.5z" glyph-name="uni00B3" horiz-adv-x="610" unicode="³"/><glyph d="M156 1358l223 194q10 10 14 2l68 -77q6 -10 2 -15l-244 -170q-12 -10 -18 -2l-47 49q-6 11 2 19z" glyph-name="acute" horiz-adv-x="569" unicode="´"/><glyph d="M543 1434h127q16 0 16 -17v-1720q0 -16 -16 -16h-111q-16 0 -16 16v895q-422 0 -422 421t422 421zM913 1434h109q18 0 18 -17v-1720q0 -16 -18 -16h-109q-16 0 -16 16v1720q0 17 16 17z" glyph-name="paragraph" horiz-adv-x="1226" unicode="¶"/><glyph d="M133 618h113q20 0 20 -20v-115q0 -20 -20 -20h-113q-20 0 -20 20v115q0 20 20 20z" glyph-name="periodcentered" horiz-adv-x="378" unicode="·"/><glyph d="M207 -90h55q90 -2 140.5 -46t50.5 -129t-53.5 -134.5t-140.5 -49.5t-135 43.5t-50 120.5q0 10 10 11h82q10 0 10 -11q6 -68 78 -67q37 0 58.5 24.5t21.5 65.5t-19.5 63.5t-52.5 22.5h-55q-10 0 -10 10v66q0 10 10 10z" glyph-name="cedilla" horiz-adv-x="536" unicode="¸"/><glyph d="M348 1210h137q10 0 11 -10v-63q0 -10 -11 -11h-399q-10 0 -10 11v63q0 10 10 10h158v551h-154q-10 0 -10 8v64q0 10 10 10h246q12 0 12 -10v-623z" glyph-name="uni00B9" horiz-adv-x="591" unicode="¹"/><glyph d="M256 1843h168q82 0 126 -43t44 -121v-329q0 -78 -44 -120t-126 -42h-168q-74 0 -117 43t-43 119v329q0 78 43 121t117 43zM485 1364v299q0 94 -86 94h-106q-88 -6 -88 -94v-299q0 -92 88 -92h106q86 4 86 92z" glyph-name="ordmasculine" horiz-adv-x="690" unicode="º"/><glyph d="M104 856l74 70q14 12 23 -2l389 -412q12 -12 0 -23l-404 -378q-10 -10 -22 2l-68 80q-12 12 0 22l320 291l-312 325q-12 13 0 25zM555 856l74 70q14 12 22 -2l389 -412q12 -12 0 -23l-403 -378q-10 -10 -23 2l-67 80q-12 12 0 22l319 291l-311 325q-12 13 0 25z" glyph-name="guillemotright" horiz-adv-x="1177" unicode="»"/><glyph d="M1276 1468h104q14 0 6 -12l-1075 -1476q-8 -10 -16 -11h-105q-14 0 -4 15l1074 1472q10 12 16 12zM496 791v-64q0 -10 -11 -10h-399q-10 0 -10 10v64q0 10 10 10h158v551h-154q-10 0 -10 8v63q0 10 10 11h246q12 0 12 -11v-622h137q11 0 11 -10zM1493 256h63q10 0 11 -10 v-64q0 -10 -11 -10h-63v-162q0 -10 -8 -10h-84q-10 0 -10 10v162h-314q-10 0 -10 12v82q0 4 4 13l217 430q6 8 15 8h79q16 0 9 -12l-220 -431v-18h220v219q0 10 10 10h84q8 0 8 -10v-219z" glyph-name="onequarter" horiz-adv-x="1640" unicode="¼"/><glyph d="M1276 1468h104q14 0 6 -12l-1075 -1476q-8 -10 -16 -11h-105q-14 0 -4 15l1074 1472q10 12 16 12zM496 791v-64q0 -10 -11 -10h-399q-10 0 -10 10v64q0 10 10 10h158v551h-154q-10 0 -10 8v63q0 10 10 11h246q12 0 12 -11v-622h137q11 0 11 -10zM1171 84h332q12 0 13 -10 v-64q0 -10 -13 -10h-426q-10 0 -10 10v82q0 61 35 110.5t85 82t135 87t85 138.5v47q0 78 -96 78h-199q-10 0 -10 10v62q0 10 10 12h199q94 0 147 -39t53 -111v-59q0 -70 -53 -131.5t-170 -125t-117 -138.5v-31z" glyph-name="onehalf" horiz-adv-x="1609" unicode="½"/><glyph d="M1294 1468h105q14 0 6 -12l-1075 -1476q-8 -10 -17 -11h-104q-14 0 -4 15l1073 1472q8 12 16 12zM514 965v-82q0 -78 -51 -122t-146 -44h-231q-10 0 -10 10v64q0 10 10 10h217q106 0 107 90v74q0 102 -123 102h-127q-10 0 -10 12v62q0 10 10 10h139q90 0 90 76v47 q0 78 -94 78h-178q-10 0 -11 8v63q0 10 11 11h178q94 0 146.5 -38t52.5 -110v-61q0 -72 -52 -113q72 -49 72 -147zM1511 256h64q10 0 10 -10v-64q0 -10 -10 -10h-64v-162q0 -10 -8 -10h-84q-10 0 -10 10v162h-313q-10 0 -11 12v82q0 4 5 13l217 430q6 8 14 8h80q16 0 8 -12 l-219 -431v-18h219v219q0 10 10 10h84q8 0 8 -10v-219z" glyph-name="threequarters" horiz-adv-x="1658" unicode="¾"/><glyph d="M496 1028h112q20 0 21 -20v-115q0 -20 -21 -21h-112q-20 0 -21 21v115q1 20 21 20zM500 649h108q16 0 17 -16v-250q0 -76 -38 -119t-110 -47h-104q-150 0 -150 -147v-220q0 -76 40 -113.5t110 -37.5h159q111 0 121 115q0 16 17 16h110q16 0 17 -16q-4 -102 -55.5 -161 t-143.5 -59h-301q-102 0 -159.5 61.5t-57.5 162.5v291q0 225 235 225h74q98 0 92 112v187q1 16 19 16z" glyph-name="questiondown" horiz-adv-x="950" unicode="¿"/><glyph d="M563 1694l-244 170q-4 4 3 14l67 78q4 8 14 -2l224 -195q8 -8 2 -18l-47 -49q-7 -8 -19 2zM1104 0h-113q-14 0 -16 14l-131 496h-467l-141 -496q-2 -14 -17 -14h-113q-20 0 -16 18l410 1403q4 12 18 13h205q14 -1 18 -13l377 -1403q6 -18 -14 -18zM410 625h403l-182 694 h-25z" glyph-name="Agrave" horiz-adv-x="1208" unicode="À"/><glyph d="M647 1700l-47 49q-6 10 2 18l223 195q10 10 15 2l67 -78q6 -10 2 -14l-243 -170q-13 -10 -19 -2zM1104 0h-113q-14 0 -16 14l-131 496h-467l-141 -496q-2 -14 -17 -14h-113q-20 0 -16 18l410 1403q4 12 18 13h205q14 -1 18 -13l377 -1403q6 -18 -14 -18zM410 625h403 l-182 694h-25z" glyph-name="Aacute" horiz-adv-x="1208" unicode="Á"/><glyph d="M610 1952h33q8 0 14 -6l205 -181q10 -12 0 -24l-53 -55q-14 -10 -25 0l-149 143h-14l-152 -139q-13 -16 -23 -2l-53 57q-10 12 0 22l203 179q6 6 14 6zM1104 0h-113q-14 0 -16 14l-131 496h-467l-141 -496q-2 -14 -17 -14h-113q-20 0 -16 18l410 1403q4 12 18 13h205 q14 -1 18 -13l377 -1403q6 -18 -14 -18zM410 625h403l-182 694h-25z" glyph-name="Acircumflex" horiz-adv-x="1208" unicode="Â"/><glyph d="M522 1880q47 0 105.5 -27.5t97.5 -27.5t72 43q14 18 26 2l33 -37q10 -12 4 -27q-60 -88 -116 -88t-117.5 28t-102.5 28t-73 -41q-13 -16 -25 -4l-35 38q-14 12 -6 23q53 90 137 90zM1104 0h-113q-14 0 -16 14l-131 496h-467l-141 -496q-2 -14 -17 -14h-113q-20 0 -16 18 l410 1403q4 12 18 13h205q14 -1 18 -13l377 -1403q6 -18 -14 -18zM410 625h403l-182 694h-25z" glyph-name="Atilde" horiz-adv-x="1208" unicode="Ã"/><glyph d="M518 1683h-110q-16 0 -17 17v151q0 18 17 19h110q16 0 17 -19v-151q-1 -17 -17 -17zM848 1683h-111q-16 0 -16 17v151q0 18 16 19h111q16 0 16 -19v-151q0 -17 -16 -17zM1104 0h-113q-14 0 -16 14l-131 496h-467l-141 -496q-2 -14 -17 -14h-113q-20 0 -16 18l410 1403 q4 12 18 13h205q14 -1 18 -13l377 -1403q6 -18 -14 -18zM410 625h403l-182 694h-25z" glyph-name="Adieresis" horiz-adv-x="1208" unicode="Ä"/><glyph d="M628 1651q-83 0 -134.5 51t-51.5 134t50.5 132t134.5 49t133 -49t49 -133t-49 -134t-132 -50zM627 1923q-41 0 -65.5 -23.5t-24.5 -64.5t24.5 -65.5t65.5 -24.5t64.5 24.5t23.5 65.5t-23.5 64.5t-64.5 23.5zM1104 0h-113q-14 0 -16 14l-131 496h-467l-141 -496 q-2 -14 -17 -14h-113q-20 0 -16 18l410 1403q4 12 18 13h205q14 -1 18 -13l377 -1403q6 -18 -14 -18zM410 625h403l-182 694h-25z" glyph-name="Aring" horiz-adv-x="1208" unicode="Å"/><glyph d="M1675 1319h-637v-531h535q16 0 16 -16v-82q0 -16 -16 -16h-535v-559h637q16 0 17 -17v-82q0 -16 -17 -16h-764q-16 0 -16 16v521h-510l-149 -523q-2 -14 -17 -14h-113q-20 0 -16 18l346 1184q33 111 109 171.5t182 60.5h948q16 0 17 -17v-82q-1 -16 -17 -16zM895 651v668 h-162q-70 0 -107.5 -34t-58.5 -107l-149 -527h477z" glyph-name="AE" horiz-adv-x="1822" unicode="Æ"/><glyph d="M518 1434h395q16 0 17 -15v-84q0 -16 -17 -16h-366q-119 0 -185.5 -67.5t-66.5 -188.5v-694q0 -121 63.5 -187.5t180.5 -66.5h426q16 0 16 -17v-82q0 -16 -16 -16h-467q-164 0 -255 97.5t-91 271.5v694q0 176 96 273.5t270 97.5zM602 -90h55q90 -2 140.5 -46t50.5 -129 t-53.5 -134.5t-140.5 -49.5t-135 43.5t-50 120.5q0 10 10 11h82q10 0 10 -11q6 -68 78 -67q37 0 58.5 24.5t21.5 65.5t-19.5 63.5t-52.5 22.5h-55q-10 0 -10 10v66q0 10 10 10z" glyph-name="Ccedilla" horiz-adv-x="1036" unicode="Ç"/><glyph d="M498 1694l-244 170q-4 4 2 14l68 78q4 8 14 -2l223 -195q8 -8 2 -18l-47 -49q-6 -8 -18 2zM948 1319h-639v-531h537q16 0 16 -16v-82q0 -16 -16 -16h-537v-559h639q16 0 17 -17v-82q0 -16 -17 -16h-766q-16 0 -16 16v1401q0 16 16 17h766q16 0 17 -17v-82q-1 -16 -17 -16 z" glyph-name="Egrave" horiz-adv-x="1095" unicode="È"/><glyph d="M582 1700l-47 49q-6 10 2 18l223 195q10 10 14 2l68 -78q6 -10 2 -14l-244 -170q-12 -10 -18 -2zM948 1319h-639v-531h537q16 0 16 -16v-82q0 -16 -16 -16h-537v-559h639q16 0 17 -17v-82q0 -16 -17 -16h-766q-16 0 -16 16v1401q0 16 16 17h766q16 0 17 -17v-82 q-1 -16 -17 -16z" glyph-name="Eacute" horiz-adv-x="1095" unicode="É"/><glyph d="M545 1952h33q8 0 14 -6l205 -181q10 -12 0 -24l-54 -55q-14 -10 -24 0l-150 143h-14l-152 -139q-12 -16 -22 -2l-53 57q-10 12 0 22l202 179q6 6 15 6zM948 1319h-639v-531h537q16 0 16 -16v-82q0 -16 -16 -16h-537v-559h639q16 0 17 -17v-82q0 -16 -17 -16h-766 q-16 0 -16 16v1401q0 16 16 17h766q16 0 17 -17v-82q-1 -16 -17 -16z" glyph-name="Ecircumflex" horiz-adv-x="1095" unicode="Ê"/><glyph d="M451 1683h-111q-16 0 -16 17v151q0 18 16 19h111q16 0 16 -19v-151q0 -17 -16 -17zM780 1683h-110q-16 0 -17 17v151q0 18 17 19h110q16 0 17 -19v-151q-1 -17 -17 -17zM948 1319h-639v-531h537q16 0 16 -16v-82q0 -16 -16 -16h-537v-559h639q16 0 17 -17v-82 q0 -16 -17 -16h-766q-16 0 -16 16v1401q0 16 16 17h766q16 0 17 -17v-82q-1 -16 -17 -16z" glyph-name="Edieresis" horiz-adv-x="1095" unicode="Ë"/><glyph d="M-68 1878l68 78q4 8 14 -2l224 -195q8 -8 2 -18l-47 -49q-6 -8 -19 2l-244 170q-4 4 2 14zM182 1434h111q16 0 16 -17v-1401q0 -16 -16 -16h-111q-16 0 -16 16v1401q0 17 16 17z" glyph-name="Igrave" horiz-adv-x="477" unicode="Ì"/><glyph d="M213 1767l223 195q10 10 15 2l67 -78q6 -10 2 -14l-244 -170q-12 -10 -18 -2l-47 49q-6 10 2 18zM182 1434h111q16 0 16 -17v-1401q0 -16 -16 -16h-111q-16 0 -16 16v1401q0 17 16 17z" glyph-name="Iacute" horiz-adv-x="477" unicode="Í"/><glyph d="M221 1952h33q8 0 14 -6l205 -181q10 -12 0 -24l-53 -55q-14 -10 -25 0l-149 143h-15l-151 -139q-12 -16 -23 -2l-53 57q-10 12 0 22l203 179q6 6 14 6zM182 1434h111q16 0 16 -17v-1401q0 -16 -16 -16h-111q-16 0 -16 16v1401q0 17 16 17z" glyph-name="Icircumflex" horiz-adv-x="477" unicode="Î"/><glyph d="M16 1870h111q16 0 16 -19v-151q0 -16 -16 -17h-111q-16 0 -16 17v151q0 19 16 19zM346 1870h111q16 0 16 -19v-151q0 -16 -16 -17h-111q-16 0 -16 17v151q0 19 16 19zM182 1434h111q16 0 16 -17v-1401q0 -16 -16 -16h-111q-16 0 -16 16v1401q0 17 16 17z" glyph-name="Idieresis" horiz-adv-x="477" unicode="Ï"/><glyph d="M182 1434h520q174 0 269.5 -97.5t95.5 -273.5v-694q0 -176 -90 -272.5t-254 -96.5h-541q-16 0 -16 16v646h-158q-12 0 -12 16v80q0 18 12 18h158v641q0 17 16 17zM924 369v694q0 121 -65.5 188.5t-184.5 67.5h-365v-543h164q10 0 10 -18v-80q0 -16 -10 -16h-164v-547h373 q115 0 178.5 66.5t63.5 187.5z" glyph-name="Eth" horiz-adv-x="1220" unicode="Ð"/><glyph d="M559 1880q47 0 105.5 -27.5t97.5 -27.5t72 43q14 18 26 2l33 -37q10 -12 4 -27q-61 -88 -117 -88t-117 28t-102 28t-74 -41q-12 -16 -24 -4l-35 38q-14 12 -6 23q53 90 137 90zM967 1434h110q16 0 17 -17v-1401q0 -16 -17 -16h-239q-14 0 -21 16l-491 1311h-17v-1311 q0 -16 -16 -16h-111q-16 0 -16 16v1401q0 16 16 17h250q14 0 21 -17l481 -1311h16v1311q1 17 17 17z" glyph-name="Ntilde" horiz-adv-x="1261" unicode="Ñ"/><glyph d="M301 1878l68 78q4 8 14 -2l223 -195q8 -8 2 -18l-47 -49q-6 -8 -18 2l-244 170q-4 4 2 14zM514 1434h215q172 0 267.5 -97.5t95.5 -273.5v-694q0 -176 -91.5 -272.5t-259.5 -96.5h-239q-166 0 -258 97.5t-92 271.5v694q0 176 95 273.5t267 97.5zM948 369v694 q0 121 -64.5 188.5t-183.5 67.5h-157q-119 0 -183.5 -67.5t-64.5 -188.5v-694q0 -121 64.5 -187.5t183.5 -66.5h157q119 0 183.5 66.5t64.5 187.5z" glyph-name="Ograve" horiz-adv-x="1243" unicode="Ò"/><glyph d="M582 1767l223 195q10 10 14 2l68 -78q6 -10 2 -14l-244 -170q-12 -10 -18 -2l-47 49q-6 10 2 18zM514 1434h215q172 0 267.5 -97.5t95.5 -273.5v-694q0 -176 -91.5 -272.5t-259.5 -96.5h-239q-166 0 -258 97.5t-92 271.5v694q0 176 95 273.5t267 97.5zM948 369v694 q0 121 -64.5 188.5t-183.5 67.5h-157q-119 0 -183.5 -67.5t-64.5 -188.5v-694q0 -121 64.5 -187.5t183.5 -66.5h157q119 0 183.5 66.5t64.5 187.5z" glyph-name="Oacute" horiz-adv-x="1243" unicode="Ó"/><glyph d="M590 1952h33q8 0 14 -6l205 -181q10 -12 0 -24l-54 -55q-14 -10 -24 0l-150 143h-14l-151 -139q-12 -16 -23 -2l-53 57q-10 12 0 22l202 179q7 6 15 6zM514 1434h215q172 0 267.5 -97.5t95.5 -273.5v-694q0 -176 -91.5 -272.5t-259.5 -96.5h-239q-166 0 -258 97.5 t-92 271.5v694q0 176 95 273.5t267 97.5zM948 369v694q0 121 -64.5 188.5t-183.5 67.5h-157q-119 0 -183.5 -67.5t-64.5 -188.5v-694q0 -121 64.5 -187.5t183.5 -66.5h157q119 0 183.5 66.5t64.5 187.5z" glyph-name="Ocircumflex" horiz-adv-x="1243" unicode="Ô"/><glyph d="M502 1880q47 0 105.5 -27.5t96.5 -27.5t72 43q14 18 27 2l33 -37q10 -12 4 -27q-60 -88 -116 -88t-117.5 28t-102.5 28t-74 -41q-12 -16 -24 -4l-35 38q-14 12 -6 23q53 90 137 90zM514 1434h215q172 0 267.5 -97.5t95.5 -273.5v-694q0 -176 -91.5 -272.5t-259.5 -96.5 h-239q-166 0 -258 97.5t-92 271.5v694q0 176 95 273.5t267 97.5zM948 369v694q0 121 -64.5 188.5t-183.5 67.5h-157q-119 0 -183.5 -67.5t-64.5 -188.5v-694q0 -121 64.5 -187.5t183.5 -66.5h157q119 0 183.5 66.5t64.5 187.5z" glyph-name="Otilde" horiz-adv-x="1243" unicode="Õ"/><glyph d="M385 1870h111q16 0 16 -19v-151q0 -16 -16 -17h-111q-16 0 -16 17v151q0 19 16 19zM715 1870h110q16 0 17 -19v-151q0 -16 -17 -17h-110q-16 0 -17 17v151q1 19 17 19zM514 1434h215q172 0 267.5 -97.5t95.5 -273.5v-694q0 -176 -91.5 -272.5t-259.5 -96.5h-239 q-166 0 -258 97.5t-92 271.5v694q0 176 95 273.5t267 97.5zM948 369v694q0 121 -64.5 188.5t-183.5 67.5h-157q-119 0 -183.5 -67.5t-64.5 -188.5v-694q0 -121 64.5 -187.5t183.5 -66.5h157q119 0 183.5 66.5t64.5 187.5z" glyph-name="Odieresis" horiz-adv-x="1243" unicode="Ö"/><glyph d="M496 784l282 291q10 12 23 0l57 -57q10 -10 0 -23l-285 -295l279 -288q12 -12 0 -25l-57 -55q-10 -12 -23 0l-276 286l-279 -290q-14 -10 -24 0l-58 57q-10 8 0 23l283 292l-275 283q-8 12 0 25l58 55q10 12 22 0z" glyph-name="multiply" horiz-adv-x="993" unicode="×"/><glyph d="M1092 1063v-694q0 -176 -91.5 -272.5t-259.5 -96.5h-239q-29 0 -43 2l-39 -119q-4 -16 -21 -16h-94q-16 0 -12 22l47 142q-188 80 -188 338v694q0 176 95 273.5t267 97.5h215q41 0 82 -7l37 113q2 14 20 14h95q18 0 12 -20l-49 -145q166 -90 166 -326zM295 1063v-694 q0 -143 88 -209l389 1151q-31 8 -72 8h-157q-119 0 -183.5 -67.5t-64.5 -188.5zM948 369v694q0 125 -67 190l-383 -1136q14 -2 45 -2h157q119 0 183.5 66.5t64.5 187.5z" glyph-name="Oslash" horiz-adv-x="1243" unicode="Ø"/><glyph d="M305 1878l68 78q4 8 14 -2l223 -195q8 -8 2 -18l-47 -49q-6 -8 -18 2l-244 170q-4 4 2 14zM944 1434h111q16 0 16 -17v-1048q0 -176 -91 -272.5t-259 -96.5h-219q-166 0 -258 97.5t-92 271.5v1048q0 16 18 17h109q16 0 16 -17v-1048q0 -121 64.5 -187.5t183.5 -66.5h137 q119 0 183.5 66.5t64.5 187.5v1048q0 17 16 17z" glyph-name="Ugrave" horiz-adv-x="1222" unicode="Ù"/><glyph d="M588 1767l223 195q10 10 14 2l68 -78q6 -10 2 -14l-244 -170q-12 -10 -18 -2l-47 49q-6 10 2 18zM944 1434h111q16 0 16 -17v-1048q0 -176 -91 -272.5t-259 -96.5h-219q-166 0 -258 97.5t-92 271.5v1048q0 16 18 17h109q16 0 16 -17v-1048q0 -121 64.5 -187.5 t183.5 -66.5h137q119 0 183.5 66.5t64.5 187.5v1048q0 17 16 17z" glyph-name="Uacute" horiz-adv-x="1222" unicode="Ú"/><glyph d="M594 1952h33q8 0 14 -6l205 -181q10 -12 0 -24l-53 -55q-14 -10 -25 0l-150 143h-14l-151 -139q-12 -16 -23 -2l-53 57q-10 12 0 22l203 179q6 6 14 6zM944 1434h111q16 0 16 -17v-1048q0 -176 -91 -272.5t-259 -96.5h-219q-166 0 -258 97.5t-92 271.5v1048q0 16 18 17 h109q16 0 16 -17v-1048q0 -121 64.5 -187.5t183.5 -66.5h137q119 0 183.5 66.5t64.5 187.5v1048q0 17 16 17z" glyph-name="Ucircumflex" horiz-adv-x="1222" unicode="Û"/><glyph d="M391 1870h111q16 0 16 -19v-151q0 -16 -16 -17h-111q-16 0 -16 17v151q0 19 16 19zM721 1870h110q16 0 17 -19v-151q0 -16 -17 -17h-110q-16 0 -16 17v151q0 19 16 19zM944 1434h111q16 0 16 -17v-1048q0 -176 -91 -272.5t-259 -96.5h-219q-166 0 -258 97.5t-92 271.5 v1048q0 16 18 17h109q16 0 16 -17v-1048q0 -121 64.5 -187.5t183.5 -66.5h137q119 0 183.5 66.5t64.5 187.5v1048q0 17 16 17z" glyph-name="Udieresis" horiz-adv-x="1222" unicode="Ü"/><glyph d="M582 1700l-47 49q-6 10 2 18l223 195q10 10 14 2l68 -78q6 -10 2 -14l-244 -170q-12 -10 -18 -2zM926 1434h112q23 0 15 -19l-422 -799v-600q0 -16 -17 -16h-108q-18 0 -19 16v613l-395 786q-10 18 14 19h111q12 0 19 -13l331 -657l340 655q7 15 19 15z" glyph-name="Yacute" horiz-adv-x="1144" unicode="Ý"/><glyph d="M309 1167h338q162 0 257 -88t95 -239v-150q0 -166 -80.5 -256t-228.5 -90h-381v-328q0 -16 -16 -16h-111q-16 0 -16 16v1401q0 16 16 17h111q16 0 16 -17v-250zM856 684v143q0 106 -59.5 166t-165.5 60h-322v-594h330q102 0 159.5 59.5t57.5 165.5z" glyph-name="Thorn" horiz-adv-x="1130" unicode="Þ"/><glyph d="M455 1536h96q139 0 214 -65.5t75 -186.5v-119q0 -61 -28 -98t-65.5 -52.5t-104.5 -39.5t-67 -119v-63q0 -109 109 -109h168q90 0 139 -52t49 -149v-274q0 -102 -55 -155.5t-162 -53.5h-385q-16 0 -16 16v82q0 16 16 17h318q141 0 141 133v190q0 131 -139 131h-158 q-168 0 -168 174v146q0 68 27.5 106.5t66.5 51t104.5 31.5t65.5 116v88q0 66 -37.5 102.5t-107.5 36.5h-96q-70 0 -110 -47t-40 -133v-1231q0 -10 -10 -10h-123q-10 0 -10 10v1231q0 139 77 217t216 78z" glyph-name="germandbls" horiz-adv-x="1165" unicode="ß"/><glyph d="M442 1284l-243 170q-4 4 2 14l67 78q4 8 15 -2l223 -194q8 -8 2 -19l-47 -49q-7 -8 -19 2zM264 1024h250q147 0 222 -76t75 -219v-719q0 -10 -10 -10h-441q-229 0 -229 219v131q0 229 238 230h299v125q0 205 -154 204h-250q-16 0 -16 17v82q0 16 16 16zM406 115h262v350 h-262q-131 0 -132 -129v-92q1 -129 132 -129z" glyph-name="agrave" horiz-adv-x="962" unicode="à"/><glyph d="M528 1290l-47 49q-6 10 2 19l224 194q10 10 14 2l67 -77q6 -10 3 -15l-244 -170q-13 -10 -19 -2zM264 1024h250q147 0 222 -76t75 -219v-719q0 -10 -10 -10h-441q-229 0 -229 219v131q0 229 238 230h299v125q0 205 -154 204h-250q-16 0 -16 17v82q0 16 16 16zM406 115 h262v350h-262q-131 0 -132 -129v-92q1 -129 132 -129z" glyph-name="aacute" horiz-adv-x="962" unicode="á"/><glyph d="M489 1542h33q8 0 15 -6l204 -180q8 -12 0 -25l-53 -55q-14 -10 -24 0l-150 143h-14l-152 -139q-12 -16 -22 -2l-54 57q-10 12 0 23l203 178q6 6 14 6zM264 1024h250q147 0 222 -76t75 -219v-719q0 -10 -10 -10h-441q-229 0 -229 219v131q0 229 238 230h299v125 q0 205 -154 204h-250q-16 0 -16 17v82q0 16 16 16zM406 115h262v350h-262q-131 0 -132 -129v-92q1 -129 132 -129z" glyph-name="acircumflex" horiz-adv-x="962" unicode="â"/><glyph d="M401 1470q47 0 105.5 -27.5t97.5 -27.5t72 43q14 18 26 2l33 -37q10 -12 4 -26q-61 -88 -117 -88t-117 27.5t-101 27.5t-74 -41q-13 -16 -25 -4l-35 39q-14 12 -6 22q53 90 137 90zM264 1024h250q147 0 222 -76t75 -219v-719q0 -10 -10 -10h-441q-229 0 -229 219v131 q0 229 238 230h299v125q0 205 -154 204h-250q-16 0 -16 17v82q0 16 16 16zM406 115h262v350h-262q-131 0 -132 -129v-92q1 -129 132 -129z" glyph-name="atilde" horiz-adv-x="962" unicode="ã"/><glyph d="M397 1274h-110q-16 0 -17 16v152q0 18 17 18h110q16 0 17 -18v-152q-1 -16 -17 -16zM727 1274h-111q-16 0 -16 16v152q0 18 16 18h111q16 0 16 -18v-152q0 -16 -16 -16zM264 1024h250q147 0 222 -76t75 -219v-719q0 -10 -10 -10h-441q-229 0 -229 219v131q0 229 238 230 h299v125q0 205 -154 204h-250q-16 0 -16 17v82q0 16 16 16zM406 115h262v350h-262q-131 0 -132 -129v-92q1 -129 132 -129z" glyph-name="adieresis" horiz-adv-x="962" unicode="ä"/><glyph d="M506 1241q-84 0 -134 51t-50 134t50 132.5t134 49.5t133 -49.5t49 -133.5t-49 -134t-133 -50zM505 1513q-40 0 -64.5 -23.5t-24.5 -64.5t24.5 -65.5t65.5 -24.5t64.5 24.5t23.5 65.5t-24.5 64.5t-64.5 23.5zM264 1024h250q147 0 222 -76t75 -219v-719q0 -10 -10 -10h-441 q-229 0 -229 219v131q0 229 238 230h299v125q0 205 -154 204h-250q-16 0 -16 17v82q0 16 16 16zM406 115h262v350h-262q-131 0 -132 -129v-92q1 -129 132 -129z" glyph-name="aring" horiz-adv-x="962" unicode="å"/><glyph d="M948 1024h99q131 0 199.5 -63.5t68.5 -182.5v-78q0 -125 -63.5 -193.5t-182.5 -68.5h-276v-137q0 -186 180 -186h213q16 0 16 -17v-82q0 -16 -16 -16h-234q-152 0 -229 82q-72 -82 -221 -82h-142q-229 0 -229 219v107q0 227 238 227h280v152q0 205 -166 204h-225 q-10 0 -10 11v94q0 10 10 10h225q158 0 238 -86q80 86 227 86zM1171 700v70q0 139 -137 139h-59q-86 0 -134 -51t-48 -141v-164h249q129 0 129 147zM649 301v137h-243q-131 0 -132 -127v-67q0 -129 132 -129h75q168 0 168 186z" glyph-name="ae" horiz-adv-x="1443" unicode="æ"/><glyph d="M451 1024h268q16 0 16 -16v-82q0 -16 -16 -17h-240q-190 0 -190 -192v-410q0 -193 182 -192h291q16 0 16 -17v-82q0 -16 -16 -16h-332q-135 0 -210 81t-75 226v410q0 145 80.5 226t225.5 81zM492 -111h55q90 -2 140 -46t50 -129t-53 -134t-140 -49t-135.5 43t-50.5 121 q0 10 11 10h82q10 0 10 -10q6 -68 78 -68q37 0 58 24.5t21 65.5t-19 63.5t-52 22.5h-55q-10 0 -11 11v65q1 10 11 10z" glyph-name="ccedilla" horiz-adv-x="856" unicode="ç"/><glyph d="M418 1284l-244 170q-4 4 2 14l68 78q4 8 14 -2l223 -194q8 -8 2 -19l-47 -49q-6 -8 -18 2zM459 1024h106q129 0 197.5 -65.5t68.5 -186.5v-102q0 -240 -256 -240h-286v-123q0 -193 180 -192h236q16 0 16 -17v-82q0 -16 -16 -16h-273q-139 0 -213 76t-74 219v422 q0 145 82 226t232 81zM688 674v92q0 143 -135 143h-94q-80 0 -125 -51t-45 -141v-172h274q125 0 125 129z" glyph-name="egrave" horiz-adv-x="960" unicode="è"/><glyph d="M502 1290l-47 49q-6 10 2 19l223 194q10 10 14 2l68 -77q6 -10 2 -15l-244 -170q-12 -10 -18 -2zM459 1024h106q129 0 197.5 -65.5t68.5 -186.5v-102q0 -240 -256 -240h-286v-123q0 -193 180 -192h236q16 0 16 -17v-82q0 -16 -16 -16h-273q-139 0 -213 76t-74 219v422 q0 145 82 226t232 81zM688 674v92q0 143 -135 143h-94q-80 0 -125 -51t-45 -141v-172h274q125 0 125 129z" glyph-name="eacute" horiz-adv-x="960" unicode="é"/><glyph d="M465 1542h33q8 0 14 -6l205 -180q8 -12 0 -25l-53 -55q-14 -10 -25 0l-150 143h-14l-151 -139q-13 -16 -23 -2l-53 57q-10 12 0 23l203 178q6 6 14 6zM459 1024h106q129 0 197.5 -65.5t68.5 -186.5v-102q0 -240 -256 -240h-286v-123q0 -193 180 -192h236q16 0 16 -17v-82 q0 -16 -16 -16h-273q-139 0 -213 76t-74 219v422q0 145 82 226t232 81zM688 674v92q0 143 -135 143h-94q-80 0 -125 -51t-45 -141v-172h274q125 0 125 129z" glyph-name="ecircumflex" horiz-adv-x="960" unicode="ê"/><glyph d="M373 1274h-111q-16 0 -16 16v152q0 18 16 18h111q16 0 16 -18v-152q0 -16 -16 -16zM702 1274h-110q-16 0 -17 16v152q0 18 17 18h110q16 0 17 -18v-152q-1 -16 -17 -16zM459 1024h106q129 0 197.5 -65.5t68.5 -186.5v-102q0 -240 -256 -240h-286v-123q0 -193 180 -192 h236q16 0 16 -17v-82q0 -16 -16 -16h-273q-139 0 -213 76t-74 219v422q0 145 82 226t232 81zM688 674v92q0 143 -135 143h-94q-80 0 -125 -51t-45 -141v-172h274q125 0 125 129z" glyph-name="edieresis" horiz-adv-x="960" unicode="ë"/><glyph d="M-88 1468l68 78q4 8 14 -2l223 -194q8 -8 2 -19l-47 -49q-6 -8 -18 2l-244 170q-4 4 2 14zM170 1024h109q16 0 16 -16v-787q0 -106 96 -106h66q16 0 16 -17v-82q0 -16 -16 -16h-121q-90 0 -137 51t-47 146v811q0 16 18 16z" glyph-name="igrave" horiz-adv-x="538" unicode="ì"/><glyph d="M193 1358l223 194q10 10 14 2l68 -77q6 -10 2 -15l-244 -170q-12 -10 -18 -2l-48 49q-5 11 3 19zM170 1024h109q16 0 16 -16v-787q0 -106 96 -106h66q16 0 16 -17v-82q0 -16 -16 -16h-121q-90 0 -137 51t-47 146v811q0 16 18 16z" glyph-name="iacute" horiz-adv-x="538" unicode="í"/><glyph d="M201 1542h32q8 0 15 -6l205 -180q10 -12 0 -25l-54 -55q-14 -10 -24 0l-150 143h-14l-152 -139q-12 -16 -22 -2l-53 57q-10 12 0 23l202 178q7 6 15 6zM170 1024h109q16 0 16 -16v-787q0 -106 96 -106h66q16 0 16 -17v-82q0 -16 -16 -16h-121q-90 0 -137 51t-47 146v811 q0 16 18 16z" glyph-name="icircumflex" horiz-adv-x="538" unicode="î"/><glyph d="M-4 1460h110q16 0 17 -18v-152q0 -16 -17 -16h-110q-16 0 -16 16v152q0 18 16 18zM326 1460h110q16 0 17 -18v-152q0 -16 -17 -16h-110q-16 0 -17 16v152q1 18 17 18zM170 1024h109q16 0 16 -16v-787q0 -106 96 -106h66q16 0 16 -17v-82q0 -16 -16 -16h-121 q-90 0 -137 51t-47 146v811q0 16 18 16z" glyph-name="idieresis" horiz-adv-x="538" unicode="ï"/><glyph d="M901 1270v-963q0 -145 -87 -226t-243 -81h-110q-150 0 -233 71.5t-83 202.5v467q0 135 81 209t231 74h301v229q0 47 -13 84l-139 -131q-12 -10 -24 2l-41 43q-14 14 0 25l141 133q-27 12 -68 12h-223q-16 0 -16 19v80q0 16 16 16h260q76 0 133 -29l123 115q13 12 23 0 l41 -45q12 -12 0 -25l-115 -108q45 -68 45 -174zM451 115h120q88 0 137.5 51t49.5 141v602h-295q-84 0 -129 -47t-45 -133v-442q0 -82 43 -127t119 -45z" glyph-name="eth" horiz-adv-x="1101" unicode="ð"/><glyph d="M391 1470q47 0 105.5 -27.5t97.5 -27.5t72 43q14 18 26 2l33 -37q10 -12 4 -26q-61 -88 -117 -88t-117 27.5t-102 27.5t-74 -41q-12 -16 -24 -4l-35 39q-14 12 -6 22q53 90 137 90zM182 1024h361q158 0 244.5 -81t86.5 -226v-701q0 -16 -16 -16h-110q-16 0 -17 16v701 q0 90 -49 141t-139 51h-238v-893q0 -16 -16 -16h-109q-18 0 -18 16v988q0 20 20 20z" glyph-name="ntilde" unicode="ñ"/><glyph d="M209 1468l67 78q4 8 15 -2l223 -194q8 -8 2 -19l-47 -49q-6 -8 -18 2l-244 170q-4 4 2 14zM457 1024h116q137 0 213 -73.5t76 -209.5v-467q0 -131 -77.5 -202.5t-221.5 -71.5h-114q-143 0 -223.5 71.5t-80.5 202.5v467q0 135 81 209t231 74zM719 293v434q0 86 -40 134 t-112 48h-116q-76 0 -119 -48t-43 -134v-434q0 -86 42 -132t120 -46h116q72 0 112 46t40 132z" glyph-name="ograve" horiz-adv-x="1009" unicode="ò"/><glyph d="M489 1358l224 194q10 10 14 2l68 -77q6 -10 2 -15l-244 -170q-12 -10 -18 -2l-48 49q-6 11 2 19zM457 1024h116q137 0 213 -73.5t76 -209.5v-467q0 -131 -77.5 -202.5t-221.5 -71.5h-114q-143 0 -223.5 71.5t-80.5 202.5v467q0 135 81 209t231 74zM719 293v434 q0 86 -40 134t-112 48h-116q-76 0 -119 -48t-43 -134v-434q0 -86 42 -132t120 -46h116q72 0 112 46t40 132z" glyph-name="oacute" horiz-adv-x="1009" unicode="ó"/><glyph d="M498 1542h32q8 0 15 -6l205 -180q8 -12 0 -25l-54 -55q-14 -10 -24 0l-150 143h-14l-152 -139q-12 -16 -22 -2l-53 57q-10 12 0 23l202 178q7 6 15 6zM457 1024h116q137 0 213 -73.5t76 -209.5v-467q0 -131 -77.5 -202.5t-221.5 -71.5h-114q-143 0 -223.5 71.5 t-80.5 202.5v467q0 135 81 209t231 74zM719 293v434q0 86 -40 134t-112 48h-116q-76 0 -119 -48t-43 -134v-434q0 -86 42 -132t120 -46h116q72 0 112 46t40 132z" glyph-name="ocircumflex" horiz-adv-x="1009" unicode="ô"/><glyph d="M410 1470q47 0 105 -27.5t97 -27.5t72 43q14 18 27 2l32 -37q10 -12 5 -26q-60 -88 -116 -88t-117.5 27.5t-102.5 27.5t-74 -41q-13 -16 -25 -4l-34 39q-14 12 -7 22q53 90 138 90zM457 1024h116q137 0 213 -73.5t76 -209.5v-467q0 -131 -77.5 -202.5t-221.5 -71.5h-114 q-143 0 -223.5 71.5t-80.5 202.5v467q0 135 81 209t231 74zM719 293v434q0 86 -40 134t-112 48h-116q-76 0 -119 -48t-43 -134v-434q0 -86 42 -132t120 -46h116q72 0 112 46t40 132z" glyph-name="otilde" horiz-adv-x="1009" unicode="õ"/><glyph d="M293 1460h110q16 0 17 -18v-152q0 -16 -17 -16h-110q-16 0 -17 16v152q1 18 17 18zM623 1460h110q16 0 17 -18v-152q0 -16 -17 -16h-110q-16 0 -17 16v152q1 18 17 18zM457 1024h116q137 0 213 -73.5t76 -209.5v-467q0 -131 -77.5 -202.5t-221.5 -71.5h-114 q-143 0 -223.5 71.5t-80.5 202.5v467q0 135 81 209t231 74zM719 293v434q0 86 -40 134t-112 48h-116q-76 0 -119 -48t-43 -134v-434q0 -86 42 -132t120 -46h116q72 0 112 46t40 132z" glyph-name="odieresis" horiz-adv-x="1009" unicode="ö"/><glyph d="M563 1120h113q20 0 20 -20v-115q0 -20 -20 -20h-113q-20 0 -20 20v115q0 20 20 20zM139 766h895q20 0 21 -16v-80q0 -18 -21 -19h-895q-18 0 -18 19v80q0 16 18 16zM561 469h113q20 0 20 -20v-115q0 -20 -20 -21h-113q-20 0 -20 21v115q0 20 20 20z" glyph-name="divide" horiz-adv-x="1165" unicode="÷"/><glyph d="M899 741v-467q0 -131 -78 -202.5t-221 -71.5h-115q-25 0 -69 4l-99 -285q-6 -14 -22 -14h-94q-18 0 -11 21l109 317q-117 70 -117 231v467q0 135 81 209t231 74h143l94 274q4 16 21 17h94q20 -1 12 -21l-102 -299q143 -63 143 -254zM326 727v-434q0 -63 24 -107l248 723 h-111q-76 0 -118.5 -48t-42.5 -134zM756 293v434q0 90 -45 139l-256 -749q10 -2 34 -2h115q72 0 112 46t40 132z" glyph-name="oslash" horiz-adv-x="1015" unicode="ø"/><glyph d="M213 1468l68 78q4 8 14 -2l223 -194q8 -8 2 -19l-47 -49q-6 -8 -18 2l-244 170q-4 4 2 14zM737 1024h111q16 0 16 -16v-988q0 -20 -20 -20h-361q-158 0 -244.5 81t-86.5 226v701q0 16 18 16h109q16 0 16 -16v-701q0 -90 50 -141t138 -51h238v893q0 16 16 16z" glyph-name="ugrave" unicode="ù"/><glyph d="M494 1358l223 194q10 10 14 2l68 -77q6 -10 2 -15l-244 -170q-12 -10 -18 -2l-47 49q-6 11 2 19zM737 1024h111q16 0 16 -16v-988q0 -20 -20 -20h-361q-158 0 -244.5 81t-86.5 226v701q0 16 18 16h109q16 0 16 -16v-701q0 -90 50 -141t138 -51h238v893q0 16 16 16z" glyph-name="uacute" unicode="ú"/><glyph d="M502 1542h33q8 0 14 -6l205 -180q8 -12 0 -25l-54 -55q-14 -10 -24 0l-150 143h-14l-152 -139q-12 -16 -22 -2l-53 57q-10 12 0 23l202 178q7 6 15 6zM737 1024h111q16 0 16 -16v-988q0 -20 -20 -20h-361q-158 0 -244.5 81t-86.5 226v701q0 16 18 16h109q16 0 16 -16 v-701q0 -90 50 -141t138 -51h238v893q0 16 16 16z" glyph-name="ucircumflex" unicode="û"/><glyph d="M297 1460h111q16 0 16 -18v-152q0 -16 -16 -16h-111q-16 0 -16 16v152q0 18 16 18zM627 1460h110q16 0 17 -18v-152q0 -16 -17 -16h-110q-16 0 -17 16v152q1 18 17 18zM737 1024h111q16 0 16 -16v-988q0 -20 -20 -20h-361q-158 0 -244.5 81t-86.5 226v701q0 16 18 16h109 q16 0 16 -16v-701q0 -90 50 -141t138 -51h238v893q0 16 16 16z" glyph-name="udieresis" unicode="ü"/><glyph d="M514 1290l-47 49q-6 10 2 19l223 194q10 10 15 2l67 -77q6 -10 2 -15l-244 -170q-12 -10 -18 -2zM727 1024h113q16 0 14 -18l-377 -1502q-4 -16 -18 -16h-103q-20 0 -12 18l131 494h-88q-16 0 -18 14l-269 992q-6 18 15 18h110q16 0 19 -12l237 -897h21l207 895 q2 14 18 14z" glyph-name="yacute" horiz-adv-x="952" unicode="ý"/><glyph d="M305 1024h277q135 0 209.5 -81t74.5 -226v-410q0 -145 -79.5 -226t-225.5 -81h-256v-496q0 -16 -16 -16h-109q-18 0 -18 16v1913q0 16 18 17h109q16 0 16 -17v-393zM723 307v410q0 193 -182 192h-236v-794h227q92 0 141.5 49t49.5 143z" glyph-name="thorn" horiz-adv-x="1011" unicode="þ"/><glyph d="M383 1274h-111q-16 0 -16 16v152q0 18 16 18h111q16 0 16 -18v-152q0 -16 -16 -16zM713 1274h-111q-16 0 -16 16v152q0 18 16 18h111q16 0 16 -18v-152q0 -16 -16 -16zM727 1024h113q16 0 14 -18l-377 -1502q-4 -16 -18 -16h-103q-20 0 -12 18l131 494h-88q-16 0 -18 14 l-269 992q-6 18 15 18h110q16 0 19 -12l237 -897h21l207 895q2 14 18 14z" glyph-name="ydieresis" horiz-adv-x="952" unicode="ÿ"/><glyph d="M844 1731h-416q-16 0 -16 16v82q0 16 16 16h416q16 0 16 -16v-82q0 -16 -16 -16zM1104 0h-113q-14 0 -16 14l-131 496h-467l-141 -496q-2 -14 -17 -14h-113q-20 0 -16 18l410 1403q4 12 18 13h205q14 -1 18 -13l377 -1403q6 -18 -14 -18zM410 625h403l-182 694h-25z" glyph-name="Amacron" horiz-adv-x="1208" unicode="Ā"/><glyph d="M725 1321h-416q-16 0 -16 16v82q0 16 16 17h416q16 0 16 -17v-82q0 -16 -16 -16zM264 1024h250q147 0 222 -76t75 -219v-719q0 -10 -10 -10h-441q-229 0 -229 219v131q0 229 238 230h299v125q0 205 -154 204h-250q-16 0 -16 17v82q0 16 16 16zM406 115h262v350h-262 q-131 0 -132 -129v-92q1 -129 132 -129z" glyph-name="amacron" horiz-adv-x="962" unicode="ā"/><glyph d="M784 1937h62q16 0 16 -18q0 -115 -62.5 -178.5t-169 -63.5t-168 63.5t-61.5 178.5q0 18 17 18h61q16 0 17 -18q0 -61 37 -94t99 -33t98 34t36 95q0 16 18 16zM1104 0h-113q-14 0 -16 14l-131 496h-467l-141 -496q-2 -14 -17 -14h-113q-20 0 -16 18l410 1403q4 12 18 13 h205q14 -1 18 -13l377 -1403q6 -18 -14 -18zM410 625h403l-182 694h-25z" glyph-name="Abreve" horiz-adv-x="1208" unicode="Ă"/><glyph d="M666 1528h61q16 0 16 -19q0 -115 -62.5 -178t-168.5 -63t-167.5 63.5t-61.5 177.5q0 18 16 19h61q16 0 17 -19q0 -61 37 -94t99 -33t98 34t36 95q1 17 19 17zM264 1024h250q147 0 222 -76t75 -219v-719q0 -10 -10 -10h-441q-229 0 -229 219v131q0 229 238 230h299v125 q0 205 -154 204h-250q-16 0 -16 17v82q0 16 16 16zM406 115h262v350h-262q-131 0 -132 -129v-92q1 -129 132 -129z" glyph-name="abreve" horiz-adv-x="962" unicode="ă"/><glyph d="M1104 0h-103q-59 0 -91.5 -39t-32.5 -110q0 -146 155 -146q16 0 17 -18v-80q0 -16 -17 -17q-135 4 -208.5 67t-73.5 165t58 164.5t155 74.5l-119 449h-467l-141 -496q-2 -14 -17 -14h-113q-20 0 -16 18l410 1403q4 12 18 13h205q14 -1 18 -13l377 -1403q6 -18 -14 -18z M410 625h403l-182 694h-25z" glyph-name="Aogonek" horiz-adv-x="1208" unicode="Ą"/><glyph d="M801 0h-13q-59 0 -91.5 -39t-32.5 -110q0 -146 155 -146q16 0 17 -18v-80q0 -16 -17 -17q-135 4 -208.5 68t-73.5 170t71 172h-248q-229 0 -229 219v131q0 229 238 230h299v125q0 205 -154 204h-250q-16 0 -16 17v82q0 16 16 16h250q147 0 222 -76t75 -219v-719 q0 -10 -10 -10zM274 336v-92q0 -129 132 -129h262v350h-262q-132 0 -132 -129z" glyph-name="aogonek" horiz-adv-x="962" unicode="ą"/><glyph d="M575 1767l224 195q10 10 14 2l68 -78q6 -10 2 -14l-244 -170q-12 -10 -18 -2l-48 49q-6 10 2 18zM518 1434h395q16 0 17 -15v-84q0 -16 -17 -16h-366q-119 0 -185.5 -67.5t-66.5 -188.5v-694q0 -121 63.5 -187.5t180.5 -66.5h426q16 0 16 -17v-82q0 -16 -16 -16h-467 q-164 0 -255 97.5t-91 271.5v694q0 176 96 273.5t270 97.5z" glyph-name="Cacute" horiz-adv-x="1036" unicode="Ć"/><glyph d="M457 1358l223 194q10 10 14 2l68 -77q6 -10 2 -15l-244 -170q-12 -10 -18 -2l-47 49q-6 11 2 19zM451 1024h268q16 0 16 -16v-82q0 -16 -16 -17h-240q-190 0 -190 -192v-410q0 -193 182 -192h291q16 0 16 -17v-82q0 -16 -16 -16h-332q-135 0 -210 81t-75 226v410 q0 145 80.5 226t225.5 81z" glyph-name="cacute" horiz-adv-x="856" unicode="ć"/><glyph d="M584 1952h32q8 0 15 -6l205 -181q8 -12 0 -24l-54 -55q-14 -10 -24 0l-150 143h-14l-152 -139q-12 -16 -22 -2l-53 57q-10 12 0 22l202 179q7 6 15 6zM518 1434h395q16 0 17 -15v-84q0 -16 -17 -16h-366q-119 0 -185.5 -67.5t-66.5 -188.5v-694q0 -121 63.5 -187.5 t180.5 -66.5h426q16 0 16 -17v-82q0 -16 -16 -16h-467q-164 0 -255 97.5t-91 271.5v694q0 176 96 273.5t270 97.5z" glyph-name="Ccircumflex" horiz-adv-x="1036" unicode="Ĉ"/><glyph d="M465 1542h33q8 0 14 -6l205 -180q8 -12 0 -25l-53 -55q-14 -10 -25 0l-150 143h-14l-151 -139q-12 -16 -23 -2l-53 57q-10 12 0 23l203 178q6 6 14 6zM451 1024h268q16 0 16 -16v-82q0 -16 -16 -17h-240q-190 0 -190 -192v-410q0 -193 182 -192h291q16 0 16 -17v-82 q0 -16 -16 -16h-332q-135 0 -210 81t-75 226v410q0 145 80.5 226t225.5 81z" glyph-name="ccircumflex" horiz-adv-x="856" unicode="ĉ"/><glyph d="M545 1870h110q16 0 17 -19v-151q0 -16 -17 -17h-110q-16 0 -17 17v151q1 19 17 19zM518 1434h395q16 0 17 -15v-84q0 -16 -17 -16h-366q-119 0 -185.5 -67.5t-66.5 -188.5v-694q0 -121 63.5 -187.5t180.5 -66.5h426q16 0 16 -17v-82q0 -16 -16 -16h-467q-164 0 -255 97.5 t-91 271.5v694q0 176 96 273.5t270 97.5z" glyph-name="Cdotaccent" horiz-adv-x="1036" unicode="Ċ"/><glyph d="M426 1460h111q16 0 16 -18v-152q0 -16 -16 -16h-111q-16 0 -16 16v152q0 18 16 18zM451 1024h268q16 0 16 -16v-82q0 -16 -16 -17h-240q-190 0 -190 -192v-410q0 -193 182 -192h291q16 0 16 -17v-82q0 -16 -16 -16h-332q-135 0 -210 81t-75 226v410q0 145 80.5 226 t225.5 81z" glyph-name="cdotaccent" horiz-adv-x="856" unicode="ċ"/><glyph d="M623 1675h-33q-8 0 -15 6l-202 172q-8 13 0 25l53 55q12 10 25 -2l147 -129h14l154 127q14 12 22 2l54 -57q10 -14 0 -23l-205 -170q-6 -6 -14 -6zM518 1434h395q16 0 17 -15v-84q0 -16 -17 -16h-366q-119 0 -185.5 -67.5t-66.5 -188.5v-694q0 -121 63.5 -187.5 t180.5 -66.5h426q16 0 16 -17v-82q0 -16 -16 -16h-467q-164 0 -255 97.5t-91 271.5v694q0 176 96 273.5t270 97.5z" glyph-name="Ccaron" horiz-adv-x="1036" unicode="Č"/><glyph d="M504 1266h-33q-8 0 -14 6l-203 172q-8 12 0 24l53 56q12 10 25 -2l147 -129h15l153 127q14 12 23 2l53 -58q10 -14 0 -22l-205 -170q-6 -6 -14 -6zM451 1024h268q16 0 16 -16v-82q0 -16 -16 -17h-240q-190 0 -190 -192v-410q0 -193 182 -192h291q16 0 16 -17v-82 q0 -16 -16 -16h-332q-135 0 -210 81t-75 226v410q0 145 80.5 226t225.5 81z" glyph-name="ccaron" horiz-adv-x="856" unicode="č"/><glyph d="M596 1675h-33q-8 0 -14 6l-203 172q-10 12 0 25l53 55q12 10 25 -2l147 -129h15l153 127q14 12 23 2l53 -57q10 -14 0 -23l-205 -170q-6 -6 -14 -6zM182 1434h520q174 0 269.5 -97.5t95.5 -273.5v-694q0 -176 -90 -272.5t-254 -96.5h-541q-16 0 -16 16v1401q0 17 16 17z M924 369v694q0 121 -65.5 188.5t-184.5 67.5h-365v-1204h373q115 0 178.5 66.5t63.5 187.5z" glyph-name="Dcaron" horiz-adv-x="1220" unicode="Ď"/><glyph d="M1047 1618h116q18 0 19 -19v-135l-54 -266q-4 -16 -16 -16h-68q-20 0 -16 16l53 266h-34q-18 0 -19 19v116q1 19 19 19zM723 1536h108q16 0 17 -16v-1504q0 -16 -17 -16h-401q-135 0 -210 81t-75 226v410q0 145 80 226t226 81h254v496q0 16 18 16zM471 115h234v794h-226 q-190 0 -190 -192v-410q0 -192 182 -192z" glyph-name="dcaron" horiz-adv-x="1011" unicode="ď"/><glyph d="M182 1434h520q174 0 269.5 -97.5t95.5 -273.5v-694q0 -176 -90 -272.5t-254 -96.5h-541q-16 0 -16 16v646h-150q-10 0 -10 16v80q0 18 10 18h150v641q0 17 16 17zM924 369v694q0 121 -65.5 188.5t-184.5 67.5h-365v-543h172q12 0 13 -18v-80q0 -16 -13 -16h-172v-547h373 q115 0 178.5 66.5t63.5 187.5z" glyph-name="Dcroat" horiz-adv-x="1220" unicode="Đ"/><glyph d="M848 1366h123q16 0 16 -16v-82q0 -16 -16 -17h-123v-1235q0 -16 -17 -16h-401q-135 0 -210 81t-75 226v410q0 145 80 226t226 81h254v227h-150q-16 0 -16 17v82q0 16 16 16h150v154q0 16 18 16h108q16 0 17 -16v-154zM471 115h234v794h-226q-190 0 -190 -192v-410 q0 -192 182 -192z" glyph-name="dcroat" horiz-adv-x="1011" unicode="đ"/><glyph d="M778 1731h-416q-16 0 -16 16v82q0 16 16 16h416q16 0 17 -16v-82q-1 -16 -17 -16zM948 1319h-639v-531h537q16 0 16 -16v-82q0 -16 -16 -16h-537v-559h639q16 0 17 -17v-82q0 -16 -17 -16h-766q-16 0 -16 16v1401q0 16 16 17h766q16 0 17 -17v-82q-1 -16 -17 -16z" glyph-name="Emacron" horiz-adv-x="1095" unicode="Ē"/><glyph d="M698 1321h-415q-16 0 -17 16v82q0 16 17 17h415q16 0 17 -17v-82q-1 -16 -17 -16zM459 1024h106q129 0 197.5 -65.5t68.5 -186.5v-102q0 -240 -256 -240h-286v-123q0 -193 180 -192h236q16 0 16 -17v-82q0 -16 -16 -16h-273q-139 0 -213 76t-74 219v422q0 145 82 226 t232 81zM688 674v92q0 143 -135 143h-94q-80 0 -125 -51t-45 -141v-172h274q125 0 125 129z" glyph-name="emacron" horiz-adv-x="960" unicode="ē"/><glyph d="M616 1683h-110q-16 0 -17 17v151q0 18 17 19h110q16 0 17 -19v-151q-1 -17 -17 -17zM948 1319h-639v-531h537q16 0 16 -16v-82q0 -16 -16 -16h-537v-559h639q16 0 17 -17v-82q0 -16 -17 -16h-766q-16 0 -16 16v1401q0 16 16 17h766q16 0 17 -17v-82q-1 -16 -17 -16z" glyph-name="Edotaccent" horiz-adv-x="1095" unicode="Ė"/><glyph d="M537 1274h-111q-16 0 -16 16v152q0 18 16 18h111q16 0 16 -18v-152q0 -16 -16 -16zM459 1024h106q129 0 197.5 -65.5t68.5 -186.5v-102q0 -240 -256 -240h-286v-123q0 -193 180 -192h236q16 0 16 -17v-82q0 -16 -16 -16h-273q-139 0 -213 76t-74 219v422q0 145 82 226 t232 81zM688 674v92q0 143 -135 143h-94q-80 0 -125 -51t-45 -141v-172h274q125 0 125 129z" glyph-name="edotaccent" horiz-adv-x="960" unicode="ė"/><glyph d="M965 98v-82q0 -16 -17 -16q-59 0 -92 -39t-33 -110t40 -108.5t116 -37.5q16 0 16 -18v-80q0 -16 -16 -17q-135 4 -209 68t-74 170t72 172h-586q-16 0 -16 16v1401q0 16 16 17h766q16 0 17 -17v-82q0 -16 -17 -16h-639v-531h537q16 0 16 -16v-82q0 -16 -16 -16h-537v-559 h639q17 -1 17 -17z" glyph-name="Eogonek" horiz-adv-x="1095" unicode="Ę"/><glyph d="M459 1024h106q129 0 197.5 -65.5t68.5 -186.5v-102q0 -240 -256 -240h-286v-123q0 -193 180 -192h236q16 0 16 -17v-82q0 -16 -16 -16h-17q-59 0 -92 -39t-33 -110t40 -108.5t116 -37.5q16 0 16 -18v-80q0 -16 -16 -17q-135 4 -209 68t-74 170t72 172h-76q-139 0 -213 76 t-74 219v422q0 145 82 226t232 81zM688 674v92q0 143 -135 143h-94q-80 0 -125 -51t-45 -141v-172h274q125 0 125 129z" glyph-name="eogonek" horiz-adv-x="960" unicode="ę"/><glyph d="M584 1675h-33q-8 0 -14 6l-203 172q-10 12 0 25l53 55q12 10 25 -2l147 -129h14l154 127q14 12 23 2l53 -57q10 -14 0 -23l-205 -170q-6 -6 -14 -6zM948 1319h-639v-531h537q16 0 16 -16v-82q0 -16 -16 -16h-537v-559h639q16 0 17 -17v-82q0 -16 -17 -16h-766 q-16 0 -16 16v1401q0 16 16 17h766q16 0 17 -17v-82q-1 -16 -17 -16z" glyph-name="Ecaron" horiz-adv-x="1095" unicode="Ě"/><glyph d="M504 1266h-33q-8 0 -14 6l-203 172q-8 12 0 24l53 56q12 10 25 -2l147 -129h15l153 127q14 12 23 2l53 -58q10 -14 0 -22l-205 -170q-6 -6 -14 -6zM459 1024h106q129 0 197.5 -65.5t68.5 -186.5v-102q0 -240 -256 -240h-286v-123q0 -193 180 -192h236q16 0 16 -17v-82 q0 -16 -16 -16h-273q-139 0 -213 76t-74 219v422q0 145 82 226t232 81zM688 674v92q0 143 -135 143h-94q-80 0 -125 -51t-45 -141v-172h274q125 0 125 129z" glyph-name="ecaron" horiz-adv-x="960" unicode="ě"/><glyph d="M606 1952h33q8 0 14 -6l205 -181q10 -12 0 -24l-53 -55q-14 -10 -25 0l-149 143h-15l-151 -139q-13 -16 -23 -2l-53 57q-10 12 0 22l203 179q6 6 14 6zM647 745h219q88 0 137.5 -52t49.5 -146v-531q0 -16 -17 -16h-538q-164 0 -255 97.5t-91 271.5v694q0 176 96 273.5 t270 97.5h379q16 0 16 -15v-84q0 -16 -16 -16h-350q-119 0 -185.5 -67.5t-66.5 -188.5v-694q0 -121 63.5 -187.5t180.5 -66.5h370v409q0 51 -25.5 79t-72.5 28h-164q-16 0 -16 16v82q0 16 16 16z" glyph-name="Gcircumflex" horiz-adv-x="1198" unicode="Ĝ"/><glyph d="M522 1542h33q8 0 14 -6l205 -180q8 -12 0 -25l-53 -55q-14 -10 -25 0l-149 143h-15l-151 -139q-13 -16 -23 -2l-53 57q-10 12 0 23l203 178q6 6 14 6zM430 1024h401q16 0 17 -16v-1213q0 -145 -74 -226t-209 -81h-338q-16 0 -16 16v82q0 16 16 17h297q180 0 181 192v205 h-254q-145 0 -225.5 81t-80.5 226v410q0 145 75 226t210 81zM479 115h226v794h-234q-182 0 -182 -192v-410q0 -192 190 -192z" glyph-name="gcircumflex" horiz-adv-x="1011" unicode="ĝ"/><glyph d="M780 1937h62q16 0 16 -18q0 -115 -62.5 -178.5t-169 -63.5t-168 63.5t-61.5 178.5q0 18 17 18h61q16 0 17 -18q0 -61 37 -94t99 -33t98 34t36 95q0 16 18 16zM647 745h219q88 0 137.5 -52t49.5 -146v-531q0 -16 -17 -16h-538q-164 0 -255 97.5t-91 271.5v694 q0 176 96 273.5t270 97.5h379q16 0 16 -15v-84q0 -16 -16 -16h-350q-119 0 -185.5 -67.5t-66.5 -188.5v-694q0 -121 63.5 -187.5t180.5 -66.5h370v409q0 51 -25.5 79t-72.5 28h-164q-16 0 -16 16v82q0 16 16 16z" glyph-name="Gbreve" horiz-adv-x="1198" unicode="Ğ"/><glyph d="M696 1528h62q16 0 16 -19q0 -115 -62.5 -178t-169 -63t-168 63.5t-61.5 177.5q0 18 17 19h61q16 0 17 -19q0 -61 37 -94t99 -33t98 34t36 95q0 17 18 17zM430 1024h401q16 0 17 -16v-1213q0 -145 -74 -226t-209 -81h-338q-16 0 -16 16v82q0 16 16 17h297q180 0 181 192 v205h-254q-145 0 -225.5 81t-80.5 226v410q0 145 75 226t210 81zM479 115h226v794h-234q-182 0 -182 -192v-410q0 -192 190 -192z" glyph-name="gbreve" horiz-adv-x="1011" unicode="ğ"/><glyph d="M678 1683h-111q-16 0 -16 17v151q0 18 16 19h111q16 0 16 -19v-151q0 -17 -16 -17zM647 745h219q88 0 137.5 -52t49.5 -146v-531q0 -16 -17 -16h-538q-164 0 -255 97.5t-91 271.5v694q0 176 96 273.5t270 97.5h379q16 0 16 -15v-84q0 -16 -16 -16h-350 q-119 0 -185.5 -67.5t-66.5 -188.5v-694q0 -121 63.5 -187.5t180.5 -66.5h370v409q0 51 -25.5 79t-72.5 28h-164q-16 0 -16 16v82q0 16 16 16z" glyph-name="Gdotaccent" horiz-adv-x="1198" unicode="Ġ"/><glyph d="M594 1274h-111q-16 0 -16 16v152q0 18 16 18h111q16 0 16 -18v-152q0 -16 -16 -16zM430 1024h401q16 0 17 -16v-1213q0 -145 -74 -226t-209 -81h-338q-16 0 -16 16v82q0 16 16 17h297q180 0 181 192v205h-254q-145 0 -225.5 81t-80.5 226v410q0 145 75 226t210 81z M479 115h226v794h-234q-182 0 -182 -192v-410q0 -192 190 -192z" glyph-name="gdotaccent" horiz-adv-x="1011" unicode="ġ"/><glyph d="M647 745h219q88 0 137.5 -52t49.5 -146v-531q0 -16 -17 -16h-538q-164 0 -255 97.5t-91 271.5v694q0 176 96 273.5t270 97.5h379q16 0 16 -15v-84q0 -16 -16 -16h-350q-119 0 -185.5 -67.5t-66.5 -188.5v-694q0 -121 63.5 -187.5t180.5 -66.5h370v409q0 51 -25.5 79 t-72.5 28h-164q-16 0 -16 16v82q0 16 16 16zM600 -168h117q18 0 18 -18v-136l-53 -266q-4 -16 -16 -16h-68q-20 0 -16 16l53 266h-35q-18 0 -18 19v117q0 18 18 18z" glyph-name="Gcommaaccent" horiz-adv-x="1198" unicode="Ģ"/><glyph d="M596 1192h-117q-18 0 -18 18v136l53 266q4 16 16 16h68q20 0 16 -16l-53 -266h35q18 0 18 -19v-117q0 -18 -18 -18zM430 1024h401q16 0 17 -16v-1213q0 -145 -74 -226t-209 -81h-338q-16 0 -16 16v82q0 16 16 17h297q180 0 181 192v205h-254q-145 0 -225.5 81t-80.5 226 v410q0 145 75 226t210 81zM479 115h226v794h-234q-182 0 -182 -192v-410q0 -192 190 -192z" glyph-name="gcommaaccent" horiz-adv-x="1011" unicode="ģ"/><glyph d="M608 1952h33q8 0 14 -6l205 -181q8 -12 0 -24l-53 -55q-14 -10 -25 0l-149 143h-15l-151 -139q-13 -16 -23 -2l-53 57q-10 12 0 22l203 179q6 6 14 6zM946 1434h111q16 0 16 -17v-1401q0 -16 -16 -16h-111q-16 0 -16 16v658h-621v-658q0 -16 -16 -16h-111q-16 0 -16 16 v1401q0 16 16 17h111q16 0 16 -17v-629h621v629q0 17 16 17z" glyph-name="Hcircumflex" horiz-adv-x="1239" unicode="Ĥ"/><glyph d="M223 2048h33q8 0 14 -6l205 -180q8 -12 0 -25l-53 -55q-14 -10 -25 0l-149 143h-15l-151 -139q-12 -16 -23 -2l-53 57q-10 12 0 23l203 178q6 6 14 6zM305 1024h256q143 0 222 -81t79 -226v-701q0 -16 -16 -16h-111q-16 0 -16 16v701q0 193 -187 192h-227v-893 q0 -16 -16 -16h-109q-18 0 -18 16v1504q0 16 18 16h109q16 0 16 -16v-496z" glyph-name="hcircumflex" horiz-adv-x="1013" unicode="ĥ"/><glyph d="M1073 1169h125q16 0 16 -16v-82q0 -16 -16 -16h-125v-1039q0 -16 -16 -16h-111q-16 0 -16 16v658h-621v-658q0 -16 -16 -16h-111q-16 0 -16 16v1039h-139q-16 0 -17 16v82q0 16 17 16h139v248q0 16 16 17h111q16 0 16 -17v-248h621v248q0 16 16 17h111q16 0 16 -17v-248z M930 788v267h-621v-267h621z" glyph-name="Hbar" horiz-adv-x="1239" unicode="Ħ"/><glyph d="M305 1024h256q143 0 222 -81t79 -226v-701q0 -16 -16 -16h-111q-16 0 -16 16v701q0 193 -187 192h-227v-893q0 -16 -16 -16h-109q-18 0 -18 16v1203h-142q-16 0 -16 16v80q0 18 16 18h142v187q0 16 18 16h109q16 0 16 -16v-187h191q16 0 16 -18v-80q0 -16 -16 -16h-191 v-195z" glyph-name="hbar" horiz-adv-x="1013" unicode="ħ"/><glyph d="M131 1880q47 0 105.5 -27.5t97.5 -27.5t72 43q14 18 26 2l33 -37q10 -12 4 -27q-61 -88 -117 -88t-117 28t-102 28t-74 -41q-12 -16 -24 -4l-35 38q-14 12 -6 23q53 90 137 90zM182 1434h111q16 0 16 -17v-1401q0 -16 -16 -16h-111q-16 0 -16 16v1401q0 17 16 17z" glyph-name="Itilde" horiz-adv-x="477" unicode="Ĩ"/><glyph d="M113 1470q47 0 105 -27.5t97 -27.5t72 43q14 18 27 2l32 -37q10 -12 5 -26q-61 -88 -117 -88t-117 27.5t-102 27.5t-74 -41q-13 -16 -25 -4l-34 39q-14 12 -7 22q53 90 138 90zM170 1024h109q16 0 16 -16v-787q0 -106 96 -106h66q16 0 16 -17v-82q0 -16 -16 -16h-121 q-90 0 -137 51t-47 146v811q0 16 18 16z" glyph-name="itilde" horiz-adv-x="538" unicode="ĩ"/><glyph d="M39 1845h416q16 0 16 -16v-82q0 -16 -16 -16h-416q-16 0 -16 16v82q0 16 16 16zM182 1434h111q16 0 16 -17v-1401q0 -16 -16 -16h-111q-16 0 -16 16v1401q0 17 16 17z" glyph-name="Imacron" horiz-adv-x="477" unicode="Ī"/><glyph d="M18 1436h416q16 0 17 -17v-82q0 -16 -17 -16h-416q-16 0 -16 16v82q0 17 16 17zM170 1024h109q16 0 16 -16v-787q0 -106 96 -106h66q16 0 16 -17v-82q0 -16 -16 -16h-121q-90 0 -137 51t-47 146v811q0 16 18 16z" glyph-name="imacron" horiz-adv-x="538" unicode="ī"/><glyph d="M309 1417v-1401q0 -16 -16 -16q-59 0 -92 -39t-33 -110t40 -108.5t116 -37.5q16 0 16 -18v-80q0 -16 -16 -17q-135 4 -209 67.5t-74 176.5q0 141 125 201v1382q0 16 16 17h111q16 -1 16 -17z" glyph-name="Iogonek" horiz-adv-x="477" unicode="Į"/><glyph d="M272 1274h-110q-16 0 -17 16v152q0 18 17 18h110q16 0 17 -18v-152q-1 -16 -17 -16zM473 98v-82q0 -16 -16 -16q-59 0 -92 -39t-33 -110t40 -108.5t115 -37.5q16 0 17 -18v-80q0 -16 -17 -17q-135 4 -208.5 67t-73.5 173t78 176q-131 29 -131 191v811q0 16 18 16h109 q16 0 16 -16v-787q0 -106 96 -106h66q16 -1 16 -17z" glyph-name="iogonek" horiz-adv-x="538" unicode="į"/><glyph d="M182 1870h111q16 0 16 -19v-151q0 -16 -16 -17h-111q-16 0 -16 17v151q0 19 16 19zM182 1434h111q16 0 16 -17v-1401q0 -16 -16 -16h-111q-16 0 -16 16v1401q0 17 16 17z" glyph-name="Idotaccent" horiz-adv-x="477" unicode="İ"/><glyph d="M170 1024h109q16 0 16 -16v-787q0 -106 96 -106h66q16 0 16 -17v-82q0 -16 -16 -16h-121q-90 0 -137 51t-47 146v811q0 16 18 16z" glyph-name="dotlessi" horiz-adv-x="538" unicode="ı"/><glyph d="M182 1434h111q16 0 16 -17v-1401q0 -16 -16 -16h-111q-16 0 -16 16v1401q0 17 16 17zM838 1434h110q16 0 17 -17v-1159q0 -123 -70 -190.5t-197 -67.5h-149q-16 0 -17 16v82q0 16 17 17h149q57 0 90 37.5t33 105.5v1159q1 17 17 17z" glyph-name="IJ" horiz-adv-x="1122" unicode="Ĳ"/><glyph d="M170 1536h109q16 0 16 -16v-152q0 -18 -16 -18h-109q-18 0 -18 18v152q0 16 18 16zM735 1536h111q16 0 16 -16v-152q0 -18 -16 -18h-111q-16 0 -16 18v152q0 16 16 16zM170 1024h109q16 0 16 -16v-787q0 -106 96 -106h66q16 0 16 -17v-82q0 -16 -16 -16h-121 q-90 0 -137 51t-47 146v811q0 16 18 16zM735 1024h111q16 0 16 -16v-1262q0 -123 -69.5 -190.5t-196.5 -67.5h-137q-16 0 -17 16v82q0 16 17 17h137q59 0 91 36.5t32 106.5v1262q0 16 16 16z" glyph-name="ij" horiz-adv-x="1024" unicode="ĳ"/><glyph d="M401 1952h33q8 0 15 -6l204 -181q10 -12 0 -24l-53 -55q-14 -10 -25 0l-149 143h-14l-152 -139q-12 -16 -22 -2l-54 57q-10 12 0 22l203 179q6 6 14 6zM360 1434h111q16 0 16 -17v-1159q0 -123 -69.5 -190.5t-196.5 -67.5h-149q-16 0 -17 16v82q0 16 17 17h149 q57 0 90 37.5t33 105.5v1159q0 17 16 17z" glyph-name="Jcircumflex" horiz-adv-x="645" unicode="Ĵ"/><glyph d="M248 1538h33q8 0 14 -6l205 -180q8 -12 0 -25l-54 -55q-14 -10 -24 0l-150 143h-14l-152 -139q-12 -16 -22 -2l-53 57q-10 12 0 23l202 178q7 6 15 6zM197 1024h110q16 0 17 -16v-1262q0 -123 -70 -190.5t-197 -67.5h-137q-16 0 -16 16v82q0 16 16 17h137q59 0 91 36.5 t32 106.5v1262q1 16 17 16z" glyph-name="jcircumflex" horiz-adv-x="485" unicode="ĵ"/><glyph d="M926 1434h139q25 0 10 -21l-551 -616l545 -777q10 -20 -10 -20h-135q-10 0 -21 12l-475 674l-119 -133v-537q0 -16 -16 -16h-111q-16 0 -16 16v1401q0 16 16 17h111q16 0 16 -17v-676l594 682q11 11 23 11zM530 -168h117q18 0 19 -18v-136l-54 -266q-4 -16 -16 -16h-68 q-20 0 -16 16l53 266h-35q-18 0 -18 19v117q0 18 18 18z" glyph-name="Kcommaaccent" horiz-adv-x="1140" unicode="Ķ"/><glyph d="M895 0h-129q-14 0 -21 12l-327 520l-113 -112v-404q0 -16 -16 -16h-109q-18 0 -18 16v1504q0 16 18 16h109q16 0 16 -16v-928l408 420q8 12 22 12h144q25 0 8 -20l-373 -373l393 -611q10 -20 -12 -20zM438 -168h117q18 0 18 -18v-136l-53 -266q-4 -16 -16 -16h-68 q-20 0 -16 16l53 266h-35q-18 0 -18 19v117q0 18 18 18z" glyph-name="kcommaaccent" horiz-adv-x="987" unicode="ķ"/><glyph d="M883 0h-135q-14 0 -21 12l-330 494l-92 -96v-394q0 -16 -16 -16h-109q-18 0 -18 16v992q0 16 18 16h109q16 0 16 -16v-422l383 426q12 12 23 12h155q25 0 8 -20l-372 -390l393 -594q10 -20 -12 -20z" glyph-name="kgreenlandic" horiz-adv-x="974" unicode="ĸ"/><glyph d="M227 1702l-47 49q-6 10 2 18l224 195q10 10 14 2l67 -78q6 -10 2 -14l-243 -170q-13 -10 -19 -2zM309 115h643q16 0 17 -17v-82q0 -16 -17 -16h-770q-16 0 -16 16v1401q0 16 16 17h111q16 0 16 -17v-1302z" glyph-name="Lacute" horiz-adv-x="1030" unicode="Ĺ"/><glyph d="M209 1864l223 194q10 10 14 2l68 -78q6 -10 2 -14l-244 -170q-12 -10 -18 -2l-47 49q-6 11 2 19zM170 1536h109q16 0 16 -16v-1299q0 -106 100 -106h62q16 0 16 -17v-82q0 -16 -16 -16h-117q-90 0 -139 51t-49 146v1323q0 16 18 16z" glyph-name="lacute" horiz-adv-x="526" unicode="ĺ"/><glyph d="M309 115h643q16 0 17 -17v-82q0 -16 -17 -16h-770q-16 0 -16 16v1401q0 16 16 17h111q16 0 16 -17v-1302zM508 -168h117q18 0 18 -18v-136l-53 -266q-4 -16 -17 -16h-67q-20 0 -17 16l54 266h-35q-18 0 -19 19v117q1 18 19 18z" glyph-name="Lcommaaccent" horiz-adv-x="1030" unicode="Ļ"/><glyph d="M395 115h62q16 0 16 -17v-82q0 -16 -16 -16h-117q-90 0 -139 51t-49 146v1323q0 16 18 16h109q16 0 16 -16v-1299q0 -106 100 -106zM260 -168h117q18 0 18 -18v-136l-53 -266q-4 -16 -16 -16h-68q-20 0 -16 16l53 266h-35q-18 0 -18 19v117q0 18 18 18z" glyph-name="lcommaaccent" horiz-adv-x="526" unicode="ļ"/><glyph d="M309 115h643q16 0 17 -17v-82q0 -16 -17 -16h-770q-16 0 -16 16v1401q0 16 16 17h111q16 0 16 -17v-1302zM815 1012h-65q-20 0 -17 16l51 256h-32q-18 0 -19 19v112q0 16 19 17h112q18 0 19 -17v-131l-52 -256q-4 -16 -16 -16z" glyph-name="Lcaron" horiz-adv-x="1030" unicode="Ľ"/><glyph d="M532 1542h117q18 0 19 -18v-135l-54 -267q0 -16 -16 -16h-66q-22 0 -18 16l53 267h-35q-18 0 -18 18v117q0 18 18 18zM395 115h62q16 0 16 -17v-82q0 -16 -16 -16h-117q-90 0 -139 51t-49 146v1323q0 16 18 16h109q16 0 16 -16v-1299q0 -106 100 -106z" glyph-name="lcaron" horiz-adv-x="667" unicode="ľ"/><glyph d="M309 115h643q16 0 17 -17v-82q0 -16 -17 -16h-770q-16 0 -16 16v1401q0 16 16 17h111q16 0 16 -17v-1302zM782 662h-112q-20 0 -21 20v115q0 20 21 20h112q20 0 21 -20v-115q-1 -20 -21 -20z" glyph-name="Ldot" horiz-adv-x="1030" unicode="Ŀ"/><glyph d="M207 1536h108q18 0 19 -16v-1299q0 -106 98 -106h62q18 0 18 -17v-82q0 -16 -18 -16h-117q-88 0 -137.5 51t-49.5 146v1323q1 16 17 16zM500 805h112q18 0 19 -21v-112q0 -20 -19 -21h-112q-20 0 -21 21v112q1 21 21 21z" glyph-name="ldot" horiz-adv-x="679" unicode="ŀ"/><glyph d="M346 115h643q16 0 17 -17v-82q0 -16 -17 -16h-770q-16 0 -16 16v627l-158 -108q-18 -14 -18 10v106q0 14 8 21l168 114v631q0 16 16 17h111q16 0 16 -17v-530l189 129q20 12 20 -12v-109q0 -10 -12 -21l-197 -135v-624z" glyph-name="Lslash" horiz-adv-x="1126" unicode="Ł"/><glyph d="M698 1049v-107q0 -12 -12 -20l-194 -134v-567q0 -51 25.5 -78.5t72.5 -27.5h63q16 0 17 -17v-82q0 -16 -17 -16h-118q-88 0 -137.5 51t-49.5 146v493l-160 -110q-18 -10 -18 12v104q0 12 10 21l168 114v689q0 16 17 16h110q16 0 17 -16v-590l186 129q8 6 14 3t6 -13z" glyph-name="lslash" horiz-adv-x="745" unicode="ł"/><glyph d="M639 1767l223 195q10 10 15 2l67 -78q6 -10 2 -14l-244 -170q-12 -10 -18 -2l-47 49q-6 10 2 18zM967 1434h110q16 0 17 -17v-1401q0 -16 -17 -16h-239q-14 0 -21 16l-491 1311h-17v-1311q0 -16 -16 -16h-111q-16 0 -16 16v1401q0 16 16 17h250q14 0 21 -17l481 -1311h16 v1311q1 17 17 17z" glyph-name="Nacute" horiz-adv-x="1261" unicode="Ń"/><glyph d="M473 1358l223 194q10 10 15 2l67 -77q6 -10 2 -15l-243 -170q-12 -10 -19 -2l-47 49q-6 11 2 19zM182 1024h361q158 0 244.5 -81t86.5 -226v-701q0 -16 -16 -16h-110q-16 0 -17 16v701q0 90 -49 141t-139 51h-238v-893q0 -16 -16 -16h-109q-18 0 -18 16v988q0 20 20 20z " glyph-name="nacute" unicode="ń"/><glyph d="M967 1434h110q16 0 17 -17v-1401q0 -16 -17 -16h-239q-14 0 -21 16l-491 1311h-17v-1311q0 -16 -16 -16h-111q-16 0 -16 16v1401q0 16 16 17h250q14 0 21 -17l481 -1311h16v1311q1 17 17 17zM573 -168h117q18 0 19 -18v-136l-54 -266q-4 -16 -16 -16h-68q-20 0 -16 16 l53 266h-35q-18 0 -18 19v117q0 18 18 18z" glyph-name="Ncommaaccent" horiz-adv-x="1261" unicode="Ņ"/><glyph d="M182 1024h361q158 0 244.5 -81t86.5 -226v-701q0 -16 -16 -16h-110q-16 0 -17 16v701q0 90 -49 141t-139 51h-238v-893q0 -16 -16 -16h-109q-18 0 -18 16v988q0 20 20 20zM459 -168h116q18 0 19 -18v-136l-53 -266q-4 -16 -17 -16h-67q-20 0 -17 16l54 266h-35 q-18 0 -19 19v117q1 18 19 18z" glyph-name="ncommaaccent" unicode="ņ"/><glyph d="M686 1675h-33q-8 0 -14 6l-203 172q-10 13 0 25l53 55q12 10 25 -2l148 -129h14l153 127q14 12 23 2l53 -57q10 -14 0 -23l-205 -170q-6 -6 -14 -6zM967 1434h110q16 0 17 -17v-1401q0 -16 -17 -16h-239q-14 0 -21 16l-491 1311h-17v-1311q0 -16 -16 -16h-111 q-16 0 -16 16v1401q0 16 16 17h250q14 0 21 -17l481 -1311h16v1311q1 17 17 17z" glyph-name="Ncaron" horiz-adv-x="1261" unicode="Ň"/><glyph d="M518 1266h-33q-8 0 -14 6l-203 172q-10 12 0 24l54 56q12 10 24 -2l148 -129h14l154 127q14 12 22 2l53 -58q10 -14 0 -22l-205 -170q-6 -6 -14 -6zM182 1024h361q158 0 244.5 -81t86.5 -226v-701q0 -16 -16 -16h-110q-16 0 -17 16v701q0 90 -49 141t-139 51h-238v-893 q0 -16 -16 -16h-109q-18 0 -18 16v988q0 20 20 20z" glyph-name="ncaron" unicode="ň"/><glyph d="M881 1434h110q16 0 17 -17v-1579q0 -238 -283 -244q-18 0 -18 17v80q0 18 18 18q156 0 156 146v145h-131q-16 0 -19 16l-405 1311h-17v-1311q0 -16 -16 -16h-111q-16 0 -16 16v1401q0 16 16 17h250q14 0 21 -17l395 -1311h16v1311q1 17 17 17z" glyph-name="Eng" horiz-adv-x="1173" unicode="Ŋ"/><glyph d="M182 1024h361q158 0 244.5 -81t86.5 -226v-879q0 -119 -61 -181.5t-170 -62.5h-68q-18 0 -18 17v80q0 18 18 18q84 0 120 36t36 110v862q0 90 -49 141t-139 51h-238v-893q0 -16 -16 -16h-109q-18 0 -18 16v988q0 20 20 20z" glyph-name="eng" unicode="ŋ"/><glyph d="M408 1845h415q16 0 17 -16v-82q0 -16 -17 -16h-415q-16 0 -17 16v82q1 16 17 16zM514 1434h215q172 0 267.5 -97.5t95.5 -273.5v-694q0 -176 -91.5 -272.5t-259.5 -96.5h-239q-166 0 -258 97.5t-92 271.5v694q0 176 95 273.5t267 97.5zM948 369v694q0 121 -64.5 188.5 t-183.5 67.5h-157q-119 0 -183.5 -67.5t-64.5 -188.5v-694q0 -121 64.5 -187.5t183.5 -66.5h157q119 0 183.5 66.5t64.5 187.5z" glyph-name="Omacron" horiz-adv-x="1243" unicode="Ō"/><glyph d="M315 1436h416q16 0 17 -17v-82q0 -16 -17 -16h-416q-16 0 -16 16v82q0 17 16 17zM457 1024h116q137 0 213 -73.5t76 -209.5v-467q0 -131 -77.5 -202.5t-221.5 -71.5h-114q-143 0 -223.5 71.5t-80.5 202.5v467q0 135 81 209t231 74zM719 293v434q0 86 -40 134t-112 48 h-116q-76 0 -119 -48t-43 -134v-434q0 -86 42 -132t120 -46h116q72 0 112 46t40 132z" glyph-name="omacron" horiz-adv-x="1009" unicode="ō"/><glyph d="M428 1759l223 195q10 10 15 2l67 -78q6 -10 2 -14l-243 -170q-12 -10 -19 -2l-47 49q-6 10 2 18zM713 1759l223 195q10 10 14 2l68 -78q6 -10 2 -14l-244 -170q-12 -10 -18 -2l-47 49q-6 10 2 18zM514 1434h215q172 0 267.5 -97.5t95.5 -273.5v-694q0 -176 -91.5 -272.5 t-259.5 -96.5h-239q-166 0 -258 97.5t-92 271.5v694q0 176 95 273.5t267 97.5zM948 369v694q0 121 -64.5 188.5t-183.5 67.5h-157q-119 0 -183.5 -67.5t-64.5 -188.5v-694q0 -121 64.5 -187.5t183.5 -66.5h157q119 0 183.5 66.5t64.5 187.5z" glyph-name="Ohungarumlaut" horiz-adv-x="1243" unicode="Ő"/><glyph d="M336 1350l223 194q10 10 14 2l68 -78q6 -10 2 -14l-244 -170q-12 -10 -18 -2l-47 49q-6 11 2 19zM621 1350l223 194q10 10 14 2l68 -78q6 -10 2 -14l-244 -170q-12 -10 -18 -2l-48 49q-5 11 3 19zM457 1024h116q137 0 213 -73.5t76 -209.5v-467q0 -131 -77.5 -202.5 t-221.5 -71.5h-114q-143 0 -223.5 71.5t-80.5 202.5v467q0 135 81 209t231 74zM719 293v434q0 86 -40 134t-112 48h-116q-76 0 -119 -48t-43 -134v-434q0 -86 42 -132t120 -46h116q72 0 112 46t40 132z" glyph-name="ohungarumlaut" horiz-adv-x="1009" unicode="ő"/><glyph d="M1339 115h428q16 0 17 -17v-82q0 -16 -17 -16h-469q-186 0 -278 121q-92 -121 -279 -121h-239q-166 0 -258 97.5t-92 271.5v694q0 176 95 273.5t267 97.5h215q197 0 291 -125q94 125 291 125h446q18 0 19 -17v-82q0 -16 -19 -16h-418q-119 0 -183 -67.5t-64 -188.5v-275 h532q16 0 16 -16v-82q0 -16 -16 -16h-532v-305q0 -121 64 -187.5t183 -66.5zM543 115h157q119 0 183.5 66.5t64.5 187.5v694q0 121 -64.5 188.5t-183.5 67.5h-157q-119 0 -183.5 -67.5t-64.5 -188.5v-694q0 -121 64.5 -187.5t183.5 -66.5z" glyph-name="OE" horiz-adv-x="1914" unicode="Œ"/><glyph d="M1020 1024h98q129 0 197.5 -63.5t68.5 -182.5v-78q0 -125 -63.5 -193.5t-181.5 -68.5h-277v-137q0 -186 180 -186h213q16 0 17 -17v-82q0 -16 -17 -16h-231q-152 0 -231 84q-78 -84 -242 -84h-90q-150 0 -233 71.5t-83 202.5v467q0 135 85 209t239 74h92q156 0 234 -84 q78 84 225 84zM719 287v442q0 86 -40 133t-112 47h-116q-78 0 -120 -47t-42 -133v-442q0 -82 43 -127t119 -45h116q72 0 112 45t40 127zM1241 700v70q0 139 -135 139h-62q-86 0 -134 -51t-48 -141v-164h252q127 0 127 147z" glyph-name="oe" horiz-adv-x="1513" unicode="œ"/><glyph d="M543 1700l-47 49q-6 10 2 18l223 195q10 10 14 2l68 -78q6 -10 2 -14l-244 -170q-12 -10 -18 -2zM1010 0h-123q-12 0 -19 14l-211 617h-348v-631h-127q-16 0 -16 16v1401q0 16 16 17h465q162 0 257 -88.5t95 -239.5v-129q1 -267 -194 -330l219 -629q8 -18 -14 -18z M309 745h330q102 0 159.5 59.5t57.5 166.5v123q0 106 -59.5 165.5t-165.5 59.5h-322v-574z" glyph-name="Racute" horiz-adv-x="1161" unicode="Ŕ"/><glyph d="M383 1358l223 194q10 10 15 2l67 -77q6 -10 2 -15l-244 -170q-12 -10 -18 -2l-47 49q-6 11 2 19zM420 1024h190q16 0 17 -16v-82q0 -16 -17 -17h-151q-74 0 -114 -47t-40 -135v-711q0 -16 -16 -16h-109q-18 0 -18 16v729q0 133 67.5 206t190.5 73z" glyph-name="racute" horiz-adv-x="673" unicode="ŕ"/><glyph d="M1010 0h-123q-12 0 -19 14l-211 617h-348v-631h-127q-16 0 -16 16v1401q0 16 16 17h465q162 0 257 -88.5t95 -239.5v-129q1 -267 -194 -330l219 -629q8 -18 -14 -18zM309 745h330q102 0 159.5 59.5t57.5 166.5v123q0 106 -59.5 165.5t-165.5 59.5h-322v-574zM530 -168 h117q18 0 19 -18v-136l-54 -266q-4 -16 -16 -16h-68q-20 0 -16 16l53 266h-35q-18 0 -18 19v117q0 18 18 18z" glyph-name="Rcommaaccent" horiz-adv-x="1161" unicode="Ŗ"/><glyph d="M420 1024h190q16 0 17 -16v-82q0 -16 -17 -17h-151q-74 0 -114 -47t-40 -135v-711q0 -16 -16 -16h-109q-18 0 -18 16v729q0 133 67.5 206t190.5 73zM172 -168h117q18 0 18 -18v-136l-53 -266q-4 -16 -16 -16h-68q-20 0 -16 16l53 266h-35q-18 0 -18 19v117q0 18 18 18z " glyph-name="rcommaaccent" horiz-adv-x="673" unicode="ŗ"/><glyph d="M545 1675h-33q-8 0 -14 6l-203 172q-8 12 0 25l53 55q12 10 25 -2l147 -129h15l153 127q14 12 23 2l53 -57q10 -14 0 -23l-205 -170q-6 -6 -14 -6zM1010 0h-123q-12 0 -19 14l-211 617h-348v-631h-127q-16 0 -16 16v1401q0 16 16 17h465q162 0 257 -88.5t95 -239.5v-129 q1 -267 -194 -330l219 -629q8 -18 -14 -18zM309 745h330q102 0 159.5 59.5t57.5 166.5v123q0 106 -59.5 165.5t-165.5 59.5h-322v-574z" glyph-name="Rcaron" horiz-adv-x="1161" unicode="Ř"/><glyph d="M428 1266h-33q-8 0 -14 6l-203 172q-10 12 0 24l53 56q12 10 25 -2l147 -129h15l153 127q14 12 23 2l53 -58q10 -14 0 -22l-205 -170q-6 -6 -14 -6zM420 1024h190q16 0 17 -16v-82q0 -16 -17 -17h-151q-74 0 -114 -47t-40 -135v-711q0 -16 -16 -16h-109q-18 0 -18 16v729 q0 133 67.5 206t190.5 73z" glyph-name="rcaron" horiz-adv-x="673" unicode="ř"/><glyph d="M520 1767l223 195q10 10 15 2l67 -78q6 -10 2 -14l-243 -170q-12 -10 -19 -2l-47 49q-6 10 2 18zM397 1434h453q16 0 16 -17v-82q0 -16 -16 -16h-414q-72 0 -111.5 -42t-39.5 -118v-207q0 -133 139 -133h252q274 0 274 -260v-330q0 -109 -62.5 -169t-174.5 -60h-557 q-16 0 -17 16v82q0 16 17 17h489q78 0 120 40t42 113v258q0 164 -160 164h-264q-242 0 -242 223v273q0 119 67.5 183.5t188.5 64.5z" glyph-name="Sacute" horiz-adv-x="1060" unicode="Ś"/><glyph d="M391 1358l223 194q10 10 15 2l67 -77q6 -10 2 -15l-243 -170q-12 -10 -19 -2l-47 49q-6 11 2 19zM354 1024h281q16 0 16 -16v-76q0 -16 -16 -17h-242q-119 0 -119 -127v-88q0 -104 107 -104h139q102 0 158.5 -55.5t56.5 -157.5v-174q0 -102 -55 -155.5t-162 -53.5h-373 q-16 0 -16 16v82q0 16 16 17h318q129 0 129 133v100q0 121 -127 121h-119q-102 0 -158.5 52t-56.5 149v139q0 102 58.5 158.5t164.5 56.5z" glyph-name="sacute" horiz-adv-x="860" unicode="ś"/><glyph d="M528 1952h33q8 0 14 -6l205 -181q10 -12 0 -24l-53 -55q-14 -10 -25 0l-149 143h-14l-152 -139q-12 -16 -22 -2l-54 57q-10 12 0 22l203 179q6 6 14 6zM397 1434h453q16 0 16 -17v-82q0 -16 -16 -16h-414q-72 0 -111.5 -42t-39.5 -118v-207q0 -133 139 -133h252 q274 0 274 -260v-330q0 -109 -62.5 -169t-174.5 -60h-557q-16 0 -17 16v82q0 16 17 17h489q78 0 120 40t42 113v258q0 164 -160 164h-264q-242 0 -242 223v273q0 119 67.5 183.5t188.5 64.5z" glyph-name="Scircumflex" horiz-adv-x="1060" unicode="Ŝ"/><glyph d="M399 1542h33q8 0 14 -6l205 -180q8 -12 0 -25l-53 -55q-14 -10 -25 0l-149 143h-14l-152 -139q-12 -16 -22 -2l-54 57q-10 12 0 23l203 178q6 6 14 6zM354 1024h281q16 0 16 -16v-76q0 -16 -16 -17h-242q-119 0 -119 -127v-88q0 -104 107 -104h139q102 0 158.5 -55.5 t56.5 -157.5v-174q0 -102 -55 -155.5t-162 -53.5h-373q-16 0 -16 16v82q0 16 16 17h318q129 0 129 133v100q0 121 -127 121h-119q-102 0 -158.5 52t-56.5 149v139q0 102 58.5 158.5t164.5 56.5z" glyph-name="scircumflex" horiz-adv-x="860" unicode="ŝ"/><glyph d="M397 1434h453q16 0 16 -17v-82q0 -16 -16 -16h-414q-72 0 -111.5 -42t-39.5 -118v-207q0 -133 139 -133h252q274 0 274 -260v-330q0 -109 -62.5 -169t-174.5 -60h-557q-16 0 -17 16v82q0 16 17 17h489q78 0 120 40t42 113v258q0 164 -160 164h-264q-242 0 -242 223v273 q0 119 67.5 183.5t188.5 64.5zM510 -90h55q90 -2 140.5 -46t50.5 -129t-53.5 -134.5t-140.5 -49.5t-135 43.5t-50 120.5q0 10 10 11h82q10 0 10 -11q6 -68 78 -67q37 0 58.5 24.5t21.5 65.5t-19.5 63.5t-52.5 22.5h-55q-10 0 -10 10v66q0 10 10 10z" glyph-name="Scedilla" horiz-adv-x="1060" unicode="Ş"/><glyph d="M354 1024h281q16 0 16 -16v-76q0 -16 -16 -17h-242q-119 0 -119 -127v-88q0 -104 107 -104h139q102 0 158.5 -55.5t56.5 -157.5v-174q0 -102 -55 -155.5t-162 -53.5h-373q-16 0 -16 16v82q0 16 16 17h318q129 0 129 133v100q0 121 -127 121h-119q-102 0 -158.5 52 t-56.5 149v139q0 102 58.5 158.5t164.5 56.5zM418 -90h55q90 -2 140.5 -46t50.5 -129t-53.5 -134.5t-140.5 -49.5t-135 43.5t-50 120.5q0 10 10 11h82q10 0 10 -11q6 -68 78 -67q37 0 58.5 24.5t21.5 65.5t-19.5 63.5t-52.5 22.5h-55q-10 0 -10 10v66q0 10 10 10z" glyph-name="scedilla" horiz-adv-x="860" unicode="ş"/><glyph d="M567 1675h-32q-8 0 -15 6l-203 172q-10 13 0 25l54 55q12 10 24 -2l148 -129h14l154 127q14 12 22 2l53 -57q10 -14 0 -23l-204 -170q-6 -6 -15 -6zM397 1434h453q16 0 16 -17v-82q0 -16 -16 -16h-414q-72 0 -111.5 -42t-39.5 -118v-207q0 -133 139 -133h252 q274 0 274 -260v-330q0 -109 -62.5 -169t-174.5 -60h-557q-16 0 -17 16v82q0 16 17 17h489q78 0 120 40t42 113v258q0 164 -160 164h-264q-242 0 -242 223v273q0 119 67.5 183.5t188.5 64.5z" glyph-name="Scaron" horiz-adv-x="1060" unicode="Š"/><glyph d="M438 1266h-32q-8 0 -15 6l-203 172q-8 12 0 24l54 56q12 10 24 -2l148 -129h14l154 127q14 12 22 2l53 -58q10 -14 0 -22l-204 -170q-6 -6 -15 -6zM354 1024h281q16 0 16 -16v-76q0 -16 -16 -17h-242q-119 0 -119 -127v-88q0 -104 107 -104h139q102 0 158.5 -55.5 t56.5 -157.5v-174q0 -102 -55 -155.5t-162 -53.5h-373q-16 0 -16 16v82q0 16 16 17h318q129 0 129 133v100q0 121 -127 121h-119q-102 0 -158.5 52t-56.5 149v139q0 102 58.5 158.5t164.5 56.5z" glyph-name="scaron" horiz-adv-x="860" unicode="š"/><glyph d="M84 1434h907q16 0 17 -17v-82q0 -16 -17 -16h-379v-1303q0 -16 -16 -16h-111q-16 0 -16 16v1303h-385q-16 0 -16 16v82q0 17 16 17zM541 -90h55q90 -2 140 -46t50 -129t-53 -134.5t-140 -49.5t-135 43.5t-50 120.5q0 10 10 11h82q10 0 10 -11q6 -68 78 -67 q37 0 58.5 24.5t21.5 65.5t-19.5 63.5t-52.5 22.5h-55q-10 0 -11 10v66q1 10 11 10z" glyph-name="Tcommaaccent" horiz-adv-x="1077" unicode="Ţ"/><glyph d="M543 0h-168q-106 0 -164.5 64.5t-58.5 181.5v1026q0 20 20 14l111 -41q12 -6 12 -20v-201l213 -4q18 0 18 -16v-76q0 -14 -18 -15l-213 -6v-631q0 -76 38 -118.5t105 -42.5h105q16 0 16 -17v-82q0 -16 -16 -16zM367 -90h55q90 -2 140 -46t50 -129t-53 -134.5t-140 -49.5 t-135 43.5t-51 120.5q0 10 11 11h82q10 0 10 -11q6 -68 78 -67q37 0 58.5 24.5t21.5 65.5t-19.5 63.5t-52.5 22.5h-55q-10 0 -11 10v66q1 10 11 10z" glyph-name="tcommaaccent" horiz-adv-x="606" unicode="ţ"/><glyph d="M567 1675h-32q-9 0 -15 6l-203 172q-10 12 0 25l54 55q12 10 24 -2l148 -129h14l154 127q14 12 22 2l53 -57q10 -14 0 -23l-204 -170q-6 -6 -15 -6zM84 1434h907q16 0 17 -17v-82q0 -16 -17 -16h-379v-1303q0 -16 -16 -16h-111q-16 0 -16 16v1303h-385q-16 0 -16 16v82 q0 17 16 17z" glyph-name="Tcaron" horiz-adv-x="1077" unicode="Ť"/><glyph d="M561 1579h117q18 0 18 -18v-136l-53 -266q-4 -16 -16 -16h-68q-20 0 -16 16l53 266h-35q-18 0 -18 19v117q0 18 18 18zM438 115h105q16 0 16 -17v-82q0 -16 -16 -16h-168q-106 0 -164.5 64.5t-58.5 181.5v1026q0 20 20 14l111 -41q12 -6 12 -20v-201l213 -4q18 0 18 -16 v-76q0 -14 -18 -15l-213 -6v-631q0 -76 37.5 -118.5t105.5 -42.5z" glyph-name="tcaron" horiz-adv-x="606" unicode="ť"/><glyph d="M764 1731h-416q-16 0 -16 16v82q0 16 16 16h416q16 0 16 -16v-82q0 -16 -16 -16zM84 1434h907q16 0 17 -17v-82q0 -16 -17 -16h-379v-1303q0 -16 -16 -16h-111q-16 0 -16 16v1303h-385q-16 0 -16 16v82q0 17 16 17z" glyph-name="Tbar" horiz-adv-x="1077" unicode="Ŧ"/><glyph d="M438 115h105q16 0 16 -17v-82q0 -16 -16 -16h-168q-106 0 -164.5 64.5t-58.5 181.5v284h-111q-18 0 -18 17v82q0 16 18 16h111v627q0 20 20 14l111 -41q12 -6 12 -20v-201l213 -4q18 0 18 -16v-76q0 -14 -18 -15l-213 -6v-262h215q18 0 18 -16v-82q0 -16 -18 -17h-215 v-254q0 -76 37.5 -118.5t105.5 -42.5z" glyph-name="tbar" horiz-adv-x="606" unicode="ŧ"/><glyph d="M506 1880q47 0 105.5 -27.5t96.5 -27.5t72 43q14 18 27 2l33 -37q10 -12 4 -27q-60 -88 -116 -88t-117.5 28t-102.5 28t-74 -41q-12 -16 -24 -4l-35 38q-14 12 -6 23q53 90 137 90zM944 1434h111q16 0 16 -17v-1048q0 -176 -91 -272.5t-259 -96.5h-219q-166 0 -258 97.5 t-92 271.5v1048q0 16 18 17h109q16 0 16 -17v-1048q0 -121 64.5 -187.5t183.5 -66.5h137q119 0 183.5 66.5t64.5 187.5v1048q0 17 16 17z" glyph-name="Utilde" horiz-adv-x="1222" unicode="Ũ"/><glyph d="M414 1470q47 0 105.5 -27.5t96.5 -27.5t72 43q14 18 27 2l33 -37q10 -12 4 -26q-60 -88 -116 -88t-117.5 27.5t-102.5 27.5t-74 -41q-13 -16 -25 -4l-34 39q-14 12 -7 22q53 90 138 90zM737 1024h111q16 0 16 -16v-988q0 -20 -20 -20h-361q-158 0 -244.5 81t-86.5 226 v701q0 16 18 16h109q16 0 16 -16v-701q0 -90 50 -141t138 -51h238v893q0 16 16 16z" glyph-name="utilde" unicode="ũ"/><glyph d="M414 1845h415q16 0 17 -16v-82q0 -16 -17 -16h-415q-16 0 -17 16v82q1 16 17 16zM944 1434h111q16 0 16 -17v-1048q0 -176 -91 -272.5t-259 -96.5h-219q-166 0 -258 97.5t-92 271.5v1048q0 16 18 17h109q16 0 16 -17v-1048q0 -121 64.5 -187.5t183.5 -66.5h137 q119 0 183.5 66.5t64.5 187.5v1048q0 17 16 17z" glyph-name="Umacron" horiz-adv-x="1222" unicode="Ū"/><glyph d="M319 1436h416q16 0 17 -17v-82q0 -16 -17 -16h-416q-16 0 -16 16v82q0 17 16 17zM737 1024h111q16 0 16 -16v-988q0 -20 -20 -20h-361q-158 0 -244.5 81t-86.5 226v701q0 16 18 16h109q16 0 16 -16v-701q0 -90 50 -141t138 -51h238v893q0 16 16 16z" glyph-name="umacron" unicode="ū"/><glyph d="M770 1937h61q16 0 17 -18q0 -115 -62.5 -178.5t-169 -63.5t-168 63.5t-61.5 178.5q0 18 16 18h62q16 0 16 -18q0 -61 37 -94t99 -33t98.5 34t36.5 95q0 16 18 16zM944 1434h111q16 0 16 -17v-1048q0 -176 -91 -272.5t-259 -96.5h-219q-166 0 -258 97.5t-92 271.5v1048 q0 16 18 17h109q16 0 16 -17v-1048q0 -121 64.5 -187.5t183.5 -66.5h137q119 0 183.5 66.5t64.5 187.5v1048q0 17 16 17z" glyph-name="Ubreve" horiz-adv-x="1222" unicode="Ŭ"/><glyph d="M676 1528h61q16 0 17 -19q0 -115 -62.5 -178t-169 -63t-168 63.5t-61.5 177.5q0 18 16 19h62q16 0 16 -19q0 -61 37 -94t99 -33t98 34t36 95q1 17 19 17zM737 1024h111q16 0 16 -16v-988q0 -20 -20 -20h-361q-158 0 -244.5 81t-86.5 226v701q0 16 18 16h109q16 0 16 -16 v-701q0 -90 50 -141t138 -51h238v893q0 16 16 16z" glyph-name="ubreve" unicode="ŭ"/><glyph d="M610 2017q84 0 133.5 -49t49.5 -133t-49.5 -134t-132.5 -50t-134 51t-51 134t50 132t134 49zM610 1923q-41 0 -65.5 -23.5t-24.5 -64.5t24.5 -65.5t65.5 -24.5t64.5 24.5t23.5 65.5t-23.5 64.5t-64.5 23.5zM944 1434h111q16 0 16 -17v-1048q0 -176 -91 -272.5t-259 -96.5 h-219q-166 0 -258 97.5t-92 271.5v1048q0 16 18 17h109q16 0 16 -17v-1048q0 -121 64.5 -187.5t183.5 -66.5h137q119 0 183.5 66.5t64.5 187.5v1048q0 17 16 17z" glyph-name="Uring" horiz-adv-x="1222" unicode="Ů"/><glyph d="M518 1608q84 0 133 -49.5t49 -133.5t-49 -134t-133 -50t-134 51t-50 134t50 132.5t134 49.5zM517 1513q-40 0 -64.5 -23.5t-24.5 -64.5t24.5 -65.5t65.5 -24.5t64.5 24.5t23.5 65.5t-24.5 64.5t-64.5 23.5zM737 1024h111q16 0 16 -16v-988q0 -20 -20 -20h-361 q-158 0 -244.5 81t-86.5 226v701q0 16 18 16h109q16 0 16 -16v-701q0 -90 50 -141t138 -51h238v893q0 16 16 16z" glyph-name="uring" unicode="ů"/><glyph d="M432 1759l223 195q10 10 15 2l67 -78q6 -10 2 -14l-243 -170q-12 -10 -19 -2l-47 49q-6 10 2 18zM717 1759l223 195q10 10 14 2l68 -78q6 -10 2 -14l-244 -170q-12 -10 -18 -2l-47 49q-6 10 2 18zM944 1434h111q16 0 16 -17v-1048q0 -176 -91 -272.5t-259 -96.5h-219 q-166 0 -258 97.5t-92 271.5v1048q0 16 18 17h109q16 0 16 -17v-1048q0 -121 64.5 -187.5t183.5 -66.5h137q119 0 183.5 66.5t64.5 187.5v1048q0 17 16 17z" glyph-name="Uhungarumlaut" horiz-adv-x="1222" unicode="Ű"/><glyph d="M340 1350l223 194q10 10 15 2l67 -78q6 -10 2 -14l-244 -170q-12 -10 -18 -2l-47 49q-6 11 2 19zM625 1350l223 194q10 10 14 2l68 -78q6 -10 2 -14l-244 -170q-12 -10 -18 -2l-47 49q-6 11 2 19zM737 1024h111q16 0 16 -16v-988q0 -20 -20 -20h-361q-158 0 -244.5 81 t-86.5 226v701q0 16 18 16h109q16 0 16 -16v-701q0 -90 50 -141t138 -51h238v893q0 16 16 16z" glyph-name="uhungarumlaut" unicode="ű"/><glyph d="M944 1434h111q16 0 16 -17v-1048q0 -176 -91 -272.5t-259 -96.5q-59 0 -92 -39t-33 -110t40 -108.5t116 -37.5q16 0 16 -18v-80q0 -16 -16 -17q-135 4 -209 68t-74 170t72 172h-39q-166 0 -258 97.5t-92 271.5v1048q0 16 18 17h109q16 0 16 -17v-1048q0 -121 64.5 -187.5 t183.5 -66.5h137q119 0 183.5 66.5t64.5 187.5v1048q0 17 16 17z" glyph-name="Uogonek" horiz-adv-x="1222" unicode="Ų"/><glyph d="M844 0h-8q-59 0 -92 -39t-33 -110t40 -108.5t115 -37.5q16 0 17 -18v-80q0 -16 -17 -17q-135 4 -208.5 68t-73.5 170t71 172h-172q-158 0 -244.5 81t-86.5 226v701q0 16 18 16h109q16 0 16 -16v-701q0 -90 50 -141t138 -51h238v893q0 16 16 16h111q16 0 16 -16v-988 q0 -20 -20 -20z" glyph-name="uogonek" unicode="ų"/><glyph d="M897 1948h33q8 0 14 -6l205 -181q10 -12 0 -24l-53 -56q-14 -10 -25 0l-149 144h-15l-151 -139q-13 -17 -23 -3l-53 58q-10 12 0 22l203 179q6 6 14 6zM1636 1434h113q16 0 14 -19l-336 -1401q-2 -14 -16 -14h-219q-16 0 -18 14l-240 1143l-250 -1143q-2 -14 -18 -14 h-220q-16 0 -18 14l-338 1401q-4 18 16 19h111q16 0 19 -13l313 -1304h24l285 1302q2 14 19 15h112q14 0 17 -13l288 -1304h25l299 1302q2 15 18 15z" glyph-name="Wcircumflex" horiz-adv-x="1839" unicode="Ŵ"/><glyph d="M748 1540h32q8 0 15 -6l204 -180q8 -12 0 -25l-53 -55q-14 -10 -24 0l-150 143h-14l-152 -139q-12 -16 -22 -2l-54 57q-10 12 0 23l203 178q6 6 15 6zM1298 1024h111q18 0 16 -20l-233 -988q-2 -16 -16 -16h-203q-12 0 -19 16l-188 793l-193 -793q-6 -16 -18 -16h-197 q-12 0 -18 16l-238 988q-6 20 15 20h110q14 0 19 -16l203 -893h24l227 895q4 14 19 14h104q14 0 19 -14l223 -895h25l190 893q4 16 18 16z" glyph-name="wcircumflex" horiz-adv-x="1525" unicode="ŵ"/><glyph d="M545 1952h33q8 0 14 -6l205 -181q10 -12 0 -24l-54 -55q-14 -10 -24 0l-150 143h-14l-152 -139q-12 -16 -22 -2l-53 57q-10 12 0 22l202 179q6 6 15 6zM926 1434h112q23 0 15 -19l-422 -799v-600q0 -16 -17 -16h-108q-18 0 -19 16v613l-395 786q-10 18 14 19h111 q12 0 19 -13l331 -657l340 655q7 15 19 15z" glyph-name="Ycircumflex" horiz-adv-x="1144" unicode="Ŷ"/><glyph d="M477 1542h33q8 0 14 -6l205 -180q8 -12 0 -25l-53 -55q-14 -10 -25 0l-149 143h-15l-151 -139q-13 -16 -23 -2l-53 57q-10 12 0 23l203 178q6 6 14 6zM727 1024h113q16 0 14 -18l-377 -1502q-4 -16 -18 -16h-103q-20 0 -12 18l131 494h-88q-16 0 -18 14l-269 992 q-6 18 15 18h110q16 0 19 -12l237 -897h21l207 895q2 14 18 14z" glyph-name="ycircumflex" horiz-adv-x="952" unicode="ŷ"/><glyph d="M451 1683h-111q-16 0 -16 17v151q0 18 16 19h111q16 0 16 -19v-151q0 -17 -16 -17zM780 1683h-110q-16 0 -17 17v151q0 18 17 19h110q16 0 17 -19v-151q-1 -17 -17 -17zM926 1434h112q23 0 15 -19l-422 -799v-600q0 -16 -17 -16h-108q-18 0 -19 16v613l-395 786 q-10 18 14 19h111q12 0 19 -13l331 -657l340 655q7 15 19 15z" glyph-name="Ydieresis" horiz-adv-x="1144" unicode="Ÿ"/><glyph d="M559 1767l223 195q10 10 15 2l67 -78q6 -10 2 -14l-243 -170q-12 -10 -19 -2l-47 49q-6 10 2 18zM168 1434h842q14 0 14 -15v-90q0 -14 -6 -22l-748 -1192h750q18 0 18 -17v-82q0 -16 -18 -16h-889q-14 0 -14 14v88q0 12 6 21l745 1196h-700q-10 0 -10 10v94q0 11 10 11z " glyph-name="Zacute" horiz-adv-x="1153" unicode="Ź"/><glyph d="M434 1358l223 194q10 10 15 2l67 -77q6 -10 2 -15l-243 -170q-12 -10 -19 -2l-47 49q-6 11 2 19zM166 1024h616q14 0 15 -14v-90q0 -14 -6 -23l-523 -782h525q16 0 16 -17v-82q0 -16 -16 -16h-666q-12 0 -12 14v88q0 12 6 21l520 786h-475q-10 0 -10 11v94q0 10 10 10z " glyph-name="zacute" horiz-adv-x="899" unicode="ź"/><glyph d="M528 1870h111q16 0 16 -19v-151q0 -16 -16 -17h-111q-16 0 -16 17v151q0 19 16 19zM168 1434h842q14 0 14 -15v-90q0 -14 -6 -22l-748 -1192h750q18 0 18 -17v-82q0 -16 -18 -16h-889q-14 0 -14 14v88q0 12 6 21l745 1196h-700q-10 0 -10 10v94q0 11 10 11z" glyph-name="Zdotaccent" horiz-adv-x="1153" unicode="Ż"/><glyph d="M403 1460h111q16 0 16 -18v-152q0 -16 -16 -16h-111q-16 0 -16 16v152q0 18 16 18zM166 1024h616q14 0 15 -14v-90q0 -14 -6 -23l-523 -782h525q16 0 16 -17v-82q0 -16 -16 -16h-666q-12 0 -12 14v88q0 12 6 21l520 786h-475q-10 0 -10 11v94q0 10 10 10z" glyph-name="zdotaccent" horiz-adv-x="899" unicode="ż"/><glyph d="M604 1675h-33q-8 0 -14 6l-203 172q-10 13 0 25l54 55q12 10 24 -2l148 -129h14l154 127q14 12 22 2l53 -57q10 -14 0 -23l-205 -170q-6 -6 -14 -6zM168 1434h842q14 0 14 -15v-90q0 -14 -6 -22l-748 -1192h750q18 0 18 -17v-82q0 -16 -18 -16h-889q-14 0 -14 14v88 q0 12 6 21l745 1196h-700q-10 0 -10 10v94q0 11 10 11z" glyph-name="Zcaron" horiz-adv-x="1153" unicode="Ž"/><glyph d="M481 1266h-32q-8 0 -15 6l-203 172q-10 12 0 24l54 56q12 10 24 -2l148 -129h14l154 127q14 12 22 2l53 -58q10 -14 0 -22l-204 -170q-6 -6 -15 -6zM166 1024h616q14 0 15 -14v-90q0 -14 -6 -23l-523 -782h525q16 0 16 -17v-82q0 -16 -16 -16h-666q-12 0 -12 14v88 q0 12 6 21l520 786h-475q-10 0 -10 11v94q0 10 10 10z" glyph-name="zcaron" horiz-adv-x="899" unicode="ž"/><glyph d="M649 1536h144q16 0 16 -14l-12 -84q-4 -16 -19 -17h-137q-129 0 -149 -149l-35 -248l166 -4q18 0 14 -16l-10 -74q-4 -16 -21 -17l-168 -4l-166 -1157q0 -16 -18 -16h-111q-14 0 -14 16l217 1514q18 129 97 199.5t206 70.5z" glyph-name="florin" horiz-adv-x="835" unicode="ƒ"/><glyph d="M649 1675h-33q-8 0 -14 6l-203 172q-10 12 0 25l54 55q12 10 24 -2l148 -129h14l154 127q14 12 22 2l53 -57q10 -14 0 -23l-204 -170q-6 -6 -15 -6zM1104 0h-113q-14 0 -16 14l-131 496h-467l-141 -496q-2 -14 -17 -14h-113q-20 0 -16 18l410 1403q4 12 18 13h205 q14 -1 18 -13l377 -1403q6 -18 -14 -18zM410 625h403l-182 694h-25z" glyph-name="uni01CD" horiz-adv-x="1208" unicode="Ǎ"/><glyph d="M528 1266h-32q-9 0 -15 6l-202 172q-8 12 0 24l53 56q12 10 24 -2l148 -129h14l154 127q14 12 22 2l54 -58q10 -14 0 -22l-205 -170q-6 -6 -15 -6zM264 1024h250q147 0 222 -76t75 -219v-719q0 -10 -10 -10h-441q-229 0 -229 219v131q0 229 238 230h299v125 q0 205 -154 204h-250q-16 0 -16 17v82q0 16 16 16zM406 115h262v350h-262q-131 0 -132 -129v-92q1 -129 132 -129z" glyph-name="uni01CE" horiz-adv-x="962" unicode="ǎ"/><glyph d="M260 1675h-33q-8 0 -14 6l-203 172q-10 13 0 25l53 55q12 10 25 -2l148 -129h14l153 127q14 12 23 2l53 -57q10 -14 0 -23l-205 -170q-6 -6 -14 -6zM182 1434h111q16 0 16 -17v-1401q0 -16 -16 -16h-111q-16 0 -16 16v1401q0 17 16 17z" glyph-name="uni01CF" horiz-adv-x="477" unicode="Ǐ"/><glyph d="M240 1266h-33q-8 0 -14 6l-203 172q-10 12 0 24l53 56q12 10 25 -2l147 -129h14l154 127q14 12 23 2l53 -58q10 -14 0 -22l-205 -170q-6 -6 -14 -6zM170 1024h109q16 0 16 -16v-787q0 -106 96 -106h66q16 0 16 -17v-82q0 -16 -16 -16h-121q-90 0 -137 51t-47 146v811 q0 16 18 16z" glyph-name="uni01D0" horiz-adv-x="538" unicode="ǐ"/><glyph d="M629 1675h-33q-8 0 -14 6l-203 172q-10 13 0 25l53 55q12 10 25 -2l147 -129h14l154 127q14 12 23 2l53 -57q10 -14 0 -23l-205 -170q-6 -6 -14 -6zM514 1434h215q172 0 267.5 -97.5t95.5 -273.5v-694q0 -176 -91.5 -272.5t-259.5 -96.5h-239q-166 0 -258 97.5t-92 271.5 v694q0 176 95 273.5t267 97.5zM948 369v694q0 121 -64.5 188.5t-183.5 67.5h-157q-119 0 -183.5 -67.5t-64.5 -188.5v-694q0 -121 64.5 -187.5t183.5 -66.5h157q119 0 183.5 66.5t64.5 187.5z" glyph-name="uni01D1" horiz-adv-x="1243" unicode="Ǒ"/><glyph d="M537 1266h-33q-8 0 -15 6l-202 172q-8 12 0 24l53 56q12 10 25 -2l147 -129h14l154 127q14 12 22 2l54 -58q10 -14 0 -22l-205 -170q-6 -6 -14 -6zM457 1024h116q137 0 213 -73.5t76 -209.5v-467q0 -131 -77.5 -202.5t-221.5 -71.5h-114q-143 0 -223.5 71.5t-80.5 202.5 v467q0 135 81 209t231 74zM719 293v434q0 86 -40 134t-112 48h-116q-76 0 -119 -48t-43 -134v-434q0 -86 42 -132t120 -46h116q72 0 112 46t40 132z" glyph-name="uni01D2" horiz-adv-x="1009" unicode="ǒ"/><glyph d="M633 1675h-33q-8 0 -14 6l-203 172q-10 13 0 25l53 55q12 10 25 -2l147 -129h15l153 127q14 12 23 2l53 -57q10 -14 0 -23l-205 -170q-6 -6 -14 -6zM944 1434h111q16 0 16 -17v-1048q0 -176 -91 -272.5t-259 -96.5h-219q-166 0 -258 97.5t-92 271.5v1048q0 16 18 17h109 q16 0 16 -17v-1048q0 -121 64.5 -187.5t183.5 -66.5h137q119 0 183.5 66.5t64.5 187.5v1048q0 17 16 17z" glyph-name="uni01D3" horiz-adv-x="1222" unicode="Ǔ"/><glyph d="M541 1266h-33q-8 0 -14 6l-203 172q-8 12 0 24l53 56q12 10 25 -2l147 -129h14l154 127q14 12 23 2l53 -58q10 -14 0 -22l-205 -170q-6 -6 -14 -6zM737 1024h111q16 0 16 -16v-988q0 -20 -20 -20h-361q-158 0 -244.5 81t-86.5 226v701q0 16 18 16h109q16 0 16 -16v-701 q0 -90 50 -141t138 -51h238v893q0 16 16 16z" glyph-name="uni01D4" unicode="ǔ"/><glyph d="M645 1675h-33q-8 0 -14 6l-203 172q-10 12 0 25l54 55q12 10 24 -2l148 -129h14l153 127q14 12 23 2l53 -57q10 -14 0 -23l-205 -170q-6 -6 -14 -6zM647 745h219q88 0 137.5 -52t49.5 -146v-531q0 -16 -17 -16h-538q-164 0 -255 97.5t-91 271.5v694q0 176 96 273.5 t270 97.5h379q16 0 16 -15v-84q0 -16 -16 -16h-350q-119 0 -185.5 -67.5t-66.5 -188.5v-694q0 -121 63.5 -187.5t180.5 -66.5h370v409q0 51 -25.5 79t-72.5 28h-164q-16 0 -16 16v82q0 16 16 16z" glyph-name="Gcaron" horiz-adv-x="1198" unicode="Ǧ"/><glyph d="M561 1266h-33q-8 0 -14 6l-203 172q-8 12 0 24l54 56q12 10 24 -2l148 -129h14l154 127q14 12 22 2l53 -58q10 -14 0 -22l-205 -170q-6 -6 -14 -6zM430 1024h401q16 0 17 -16v-1213q0 -145 -74 -226t-209 -81h-338q-16 0 -16 16v82q0 16 16 17h297q180 0 181 192v205 h-254q-145 0 -225.5 81t-80.5 226v410q0 145 75 226t210 81zM479 115h226v794h-234q-182 0 -182 -192v-410q0 -192 190 -192z" glyph-name="gcaron" horiz-adv-x="1011" unicode="ǧ"/><glyph d="M424 819h252q274 0 274 -260v-330q0 -109 -62.5 -169t-174.5 -60h-557q-16 0 -17 16v82q0 16 17 17h489q78 0 120 40t42 113v258q0 164 -160 164h-264q-242 0 -242 223v273q0 119 67.5 183.5t188.5 64.5h453q16 0 16 -17v-82q0 -16 -16 -16h-414q-72 0 -111.5 -42 t-39.5 -118v-207q0 -133 139 -133zM444 -168h117q18 0 19 -18v-136l-54 -266q-4 -16 -16 -16h-68q-20 0 -16 16l53 266h-35q-18 0 -18 19v117q0 18 18 18z" glyph-name="Scommaaccent" horiz-adv-x="1060" unicode="Ș"/><glyph d="M381 596h139q102 0 158.5 -55.5t56.5 -157.5v-174q0 -102 -55 -155.5t-162 -53.5h-373q-16 0 -16 16v82q0 16 16 17h318q129 0 129 133v100q0 121 -127 121h-119q-102 0 -158.5 52t-56.5 149v139q0 102 58.5 158.5t164.5 56.5h281q16 0 16 -16v-76q0 -16 -16 -17h-242 q-119 0 -119 -127v-88q1 -104 107 -104zM352 -168h117q18 0 18 -18v-136l-53 -266q-4 -16 -16 -16h-68q-20 0 -16 16l53 266h-35q-18 0 -18 19v117q0 18 18 18z" glyph-name="scommaaccent" horiz-adv-x="860" unicode="ș"/><glyph d="M84 1434h907q16 0 17 -17v-82q0 -16 -17 -16h-379v-1303q0 -16 -16 -16h-111q-16 0 -16 16v1303h-385q-16 0 -16 16v82q0 17 16 17zM475 -168h117q18 0 18 -18v-136l-53 -266q-4 -16 -16 -16h-68q-20 0 -16 16l53 266h-35q-18 0 -18 19v117q0 18 18 18z" glyph-name="uni021A" horiz-adv-x="1077" unicode="Ț"/><glyph d="M438 115h105q16 0 16 -17v-82q0 -16 -16 -16h-168q-106 0 -164.5 64.5t-58.5 181.5v1026q0 20 20 14l111 -41q12 -6 12 -20v-201l213 -4q18 0 18 -16v-76q0 -14 -18 -15l-213 -6v-631q0 -76 37.5 -118.5t105.5 -42.5zM301 -168h117q18 0 18 -18v-136l-53 -266 q-4 -16 -16 -16h-68q-20 0 -16 16l53 266h-35q-18 0 -18 19v117q0 18 18 18z" glyph-name="uni021B" horiz-adv-x="606" unicode="ț"/><glyph d="M197 1024h110q16 0 17 -16v-1262q0 -123 -70 -190.5t-197 -67.5h-137q-16 0 -16 16v82q0 16 16 17h137q59 0 91 36.5t32 106.5v1262q1 16 17 16z" glyph-name="uni0237" horiz-adv-x="485" unicode="ȷ"/><glyph d="M311 1542h33q8 0 14 -6l205 -180q10 -12 0 -25l-53 -55q-14 -10 -25 0l-149 143h-14l-152 -139q-12 -16 -23 -2l-53 57q-10 12 0 23l203 178q6 6 14 6z" glyph-name="circumflex" horiz-adv-x="655" unicode="ˆ"/><glyph d="M344 1266h-33q-8 0 -14 6l-203 172q-8 12 0 24l53 56q12 10 25 -2l147 -129h15l153 127q14 12 23 2l53 -58q10 -14 0 -22l-205 -170q-6 -6 -14 -6z" glyph-name="caron" horiz-adv-x="655" unicode="ˇ"/><glyph d="M446 1528h62q16 0 16 -19q0 -115 -62.5 -178t-169 -63t-168 63.5t-61.5 177.5q0 18 17 19h61q16 0 17 -19q0 -61 37 -94t99 -33t98 34t36 95q0 17 18 17z" glyph-name="breve" horiz-adv-x="585" unicode="˘"/><glyph d="M104 1460h111q16 0 16 -18v-152q0 -16 -16 -16h-111q-16 0 -16 16v152q0 18 16 18z" glyph-name="dotaccent" horiz-adv-x="319" unicode="˙"/><glyph d="M283 1608q84 0 133 -49.5t49 -133.5t-49 -134t-132 -50t-134.5 51t-51.5 134t50.5 132.5t134.5 49.5zM283 1513q-41 0 -65.5 -23.5t-24.5 -64.5t24.5 -65.5t65.5 -24.5t64.5 24.5t23.5 65.5t-23.5 64.5t-64.5 23.5z" glyph-name="ring" horiz-adv-x="563" unicode="˚"/><glyph d="M365 -313v-80q0 -16 -17 -17q-135 4 -208.5 68t-73.5 170t70.5 170.5t180.5 64.5v-63q-59 0 -91.5 -39t-32.5 -110q0 -146 155 -146q17 0 17 -18z" glyph-name="ogonek" horiz-adv-x="456" unicode="˛"/><glyph d="M223 1470q47 0 105.5 -27.5t97.5 -27.5t72 43q14 18 26 2l33 -37q10 -12 4 -26q-61 -88 -117 -88t-117 27.5t-102 27.5t-73 -41q-13 -16 -25 -4l-35 39q-14 12 -6 22q53 90 137 90z" glyph-name="tilde" horiz-adv-x="649" unicode="˜"/><glyph d="M129 1350l223 194q10 10 15 2l67 -78q6 -10 2 -14l-243 -170q-12 -10 -19 -2l-47 49q-6 11 2 19zM414 1350l223 194q10 10 14 2l68 -78q6 -10 2 -14l-244 -170q-12 -10 -18 -2l-47 49q-6 11 2 19z" glyph-name="hungarumlaut" horiz-adv-x="774" unicode="˝"/><glyph d="M150 -168h116q18 0 19 -18v-136l-54 -266q-4 -16 -16 -16h-68q-20 0 -16 16l53 266h-34q-18 0 -19 19v117q1 18 19 18z" glyph-name="uni0326" horiz-adv-x="0" unicode="̦"/><glyph d="M1196 0h-1114q-22 0 -12 20l565 1401q4 12 12 13q8 0 15 -13l548 -1401q6 -20 -14 -20zM1026 115l-389 1003l-399 -1003h788z" glyph-name="Delta" horiz-adv-x="1302" unicode="Δ"/><glyph d="M877 115h315q16 0 16 -17v-82q0 -16 -16 -16h-447v274q0 10 11 11q285 4 284 235v543q0 117 -81.5 186.5t-204.5 69.5h-160q-123 0 -205 -69.5t-82 -186.5v-543q0 -129 71 -181t204 -54q10 0 10 -11v-274h-447q-16 0 -16 16v82q0 16 16 17h330v73q-129 0 -220 80t-91 226 v569q0 172 112.5 271.5t290.5 99.5h213q176 0 290 -99.5t114 -271.5v-569q0 -145 -89 -225.5t-218 -80.5v-73z" glyph-name="Omega" horiz-adv-x="1337" unicode="Ω"/><glyph d="M737 1024h111q16 0 16 -16v-988q0 -20 -20 -20h-361q-111 0 -188 41v-348q0 -16 -16 -17h-109q-18 0 -18 17v1315q0 16 18 16h109q16 0 16 -16v-701q0 -90 50 -141t138 -51h238v893q0 16 16 16z" glyph-name="mu" unicode="μ"/><glyph d="M145 1024h930q16 0 17 -16v-84q0 -16 -17 -17h-168v-665q0 -123 97 -123h40q16 0 17 -19v-84q0 -16 -17 -16h-110q-170 0 -170 207v700h-320v-891q0 -16 -16 -16h-111q-16 0 -16 16v891h-156q-16 0 -16 17v84q0 16 16 16z" glyph-name="pi" horiz-adv-x="1220" unicode="π"/><glyph d="M594 1677h-111q-16 0 -16 17v151q0 18 16 19h111q16 0 16 -19v-151q0 -17 -16 -17zM948 1126v-110q0 -152 -96 -236q162 -80 162 -284v-150q0 -166 -81 -256t-231 -90h-520q-16 0 -16 16v1401q0 16 16 17h449q152 0 234.5 -80.5t82.5 -227.5zM602 1319h-293v-496h303 q88 0 140.5 51.5t52.5 141.5v110q0 92 -53.5 142.5t-149.5 50.5zM870 346v137q0 106 -59 166t-166 60h-336v-594h353q98 0 153 60t55 171z" glyph-name="uni1E02" horiz-adv-x="1148" unicode="Ḃ"/><glyph d="M305 1024h256q145 0 225 -81t80 -226v-410q0 -145 -74.5 -226t-209.5 -81h-402q-18 0 -18 16v1504q0 16 18 16h109q16 0 16 -16v-496zM668 1260h-111q-16 0 -16 16v151q0 18 16 19h111q16 0 16 -19v-151q0 -16 -16 -16zM723 307v410q0 94 -49 143t-142 49h-227v-794h236 q182 -1 182 192z" glyph-name="uni1E03" horiz-adv-x="1011" unicode="ḃ"/><glyph d="M629 1683h-111q-16 0 -16 17v151q0 18 16 19h111q16 0 16 -19v-151q0 -17 -16 -17zM182 1434h520q174 0 269.5 -97.5t95.5 -273.5v-694q0 -176 -90 -272.5t-254 -96.5h-541q-16 0 -16 16v1401q0 17 16 17zM924 369v694q0 121 -65.5 188.5t-184.5 67.5h-365v-1204h373 q115 0 178.5 66.5t63.5 187.5z" glyph-name="uni1E0A" horiz-adv-x="1220" unicode="Ḋ"/><glyph d="M723 1536h108q16 0 17 -16v-1504q0 -16 -17 -16h-401q-135 0 -210 81t-75 226v410q0 145 80 226t226 81h254v496q0 16 18 16zM512 1235h-111q-16 0 -16 16v152q0 18 16 18h111q16 0 16 -18v-152q0 -16 -16 -16zM471 115h234v794h-226q-190 0 -190 -192v-410 q0 -192 182 -192z" glyph-name="uni1E0B" horiz-adv-x="1011" unicode="ḋ"/><glyph d="M621 1681h-111q-16 0 -16 17v151q0 18 16 19h111q16 0 16 -19v-151q0 -17 -16 -17zM182 1434h725q16 0 17 -17v-82q0 -16 -17 -16h-598v-531h496q16 0 16 -16v-82q0 -16 -16 -16h-496v-658q0 -16 -16 -16h-111q-16 0 -16 16v1401q0 17 16 17z" glyph-name="uni1E1E" horiz-adv-x="985" unicode="Ḟ"/><glyph d="M438 1724h-110q-16 0 -17 17v151q0 18 17 19h110q16 0 17 -19v-151q-1 -17 -17 -17zM428 1536h145q16 0 17 -14v-84q0 -16 -17 -17h-137q-63 0 -97 -39t-34 -110v-248l217 -4q16 0 17 -16v-74q0 -16 -17 -17l-217 -6v-891q0 -16 -16 -16h-109q-18 0 -18 16v1250 q0 129 69.5 199.5t196.5 70.5z" glyph-name="uni1E1F" horiz-adv-x="552" unicode="ḟ"/><glyph d="M846 1700l-47 49q-6 10 2 18l223 195q10 10 14 2l68 -78q6 -10 2 -14l-244 -170q-12 -10 -18 -2zM1217 1434h223q18 0 18 -15v-1401q0 -18 -16 -18h-111q-18 0 -18 16v1264h-21l-393 -1139q-2 -12 -18 -12h-129q-14 0 -17 14l-405 1149h-21v-1278q0 -14 -16 -14h-111 q-18 0 -14 18v1401q0 14 18 15h236q16 0 18 -13l377 -1085l381 1085q7 13 19 13z" glyph-name="uni1E3E" horiz-adv-x="1624" unicode="Ḿ"/><glyph d="M829 1290l-47 49q-6 10 2 19l224 194q10 10 14 2l68 -77q6 -10 2 -15l-244 -170q-13 -10 -19 -2zM961 1024h141q147 0 228 -81t81 -226v-701q0 -16 -16 -16h-109q-18 0 -18 16v701q0 90 -43 141t-123 51h-141q-102 0 -103 -110v-783q0 -16 -16 -16h-109q-18 0 -18 16v783 q0 111 -103 110h-307v-893q0 -16 -16 -16h-109q-18 0 -18 16v988q0 20 20 20h430q111 0 174 -53q66 53 175 53z" glyph-name="uni1E3F" horiz-adv-x="1564" unicode="ḿ"/><glyph d="M881 1683h-111q-16 0 -16 17v151q0 18 16 19h111q16 0 16 -19v-151q0 -17 -16 -17zM1217 1434h223q18 0 18 -15v-1401q0 -18 -16 -18h-111q-18 0 -18 16v1264h-21l-393 -1139q-2 -12 -18 -12h-129q-14 0 -17 14l-405 1149h-21v-1278q0 -14 -16 -14h-111q-18 0 -14 18 v1401q0 14 18 15h236q16 0 18 -13l377 -1085l381 1085q7 13 19 13z" glyph-name="uni1E40" horiz-adv-x="1624" unicode="Ṁ"/><glyph d="M864 1274h-110q-16 0 -17 16v152q0 18 17 18h110q16 0 17 -18v-152q-1 -16 -17 -16zM961 1024h141q147 0 228 -81t81 -226v-701q0 -16 -16 -16h-109q-18 0 -18 16v701q0 90 -43 141t-123 51h-141q-102 0 -103 -110v-783q0 -16 -16 -16h-109q-18 0 -18 16v783 q0 111 -103 110h-307v-893q0 -16 -16 -16h-109q-18 0 -18 16v988q0 20 20 20h430q111 0 174 -53q66 53 175 53z" glyph-name="uni1E41" horiz-adv-x="1564" unicode="ṁ"/><glyph d="M610 1870h111q16 0 16 -19v-151q0 -16 -16 -17h-111q-16 0 -16 17v151q0 19 16 19zM967 1434h110q16 0 17 -17v-1401q0 -16 -17 -16h-239q-14 0 -21 16l-491 1311h-17v-1311q0 -16 -16 -16h-111q-16 0 -16 16v1401q0 16 16 17h250q14 0 21 -17l481 -1311h16v1311 q1 17 17 17z" glyph-name="uni1E44" horiz-adv-x="1261" unicode="Ṅ"/><glyph d="M442 1460h111q16 0 16 -18v-152q0 -16 -16 -16h-111q-16 0 -16 16v152q0 18 16 18zM182 1024h361q158 0 244.5 -81t86.5 -226v-701q0 -16 -16 -16h-110q-16 0 -17 16v701q0 90 -49 141t-139 51h-238v-893q0 -16 -16 -16h-109q-18 0 -18 16v988q0 20 20 20z" glyph-name="uni1E45" unicode="ṅ"/><glyph d="M627 1642h-111q-16 0 -16 17v151q0 18 16 19h111q16 0 16 -19v-151q0 -17 -16 -17zM182 1434h465q162 0 257 -88.5t95 -239.5v-150q0 -166 -80.5 -256t-228.5 -90h-381v-594q0 -16 -16 -16h-111q-16 0 -16 16v1401q0 17 16 17zM856 950v144q0 106 -59.5 165.5 t-165.5 59.5h-322v-594h330q102 0 159.5 59.5t57.5 165.5z" glyph-name="uni1E56" horiz-adv-x="1130" unicode="Ṗ"/><glyph d="M565 1274h-110q-16 0 -17 16v152q0 18 17 18h110q16 0 17 -18v-152q-1 -16 -17 -16zM180 1024h402q135 0 209.5 -81t74.5 -226v-410q0 -145 -79.5 -226t-225.5 -81h-256v-496q0 -16 -16 -16h-109q-18 0 -18 16v1504q0 16 18 16zM723 307v410q0 193 -182 192h-236v-794 h227q92 0 141.5 49t49.5 143z" glyph-name="uni1E57" horiz-adv-x="1011" unicode="ṗ"/><glyph d="M489 1870h111q16 0 16 -19v-151q0 -16 -16 -17h-111q-16 0 -16 17v151q0 19 16 19zM397 1434h453q16 0 16 -17v-82q0 -16 -16 -16h-414q-72 0 -111.5 -42t-39.5 -118v-207q0 -133 139 -133h252q274 0 274 -260v-330q0 -109 -62.5 -169t-174.5 -60h-557q-16 0 -17 16v82 q0 16 17 17h489q78 0 120 40t42 113v258q0 164 -160 164h-264q-242 0 -242 223v273q0 119 67.5 183.5t188.5 64.5z" glyph-name="uni1E60" horiz-adv-x="1060" unicode="Ṡ"/><glyph d="M360 1460h111q16 0 16 -18v-152q0 -16 -16 -16h-111q-16 0 -16 16v152q0 18 16 18zM354 1024h281q16 0 16 -16v-76q0 -16 -16 -17h-242q-119 0 -119 -127v-88q0 -104 107 -104h139q102 0 158.5 -55.5t56.5 -157.5v-174q0 -102 -55 -155.5t-162 -53.5h-373q-16 0 -16 16 v82q0 16 16 17h318q129 0 129 133v100q0 121 -127 121h-119q-102 0 -158.5 52t-56.5 149v139q0 102 58.5 158.5t164.5 56.5z" glyph-name="uni1E61" horiz-adv-x="860" unicode="ṡ"/><glyph d="M602 1683h-110q-16 0 -17 17v151q0 18 17 19h110q16 0 16 -19v-151q0 -17 -16 -17zM84 1434h907q16 0 17 -17v-82q0 -16 -17 -16h-379v-1303q0 -16 -16 -16h-111q-16 0 -16 16v1303h-385q-16 0 -16 16v82q0 17 16 17z" glyph-name="uni1E6A" horiz-adv-x="1077" unicode="Ṫ"/><glyph d="M287 1444h-111q-16 0 -16 16v152q0 18 16 18h111q16 0 16 -18v-152q0 -16 -16 -16zM438 115h105q16 0 16 -17v-82q0 -16 -16 -16h-168q-106 0 -164.5 64.5t-58.5 181.5v1026q0 20 20 14l111 -41q12 -6 12 -20v-201l213 -4q18 0 18 -16v-76q0 -14 -18 -15l-213 -6v-631 q0 -76 37.5 -118.5t105.5 -42.5z" glyph-name="uni1E6B" horiz-adv-x="606" unicode="ṫ"/><glyph d="M848 1690l-244 170q-4 4 2 14l68 78q4 8 14 -2l223 -195q8 -8 2 -18l-47 -49q-6 -8 -18 2zM1636 1434h113q16 0 14 -19l-336 -1401q-2 -14 -16 -14h-219q-16 0 -18 14l-240 1143l-250 -1143q-2 -14 -18 -14h-220q-16 0 -18 14l-338 1401q-4 18 16 19h111q16 0 19 -13 l313 -1304h24l285 1302q2 14 19 15h112q14 0 17 -13l288 -1304h25l299 1302q2 15 18 15z" glyph-name="Wgrave" horiz-adv-x="1839" unicode="Ẁ"/><glyph d="M700 1282l-243 170q-4 4 2 14l67 78q4 8 15 -2l223 -194q8 -8 2 -19l-47 -49q-7 -8 -19 2zM1298 1024h111q18 0 16 -20l-233 -988q-2 -16 -16 -16h-203q-12 0 -19 16l-188 793l-193 -793q-6 -16 -18 -16h-197q-12 0 -18 16l-238 988q-6 20 15 20h110q14 0 19 -16 l203 -893h24l227 895q4 14 19 14h104q14 0 19 -14l223 -895h25l190 893q4 16 18 16z" glyph-name="wgrave" horiz-adv-x="1525" unicode="ẁ"/><glyph d="M934 1696l-47 49q-6 10 2 18l223 195q10 10 14 2l68 -78q6 -10 2 -14l-244 -170q-12 -10 -18 -2zM1636 1434h113q16 0 14 -19l-336 -1401q-2 -14 -16 -14h-219q-16 0 -18 14l-240 1143l-250 -1143q-2 -14 -18 -14h-220q-16 0 -18 14l-338 1401q-4 18 16 19h111 q16 0 19 -13l313 -1304h24l285 1302q2 14 19 15h112q14 0 17 -13l288 -1304h25l299 1302q2 15 18 15z" glyph-name="Wacute" horiz-adv-x="1839" unicode="Ẃ"/><glyph d="M786 1288l-47 49q-6 10 2 19l224 194q10 10 14 2l68 -77q6 -10 2 -15l-244 -170q-13 -10 -19 -2zM1298 1024h111q18 0 16 -20l-233 -988q-2 -16 -16 -16h-203q-12 0 -19 16l-188 793l-193 -793q-6 -16 -18 -16h-197q-12 0 -18 16l-238 988q-6 20 15 20h110q14 0 19 -16 l203 -893h24l227 895q4 14 19 14h104q14 0 19 -14l223 -895h25l190 893q4 16 18 16z" glyph-name="wacute" horiz-adv-x="1525" unicode="ẃ"/><glyph d="M803 1679h-111q-16 0 -16 17v151q0 18 16 19h111q16 0 16 -19v-151q0 -17 -16 -17zM1133 1679h-111q-16 0 -16 17v151q0 18 16 19h111q16 0 16 -19v-151q0 -17 -16 -17zM1636 1434h113q16 0 14 -19l-336 -1401q-2 -14 -16 -14h-219q-16 0 -18 14l-240 1143l-250 -1143 q-2 -14 -18 -14h-220q-16 0 -18 14l-338 1401q-4 18 16 19h111q16 0 19 -13l313 -1304h24l285 1302q2 14 19 15h112q14 0 17 -13l288 -1304h25l299 1302q2 15 18 15z" glyph-name="Wdieresis" horiz-adv-x="1839" unicode="Ẅ"/><glyph d="M655 1272h-110q-16 0 -17 16v152q0 18 17 18h110q16 0 17 -18v-152q-1 -16 -17 -16zM985 1272h-111q-16 0 -16 16v152q0 18 16 18h111q16 0 16 -18v-152q0 -16 -16 -16zM1298 1024h111q18 0 16 -20l-233 -988q-2 -16 -16 -16h-203q-12 0 -19 16l-188 793l-193 -793 q-6 -16 -18 -16h-197q-12 0 -18 16l-238 988q-6 20 15 20h110q14 0 19 -16l203 -893h24l227 895q4 14 19 14h104q14 0 19 -14l223 -895h25l190 893q4 16 18 16z" glyph-name="wdieresis" horiz-adv-x="1525" unicode="ẅ"/><glyph d="M455 1880q47 0 105 -27.5t97 -27.5t72 43q14 18 27 2l32 -37q10 -12 5 -27q-61 -88 -117 -88t-117 28t-102 28t-74 -41q-13 -16 -25 -4l-34 38q-14 12 -7 23q53 90 138 90zM948 1319h-639v-531h537q16 0 16 -16v-82q0 -16 -16 -16h-537v-559h639q16 0 17 -17v-82 q0 -16 -17 -16h-766q-16 0 -16 16v1401q0 16 16 17h766q16 0 17 -17v-82q-1 -16 -17 -16z" glyph-name="uni1EBC" horiz-adv-x="1095" unicode="Ẽ"/><glyph d="M377 1470q47 0 106 -27.5t97 -27.5t71 43q14 18 27 2l33 -37q10 -12 4 -26q-61 -88 -117 -88t-117 27.5t-102 27.5t-74 -41q-12 -16 -24 -4l-35 39q-14 12 -6 22q53 90 137 90zM459 1024h106q129 0 197.5 -65.5t68.5 -186.5v-102q0 -240 -256 -240h-286v-123 q0 -193 180 -192h236q16 0 16 -17v-82q0 -16 -16 -16h-273q-139 0 -213 76t-74 219v422q0 145 82 226t232 81zM688 674v92q0 143 -135 143h-94q-80 0 -125 -51t-45 -141v-172h274q125 0 125 129z" glyph-name="uni1EBD" horiz-adv-x="960" unicode="ẽ"/><glyph d="M498 1694l-244 170q-4 4 2 14l68 78q4 8 14 -2l223 -195q8 -8 2 -18l-47 -49q-6 -8 -18 2zM926 1434h112q23 0 15 -19l-422 -799v-600q0 -16 -17 -16h-108q-18 0 -19 16v613l-395 786q-10 18 14 19h111q12 0 19 -13l331 -657l340 655q7 15 19 15z" glyph-name="Ygrave" horiz-adv-x="1144" unicode="Ỳ"/><glyph d="M430 1284l-244 170q-4 4 2 14l68 78q4 8 14 -2l224 -194q8 -8 2 -19l-47 -49q-7 -8 -19 2zM727 1024h113q16 0 14 -18l-377 -1502q-4 -16 -18 -16h-103q-20 0 -12 18l131 494h-88q-16 0 -18 14l-269 992q-6 18 15 18h110q16 0 19 -12l237 -897h21l207 895q2 14 18 14z " glyph-name="ygrave" horiz-adv-x="952" unicode="ỳ"/><glyph d="M455 1880q47 0 105 -27.5t97 -27.5t72 43q14 18 27 2l32 -37q10 -12 5 -27q-61 -88 -117 -88t-117 28t-102 28t-74 -41q-13 -16 -25 -4l-34 38q-14 12 -7 23q53 90 138 90zM926 1434h112q23 0 15 -19l-422 -799v-600q0 -16 -17 -16h-108q-18 0 -19 16v613l-395 786 q-10 18 14 19h111q12 0 19 -13l331 -657l340 655q7 15 19 15z" glyph-name="uni1EF8" horiz-adv-x="1144" unicode="Ỹ"/><glyph d="M389 1470q47 0 105.5 -27.5t97.5 -27.5t72 43q14 18 26 2l33 -37q10 -12 4 -26q-61 -88 -117 -88t-117 27.5t-102 27.5t-74 -41q-12 -16 -24 -4l-35 39q-14 12 -6 22q53 90 137 90zM727 1024h113q16 0 14 -18l-377 -1502q-4 -16 -18 -16h-103q-20 0 -12 18l131 494h-88 q-16 0 -18 14l-269 992q-6 18 15 18h110q16 0 19 -12l237 -897h21l207 895q2 14 18 14z" glyph-name="uni1EF9" horiz-adv-x="952" unicode="ỹ"/><glyph d="M145 580h811q16 0 17 -19v-80q0 -16 -17 -16h-811q-16 0 -16 16v80q0 19 16 19z" glyph-name="endash" horiz-adv-x="1101" unicode="–"/><glyph d="M145 580h1080q16 0 16 -19v-80q0 -16 -16 -16h-1080q-16 0 -16 16v80q0 19 16 19z" glyph-name="emdash" horiz-adv-x="1372" unicode="—"/><glyph d="M178 1536h68q20 0 16 -16l-53 -267h35q18 0 18 -18v-117q0 -18 -18 -18h-117q-18 0 -18 18v135l53 267q4 16 16 16z" glyph-name="quoteleft" horiz-adv-x="399" unicode="‘"/><glyph d="M160 1536h116q18 0 19 -18v-136l-53 -266q-4 -16 -17 -16h-67q-20 0 -17 16l54 266h-35q-18 0 -19 19v117q1 18 19 18z" glyph-name="quoteright" horiz-adv-x="399" unicode="’"/><glyph d="M113 154h116q18 0 19 -19v-135l-53 -266q-4 -16 -17 -17h-67q-20 0 -17 17l53 266h-34q-18 0 -19 18v117q1 19 19 19z" glyph-name="quotesinglbase" horiz-adv-x="376" unicode="‚"/><glyph d="M178 1536h68q20 0 16 -16l-53 -267h35q18 0 18 -18v-117q0 -18 -18 -18h-117q-18 0 -18 18v135l53 267q4 16 16 16zM440 1536h68q20 0 16 -16l-53 -267h35q18 0 18 -18v-117q0 -18 -18 -18h-117q-18 0 -18 18v135l53 267q4 16 16 16z" glyph-name="quotedblleft" horiz-adv-x="663" unicode="“"/><glyph d="M160 1536h116q18 0 19 -18v-136l-53 -266q-4 -16 -17 -16h-67q-20 0 -17 16l54 266h-35q-18 0 -19 19v117q1 18 19 18zM428 1536h117q18 0 18 -18v-136l-53 -266q-4 -16 -16 -16h-68q-20 0 -16 16l53 266h-35q-18 0 -18 19v117q0 18 18 18z" glyph-name="quotedblright" horiz-adv-x="665" unicode="”"/><glyph d="M113 154h116q18 0 19 -19v-135l-53 -266q-4 -16 -17 -17h-67q-20 0 -17 17l53 266h-34q-18 0 -19 18v117q1 19 19 19zM373 154h116q18 0 19 -19v-135l-53 -266q-4 -16 -17 -17h-67q-20 0 -17 17l54 266h-35q-18 0 -19 18v117q1 19 19 19z" glyph-name="quotedblbase" horiz-adv-x="636" unicode="„"/><glyph d="M915 1071v-108q0 -18 -16 -19l-342 8v-581l16 -660q0 -16 -18 -16h-109q-16 0 -16 16l14 664v577l-315 -8q-16 0 -16 19v108q0 16 16 16l313 -38l-12 368q0 16 16 17h109q18 0 18 -17l-14 -368l340 38q16 4 16 -16z" glyph-name="dagger" horiz-adv-x="1028" unicode="†"/><glyph d="M915 432v-108q0 -16 -16 -17l-342 23l16 -619q0 -16 -18 -16h-109q-16 0 -16 16l14 619l-315 -23q-16 0 -16 17v108q0 18 16 19l315 -25v526l-315 -8q-16 0 -16 19v108q0 16 16 16l313 -38l-12 368q0 16 16 17h109q18 0 18 -17l-14 -368l340 38q16 4 16 -16v-108 q0 -19 -16 -19l-342 8v-526l342 25q16 0 16 -19z" glyph-name="daggerdbl" horiz-adv-x="1028" unicode="‡"/><glyph d="M427 836q269 0 269 -270t-269 -269q-269 -1 -269 269t269 270z" glyph-name="bullet" horiz-adv-x="851" unicode="•"/><glyph d="M131 156h113q20 0 20 -21v-115q0 -20 -20 -20h-113q-20 0 -20 20v115q0 21 20 21zM467 156h113q20 0 20 -21v-115q0 -20 -20 -20h-113q-20 0 -21 20v115q1 21 21 21zM803 156h112q20 0 21 -21v-115q0 -20 -21 -20h-112q-20 0 -21 20v115q1 21 21 21z" glyph-name="ellipsis" horiz-adv-x="1048" unicode="…"/><glyph d="M395 1452q258 0 258 -286t-258 -285q-266 -1 -266 285t266 286zM1331 1434h96q10 0 13.5 -6.5t-0.5 -14.5l-1164 -1395q-12 -14 -22 -14h-96q-24 0 -11 19l1162 1394q12 17 22 17zM393 1346q-82 0 -116.5 -43t-34.5 -133t34.5 -136.5t116.5 -46.5t115 46.5t33 136.5 t-33 133t-115 43zM1221 551q258 0 258 -286t-258 -285q-264 0 -264 286t264 285zM1942 551q258 0 258 -286t-258 -285q-266 0 -266 286t266 285zM1219 446q-82 0 -116 -44t-34 -134t34 -136t116 -46t114.5 46t32.5 136t-32.5 134t-114.5 44zM1940 446q-82 0 -117 -44 t-35 -134t35 -136t117 -46t114.5 46t32.5 136t-32.5 134t-114.5 44z" glyph-name="perthousand" horiz-adv-x="2328" unicode="‰"/><glyph d="M104 512l390 412q10 14 22 2l74 -70q12 -12 0 -25l-311 -325l319 -291q12 -10 0 -22l-68 -80q-12 -12 -22 -2l-404 378q-12 11 0 23z" glyph-name="guilsinglleft" horiz-adv-x="731" unicode="‹"/><glyph d="M104 856l74 70q14 12 23 -2l389 -412q12 -12 0 -23l-404 -378q-10 -10 -22 2l-68 80q-12 12 0 22l320 291l-312 325q-12 13 0 25z" glyph-name="guilsinglright" horiz-adv-x="727" unicode="›"/><glyph d="M684 1468h104q14 0 7 -12l-1076 -1476q-8 -10 -16 -11h-104q-14 0 -5 15l1074 1472q8 12 16 12z" glyph-name="fraction" horiz-adv-x="399" unicode="⁄"/><glyph d="M264 1843h107q82 0 126 -43t44 -121v-391q0 -78 -44 -120t-126 -42h-107q-82 0 -126 42t-44 120v391q0 78 44 121t126 43zM436 1288v391q0 82 -78 82h-86q-76 0 -75 -82v-391q0 -78 75 -78h90q74 0 74 78z" glyph-name="uni2070" horiz-adv-x="634" unicode="⁰"/><glyph d="M502 1382h63q10 0 10 -10v-63q0 -10 -10 -11h-63v-161q0 -10 -8 -11h-84q-10 0 -11 11v161h-313q-10 0 -10 13v82q0 4 4 12l217 430q6 8 14 8h80q16 0 8 -12l-219 -430v-19h219v220q0 10 11 10h84q8 0 8 -10v-220z" glyph-name="uni2074" horiz-adv-x="649" unicode="⁴"/><glyph d="M115 1843h358q12 0 12 -10v-72q0 -8 -12 -8h-264v-194h121q96 0 150.5 -44.5t54.5 -121.5v-103q0 -78 -54.5 -121t-150.5 -43h-226q-12 0 -12 11v63q0 10 12 10h226q98 0 98 90v82q0 92 -98 93h-215q-10 0 -11 10v348q1 10 11 10z" glyph-name="uni2075" horiz-adv-x="630" unicode="⁵"/><glyph d="M201 1532h178q164 0 164 -141v-107q0 -76 -45 -117t-129 -41h-97q-84 0 -130 41t-46 117v406q0 74 47 113.5t136 39.5h163q12 0 13 -10v-64q0 -8 -13 -8h-163q-78 0 -78 -71v-158zM438 1284v92q0 72 -71 72h-166v-164q0 -74 71 -74h97q69 0 69 74z" glyph-name="uni2076" horiz-adv-x="638" unicode="⁶"/><glyph d="M84 1843h387q12 0 12 -10v-96q0 -6 -4 -15l-284 -587q-2 -8 -15 -9h-82q-12 0 -6 13l287 585v37h-295q-12 0 -12 8v64q0 10 12 10z" glyph-name="uni2077" horiz-adv-x="555" unicode="⁷"/><glyph d="M539 1702v-49q0 -72 -58 -150q86 -47 86 -168v-45q0 -74 -49 -119t-129 -45h-102q-86 0 -138.5 45.5t-52.5 120.5v58q0 98 82 176q-39 49 -39 127v39q0 70 48.5 110.5t127.5 40.5h39q84 0 134.5 -39t50.5 -102zM242 1683v-41q0 -55 25.5 -67t31.5 -16.5t22.5 -8.5 t23.5 -6t26.5 -6t25.5 -6q37 57 37 110v41q0 35 -22.5 56.5t-57.5 21.5h-32q-35 0 -57.5 -22.5t-22.5 -55.5zM465 1298v50q0 45 -31 65.5t-95.5 36.5t-92.5 29q-45 -61 -45 -129v-50q0 -41 24.5 -65.5t67.5 -24.5h84q41 0 64.5 23.5t23.5 64.5z" glyph-name="uni2078" horiz-adv-x="663" unicode="⁸"/><glyph d="M272 1843h82q86 0 133.5 -40t47.5 -111v-412q0 -72 -47.5 -113t-133.5 -41h-166q-10 0 -10 11v63q0 10 10 10h166q76 0 76 84v144h-164q-84 0 -130 36.5t-46 104.5v113q0 72 48 111.5t134 39.5zM266 1522h164v166q0 74 -76 73h-82q-37 0 -58 -19.5t-21 -53.5v-95 q-1 -71 73 -71z" glyph-name="uni2079" horiz-adv-x="630" unicode="⁹"/><glyph d="M866 117h232q16 0 16 -17v-84q0 -16 -16 -16h-232q-258 0 -392 132t-134 366v49h-231q-18 0 -19 16v82q0 18 19 19h231v137h-211q-18 0 -18 16v84q0 16 18 17h211v43q0 225 133 349t393 124h221q16 0 17 -17v-84q0 -16 -17 -16h-221q-193 0 -288 -93.5t-95 -262.5v-43 h318q16 0 16 -17v-84q0 -16 -16 -16h-318v-137h297q16 0 17 -19v-82q0 -16 -17 -16h-297v-49q0 -180 96.5 -280.5t286.5 -100.5z" glyph-name="Euro" horiz-adv-x="1169" unicode="€"/><glyph d="M106 1434h492q8 0 8 -9v-88q0 -8 -8 -8h-178v-616q0 -12 -10 -13h-113q-10 0 -10 13v616h-181q-8 0 -8 8v88q0 9 8 9zM1221 1434h176q10 0 10 -9v-712q0 -12 -8 -13h-101q-8 0 -12 11v612h-10l-172 -551q-4 -8 -12 -8h-91q-6 0 -10 10l-180 555h-10v-618q0 -10 -10 -11 h-99q-10 0 -10 13v712q0 8 12 9h183q8 0 12 -9l160 -487l161 487q5 9 11 9z" glyph-name="trademark" horiz-adv-x="1503" unicode="™"/><glyph d="M1276 1468h104q14 0 6 -12l-1075 -1476q-8 -10 -16 -11h-105q-14 0 -4 15l1074 1472q10 12 16 12zM496 791v-64q0 -10 -11 -10h-399q-10 0 -10 10v64q0 10 10 10h158v551h-154q-10 0 -10 8v63q0 10 10 11h246q12 0 12 -11v-622h137q11 0 11 -10zM1530 575v-49 q0 -72 -57 -149q86 -47 86 -168v-45q0 -74 -49.5 -119t-129.5 -45h-102q-86 0 -138.5 45t-52.5 121v57q0 98 82 176q-39 49 -39 127v39q0 70 48.5 111t128.5 41h39q84 0 134 -39.5t50 -102.5zM1233 557v-41q0 -52 25.5 -66t31.5 -18t22.5 -8t23.5 -6t26.5 -6t26.5 -6 q37 57 36 110v41q0 35 -22.5 56.5t-56.5 21.5h-33q-35 0 -57.5 -22.5t-22.5 -55.5zM1456 172v49q0 45 -30.5 65.5t-95 37t-93.5 28.5q-45 -61 -45 -129v-49q0 -41 24.5 -65.5t67.5 -24.5h84q41 0 64.5 23.5t23.5 64.5z" glyph-name="oneeighth" horiz-adv-x="1654" unicode="⅛"/><glyph d="M1294 1468h105q14 0 6 -12l-1075 -1476q-8 -10 -17 -11h-104q-14 0 -4 15l1073 1472q8 12 16 12zM514 965v-82q0 -78 -51 -122t-146 -44h-231q-10 0 -10 10v64q0 10 10 10h217q106 0 107 90v74q0 102 -123 102h-127q-10 0 -10 12v62q0 10 10 10h139q90 0 90 76v47 q0 78 -94 78h-178q-10 0 -11 8v63q0 10 11 11h178q94 0 146.5 -38t52.5 -110v-61q0 -72 -52 -113q72 -49 72 -147zM1548 575v-49q0 -72 -57 -149q86 -47 86 -168v-45q0 -74 -49 -119t-129 -45h-103q-86 0 -138 45t-52 121v57q0 98 82 176q-39 49 -39 127v39q0 70 48 111 t128 41h39q84 0 134 -39.5t50 -102.5zM1251 557v-41q0 -31 8.5 -43t13.5 -18t17.5 -12.5t18.5 -10.5t22.5 -8t23.5 -6t26.5 -6t25.5 -6q37 57 37 110v41q0 35 -22.5 56.5t-57.5 21.5h-33q-35 0 -57.5 -22.5t-22.5 -55.5zM1475 172v49q0 45 -31 65.5t-95.5 37t-93.5 28.5 q-45 -61 -45 -129v-49q0 -41 25 -65.5t68 -24.5h83q39 0 64 23.5t25 64.5z" glyph-name="threeeighths" horiz-adv-x="1673" unicode="⅜"/><glyph d="M1315 1468h104q14 0 6 -12l-1075 -1476q-8 -10 -16 -11h-105q-14 0 -4 15l1073 1472q9 12 17 12zM535 983v-102q0 -78 -54.5 -121t-150.5 -43h-226q-12 0 -12 10v64q0 10 12 10h226q98 0 98 90v82q0 92 -98 92h-215q-10 0 -11 10v348q0 10 11 11h358q12 0 12 -11v-71 q0 -8 -12 -9h-264v-194h121q96 0 150.5 -44t54.5 -122zM1569 575v-49q0 -72 -58 -149q86 -47 86 -168v-45q0 -74 -49 -119t-129 -45h-102q-86 0 -138.5 45t-52.5 121v57q0 98 82 176q-39 49 -39 127v39q0 70 48.5 111t128.5 41h38q84 0 134.5 -39.5t50.5 -102.5zM1272 557 v-41q0 -53 25.5 -66.5t31.5 -17.5t22.5 -8t23.5 -6t26.5 -6t25.5 -6q37 57 37 110v41q0 35 -22.5 56.5t-57.5 21.5h-32q-35 0 -57.5 -22.5t-22.5 -55.5zM1495 172v49q0 45 -30.5 65.5t-95 37t-93.5 28.5q-45 -61 -45 -129v-49q0 -41 24.5 -65.5t67.5 -24.5h84 q39 0 63.5 23.5t24.5 64.5z" glyph-name="fiveeighths" horiz-adv-x="1693" unicode="⅝"/><glyph d="M1239 1468h104q14 0 7 -12l-1076 -1476q-8 -10 -16 -11h-104q-14 0 -4 15l1073 1472q10 12 16 12zM180 717h-82q-12 0 -6 12l287 586v37h-295q-12 0 -12 8v63q0 10 12 11h387q12 0 12 -11v-96q0 -6 -4 -14l-284 -588q-2 -8 -15 -8zM1493 575v-49q0 -72 -57 -149 q86 -47 86 -168v-45q0 -74 -49.5 -119t-129.5 -45h-102q-86 0 -138 45t-52 121v57q0 98 82 176q-39 49 -39 127v39q0 70 48 111t128 41h39q84 0 134 -39.5t50 -102.5zM1196 557v-41q0 -52 25.5 -66t32 -18t22.5 -8t23.5 -6t27 -6t25.5 -6q37 57 37 110v41q0 35 -23 56.5 t-57 21.5h-33q-35 0 -57.5 -22.5t-22.5 -55.5zM1419 172v49q0 45 -30.5 65.5t-95 37t-93.5 28.5q-45 -61 -45 -129v-49q0 -41 24.5 -65.5t67.5 -24.5h84q41 0 64.5 23.5t23.5 64.5z" glyph-name="seveneighths" horiz-adv-x="1617" unicode="⅞"/><glyph d="M250 1370v98q0 16 16 17q344 -6 522.5 -212t172.5 -599q-4 -326 -119 -511.5t-336 -185.5q-182 0 -279.5 121.5t-97.5 353.5t113.5 366t316.5 134q147 0 248 -84q-66 475 -541 486q-16 0 -16 16zM570 834q-148 0 -223 -102t-75 -278t60.5 -267t173.5 -91q147 0 227 155 t84 427v35q-99 121 -247 121z" glyph-name="partialdiff" horiz-adv-x="1089" unicode="∂"/><glyph d="M129 1434h1200q16 0 17 -17v-82q0 -18 -17 -18h-213v-1600q0 -16 -16 -16h-111q-16 0 -16 16v1600h-498v-1600q0 -16 -16 -16h-111q-16 0 -16 16v1600h-203q-16 0 -16 18v82q0 17 16 17z" glyph-name="product" horiz-adv-x="1458" unicode="∏"/><glyph d="M137 1448h926q16 0 16 -16v-82q0 -16 -16 -17h-789l560 -669q8 -12 8 -21v-84q0 -14 -6 -22l-566 -730h793q16 0 16 -16v-84q0 -16 -16 -16h-924q-16 0 -16 16v109q0 14 8 22l580 760l-582 705q-8 8 -8 20v109q0 16 16 16z" glyph-name="summation" horiz-adv-x="1208" unicode="∑"/><glyph d="M121 768h745q16 0 17 -16v-80q0 -18 -17 -19h-745q-16 0 -17 19v80q1 16 17 16z" glyph-name="minus" horiz-adv-x="987" unicode="−"/><glyph d="M1407 1733h47q18 0 12 -21l-714 -1700q-2 -12 -19 -12h-112q-14 0 -21 12l-262 619l-139 -158q-10 -14 -23 0l-57 62q-12 12 -2 24l188 221q8 10 21 11h80q16 0 18 -13l289 -684l676 1626q6 13 18 13z" glyph-name="radical" horiz-adv-x="1402" unicode="√"/><glyph d="M1153 971h82q139 0 219 -95.5t80 -272.5t-80 -272t-219 -95h-94q-160 0 -314 243q-68 -119 -138.5 -185.5t-168.5 -66.5h-84q-307 0 -307 361q0 184 79 282.5t228 98.5h96q164 0 304 -238q66 113 140.5 176.5t176.5 63.5zM436 342h70q76 0 131 62.5t125 189.5 q-74 133 -136.5 195.5t-131.5 62.5h-58q-164 0 -164 -255t164 -255zM1167 350h68q156 0 156 246t-156 246h-82q-76 0 -133 -58.5t-119 -171.5q153 -262 266 -262z" glyph-name="infinity" horiz-adv-x="1660" unicode="∞"/><glyph d="M356 242v772q0 203 94.5 324.5t249.5 129.5q18 0 19 -16v-84q0 -16 -19 -16q-201 -16 -200 -338v-772q0 -238 -106.5 -376t-278.5 -145q-16 0 -17 17v86q0 16 17 16q127 6 184 101.5t57 300.5z" glyph-name="integral" horiz-adv-x="815" unicode="∫"/><glyph d="M205 786h-80q-16 0 -16 17q4 143 72.5 224t185.5 81q78 0 148.5 -37t156 -117t192.5 -80q125 0 131 152q0 16 17 16h88q16 0 16 -16q-2 -141 -71.5 -216t-188.5 -75q-82 0 -152.5 36t-147.5 115t-189 79q-135 0 -146 -162q0 -17 -16 -17zM205 356h-80q-16 0 -16 17 q4 143 72.5 224t185.5 81q78 0 148.5 -37t156 -117t192.5 -80q125 0 131 152q0 16 17 16h88q16 0 16 -16q-2 -141 -71.5 -216t-188.5 -75q-82 0 -152.5 36t-147.5 115t-189 79q-135 0 -146 -162q0 -17 -16 -17z" glyph-name="approxequal" horiz-adv-x="1257" unicode="≈"/><glyph d="M1116 856h-358l-109 -293h467q16 0 17 -18v-80q0 -16 -17 -16h-508l-119 -322q-6 -12 -22 -12h-94q-18 0 -11 18l117 316h-315q-16 0 -17 16v80q0 18 17 18h356l109 293h-465q-16 0 -17 16v82q0 16 17 17h506l123 334q6 14 22 14h94q16 0 13 -19l-121 -329h315 q16 0 17 -17v-82q-1 -16 -17 -16z" glyph-name="notequal" horiz-adv-x="1226" unicode="≠"/><glyph d="M1053 1149q0 -12 -15 -19l-825 -278l825 -279q14 -2 15 -18v-82q0 -20 -21 -14l-938 321q-14 2 -14 19v108q0 13 14 19l938 319q20 6 21 -12v-84zM100 338h940q16 0 17 -16v-84q0 -16 -17 -17h-940q-16 0 -16 17v84q0 16 16 16z" glyph-name="lessequal" horiz-adv-x="1187" unicode="≤"/><glyph d="M125 1149v84q0 18 20 12l938 -319q14 -6 15 -19v-108q0 -16 -15 -19l-938 -321q-20 -6 -20 14v82q0 16 14 18l826 279l-826 278q-14 7 -14 19zM137 338h940q16 0 17 -16v-84q0 -16 -17 -17h-940q-16 0 -16 17v84q0 16 16 16z" glyph-name="greaterequal" horiz-adv-x="1218" unicode="≥"/><glyph d="M111 637l505 600q10 14 23 0l489 -600q10 -12 0 -25l-489 -598q-12 -18 -23 0l-505 598q-8 13 0 25zM991 625l-362 454l-381 -454l381 -455z" glyph-name="lozenge" horiz-adv-x="1239" unicode="◊"/><glyph d="M446 1024h388q18 0 18 -16v-992q0 -16 -18 -16h-400q-139 0 -214 63.5t-75 186.5v506q0 123 79 195.5t222 72.5zM426 115h283v794h-281q-66 0 -102.5 -46t-36.5 -120v-481q0 -147 137 -147z" glyph-name="a.ss01" horiz-adv-x="1013"/><glyph d="M551 1290l-47 49q-6 10 2 19l223 194q10 10 14 2l68 -77q6 -10 2 -15l-244 -170q-12 -10 -18 -2zM446 1024h388q18 0 18 -16v-992q0 -16 -18 -16h-400q-139 0 -214 63.5t-75 186.5v506q0 123 79 195.5t222 72.5zM426 115h283v794h-281q-66 0 -102.5 -46t-36.5 -120v-481 q0 -147 137 -147z" glyph-name="aacute.aalt" horiz-adv-x="1013"/><glyph d="M688 1528h62q16 0 16 -19q0 -115 -62.5 -178t-169 -63t-168 63.5t-61.5 177.5q0 18 17 19h61q16 0 16 -19q0 -61 37.5 -94t99.5 -33t98 34t36 95q0 17 18 17zM446 1024h388q18 0 18 -16v-992q0 -16 -18 -16h-400q-139 0 -214 63.5t-75 186.5v506q0 123 79 195.5t222 72.5 zM426 115h283v794h-281q-66 0 -102.5 -46t-36.5 -120v-481q0 -147 137 -147z" glyph-name="abreve.aalt" horiz-adv-x="1013"/><glyph d="M553 1266h-33q-8 0 -14 6l-203 172q-8 12 0 24l53 56q12 10 25 -2l147 -129h15l153 127q14 12 23 2l53 -58q10 -14 0 -22l-205 -170q-6 -6 -14 -6zM446 1024h388q18 0 18 -16v-992q0 -16 -18 -16h-400q-139 0 -214 63.5t-75 186.5v506q0 123 79 195.5t222 72.5zM426 115 h283v794h-281q-66 0 -102.5 -46t-36.5 -120v-481q0 -147 137 -147z" glyph-name="uni01CE.aalt" horiz-adv-x="1013"/><glyph d="M514 1542h33q8 0 14 -6l205 -180q8 -12 0 -25l-53 -55q-14 -10 -25 0l-149 143h-15l-151 -139q-13 -16 -23 -2l-53 57q-10 12 0 23l203 178q6 6 14 6zM446 1024h388q18 0 18 -16v-992q0 -16 -18 -16h-400q-139 0 -214 63.5t-75 186.5v506q0 123 79 195.5t222 72.5z M426 115h283v794h-281q-66 0 -102.5 -46t-36.5 -120v-481q0 -147 137 -147z" glyph-name="acircumflex.aalt" horiz-adv-x="1013"/><glyph d="M420 1274h-111q-16 0 -16 16v152q0 18 16 18h111q16 0 16 -18v-152q0 -16 -16 -16zM750 1274h-111q-16 0 -16 16v152q0 18 16 18h111q16 0 16 -18v-152q0 -16 -16 -16zM446 1024h388q18 0 18 -16v-992q0 -16 -18 -16h-400q-139 0 -214 63.5t-75 186.5v506q0 123 79 195.5 t222 72.5zM426 115h283v794h-281q-66 0 -102.5 -46t-36.5 -120v-481q0 -147 137 -147z" glyph-name="adieresis.aalt" horiz-adv-x="1013"/><glyph d="M467 1284l-244 170q-4 4 2 14l68 78q4 8 14 -2l223 -194q8 -8 2 -19l-47 -49q-6 -8 -18 2zM446 1024h388q18 0 18 -16v-992q0 -16 -18 -16h-400q-139 0 -214 63.5t-75 186.5v506q0 123 79 195.5t222 72.5zM426 115h283v794h-281q-66 0 -102.5 -46t-36.5 -120v-481 q0 -147 137 -147z" glyph-name="agrave.aalt" horiz-adv-x="1013"/><glyph d="M748 1321h-416q-16 0 -17 16v82q0 16 17 17h416q16 0 16 -17v-82q0 -16 -16 -16zM446 1024h388q18 0 18 -16v-992q0 -16 -18 -16h-400q-139 0 -214 63.5t-75 186.5v506q0 123 79 195.5t222 72.5zM426 115h283v794h-281q-66 0 -102.5 -46t-36.5 -120v-481q0 -147 137 -147 z" glyph-name="amacron.aalt" horiz-adv-x="1013"/><glyph d="M836 0q-59 0 -92 -39t-33 -110t40 -108.5t115 -37.5q16 0 17 -18v-80q0 -16 -17 -17q-135 4 -208.5 68t-73.5 170t71 172h-221q-139 0 -214 63.5t-75 186.5v506q0 123 79 195.5t222 72.5h388q18 0 18 -16v-992q0 -16 -16 -16zM426 115h283v794h-281q-66 0 -102.5 -46 t-36.5 -120v-481q0 -147 137 -147z" glyph-name="aogonek.aalt" horiz-adv-x="1013"/><glyph d="M529 1241q-83 0 -134 51t-51 134t50 132.5t134 49.5t133.5 -49.5t49.5 -133.5t-49.5 -134t-132.5 -50zM528 1513q-41 0 -65.5 -23.5t-24.5 -64.5t24.5 -65.5t65.5 -24.5t64.5 24.5t23.5 65.5t-23.5 64.5t-64.5 23.5zM446 1024h388q18 0 18 -16v-992q0 -16 -18 -16h-400 q-139 0 -214 63.5t-75 186.5v506q0 123 79 195.5t222 72.5zM426 115h283v794h-281q-66 0 -102.5 -46t-36.5 -120v-481q0 -147 137 -147z" glyph-name="aring.aalt" horiz-adv-x="1013"/><glyph d="M424 1470q47 0 105.5 -27.5t97.5 -27.5t71 43q14 18 27 2l33 -37q10 -12 4 -26q-60 -88 -116 -88t-117.5 27.5t-102.5 27.5t-74 -41q-12 -16 -24 -4l-35 39q-14 12 -6 22q53 90 137 90zM446 1024h388q18 0 18 -16v-992q0 -16 -18 -16h-400q-139 0 -214 63.5t-75 186.5 v506q0 123 79 195.5t222 72.5zM426 115h283v794h-281q-66 0 -102.5 -46t-36.5 -120v-481q0 -147 137 -147z" glyph-name="atilde.aalt" horiz-adv-x="1013"/><glyph d="M453 1024h356q23 0 22 -25v-313q0 -131 -63 -199.5t-182 -68.5h-297v-117q0 -186 180 -186h233q16 0 17 -17v-82q0 -16 -17 -16h-251q-147 0 -226.5 79t-79.5 228v410q0 145 81.5 226t226.5 81zM688 686v201q0 23 -18 22h-191q-90 0 -140 -51t-50 -141v-185h272 q127 0 127 154z" glyph-name="e.aalt" horiz-adv-x="960"/><glyph d="M539 1290l-47 49q-6 10 2 19l223 194q10 10 14 2l68 -77q6 -10 2 -15l-244 -170q-12 -10 -18 -2zM453 1024h356q23 0 22 -25v-313q0 -131 -63 -199.5t-182 -68.5h-297v-117q0 -186 180 -186h233q16 0 17 -17v-82q0 -16 -17 -16h-251q-147 0 -226.5 79t-79.5 228v410 q0 145 81.5 226t226.5 81zM688 686v201q0 23 -18 22h-191q-90 0 -140 -51t-50 -141v-185h272q127 0 127 154z" glyph-name="eacute.aalt" horiz-adv-x="960"/><glyph d="M541 1266h-33q-8 0 -14 6l-203 172q-8 12 0 24l53 56q12 10 25 -2l147 -129h14l154 127q14 12 23 2l53 -58q10 -14 0 -22l-205 -170q-6 -6 -14 -6zM453 1024h356q23 0 22 -25v-313q0 -131 -63 -199.5t-182 -68.5h-297v-117q0 -186 180 -186h233q16 0 17 -17v-82 q0 -16 -17 -16h-251q-147 0 -226.5 79t-79.5 228v410q0 145 81.5 226t226.5 81zM688 686v201q0 23 -18 22h-191q-90 0 -140 -51t-50 -141v-185h272q127 0 127 154z" glyph-name="ecaron.aalt" horiz-adv-x="960"/><glyph d="M502 1542h33q8 0 14 -6l205 -180q8 -12 0 -25l-54 -55q-14 -10 -24 0l-150 143h-14l-152 -139q-12 -16 -22 -2l-53 57q-10 12 0 23l202 178q6 6 15 6zM453 1024h356q23 0 22 -25v-313q0 -131 -63 -199.5t-182 -68.5h-297v-117q0 -186 180 -186h233q16 0 17 -17v-82 q0 -16 -17 -16h-251q-147 0 -226.5 79t-79.5 228v410q0 145 81.5 226t226.5 81zM688 686v201q0 23 -18 22h-191q-90 0 -140 -51t-50 -141v-185h272q127 0 127 154z" glyph-name="ecircumflex.aalt" horiz-adv-x="960"/><glyph d="M408 1274h-111q-16 0 -16 16v152q0 18 16 18h111q16 0 16 -18v-152q0 -16 -16 -16zM737 1274h-110q-16 0 -17 16v152q0 18 17 18h110q16 0 17 -18v-152q-1 -16 -17 -16zM453 1024h356q23 0 22 -25v-313q0 -131 -63 -199.5t-182 -68.5h-297v-117q0 -186 180 -186h233 q16 0 17 -17v-82q0 -16 -17 -16h-251q-147 0 -226.5 79t-79.5 228v410q0 145 81.5 226t226.5 81zM688 686v201q0 23 -18 22h-191q-90 0 -140 -51t-50 -141v-185h272q127 0 127 154z" glyph-name="edieresis.aalt" horiz-adv-x="960"/><glyph d="M573 1274h-110q-16 0 -17 16v152q0 18 17 18h110q16 0 17 -18v-152q-1 -16 -17 -16zM453 1024h356q23 0 22 -25v-313q0 -131 -63 -199.5t-182 -68.5h-297v-117q0 -186 180 -186h233q16 0 17 -17v-82q0 -16 -17 -16h-251q-147 0 -226.5 79t-79.5 228v410q0 145 81.5 226 t226.5 81zM688 686v201q0 23 -18 22h-191q-90 0 -140 -51t-50 -141v-185h272q127 0 127 154z" glyph-name="edotaccent.aalt" horiz-adv-x="960"/><glyph d="M453 1284l-244 170q-4 4 2 14l68 78q4 8 14 -2l223 -194q8 -8 2 -19l-47 -49q-6 -8 -18 2zM453 1024h356q23 0 22 -25v-313q0 -131 -63 -199.5t-182 -68.5h-297v-117q0 -186 180 -186h233q16 0 17 -17v-82q0 -16 -17 -16h-251q-147 0 -226.5 79t-79.5 228v410 q0 145 81.5 226t226.5 81zM688 686v201q0 23 -18 22h-191q-90 0 -140 -51t-50 -141v-185h272q127 0 127 154z" glyph-name="egrave.aalt" horiz-adv-x="960"/><glyph d="M735 1321h-416q-16 0 -16 16v82q0 16 16 17h416q16 0 17 -17v-82q-1 -16 -17 -16zM453 1024h356q23 0 22 -25v-313q0 -131 -63 -199.5t-182 -68.5h-297v-117q0 -186 180 -186h233q16 0 17 -17v-82q0 -16 -17 -16h-251q-147 0 -226.5 79t-79.5 228v410q0 145 81.5 226 t226.5 81zM688 686v201q0 23 -18 22h-191q-90 0 -140 -51t-50 -141v-185h272q127 0 127 154z" glyph-name="emacron.aalt" horiz-adv-x="960"/><glyph d="M453 1024h356q23 0 22 -25v-313q0 -131 -63 -199.5t-182 -68.5h-297v-117q0 -186 180 -186h233q16 0 17 -17v-82q0 -16 -17 -16q-59 0 -91.5 -39t-32.5 -110q0 -146 155 -146q16 0 17 -18v-80q0 -16 -17 -17q-135 4 -208.5 68t-73.5 170t71 172h-71q-147 0 -226.5 79 t-79.5 228v410q0 145 81.5 226t226.5 81zM688 686v201q0 23 -18 22h-191q-90 0 -140 -51t-50 -141v-185h272q127 0 127 154z" glyph-name="eogonek.aalt" horiz-adv-x="960"/><glyph d="M412 1470q47 0 105 -27.5t97 -27.5t72 43q14 18 27 2l32 -37q10 -12 5 -26q-60 -88 -116 -88t-117.5 27.5t-102.5 27.5t-74 -41q-13 -16 -25 -4l-34 39q-14 12 -7 22q53 90 138 90zM453 1024h356q23 0 22 -25v-313q0 -131 -63 -199.5t-182 -68.5h-297v-117 q0 -186 180 -186h233q16 0 17 -17v-82q0 -16 -17 -16h-251q-147 0 -226.5 79t-79.5 228v410q0 145 81.5 226t226.5 81zM688 686v201q0 23 -18 22h-191q-90 0 -140 -51t-50 -141v-185h272q127 0 127 154z" glyph-name="uni1EBD.aalt" horiz-adv-x="960"/><glyph d="M492 1536h145q16 0 16 -14v-84q0 -16 -16 -17h-137q-63 0 -97 -39t-34 -110v-248h170q16 0 16 -16v-84q0 -16 -16 -17h-170v-891q0 -16 -17 -16h-108q-18 0 -19 16v891h-131q-16 0 -16 17v84q0 16 16 16h131v242q0 129 70 199.5t197 70.5z" glyph-name="f.aalt" horiz-adv-x="616"/><glyph d="M522 1749h-110q-16 0 -17 16v152q0 18 17 18h110q16 0 17 -18v-152q-1 -16 -17 -16zM492 1536h145q16 0 16 -14v-84q0 -16 -16 -17h-137q-63 0 -97 -39t-34 -110v-248h170q16 0 16 -16v-84q0 -16 -16 -17h-170v-891q0 -16 -17 -16h-108q-18 0 -19 16v891h-131 q-16 0 -16 17v84q0 16 16 16h131v242q0 129 70 199.5t197 70.5z" glyph-name="uni1E1F.aalt" horiz-adv-x="616"/><glyph d="M436 1024h488q16 0 16 -16v-82q0 -18 -16 -19h-123q39 -66 39 -157v-162q0 -135 -86 -210t-224 -75h-71q-82 0 -82 -74t82 -73h145q141 0 219 -70t78 -199v-133q0 -129 -87 -197.5t-243 -68.5h-186q-156 0 -243 76t-87 219v92q0 16 17 16h110q16 0 17 -16v-92 q0 -86 45 -133t129 -47h215q170 0 170 164v120q0 72 -41 113t-121 41h-162q-94 0 -146 44t-52 122t49 127q-147 70 -148 256v160q0 131 78 202.5t221 71.5zM696 602v135q0 162 -133 172h-127q-156 0 -155 -172v-135q0 -184 165 -184h84q78 0 122 48t44 136z" glyph-name="g.aalt" horiz-adv-x="1015"/><glyph d="M674 1528h61q16 0 17 -19q0 -115 -62.5 -178t-169 -63t-168 63.5t-61.5 177.5q0 18 16 19h62q16 0 16 -19q0 -61 37 -94t99 -33t98 34t36 95q1 17 19 17zM436 1024h488q16 0 16 -16v-82q0 -18 -16 -19h-123q39 -66 39 -157v-162q0 -135 -86 -210t-224 -75h-71 q-82 0 -82 -74t82 -73h145q141 0 219 -70t78 -199v-133q0 -129 -87 -197.5t-243 -68.5h-186q-156 0 -243 76t-87 219v92q0 16 17 16h110q16 0 17 -16v-92q0 -86 45 -133t129 -47h215q170 0 170 164v120q0 72 -41 113t-121 41h-162q-94 0 -146 44t-52 122t49 127 q-147 70 -148 256v160q0 131 78 202.5t221 71.5zM696 602v135q0 162 -133 172h-127q-156 0 -155 -172v-135q0 -184 165 -184h84q78 0 122 48t44 136z" glyph-name="gbreve.aalt" horiz-adv-x="1015"/><glyph d="M539 1266h-33q-8 0 -14 6l-203 172q-10 12 0 24l53 56q12 10 25 -2l147 -129h14l154 127q14 12 23 2l53 -58q10 -14 0 -22l-205 -170q-6 -6 -14 -6zM436 1024h488q16 0 16 -16v-82q0 -18 -16 -19h-123q39 -66 39 -157v-162q0 -135 -86 -210t-224 -75h-71q-82 0 -82 -74 t82 -73h145q141 0 219 -70t78 -199v-133q0 -129 -87 -197.5t-243 -68.5h-186q-156 0 -243 76t-87 219v92q0 16 17 16h110q16 0 17 -16v-92q0 -86 45 -133t129 -47h215q170 0 170 164v120q0 72 -41 113t-121 41h-162q-94 0 -146 44t-52 122t49 127q-147 70 -148 256v160 q0 131 78 202.5t221 71.5zM696 602v135q0 162 -133 172h-127q-156 0 -155 -172v-135q0 -184 165 -184h84q78 0 122 48t44 136z" glyph-name="gcaron.aalt" horiz-adv-x="1015"/><glyph d="M500 1542h32q8 0 15 -6l205 -180q10 -12 0 -25l-54 -55q-14 -10 -24 0l-150 143h-14l-152 -139q-12 -16 -22 -2l-53 57q-10 12 0 23l202 178q6 6 15 6zM436 1024h488q16 0 16 -16v-82q0 -18 -16 -19h-123q39 -66 39 -157v-162q0 -135 -86 -210t-224 -75h-71 q-82 0 -82 -74t82 -73h145q141 0 219 -70t78 -199v-133q0 -129 -87 -197.5t-243 -68.5h-186q-156 0 -243 76t-87 219v92q0 16 17 16h110q16 0 17 -16v-92q0 -86 45 -133t129 -47h215q170 0 170 164v120q0 72 -41 113t-121 41h-162q-94 0 -146 44t-52 122t49 127 q-147 70 -148 256v160q0 131 78 202.5t221 71.5zM696 602v135q0 162 -133 172h-127q-156 0 -155 -172v-135q0 -184 165 -184h84q78 0 122 48t44 136z" glyph-name="gcircumflex.aalt" horiz-adv-x="1015"/><glyph d="M573 1192h-116q-18 0 -19 18v136l54 266q4 16 16 16h67q20 0 17 -16l-53 -266h34q18 0 19 -19v-117q-1 -18 -19 -18zM436 1024h488q16 0 16 -16v-82q0 -18 -16 -19h-123q39 -66 39 -157v-162q0 -135 -86 -210t-224 -75h-71q-82 0 -82 -74t82 -73h145q141 0 219 -70 t78 -199v-133q0 -129 -87 -197.5t-243 -68.5h-186q-156 0 -243 76t-87 219v92q0 16 17 16h110q16 0 17 -16v-92q0 -86 45 -133t129 -47h215q170 0 170 164v120q0 72 -41 113t-121 41h-162q-94 0 -146 44t-52 122t49 127q-147 70 -148 256v160q0 131 78 202.5t221 71.5z M696 602v135q0 162 -133 172h-127q-156 0 -155 -172v-135q0 -184 165 -184h84q78 0 122 48t44 136z" glyph-name="gcommaaccent.aalt" horiz-adv-x="1015"/><glyph d="M571 1274h-110q-16 0 -17 16v152q0 18 17 18h110q16 0 17 -18v-152q-1 -16 -17 -16zM436 1024h488q16 0 16 -16v-82q0 -18 -16 -19h-123q39 -66 39 -157v-162q0 -135 -86 -210t-224 -75h-71q-82 0 -82 -74t82 -73h145q141 0 219 -70t78 -199v-133q0 -129 -87 -197.5 t-243 -68.5h-186q-156 0 -243 76t-87 219v92q0 16 17 16h110q16 0 17 -16v-92q0 -86 45 -133t129 -47h215q170 0 170 164v120q0 72 -41 113t-121 41h-162q-94 0 -146 44t-52 122t49 127q-147 70 -148 256v160q0 131 78 202.5t221 71.5zM696 602v135q0 162 -133 172h-127 q-156 0 -155 -172v-135q0 -184 165 -184h84q78 0 122 48t44 136z" glyph-name="gdotaccent.aalt" horiz-adv-x="1015"/><glyph d="M180 1536h109q16 0 16 -16v-152q0 -16 -16 -16h-109q-18 0 -18 16v152q0 16 18 16zM180 1024h109q16 0 16 -16v-992q0 -16 -16 -16h-109q-18 0 -18 16v992q0 16 18 16z" glyph-name="i.aalt" horiz-adv-x="468"/><glyph d="M180 1024h109q16 0 16 -16v-992q0 -16 -16 -16h-109q-18 0 -18 16v992q0 16 18 16z" glyph-name="dotlessi.aalt" horiz-adv-x="468"/><glyph d="M211 1358l223 194q10 10 15 2l67 -77q6 -10 2 -15l-244 -170q-12 -10 -18 -2l-47 49q-6 11 2 19zM180 1024h109q16 0 16 -16v-992q0 -16 -16 -16h-109q-18 0 -18 16v992q0 16 18 16z" glyph-name="iacute.aalt" horiz-adv-x="468"/><glyph d="M258 1266h-33q-8 0 -14 6l-203 172q-8 12 0 24l53 56q12 10 25 -2l147 -129h15l153 127q14 12 23 2l53 -58q10 -14 0 -22l-205 -170q-6 -6 -14 -6zM180 1024h109q16 0 16 -16v-992q0 -16 -16 -16h-109q-18 0 -18 16v992q0 16 18 16z" glyph-name="uni01D0.aalt" horiz-adv-x="468"/><glyph d="M219 1542h33q8 0 14 -6l205 -180q8 -12 0 -25l-53 -55q-14 -10 -25 0l-149 143h-15l-151 -139q-12 -16 -23 -2l-53 57q-12 12 0 23l203 178q6 6 14 6zM180 1024h109q16 0 16 -16v-992q0 -16 -16 -16h-109q-18 0 -18 16v992q0 16 18 16z" glyph-name="icircumflex.aalt" horiz-adv-x="468"/><glyph d="M14 1460h111q16 0 16 -18v-152q0 -16 -16 -16h-111q-16 0 -16 16v152q0 18 16 18zM344 1460h111q16 0 16 -18v-152q0 -16 -16 -16h-111q-16 0 -16 16v152q0 18 16 18zM180 1024h109q16 0 16 -16v-992q0 -16 -16 -16h-109q-18 0 -18 16v992q0 16 18 16z" glyph-name="idieresis.aalt" horiz-adv-x="468"/><glyph d="M-72 1468l68 78q4 8 14 -2l223 -194q8 -8 3 -19l-48 -49q-6 -8 -18 2l-244 170q-4 4 2 14zM180 1024h109q16 0 16 -16v-992q0 -16 -16 -16h-109q-18 0 -18 16v992q0 16 18 16z" glyph-name="igrave.aalt" horiz-adv-x="468"/><glyph d="M37 1436h416q16 0 16 -17v-82q0 -16 -16 -16h-416q-16 0 -17 16v82q1 17 17 17zM180 1024h109q16 0 16 -16v-992q0 -16 -16 -16h-109q-18 0 -18 16v992q0 16 18 16z" glyph-name="imacron.aalt" horiz-adv-x="468"/><glyph d="M291 1274h-111q-16 0 -16 16v152q0 18 16 18h111q16 0 16 -18v-152q0 -16 -16 -16zM305 1008v-992q0 -16 -16 -16q-59 0 -92 -39t-33 -110t40 -108.5t115 -37.5q16 0 17 -18v-80q0 -16 -17 -17q-135 4 -208.5 67.5t-73.5 176.5q0 141 125 201v973q0 16 18 16h109 q16 0 16 -16z" glyph-name="iogonek.aalt" horiz-adv-x="468"/><glyph d="M129 1470q47 0 105.5 -27.5t97.5 -27.5t71 43q14 18 27 2l33 -37q10 -12 4 -26q-61 -88 -117 -88t-117 27.5t-102 27.5t-74 -41q-12 -16 -24 -4l-35 39q-14 12 -6 22q53 90 137 90zM180 1024h109q16 0 16 -16v-992q0 -16 -16 -16h-109q-18 0 -18 16v992q0 16 18 16z" glyph-name="itilde.aalt" horiz-adv-x="468"/><glyph d="M180 1536h109q16 0 16 -16v-1504q0 -16 -16 -16h-109q-18 0 -18 16v1504q0 16 18 16z" glyph-name="l.aalt" horiz-adv-x="468"/><glyph d="M209 1870l223 194q10 10 14 2l68 -77q6 -10 2 -15l-244 -170q-12 -10 -18 -2l-47 49q-6 11 2 19zM180 1536h109q16 0 16 -16v-1504q0 -16 -16 -16h-109q-18 0 -18 16v1504q0 16 18 16z" glyph-name="lacute.aalt" horiz-adv-x="468"/><glyph d="M502 1540h114q18 0 19 -18v-136l-51 -264q-4 -16 -17 -16h-67q-18 0 -17 16l52 264h-35q-16 0 -17 19v117q1 18 19 18zM180 1536h109q16 0 16 -16v-1504q0 -16 -16 -16h-109q-18 0 -18 16v1504q0 16 18 16z" glyph-name="lcaron.aalt" horiz-adv-x="634"/><glyph d="M289 0h-109q-18 0 -18 16v1504q0 16 18 16h109q16 0 16 -16v-1504q0 -16 -16 -16zM176 -168h117q18 0 18 -18v-136l-53 -266q-4 -16 -16 -16h-68q-20 0 -16 16l53 266h-35q-18 0 -18 19v117q0 18 18 18z" glyph-name="lcommaaccent.aalt" horiz-adv-x="468"/><glyph d="M180 1536h109q16 0 16 -16v-1504q0 -16 -16 -16h-109q-18 0 -18 16v1504q0 16 18 16zM463 805h110q20 0 21 -21v-112q0 -20 -21 -21h-110q-20 0 -21 21v112q1 21 21 21z" glyph-name="ldot.aalt" horiz-adv-x="659"/><glyph d="M594 942q0 -12 -10 -20l-187 -129v-777q0 -16 -16 -16h-111q-16 0 -16 16v678l-168 -114q-20 -10 -20 12v106q0 12 10 19l178 123v680q0 16 16 16h111q16 0 16 -16v-580l176 121q20 10 21 -10v-109z" glyph-name="lslash.aalt" horiz-adv-x="659"/><glyph d="M330 276q0 -161 143 -161h117q16 0 16 -17v-82q0 -16 -16 -16h-182q-106 0 -164 64.5t-58 181.5v663h-114q-18 0 -19 17v82q0 16 19 16h114v248q0 20 19 14l110 -41q14 -8 15 -20v-201h184q18 0 18 -16v-82q0 -16 -18 -17h-184v-633z" glyph-name="t.aalt" horiz-adv-x="653"/><glyph d="M330 276q0 -161 143 -161h117q16 0 16 -17v-82q0 -16 -16 -16h-182q-106 0 -164 64.5t-58 181.5v284h-120q-18 0 -19 17v82q0 16 19 16h120v264h-114q-18 0 -19 17v82q0 16 19 16h114v248q0 20 19 14l110 -41q14 -8 15 -20v-201h184q18 0 18 -16v-82q0 -16 -18 -17h-184 v-264h202q18 0 19 -16v-82q0 -16 -19 -17h-202v-254z" glyph-name="tbar.aalt" horiz-adv-x="653"/><glyph d="M530 1616h117q18 0 19 -19v-135l-54 -266q-4 -16 -16 -16h-68q-20 0 -16 16l53 266h-35q-18 0 -18 19v116q0 19 18 19zM330 276q0 -161 143 -161h117q16 0 16 -17v-82q0 -16 -16 -16h-182q-106 0 -164 64.5t-58 181.5v663h-114q-18 0 -19 17v82q0 16 19 16h114v248 q0 20 19 14l110 -41q14 -8 15 -20v-201h184q18 0 18 -16v-82q0 -16 -18 -17h-184v-633z" glyph-name="tcaron.aalt" horiz-adv-x="653"/><glyph d="M330 276q0 -161 143 -161h117q16 0 16 -17v-82q0 -16 -16 -16h-182q-106 0 -164 64.5t-58 181.5v663h-114q-18 0 -19 17v82q0 16 19 16h114v248q0 20 19 14l110 -41q14 -8 15 -20v-201h184q18 0 18 -16v-82q0 -16 -18 -17h-184v-633zM375 -90h55q90 -2 140.5 -46 t50.5 -129t-53.5 -134.5t-140.5 -49.5t-135 43.5t-50 120.5q0 10 10 11h82q10 0 10 -11q6 -68 78 -67q37 0 58.5 24.5t21.5 65.5t-19.5 63.5t-52.5 22.5h-55q-10 0 -10 10v66q0 10 10 10z" glyph-name="tcommaaccent.ss01" horiz-adv-x="653"/><glyph d="M330 276q0 -161 143 -161h117q16 0 16 -17v-82q0 -16 -16 -16h-182q-106 0 -164 64.5t-58 181.5v663h-114q-18 0 -19 17v82q0 16 19 16h114v248q0 20 19 14l110 -41q14 -8 15 -20v-201h184q18 0 18 -16v-82q0 -16 -18 -17h-184v-633zM311 -168h117q18 0 18 -18v-136 l-53 -266q-4 -16 -16 -16h-68q-20 0 -16 16l53 266h-35q-18 0 -18 19v117q0 18 18 18z" glyph-name="uni021B.aalt" horiz-adv-x="653"/><glyph d="M315 1468h-110q-16 0 -17 17v151q0 18 17 19h110q16 0 17 -19v-151q-1 -17 -17 -17zM330 276q0 -161 143 -161h117q16 0 16 -17v-82q0 -16 -16 -16h-182q-106 0 -164 64.5t-58 181.5v663h-114q-18 0 -19 17v82q0 16 19 16h114v248q0 20 19 14l110 -41q14 -8 15 -20v-201 h184q18 0 18 -16v-82q0 -16 -18 -17h-184v-633z" glyph-name="uni1E6B.aalt" horiz-adv-x="653"/><glyph d="M737 1024h111q16 0 16 -16v-1213q0 -145 -74.5 -226t-209.5 -81h-336q-16 0 -17 16v82q0 16 17 17h295q182 0 182 192v205h-238q-158 0 -244.5 81t-86.5 226v701q0 16 18 16h109q16 0 16 -16v-701q0 -90 50 -141t138 -51h238v893q0 16 16 16z" glyph-name="y.aalt"/><glyph d="M537 1288l-48 49q-6 10 3 19l223 194q10 10 14 2l68 -77q6 -10 2 -15l-244 -170q-12 -10 -18 -2zM737 1024h111q16 0 16 -16v-1213q0 -145 -74.5 -226t-209.5 -81h-336q-16 0 -17 16v82q0 16 17 17h295q182 0 182 192v205h-238q-158 0 -244.5 81t-86.5 226v701 q0 16 18 16h109q16 0 16 -16v-701q0 -90 50 -141t138 -51h238v893q0 16 16 16z" glyph-name="yacute.aalt"/><glyph d="M500 1540h32q8 0 15 -6l205 -180q10 -12 0 -25l-54 -55q-14 -10 -24 0l-150 143h-14l-152 -139q-12 -16 -22 -2l-53 57q-10 12 0 23l202 178q6 6 15 6zM737 1024h111q16 0 16 -16v-1213q0 -145 -74.5 -226t-209.5 -81h-336q-16 0 -17 16v82q0 16 17 17h295q182 0 182 192 v205h-238q-158 0 -244.5 81t-86.5 226v701q0 16 18 16h109q16 0 16 -16v-701q0 -90 50 -141t138 -51h238v893q0 16 16 16z" glyph-name="ycircumflex.aalt"/><glyph d="M408 1272h-111q-16 0 -16 16v152q0 18 16 18h111q16 0 16 -18v-152q0 -16 -16 -16zM737 1272h-110q-16 0 -17 16v152q0 18 17 18h110q16 0 17 -18v-152q-1 -16 -17 -16zM737 1024h111q16 0 16 -16v-1213q0 -145 -74.5 -226t-209.5 -81h-336q-16 0 -17 16v82q0 16 17 17 h295q182 0 182 192v205h-238q-158 0 -244.5 81t-86.5 226v701q0 16 18 16h109q16 0 16 -16v-701q0 -90 50 -141t138 -51h238v893q0 16 16 16z" glyph-name="ydieresis.aalt"/><glyph d="M453 1282l-244 170q-4 4 2 14l68 78q4 8 14 -2l223 -194q8 -8 2 -19l-47 -49q-6 -8 -18 2zM737 1024h111q16 0 16 -16v-1213q0 -145 -74.5 -226t-209.5 -81h-336q-16 0 -17 16v82q0 16 17 17h295q182 0 182 192v205h-238q-158 0 -244.5 81t-86.5 226v701q0 16 18 16h109 q16 0 16 -16v-701q0 -90 50 -141t138 -51h238v893q0 16 16 16z" glyph-name="ygrave.aalt"/><glyph d="M412 1468q47 0 105 -27.5t97 -27.5t72 43q14 18 27 2l32 -37q10 -12 5 -26q-60 -88 -116 -88t-117.5 27.5t-102.5 27.5t-74 -41q-13 -16 -25 -4l-34 39q-14 12 -7 22q53 90 138 90zM737 1024h111q16 0 16 -16v-1213q0 -145 -74.5 -226t-209.5 -81h-336q-16 0 -17 16v82 q0 16 17 17h295q182 0 182 192v205h-238q-158 0 -244.5 81t-86.5 226v701q0 16 18 16h109q16 0 16 -16v-701q0 -90 50 -141t138 -51h238v893q0 16 16 16z" glyph-name="uni1EF9.aalt"/><glyph d="M860 1024h254q145 0 225 -81t80 -226v-410q0 -145 -74.5 -226t-209.5 -81h-402q-16 0 -16 16v1405h-281q-63 0 -97 -39t-34 -110v-248l217 -4q16 0 17 -16v-74q0 -16 -17 -17l-217 -6v-891q0 -16 -16 -16h-109q-18 0 -18 16v1250q0 129 69.5 199.5t196.5 70.5h414 q18 0 18 -16v-496zM1276 307v410q0 193 -191 192h-225v-794h234q182 -1 182 192z" glyph-name="f_b.dlig" horiz-adv-x="1564"/><glyph d="M1444 1024h254q145 0 225 -81t80 -226v-410q0 -145 -75 -226t-210 -81h-401q-16 0 -17 16v1405h-280q-129 0 -129 -149v-248h215q16 0 16 -16v-80q0 -18 -16 -19h-215v-893q0 -16 -19 -16h-108q-16 0 -16 16v893h-443v-893q0 -16 -16 -16h-109q-18 0 -18 16v1250 q0 129 69.5 199.5t196.5 70.5h172q16 0 16 -14v-84q0 -16 -16 -17h-164q-63 0 -97 -39t-34 -110v-248h443v242q0 129 69.5 199.5t196.5 70.5h413q16 0 17 -16v-496zM1860 307v410q0 193 -191 192h-225v-794h233q183 -1 183 192z" glyph-name="f_f_b.dlig" horiz-adv-x="2148"/><glyph d="M1444 1024h254q143 0 222 -81t79 -226v-701q0 -16 -17 -16h-110q-16 0 -17 16v701q0 193 -184 192h-227v-893q0 -16 -17 -16h-110q-16 0 -17 16v1405h-280q-129 0 -129 -149v-248h215q16 0 16 -16v-84q0 -16 -16 -17h-215v-891q0 -16 -19 -16h-108q-16 0 -16 16v891h-443 v-891q0 -16 -16 -16h-109q-18 0 -18 16v1250q0 129 69.5 199.5t196.5 70.5h145q16 0 17 -14v-84q0 -16 -17 -17h-137q-63 0 -97 -39t-34 -110v-248h443v242q0 129 69.5 199.5t196.5 70.5h413q16 0 17 -16v-496z" glyph-name="f_f_h.dlig" horiz-adv-x="2150"/><glyph d="M1014 1536h430q16 0 16 -14v-84q0 -16 -16 -17h-424q-129 0 -129 -149v-248h215q16 0 16 -16v-84q0 -16 -16 -17h-215v-891q0 -16 -19 -16h-108q-16 0 -16 16v891h-443v-891q0 -16 -16 -16h-109q-18 0 -18 16v1250q0 129 69.5 199.5t196.5 70.5h145q16 0 17 -14v-84 q0 -16 -17 -17h-137q-63 0 -97 -39t-34 -110v-248h443v242q0 129 69.5 199.5t196.5 70.5zM1333 1024h111q16 0 16 -16v-1262q0 -123 -69.5 -190.5t-196.5 -67.5h-135q-18 0 -19 16v82q0 16 19 17h135q59 0 91 36.5t32 106.5v1262q0 16 16 16z" glyph-name="f_f_j.dlig" horiz-adv-x="1622"/><glyph d="M2034 0h-131q-14 0 -21 12l-328 520l-110 -110v-406q0 -16 -17 -16h-110q-16 0 -17 16v1405h-280q-129 0 -129 -149v-248h215q16 0 16 -16v-84q0 -16 -16 -17h-215v-891q0 -16 -19 -16h-108q-16 0 -16 16v891h-443v-891q0 -16 -16 -16h-109q-18 0 -18 16v1250 q0 129 69.5 199.5t196.5 70.5h145q16 0 17 -14v-84q0 -16 -17 -17h-137q-63 0 -97 -39t-34 -110v-248h443v242q0 129 69.5 199.5t196.5 70.5h413q16 0 17 -16v-926l405 418q12 12 23 12h143q12 0 14.5 -6t-6.5 -14l-372 -373l393 -611q10 -20 -10 -20z" glyph-name="f_f_k.dlig" horiz-adv-x="2123"/><glyph d="M1272 717q0 192 -185 192h-227v-893q0 -16 -18 -16h-109q-16 0 -16 16v1405h-281q-63 0 -97 -39t-34 -110v-248l217 -4q16 0 17 -16v-74q0 -16 -17 -17l-217 -6v-891q0 -16 -16 -16h-109q-18 0 -18 16v1250q0 129 69.5 199.5t196.5 70.5h414q18 0 18 -16v-496h254 q143 0 222 -81t79 -226v-701q0 -16 -16 -16h-111q-16 0 -16 16v701z" glyph-name="f_h.dlig" horiz-adv-x="1566"/><glyph d="M428 1536h432q16 0 17 -14v-84q0 -16 -17 -17h-424q-63 0 -97 -39t-34 -110v-248l217 -4q16 0 17 -16v-74q0 -16 -17 -17l-217 -6v-891q0 -16 -16 -16h-109q-18 0 -18 16v1250q0 129 69.5 199.5t196.5 70.5zM750 1024h110q16 0 17 -16v-1262q0 -123 -70 -190.5 t-197 -67.5h-137q-16 0 -16 16v82q0 16 16 17h137q59 0 91 36.5t32 106.5v1262q1 16 17 16z" glyph-name="f_j.dlig" horiz-adv-x="1038"/><glyph d="M1450 0h-131q-14 0 -21 12l-327 520l-111 -110v-406q0 -16 -18 -16h-109q-16 0 -16 16v1405h-281q-63 0 -97 -39t-34 -110v-248l217 -4q16 0 17 -16v-74q0 -16 -17 -17l-217 -6v-891q0 -16 -16 -16h-109q-18 0 -18 16v1250q0 129 69.5 199.5t196.5 70.5h414q18 0 18 -16 v-926l406 418q12 12 22 12h144q25 0 8 -20l-373 -373l393 -611q10 -20 -10 -20z" glyph-name="f_k.dlig" horiz-adv-x="1540"/><glyph d="M264 369h107q82 0 126 -43t44 -121v-391q0 -78 -44 -120t-126 -42h-107q-82 0 -126 42t-44 120v391q0 78 44 121t126 43zM436 -186v391q0 82 -78 82h-86q-76 0 -75 -82v-391q0 -78 75 -78h90q74 0 74 78z" glyph-name="zero.inferior" horiz-adv-x="634"/><glyph d="M348 -264h137q10 0 11 -10v-64q0 -10 -11 -10h-399q-10 0 -10 10v64q0 10 10 10h158v551h-154q-10 0 -10 8v63q0 10 10 11h246q12 0 12 -11v-622z" glyph-name="one.inferior" horiz-adv-x="591"/><glyph d="M319 371q94 0 147.5 -39t53.5 -111v-59q0 -70 -53 -131.5t-170 -125t-117 -138.5v-31h332q12 0 12 -10v-64q0 -10 -12 -10h-426q-10 0 -10 10v82q0 61 34.5 110.5t85 82t135.5 87t85 138.5v47q0 78 -97 78h-198q-10 0 -10 10v61q0 11 10 13h198z" glyph-name="two.inferior" horiz-adv-x="618"/><glyph d="M494 221v-61q0 -72 -52 -113q72 -49 72 -147v-82q0 -78 -51 -122t-146 -44h-231q-10 0 -10 10v64q0 10 10 10h217q106 0 107 90v74q0 102 -123 102h-127q-10 0 -10 12v62q0 10 10 10h139q90 0 90 76v47q0 78 -94 78h-178q-10 0 -11 8v63q0 10 11 11h178q94 0 146.5 -38 t52.5 -110z" glyph-name="three.inferior" horiz-adv-x="610"/><glyph d="M502 -92h63q10 0 10 -10v-64q0 -10 -10 -10h-63v-162q0 -10 -8 -10h-84q-10 0 -11 10v162h-313q-10 0 -10 12v82q0 4 4 12l217 430q6 8 14 9h80q16 0 8 -13l-219 -430v-18h219v219q0 10 11 10h84q8 0 8 -10v-219z" glyph-name="four.inferior" horiz-adv-x="649"/><glyph d="M115 369h358q12 0 12 -11v-71q0 -8 -12 -8h-264v-195h121q96 0 150.5 -44t54.5 -122v-102q0 -78 -54.5 -121t-150.5 -43h-226q-12 0 -12 10v64q0 10 12 10h226q98 0 98 90v82q0 92 -98 92h-215q-10 0 -11 10v348q1 11 11 11z" glyph-name="five.inferior" horiz-adv-x="630"/><glyph d="M201 57h178q164 0 164 -141v-106q0 -76 -45 -117t-129 -41h-97q-84 0 -130 41t-46 117v405q0 74 47 114t136 40h163q12 0 13 -11v-63q0 -8 -13 -8h-163q-78 0 -78 -72v-158zM438 -190v92q0 72 -71 71h-166v-163q0 -74 71 -74h97q69 0 69 74z" glyph-name="six.inferior" horiz-adv-x="638"/><glyph d="M84 369h387q12 0 12 -11v-96q0 -6 -4 -14l-284 -588q-2 -8 -15 -8h-82q-12 0 -6 12l287 586v37h-295q-12 0 -12 8v63q0 11 12 11z" glyph-name="seven.inferior" horiz-adv-x="555"/><glyph d="M539 227v-49q0 -72 -58 -149q86 -47 86 -168v-45q0 -74 -49 -119t-129 -45h-102q-86 0 -138.5 45t-52.5 121v57q0 98 82 176q-39 49 -39 127v39q0 70 48.5 111t127.5 41h39q84 0 134.5 -39.5t50.5 -102.5zM242 209v-41q0 -56 25.5 -68t31.5 -16t22.5 -8t23.5 -6 t26.5 -6.5t25.5 -6.5q37 57 37 111v41q0 35 -22.5 56.5t-57.5 21.5h-32q-35 0 -57.5 -22.5t-22.5 -55.5zM465 -176v49q0 45 -31 65.5t-95.5 37t-92.5 28.5q-45 -61 -45 -129v-49q0 -41 24.5 -65.5t67.5 -24.5h84q41 0 64.5 23.5t23.5 64.5z" glyph-name="eight.inferior" horiz-adv-x="663"/><glyph d="M272 369h82q86 0 133.5 -40t47.5 -112v-412q0 -72 -47.5 -112.5t-133.5 -40.5h-166q-10 0 -10 10v64q0 10 10 10h166q76 0 76 84v143h-164q-84 0 -130 37t-46 104v113q0 72 48 112t134 40zM266 47h164v166q0 74 -76 74h-82q-37 0 -58 -19.5t-21 -54.5v-94q-1 -72 73 -72z " glyph-name="nine.inferior" horiz-adv-x="630"/><glyph d="M264 717h107q82 0 126 -43t44 -121v-391q0 -78 -44 -120t-126 -42h-107q-82 0 -126 42t-44 120v391q0 78 44 121t126 43zM436 162v391q0 82 -78 82h-86q-76 0 -75 -82v-391q0 -78 75 -78h90q74 0 74 78z" glyph-name="zero.dnom" horiz-adv-x="634"/><glyph d="M348 84h137q10 0 11 -10v-64q0 -10 -11 -10h-399q-10 0 -10 10v64q0 10 10 10h158v551h-154q-10 0 -10 8v64q0 10 10 10h246q12 0 12 -10v-623z" glyph-name="one.dnom" horiz-adv-x="591"/><glyph d="M319 719q94 0 147.5 -39t53.5 -111v-59q0 -70 -53 -131.5t-170 -125t-117 -138.5v-31h332q12 0 12 -10v-64q0 -10 -12 -10h-426q-10 0 -10 10v82q0 61 34.5 110.5t85 82t135.5 87t85 138.5v47q0 78 -97 78h-198q-10 0 -10 10v62q0 10 10 12h198z" glyph-name="two.dnom" horiz-adv-x="618"/><glyph d="M494 569v-61q0 -72 -52 -113q72 -49 72 -147v-82q0 -78 -51 -122t-146 -44h-231q-10 0 -10 10v64q0 10 10 10h217q106 0 107 90v74q0 102 -123 102h-127q-10 0 -10 12v62q0 10 10 10h139q90 0 90 76v47q0 78 -94 78h-178q-10 0 -11 8v64q0 10 11 10h178q94 0 146.5 -38 t52.5 -110z" glyph-name="three.dnom" horiz-adv-x="610"/><glyph d="M502 256h63q10 0 10 -10v-64q0 -10 -10 -10h-63v-162q0 -10 -8 -10h-84q-10 0 -11 10v162h-313q-10 0 -10 12v82q0 4 4 13l217 430q6 8 14 8h80q16 0 8 -12l-219 -431v-18h219v219q0 10 11 10h84q8 0 8 -10v-219z" glyph-name="four.dnom" horiz-adv-x="649"/><glyph d="M115 717h358q12 0 12 -10v-72q0 -8 -12 -8h-264v-195h121q96 0 150.5 -44t54.5 -122v-102q0 -78 -54.5 -121t-150.5 -43h-226q-12 0 -12 10v64q0 10 12 10h226q98 0 98 90v82q0 92 -98 92h-215q-10 0 -11 10v349q1 10 11 10z" glyph-name="five.dnom" horiz-adv-x="630"/><glyph d="M201 406h178q164 0 164 -142v-106q0 -76 -45 -117t-129 -41h-97q-84 0 -130 41t-46 117v405q0 74 47 114t136 40h163q12 0 13 -10v-64q0 -8 -13 -8h-163q-78 0 -78 -72v-157zM438 158v92q0 72 -71 72h-166v-164q0 -74 71 -74h97q69 0 69 74z" glyph-name="six.dnom" horiz-adv-x="638"/><glyph d="M84 717h387q12 0 12 -10v-97q0 -6 -4 -14l-284 -588q-2 -8 -15 -8h-82q-12 0 -6 12l287 586v37h-295q-12 0 -12 8v64q0 10 12 10z" glyph-name="seven.dnom" horiz-adv-x="555"/><glyph d="M539 575v-49q0 -72 -58 -149q86 -47 86 -168v-45q0 -74 -49 -119t-129 -45h-102q-86 0 -138.5 45t-52.5 121v57q0 98 82 176q-39 49 -39 127v39q0 70 48.5 111t127.5 41h39q84 0 134.5 -39.5t50.5 -102.5zM242 557v-41q0 -53 25.5 -66.5t31.5 -17.5t22.5 -8t23.5 -6 t26.5 -6t25.5 -6q37 57 37 110v41q0 35 -22.5 56.5t-57.5 21.5h-32q-35 0 -57.5 -22.5t-22.5 -55.5zM465 172v49q0 45 -31 65.5t-95.5 37t-92.5 28.5q-45 -61 -45 -129v-49q0 -41 24.5 -65.5t67.5 -24.5h84q41 0 64.5 23.5t23.5 64.5z" glyph-name="eight.dnom" horiz-adv-x="663"/><glyph d="M272 717h82q86 0 133.5 -40t47.5 -112v-411q0 -72 -47.5 -113t-133.5 -41h-166q-10 0 -10 10v64q0 10 10 10h166q76 0 76 84v143h-164q-84 0 -130 37t-46 105v112q0 72 48 112t134 40zM266 395h164v166q0 74 -76 74h-82q-37 0 -58 -19.5t-21 -54.5v-94q-1 -72 73 -72z " glyph-name="nine.dnom" horiz-adv-x="630"/><glyph d="M264 1434h107q82 0 126 -43t44 -121v-391q0 -78 -44 -120t-126 -42h-107q-82 0 -126 42t-44 120v391q0 78 44 121t126 43zM436 879v391q0 82 -78 82h-86q-76 0 -75 -82v-391q0 -78 75 -78h90q74 0 74 78z" glyph-name="zero.numr" horiz-adv-x="634"/><glyph d="M348 801h137q10 0 11 -10v-64q0 -10 -11 -10h-399q-10 0 -10 10v64q0 10 10 10h158v551h-154q-10 0 -10 8v63q0 10 10 11h246q12 0 12 -11v-622z" glyph-name="one.numr" horiz-adv-x="591"/><glyph d="M319 1436q94 0 147.5 -39t53.5 -111v-59q0 -70 -53 -131.5t-170 -125t-117 -139.5v-30h332q12 0 12 -10v-64q0 -10 -12 -10h-426q-10 0 -10 10v82q0 61 34.5 110.5t85 82t135.5 87t85 138.5v47q0 78 -97 78h-198q-10 0 -10 10v61q0 11 10 13h198z" glyph-name="two.numr" horiz-adv-x="618"/><glyph d="M494 1286v-61q0 -72 -52 -113q72 -49 72 -147v-82q0 -78 -51 -122t-146 -44h-231q-10 0 -10 10v64q0 10 10 10h217q106 0 107 90v74q0 102 -123 102h-127q-10 0 -10 12v62q0 10 10 10h139q90 0 90 76v47q0 78 -94 78h-178q-10 0 -11 8v63q0 10 11 11h178q94 0 146.5 -38 t52.5 -110z" glyph-name="three.numr" horiz-adv-x="610"/><glyph d="M502 973h63q10 0 10 -10v-64q0 -10 -10 -10h-63v-162q0 -10 -8 -10h-84q-10 0 -11 10v162h-313q-10 0 -10 12v82q0 4 4 12l217 430q6 8 14 9h80q16 0 8 -13l-219 -430v-18h219v219q0 10 11 10h84q8 0 8 -10v-219z" glyph-name="four.numr" horiz-adv-x="649"/><glyph d="M115 1434h358q12 0 12 -11v-71q0 -8 -12 -9h-264v-194h121q96 0 150.5 -44t54.5 -122v-102q0 -78 -54.5 -121t-150.5 -43h-226q-12 0 -12 10v64q0 10 12 10h226q98 0 98 90v82q0 92 -98 92h-215q-10 0 -11 10v348q1 11 11 11z" glyph-name="five.numr" horiz-adv-x="630"/><glyph d="M201 1122h178q164 0 164 -141v-107q0 -76 -45 -116.5t-129 -40.5h-97q-84 0 -130 41t-46 116v406q0 74 47 114t136 40h163q12 0 13 -11v-63q0 -8 -13 -8h-163q-78 0 -78 -72v-158zM438 874v93q0 72 -71 71h-166v-164q0 -74 71 -73h97q69 -1 69 73z" glyph-name="six.numr" horiz-adv-x="638"/><glyph d="M84 1434h387q12 0 12 -11v-96q0 -6 -4 -14l-284 -588q-2 -8 -15 -8h-82q-12 0 -6 12l287 586v37h-295q-12 0 -12 8v63q0 11 12 11z" glyph-name="seven.numr" horiz-adv-x="555"/><glyph d="M539 1292v-49q0 -72 -58 -149q86 -47 86 -168v-45q0 -74 -49 -119t-129 -45h-102q-86 0 -138.5 45t-52.5 121v57q0 98 82 176q-39 49 -39 127v39q0 70 48.5 111t127.5 41h39q84 0 134.5 -39.5t50.5 -102.5zM242 1274v-41q0 -56 25.5 -68t31.5 -16t22.5 -8t23.5 -6 t26.5 -6.5t25.5 -6.5q37 57 37 111v41q0 35 -22.5 56.5t-57.5 21.5h-32q-35 0 -57.5 -22.5t-22.5 -55.5zM465 889v49q0 45 -31 65.5t-95.5 37t-92.5 28.5q-45 -61 -45 -129v-49q0 -41 24.5 -65.5t67.5 -24.5h84q41 0 64.5 23.5t23.5 64.5z" glyph-name="eight.numr" horiz-adv-x="663"/><glyph d="M272 1434h82q86 0 133.5 -40t47.5 -112v-412q0 -72 -47.5 -112.5t-133.5 -40.5h-166q-10 0 -10 10v64q0 10 10 10h166q76 0 76 84v143h-164q-84 0 -130 37t-46 104v113q0 72 48 112t134 40zM266 1112h164v166q0 74 -76 74h-82q-37 0 -58 -19.5t-21 -54.5v-94 q-1 -72 73 -72z" glyph-name="nine.numr" horiz-adv-x="630"/></font>
</defs>
</svg>
